<svg width="379" height="250" viewBox="0 0 379 250" fill="none" xmlns="http://www.w3.org/2000/svg">
<g opacity="0.3" clip-path="url(#clip0_77_19675)">
<path d="M361.807 141.794C356.695 124.14 338.476 110.069 309.116 101.089L309.254 95.3498L280.232 102.604L308.712 118.775L308.899 110.566C332.979 118.286 348.332 129.897 352.236 143.379C356.949 159.641 344.873 178.682 319.106 195.631C291.835 213.568 252.572 227.464 208.566 234.749C164.558 242.038 121.214 241.826 86.5149 234.144C53.7445 226.891 32.2502 213.401 27.5388 197.145C21.4985 176.289 42.0905 152.15 82.623 132.564L77.4017 124.157C32.8855 145.654 10.6659 173.536 17.9716 198.732C21.343 210.397 30.5869 220.558 44.8755 228.671C55.5953 234.758 69.1509 239.687 85.1969 243.24C121.195 251.202 165.957 251.465 211.242 243.969C256.519 236.475 297.038 222.09 325.337 203.477C354.77 184.114 367.723 162.21 361.807 141.794Z" fill="#51B5DC"/>
</g>
<g opacity="0.5" clip-path="url(#clip1_77_19675)">
<path d="M166.812 6.05447C166.952 5.63815 167 5.08183 166.812 5.12973C166.351 5.26973 165.795 6.6108 166.119 6.79869C166.304 6.93501 166.628 6.6108 166.812 6.05447Z" fill="#51B5DC" fill-opacity="0.75"/>
<path d="M118.074 46.0617C118.354 45.7817 118.586 45.5054 118.771 45.1811C119.235 44.4848 119.744 42.9559 118.586 42.908C116.825 43.1401 115.292 45.9696 116.176 46.6622C116.36 46.8501 116.917 47.0822 118.074 46.0617Z" fill="#51B5DC" fill-opacity="0.75"/>
<path d="M150.257 220.5C148.916 220.128 148.035 219.896 147.662 219.852H147.57C147.755 220.036 150.954 220.824 151.278 220.824C150.954 220.684 150.585 220.592 150.257 220.5Z" fill="#51B5DC" fill-opacity="0.75"/>
<path d="M103.609 60.154C104.257 60.6182 105.463 59.8298 106.159 58.5329C106.668 57.5566 106.9 56.0755 105.787 55.9834C103.885 56.2118 102.54 59.4134 103.609 60.154Z" fill="#51B5DC" fill-opacity="0.75"/>
<path d="M168.574 3.22862C168.622 3.50494 168.67 3.64494 168.762 3.64494C168.806 3.64494 168.902 3.41283 168.854 3.04441C168.806 2.8123 168.762 2.58019 168.67 2.34808C168.574 2.6244 168.53 2.90441 168.574 3.22862Z" fill="#51B5DC" fill-opacity="0.75"/>
<mask id="mask0_77_19675" style="mask-type:luminance" maskUnits="userSpaceOnUse" x="175" y="0" width="7" height="2">
<path d="M175.569 0.679138H181.23V1.15809H175.569V0.679138Z" fill="white"/>
</mask>
<g mask="url(#mask0_77_19675)">
<path d="M176.133 1.05126C176.181 1.05126 180.817 1.00336 181.005 0.955466C180.261 0.911255 179.52 0.911255 178.731 0.911255C177.478 0.955466 176.273 1.05126 176.133 1.05126Z" fill="#51B5DC" fill-opacity="0.75"/>
</g>
<mask id="mask1_77_19675" style="mask-type:luminance" maskUnits="userSpaceOnUse" x="185" y="0" width="5" height="2">
<path d="M185.005 0.679138H189.722V1.15809H185.005V0.679138Z" fill="white"/>
</mask>
<g mask="url(#mask1_77_19675)">
<path d="M189.63 1.00336C188.885 0.863361 188.145 0.819151 187.404 0.771256C186.663 0.72336 185.919 0.67915 185.178 0.72336H185.222C185.55 0.771256 189.35 1.00336 189.63 1.00336Z" fill="#51B5DC" fill-opacity="0.75"/>
</g>
<path d="M94.7518 73.642C95.2604 72.3931 95.1682 71.0004 94.2395 70.8604C92.5257 70.8162 91.2726 74.2462 92.2456 75.2189C92.8942 75.9152 94.1473 75.1268 94.7518 73.642Z" fill="#51B5DC" fill-opacity="0.75"/>
<mask id="mask2_77_19675" style="mask-type:luminance" maskUnits="userSpaceOnUse" x="192" y="0" width="7" height="3">
<path d="M192.553 0.679138H198.214V2.10126H192.553V0.679138Z" fill="white"/>
</mask>
<g mask="url(#mask2_77_19675)">
<path d="M197.326 1.7918C197.189 1.74391 196.076 1.5118 195.055 1.32759C194.175 1.18759 193.526 1.05127 193.338 1.05127H193.434L197.326 1.7918Z" fill="#51B5DC" fill-opacity="0.75"/>
</g>
<mask id="mask3_77_19675" style="mask-type:luminance" maskUnits="userSpaceOnUse" x="82" y="86" width="4" height="7">
<path d="M82.9326 86.9863H85.9364V92.6453H82.9326V86.9863Z" fill="white"/>
</mask>
<g mask="url(#mask3_77_19675)">
<path d="M85.6604 90.5158C86.0327 89.2189 85.8005 87.69 84.8275 87.5021C84.4552 87.5021 84.0867 87.69 83.8066 87.9663C83.4822 89.0789 83.2058 90.2395 82.9736 91.3963L83.0179 91.5363C83.6223 93.0653 84.9196 92.2327 85.4761 90.98C85.5241 90.84 85.6162 90.6558 85.6604 90.5158Z" fill="#51B5DC" fill-opacity="0.75"/>
</g>
<path d="M129.16 35.2153C129.717 35.5395 130.874 34.8432 131.615 33.7784C132.171 32.99 132.496 31.8295 131.57 31.8295C129.901 32.0137 128.323 34.659 129.16 35.2153Z" fill="#51B5DC" fill-opacity="0.75"/>
<path d="M120.393 206.916C119.56 206.224 118.631 205.711 117.658 205.343C117.426 205.295 117.382 205.387 117.518 205.571L117.566 205.619C118.263 206.176 118.956 206.684 119.7 207.196L119.744 207.24C120.857 207.892 121.278 207.937 121.182 207.752C120.997 207.38 120.721 207.104 120.393 206.916Z" fill="#51B5DC" fill-opacity="0.75"/>
<path d="M143.675 24.181C144.139 23.4847 144.508 22.512 143.719 22.512C142.329 22.6962 140.844 25.0173 141.493 25.4778C141.913 25.8021 142.978 25.1536 143.675 24.181Z" fill="#51B5DC" fill-opacity="0.75"/>
<path d="M160.555 11.4335C160.831 11.5735 161.388 11.1535 161.804 10.505C162.132 9.99662 162.361 9.25608 161.9 9.30029C161.155 9.44029 160.09 11.1535 160.555 11.4335Z" fill="#51B5DC" fill-opacity="0.75"/>
<path d="M154.016 16.4404C154.384 15.8841 154.665 15.0477 154.06 15.0477C153.087 15.2356 151.602 17.1367 152.158 17.5972C152.531 17.8772 153.411 17.3209 154.016 16.4404Z" fill="#51B5DC" fill-opacity="0.75"/>
<path d="M135.326 215.261C134.446 214.797 133.565 214.428 132.592 214.104C132.496 214.104 132.496 214.104 132.452 214.104C132.404 214.473 135.975 215.91 136.255 215.865V215.817C135.975 215.585 135.699 215.401 135.326 215.261Z" fill="#51B5DC" fill-opacity="0.75"/>
<path d="M126.47 206.872C126.238 206.64 126.005 206.456 125.773 206.268C124.384 205.247 123.595 205.063 123.315 205.015C122.666 204.971 122.851 205.387 123.175 205.804C124.244 207.056 127.071 208.493 127.166 207.845C127.166 207.66 126.934 207.288 126.47 206.872Z" fill="#51B5DC" fill-opacity="0.75"/>
<path d="M168.67 1.65179H168.622C168.575 1.65179 168.622 1.65179 168.67 1.65179L169.503 1.79179C169.271 1.74389 169.039 1.69968 168.807 1.69968C168.855 1.69968 168.903 1.69968 168.947 1.69968C168.903 1.69968 168.903 1.69968 168.855 1.69968C168.807 1.69968 168.807 1.69968 168.762 1.69968C168.715 1.65179 168.715 1.65179 168.67 1.65179H168.715C168.762 1.65179 168.762 1.65179 168.807 1.65179C168.855 1.65179 168.903 1.65179 168.903 1.65179H168.715C169.92 1.55968 171.125 1.55968 172.334 1.41968C172.238 1.41968 171.313 1.46757 170.06 1.55968L168.67 1.65179H168.53C168.575 1.60757 168.622 1.60757 168.67 1.65179Z" fill="#51B5DC" fill-opacity="0.75"/>
<path d="M94.6116 165.66C94.1473 164.175 92.8942 162.786 91.8733 162.554C90.5317 162.322 90.4838 164.223 91.7811 166.076C92.2455 166.82 92.9421 167.377 93.775 167.653H93.8229C94.9802 167.745 94.8881 166.448 94.6116 165.66Z" fill="#51B5DC" fill-opacity="0.75"/>
<mask id="mask4_77_19675" style="mask-type:luminance" maskUnits="userSpaceOnUse" x="162" y="221" width="5" height="3">
<path d="M162.36 221.859H166.134V223.503H162.36V221.859Z" fill="white"/>
</mask>
<g mask="url(#mask4_77_19675)">
<path d="M165.191 222.865C164.402 222.77 163.613 222.677 162.825 222.585H162.732C163.661 222.725 164.586 222.817 165.515 222.865H165.191Z" fill="#51B5DC" fill-opacity="0.75"/>
</g>
<path d="M173.122 1.93179C172.982 1.8839 171.961 1.79179 170.664 1.7439C170.524 1.7439 170.339 1.7439 170.151 1.7439C170.756 1.79179 171.312 1.836 172.009 1.8839C172.75 1.8839 173.026 1.93179 173.122 1.93179Z" fill="#51B5DC" fill-opacity="0.75"/>
<path d="M113.718 195.653C112.881 194.541 111.444 193.472 110.563 193.336C109.822 193.244 109.774 193.892 110.471 194.817C111.724 196.442 114.086 197.691 114.178 196.81C114.134 196.394 113.95 195.978 113.718 195.653Z" fill="#51B5DC" fill-opacity="0.75"/>
<path d="M102.772 181.793C102.728 181.653 102.588 181.469 102.54 181.329C101.475 179.752 100.314 179.152 99.805 179.056C98.7841 178.872 98.7841 180.076 99.7571 181.513C101.058 183.322 102.96 184.203 103.096 183.09C103.096 182.626 103.004 182.162 102.772 181.793Z" fill="#51B5DC" fill-opacity="0.75"/>
<path d="M176.69 1.97596C176.457 1.88386 174.836 1.79175 174.095 1.79175C172.378 1.69965 170.848 1.69965 170.756 1.69965C170.8 1.69965 176.505 1.97596 176.69 1.97596Z" fill="#51B5DC" fill-opacity="0.75"/>
<path d="M89.8796 147.673C89.6953 146.377 88.7666 144.475 87.285 144.291C85.4753 144.335 85.8918 147.766 87.5171 149.342C87.7936 149.622 88.0737 149.807 88.4422 149.947H88.5344C89.8796 150.083 90.0197 148.554 89.8796 147.673Z" fill="#51B5DC" fill-opacity="0.75"/>
<path d="M153.319 220.452C152.439 220.084 151.51 219.852 150.537 219.664C150.397 219.664 150.353 219.664 150.353 219.712C150.537 220.036 154.016 221.104 154.248 220.872C154.248 220.872 154.2 220.776 153.319 220.452Z" fill="#51B5DC" fill-opacity="0.75"/>
<path d="M140.055 215.169C139.13 214.565 138.061 214.104 136.996 213.872C136.579 213.824 136.671 214.056 136.811 214.196C137.504 214.985 140.751 216.374 140.843 215.957C140.891 215.773 140.567 215.541 140.055 215.169Z" fill="#51B5DC" fill-opacity="0.75"/>
<path d="M92.1982 108.919C92.3862 107.39 91.7818 105.629 90.3923 105.444C88.2104 105.489 87.6539 109.475 89.1392 110.96C90.3444 112.12 91.9697 111.052 92.1982 108.919Z" fill="#51B5DC" fill-opacity="0.75"/>
<path d="M179.564 1.7439C177.99 1.6518 176.413 1.60758 176.181 1.6518C176.229 1.6518 181.886 2.06812 182.21 2.02391C181.329 1.8839 180.449 1.7918 179.564 1.7439Z" fill="#51B5DC" fill-opacity="0.75"/>
<path d="M171.405 2.06811C171.313 2.0239 170.524 1.8839 169.503 1.7439C169.783 1.79179 170.107 1.836 170.476 1.93179C171.032 2.0239 171.357 2.06811 171.405 2.06811Z" fill="#51B5DC" fill-opacity="0.75"/>
<path d="M170.108 1.69969C169.735 1.65179 169.319 1.65179 168.902 1.65179H169.039C169.459 1.69969 169.827 1.69969 170.108 1.69969Z" fill="#51B5DC" fill-opacity="0.75"/>
<path d="M170.616 1.83596C170.896 1.88386 171.172 1.93175 171.452 1.93175C171.312 1.88386 170.384 1.79175 169.226 1.69965H169.086C169.038 1.69965 168.994 1.69965 168.946 1.69965C169.459 1.69965 169.875 1.74386 170.616 1.83596Z" fill="#51B5DC" fill-opacity="0.75"/>
<path d="M98.8761 91.028C99.3884 89.4512 98.924 87.598 97.4867 87.458C95.2126 87.5022 94.2397 91.3523 95.6328 92.7891C96.65 93.8097 98.2754 92.9291 98.8761 91.028Z" fill="#51B5DC" fill-opacity="0.75"/>
<path d="M89.0465 128.574C89.1387 126.861 88.2578 124.868 86.8684 124.68C84.7786 124.728 84.7786 128.762 86.4482 130.291C87.5613 131.448 88.9065 130.567 89.0465 128.574Z" fill="#51B5DC" fill-opacity="0.75"/>
<path d="M140.568 36.6042C141.309 37.1605 142.654 36.3721 143.35 34.9832C143.859 33.9626 143.951 32.5258 142.746 32.57C140.8 32.85 139.499 35.8158 140.568 36.6042Z" fill="#51B5DC" fill-opacity="0.75"/>
<path d="M128.556 47.9629C129.297 48.4271 130.782 47.775 131.571 46.2018C132.171 45.0412 132.267 43.4202 130.83 43.4644C128.648 43.8365 127.303 47.1744 128.556 47.9629Z" fill="#51B5DC" fill-opacity="0.75"/>
<path d="M167.045 13.4266C167.509 13.703 168.158 13.2424 168.25 12.2661C168.298 11.5256 168.018 10.7371 167.509 10.785C166.628 10.9693 166.304 12.9624 167.045 13.4266Z" fill="#51B5DC" fill-opacity="0.75"/>
<path d="M171.729 8.04766C171.729 8.00344 171.729 7.95555 171.681 7.95555C171.496 7.35502 171.032 6.70659 170.708 6.7508C170.243 6.8908 170.475 8.46766 171.124 8.93188C171.544 9.1603 171.913 8.83608 171.729 8.04766Z" fill="#51B5DC" fill-opacity="0.75"/>
<path d="M172.842 4.98972C172.426 4.5255 171.729 4.01707 171.545 4.06129C171.357 4.10918 172.334 5.49814 172.982 5.77815C173.215 5.87025 173.351 5.82604 173.259 5.59393C173.167 5.40604 173.027 5.17393 172.842 4.98972Z" fill="#51B5DC" fill-opacity="0.75"/>
<path d="M168.762 1.69965C169.27 1.83596 169.687 1.93175 170.756 2.25597C171.264 2.44018 171.821 2.58018 172.333 2.67229C171.869 2.48808 171.356 2.30018 170.848 2.20807C169.919 1.93175 168.902 1.69965 168.762 1.69965Z" fill="#51B5DC" fill-opacity="0.75"/>
<path d="M153.783 25.6179C154.2 24.7373 154.2 23.4847 153.227 23.5326C151.65 23.8089 150.536 26.4063 151.417 27.1026C152.022 27.6111 153.227 26.8705 153.783 25.6179Z" fill="#51B5DC" fill-opacity="0.75"/>
<path d="M160.462 19.4541C160.69 19.5904 161.018 19.6383 161.575 19.1741C161.899 18.8978 162.131 18.4777 162.268 18.0614C162.5 17.3209 162.456 16.2082 161.667 16.3004C160.414 16.5325 159.533 18.8499 160.462 19.4541Z" fill="#51B5DC" fill-opacity="0.75"/>
<path d="M189.306 2.20813C188.425 2.02392 187.544 1.88392 186.615 1.83602C185.13 1.6997 183.648 1.6076 183.368 1.65181C183.692 1.6997 188.517 2.16392 189.118 2.20813C189.166 2.20813 189.258 2.20813 189.306 2.20813Z" fill="#51B5DC" fill-opacity="0.75"/>
<path d="M197.234 2.76445C196.353 2.53234 195.428 2.34813 194.547 2.20813C193.57 2.02391 192.597 1.93181 191.576 1.88391V1.93181C192.041 2.02391 196.909 2.81234 197.234 2.76445Z" fill="#51B5DC" fill-opacity="0.75"/>
<path d="M205.165 3.92495C204.284 3.60073 203.355 3.36863 202.43 3.18073C201.593 2.94862 200.761 2.8123 199.876 2.6723L199.972 2.71651C200.48 2.85651 204.933 3.92495 205.165 3.92495Z" fill="#51B5DC" fill-opacity="0.75"/>
<path d="M172.286 3.18074C171.729 2.90442 171.173 2.67231 170.568 2.4881C170.568 2.53231 173.027 4.01706 173.215 3.82917C173.215 3.69285 172.702 3.36863 172.286 3.18074Z" fill="#51B5DC" fill-opacity="0.75"/>
<path d="M104.954 76.0553C105.879 77.0279 107.597 76.0995 108.337 74.2905C108.942 72.8095 108.662 71.0484 107.272 70.9563C105.186 71.0484 103.561 74.5706 104.954 76.0553Z" fill="#51B5DC" fill-opacity="0.75"/>
<path d="M116.405 61.1745C117.286 61.8229 118.863 60.9424 119.608 59.3655C120.116 58.3008 120.349 56.3518 118.679 56.3076C116.361 56.676 115.064 60.1982 116.405 61.1745Z" fill="#51B5DC" fill-opacity="0.75"/>
<path d="M108.709 104.1C109.033 102.479 108.385 100.158 106.343 100.066C103.468 100.206 102.679 104.564 104.533 106.325C106.066 107.67 108.244 106.557 108.709 104.1Z" fill="#51B5DC" fill-opacity="0.75"/>
<path d="M145.528 46.0618C146.641 46.8944 148.451 45.8776 149.051 44.0686C149.472 42.7718 149.191 40.9628 147.522 41.0549C145.156 41.4712 144.091 44.997 145.528 46.0618Z" fill="#51B5DC" fill-opacity="0.75"/>
<path d="M105.186 160.933C104.954 159.448 103.561 157.315 101.659 157.223C99.3886 157.363 99.805 160.653 101.799 162.462C103.516 164.039 105.278 163.527 105.278 161.534C105.23 161.349 105.23 161.165 105.186 160.933Z" fill="#51B5DC" fill-opacity="0.75"/>
<path d="M99.8971 125.236C101.522 126.673 103.516 125.468 103.745 123.011C103.885 121.342 103.004 118.98 100.966 118.84C98.1833 118.98 97.859 123.475 99.8971 125.236Z" fill="#51B5DC" fill-opacity="0.75"/>
<path d="M124.384 73.0858C125.541 72.7174 126.47 71.741 126.838 70.5842C127.351 69.0552 126.978 66.922 124.94 66.9663C124.056 67.1063 123.271 67.6184 122.759 68.3589C120.949 70.9563 122.25 73.5979 124.384 73.0858Z" fill="#51B5DC" fill-opacity="0.75"/>
<path d="M165.238 26.9147C166.255 27.611 167.556 26.5463 167.649 25.0173C167.693 24.0889 167.232 22.7441 166.071 22.8362C164.45 23.2083 163.893 26.0341 165.238 26.9147Z" fill="#51B5DC" fill-opacity="0.75"/>
<path d="M156.242 35.6317C157.356 36.328 158.885 35.2153 159.209 33.4985C159.394 32.4337 159.069 30.949 157.68 31.0411C155.686 31.4132 154.665 34.659 156.242 35.6317Z" fill="#51B5DC" fill-opacity="0.75"/>
<path d="M116.729 86.5295C117.241 84.6763 116.544 82.7274 114.691 82.6353C111.908 82.7753 110.747 87.0416 112.417 88.6627C113.81 90.0074 116.08 88.8469 116.729 86.5295Z" fill="#51B5DC" fill-opacity="0.75"/>
<path d="M134.166 58.5329C135.419 59.3177 137.273 58.2529 137.969 56.3519C138.481 54.915 138.201 52.9697 136.3 53.0139C133.517 53.526 132.404 57.4645 134.166 58.5329Z" fill="#51B5DC" fill-opacity="0.75"/>
<path d="M102.54 142.53C102.496 140.906 101.335 138.588 99.341 138.448C96.8385 138.588 96.8827 142.574 98.8766 144.428C100.638 146.052 102.632 144.984 102.54 142.53Z" fill="#51B5DC" fill-opacity="0.75"/>
<path d="M180.401 10.785C181.142 11.2013 181.655 11.1534 181.514 10.645C181.374 10.2729 181.142 9.94869 180.866 9.67237C180.169 8.97605 179.008 8.23551 178.548 8.32762C177.943 8.46762 179.196 10.1366 180.401 10.785Z" fill="#51B5DC" fill-opacity="0.75"/>
<path d="M176.321 11.7098C175.44 11.8977 176.089 13.983 177.294 14.7235C178.127 15.2356 178.731 14.8156 178.547 13.8909C178.499 13.6588 178.407 13.4746 178.315 13.2867C177.894 12.4982 176.969 11.6656 176.321 11.7098Z" fill="#51B5DC" fill-opacity="0.75"/>
<path d="M188.005 3.60076C188.377 3.82919 194.082 5.17394 194.547 5.08183V5.03762C193.662 4.66551 192.781 4.38551 191.856 4.2013C190.279 3.87708 188.145 3.50497 188.005 3.60076Z" fill="#51B5DC" fill-opacity="0.75"/>
<path d="M222.553 10.4129C222.413 10.3208 220.884 9.62449 219.494 8.97606V9.02396C218.057 8.37553 217.036 7.95553 216.756 7.91132C216.804 7.95553 216.804 7.95553 216.852 7.95553L222.553 10.4129Z" fill="#51B5DC" fill-opacity="0.75"/>
<path d="M111.536 178.595C111.536 178.267 111.492 177.943 111.4 177.619C110.888 176.046 109.218 174.513 107.873 174.329C106.159 174.145 106.019 176.182 107.549 178.039C109.174 180.032 111.444 180.356 111.536 178.595Z" fill="#51B5DC" fill-opacity="0.75"/>
<path d="M215.226 7.86341C214.949 7.58709 212.956 6.89076 212.259 6.65866H212.211C211.146 6.24234 210.081 5.96233 208.968 5.73022L209.06 5.77812C209.709 6.10233 214.902 7.86341 215.226 7.86341Z" fill="#51B5DC" fill-opacity="0.75"/>
<path d="M182.115 7.95549C183.092 8.4676 183.6 8.4676 183.556 8.1876C183.508 7.95549 183.044 7.53917 182.347 7.12285C181.33 6.51863 179.937 5.96231 179.612 6.01021C179.288 6.10231 181.005 7.39917 182.115 7.95549Z" fill="#51B5DC" fill-opacity="0.75"/>
<path d="M187.079 5.59395C186.987 5.31395 185.409 4.84973 184.945 4.71342C183.832 4.34131 182.671 4.0613 181.514 3.92499C181.79 4.20131 186.474 5.68606 187.079 5.59395Z" fill="#51B5DC" fill-opacity="0.75"/>
<path d="M180.309 4.66552C180.449 5.12973 184.945 6.84291 185.129 6.56659C185.085 6.28659 183.692 5.68606 183.416 5.59395C182.07 5.08184 180.541 4.61762 180.309 4.66552Z" fill="#51B5DC" fill-opacity="0.75"/>
<path d="M183.925 3.64494C184.249 3.82915 189.814 5.3139 190.139 5.12969C189.906 4.84969 188.005 4.38547 187.636 4.29337C186.011 3.92494 184.017 3.55283 183.925 3.64494Z" fill="#51B5DC" fill-opacity="0.75"/>
<path d="M165.699 222.401C164.911 222.121 164.078 221.937 163.245 221.845C163.149 221.845 162.872 221.845 163.012 221.985C163.381 222.309 166.024 222.769 166.304 222.677C166.352 222.633 166.256 222.585 165.699 222.401Z" fill="#51B5DC" fill-opacity="0.75"/>
<path d="M155.313 219.107C154.384 218.551 153.363 218.135 152.254 218.043C151.557 218.043 151.882 218.415 152.022 218.507C152.903 219.339 155.962 220.268 155.917 219.664C155.917 219.572 155.822 219.435 155.313 219.107Z" fill="#51B5DC" fill-opacity="0.75"/>
<path d="M143.582 212.991C142.793 212.247 141.264 211.415 140.103 211.323C139.222 211.323 139.406 211.831 139.919 212.387C141.216 213.684 144.139 214.66 144.043 213.78C143.999 213.452 143.814 213.176 143.582 212.991Z" fill="#51B5DC" fill-opacity="0.75"/>
<path d="M131.523 203.95C130.783 202.93 129.161 201.817 127.86 201.681C126.703 201.633 126.839 202.513 127.628 203.394C127.816 203.578 128 203.766 128.184 203.95C130.086 205.527 131.94 205.804 131.896 204.831C131.896 204.555 131.756 204.23 131.523 203.95Z" fill="#51B5DC" fill-opacity="0.75"/>
<path d="M193.85 3.87708C194.358 4.20129 200.248 5.54604 200.528 5.40604C200.432 5.22183 198.766 4.75761 197.697 4.48129C196.444 4.20129 195.147 3.96918 193.85 3.87708Z" fill="#51B5DC" fill-opacity="0.75"/>
<path d="M204.701 5.2218C203.54 4.84969 202.29 4.61758 201.085 4.48126V4.52547C201.317 4.71337 207.111 6.37865 207.623 6.28655C206.646 5.82601 205.674 5.4539 204.701 5.2218Z" fill="#51B5DC" fill-opacity="0.75"/>
<path d="M120.765 193.104C120.765 192.78 120.625 192.408 120.489 192.131V192.083C119.792 190.694 118.123 189.442 116.825 189.302C115.432 189.21 115.388 190.554 116.685 192.083C118.355 193.985 120.765 194.585 120.765 193.104Z" fill="#51B5DC" fill-opacity="0.75"/>
<path d="M172.285 16.5325C171.032 16.8088 171.08 19.222 172.285 20.0546C173.258 20.703 174.231 19.7783 174.003 18.3857C173.863 17.413 173.074 16.3925 172.285 16.5325Z" fill="#51B5DC" fill-opacity="0.75"/>
<path d="M192.505 15.5119C191.392 14.4472 189.814 13.6587 189.118 13.7508C188.1 14.0308 189.722 16.1603 191.392 17.0888C192.645 17.7851 193.618 17.693 193.433 16.8567C193.246 16.3482 192.969 15.884 192.505 15.5119Z" fill="#51B5DC" fill-opacity="0.75"/>
<path d="M180.261 22.9762C178.639 23.3483 178.963 26.3142 180.725 27.4268C182.162 28.3515 183.508 27.3789 183.135 25.6657L183.091 25.4336C182.719 24.1331 181.466 22.8362 180.261 22.9762Z" fill="#51B5DC" fill-opacity="0.75"/>
<path d="M199.183 8.69977C199.091 9.06819 201.825 10.3208 202.522 10.5972C205.397 11.8498 205.721 11.5735 205.765 11.5256C205.905 11.3414 205.072 10.6929 203.403 9.90452C201.733 9.20819 199.507 8.46766 199.183 8.69977Z" fill="#51B5DC" fill-opacity="0.75"/>
<path d="M201.222 12.594C201.178 12.594 201.178 12.594 201.222 12.594C201.178 12.594 201.129 12.6384 201.085 12.6384L201.222 12.594Z" fill="#51B5DC" fill-opacity="0.75"/>
<path d="M185.27 17.6451C183.972 17.9693 184.945 20.5188 186.755 21.5836C188.052 22.3278 189.073 21.8636 188.749 20.6588C188.657 20.3788 188.561 20.1025 188.425 19.8225C187.776 18.6657 186.291 17.5051 185.27 17.6451Z" fill="#51B5DC" fill-opacity="0.75"/>
<path d="M214.858 10.3208C213.048 9.5324 210.774 8.79187 210.638 9.02398C210.866 9.5803 217.268 12.2219 217.685 11.9419C217.685 11.5256 214.994 10.3687 214.858 10.3208Z" fill="#51B5DC" fill-opacity="0.75"/>
<path d="M218.057 10.2729C218.333 10.6929 224.411 13.703 224.919 13.4746C224.919 13.1946 223.11 12.2219 221.997 11.7098C220.327 10.9251 218.333 10.1808 218.057 10.2729Z" fill="#51B5DC" fill-opacity="0.75"/>
<path d="M232.29 16.1604C231.225 15.3278 230.112 14.6314 228.955 14.0309C227.934 13.4267 226.913 12.9625 225.8 12.5461V12.594L225.848 12.6382C226.729 13.2867 231.922 16.1162 232.29 16.1604Z" fill="#51B5DC" fill-opacity="0.75"/>
<path d="M195.379 9.4845C194.822 9.8124 198.81 12.0819 200.48 12.4982C200.712 12.594 200.944 12.594 201.176 12.594C201.777 12.2661 200.108 11.2935 199.319 10.8771C197.745 10.0408 195.795 9.34818 195.379 9.4845Z" fill="#51B5DC" fill-opacity="0.75"/>
<path d="M142.421 69.0994C144.139 70.212 146.501 68.8673 147.058 66.5057C147.478 64.7888 146.733 62.4714 144.371 62.6114C141.124 63.2119 140.287 67.6625 142.421 69.0994Z" fill="#51B5DC" fill-opacity="0.75"/>
<path d="M204.283 8.55971C204.327 8.93182 207.25 10.1808 207.947 10.4608C209.893 11.2492 211.006 11.5734 211.238 11.3855C211.238 11.0613 209.848 10.3687 208.547 9.81236C206.834 9.02393 204.56 8.32761 204.283 8.55971Z" fill="#51B5DC" fill-opacity="0.75"/>
<path d="M192.272 11.1535C191.576 11.3856 193.478 13.0546 195.239 13.983C196.725 14.7714 197.605 14.7235 197.465 14.2151C197.373 13.843 196.817 13.2867 195.984 12.7303C194.591 11.7577 192.829 11.0172 192.272 11.1535Z" fill="#51B5DC" fill-opacity="0.75"/>
<path d="M237.395 18.9899C236.234 18.2014 235.213 17.5051 233.96 16.7167L233.868 16.6725L237.395 18.9899Z" fill="#51B5DC" fill-opacity="0.75"/>
<path d="M163.798 44.4408C165.375 45.5055 167.417 44.1608 167.557 41.9355C167.649 40.3586 166.676 38.7818 165.007 38.9218C162.456 39.386 162.036 43.1881 163.798 44.4408Z" fill="#51B5DC" fill-opacity="0.75"/>
<path d="M173.491 30.0205C171.405 30.4405 171.357 33.7785 172.982 34.9832C174.372 36.0037 176.321 35.0274 176.133 32.7579C175.997 31.2732 174.928 29.8363 173.491 30.0205Z" fill="#51B5DC" fill-opacity="0.75"/>
<path d="M153.459 55.8434C155.129 56.864 157.399 55.3792 157.679 53.0618C157.864 51.625 157.167 49.6318 155.081 49.7681C152.114 50.3244 151.417 54.5908 153.459 55.8434Z" fill="#51B5DC" fill-opacity="0.75"/>
<path d="M139.175 200.985C139.175 200.705 139.083 200.428 138.99 200.148C138.157 198.619 136.624 197.599 134.91 197.415C133.241 197.415 133.009 198.804 134.398 200.288C136.256 202.281 139.175 202.698 139.175 200.985Z" fill="#51B5DC" fill-opacity="0.75"/>
<path d="M149.656 210.766C149.656 210.486 149.564 210.21 149.376 209.978C148.495 208.773 147.106 208.029 145.62 207.893C144.275 207.937 144.139 208.909 145.344 210.022C146.921 211.555 149.608 211.971 149.656 210.766Z" fill="#51B5DC" fill-opacity="0.75"/>
<path d="M113.393 138.772C115.572 140.489 118.17 139.004 118.122 136.086C118.122 133.997 116.637 131.68 114.318 131.636C111.027 131.912 110.843 136.779 113.393 138.772Z" fill="#51B5DC" fill-opacity="0.75"/>
<path d="M118.586 168.581C116.22 168.441 115.664 171.039 117.517 173.264C117.938 173.773 119.095 174.933 120.72 175.025C122.898 174.933 122.714 172.892 122.618 172.476C122.342 170.575 120.392 168.721 118.586 168.581Z" fill="#51B5DC" fill-opacity="0.75"/>
<path d="M114.042 157.223C114.551 157.687 115.2 157.964 115.896 158.059H116.036C118.631 158.104 118.587 155.554 118.587 155.23C118.495 153.469 117.009 150.871 114.459 150.827C111.4 151.151 111.584 155.23 114.042 157.223Z" fill="#51B5DC" fill-opacity="0.75"/>
<path d="M116.268 119.397C118.307 121.206 121.137 119.721 121.369 116.707C121.554 114.622 120.208 112.305 117.982 112.305C114.551 112.537 113.902 117.311 116.268 119.397Z" fill="#51B5DC" fill-opacity="0.75"/>
<path d="M127.907 98.4445C128.232 96.3592 127.119 94.1339 124.845 94.1339C121.506 94.4102 120.44 99.045 122.574 101.038C124.52 102.755 127.443 101.366 127.907 98.4445Z" fill="#51B5DC" fill-opacity="0.75"/>
<path d="M168.762 221.241C168.017 220.64 167.044 220.316 166.071 220.316C165.238 220.36 165.375 220.732 165.607 220.916C166.396 221.613 168.902 222.077 168.902 221.521C168.946 221.473 168.946 221.381 168.762 221.241Z" fill="#51B5DC" fill-opacity="0.75"/>
<mask id="mask5_77_19675" style="mask-type:luminance" maskUnits="userSpaceOnUse" x="172" y="221" width="5" height="3">
<path d="M172.739 221.859H176.513V223.503H172.739V221.859Z" fill="white"/>
</mask>
<g mask="url(#mask5_77_19675)">
<path d="M175.485 223.002C174.884 222.77 174.28 222.677 173.679 222.725C173.074 222.77 173.215 222.91 173.259 222.91C173.539 223.142 175.625 223.282 175.577 223.097C175.577 223.05 175.577 223.05 175.485 223.002Z" fill="#51B5DC" fill-opacity="0.75"/>
</g>
<path d="M134.122 84.6764C135.511 84.2122 136.532 83.0074 136.812 81.5706C137.181 79.7616 136.392 77.3521 133.889 77.4442C132.824 77.6284 131.896 78.2805 131.339 79.2053C129.485 82.4032 131.523 85.4169 134.122 84.6764Z" fill="#51B5DC" fill-opacity="0.75"/>
<path d="M124.893 188.097C126.839 190.23 129.761 190.414 129.809 188.329C129.809 188.049 129.761 187.817 129.717 187.589C129.205 185.92 127.259 184.343 125.589 184.251C123.547 184.155 123.175 186.196 124.893 188.097Z" fill="#51B5DC" fill-opacity="0.75"/>
<path d="M156.378 215.493C155.265 215.541 155.361 216.189 156.054 216.79C157.307 217.858 160.09 218.507 159.95 217.486C159.905 217.302 159.81 217.07 159.673 216.93C158.792 216.049 157.583 215.541 156.378 215.493Z" fill="#51B5DC" fill-opacity="0.75"/>
<path d="M178.175 221.196C177.014 221.288 176.829 221.845 177.202 222.121C177.895 222.633 179.752 222.493 179.892 221.889C179.936 221.565 179.336 221.148 178.175 221.196Z" fill="#51B5DC" fill-opacity="0.75"/>
<path d="M174.139 219.295C174.139 219.247 174.139 219.203 174.139 219.203C174.003 218.551 172.842 217.858 171.452 217.903C170.059 218.043 169.875 218.831 170.568 219.435C171.777 220.5 174.187 220.408 174.139 219.295Z" fill="#51B5DC" fill-opacity="0.75"/>
<mask id="mask6_77_19675" style="mask-type:luminance" maskUnits="userSpaceOnUse" x="180" y="221" width="5" height="3">
<path d="M180.287 221.859H184.061V223.503H180.287V221.859Z" fill="white"/>
</mask>
<g mask="url(#mask6_77_19675)">
<path d="M183.184 222.585C182.952 222.541 182.72 222.541 182.488 222.585C182.023 222.585 181.607 222.725 181.19 222.909C181.559 222.909 181.979 222.909 182.348 222.865C182.58 222.865 182.812 222.817 183.044 222.769C183.276 222.725 183.369 222.677 183.276 222.633L183.184 222.585Z" fill="#51B5DC" fill-opacity="0.75"/>
</g>
<path d="M218.193 18.5257L217.868 18.2936C216.387 17.2731 213.836 16.0241 213.14 16.3483C212.535 17.2288 218.193 21.0273 219.726 20.7989C220.419 20.751 220.002 19.8226 218.193 18.5257Z" fill="#51B5DC" fill-opacity="0.75"/>
<path d="M191.111 30.0684C189.117 30.5326 189.674 33.9626 191.948 35.4916C193.849 36.7443 195.655 35.8158 195.287 33.7784C195.239 33.4984 195.147 33.1742 195.007 32.8979C194.406 31.3653 192.644 29.8363 191.111 30.0684Z" fill="#51B5DC" fill-opacity="0.75"/>
<path d="M128.508 127.325C127.908 131.68 131.94 134.278 134.63 132.284C135.603 131.544 136.208 130.431 136.255 129.179C136.44 127.001 135.047 123.987 131.895 124.032C130.642 124.22 129.065 124.868 128.508 127.325Z" fill="#51B5DC" fill-opacity="0.75"/>
<path d="M207.9 17.7372C206.834 18.0614 209.477 20.703 211.751 21.8635C213.093 22.5599 213.605 22.4678 213.837 22.4199H213.881C214.718 21.9557 213.28 20.5188 212.4 19.7783C210.774 18.4777 208.644 17.5051 207.9 17.7372Z" fill="#51B5DC" fill-opacity="0.75"/>
<path d="M165.143 58.533C164.31 58.6693 163.614 59.0893 163.105 59.7377C160.831 62.7514 162.965 66.4578 165.888 66.0415C167.649 65.7173 168.902 64.1404 168.902 62.3314C168.902 60.6625 167.741 58.3009 165.143 58.533Z" fill="#51B5DC" fill-opacity="0.75"/>
<path d="M207.435 22.792C206.094 21.3073 203.868 20.1467 202.891 20.3788C201.546 20.751 203.495 23.4847 205.673 24.7373C207.391 25.7579 208.688 25.5736 208.412 24.4131C208.224 23.7647 207.9 23.2084 207.435 22.792Z" fill="#51B5DC" fill-opacity="0.75"/>
<path d="M223.99 18.0172C222.369 16.9967 219.726 15.6998 219.262 16.0683C218.937 16.9488 225.52 20.9831 226.356 20.4267C226.773 20.1946 225.752 19.1299 223.99 18.0172Z" fill="#51B5DC" fill-opacity="0.75"/>
<path d="M174.928 46.9902C171.777 47.6386 171.729 52.1334 174.187 53.6182C176.273 54.8708 178.731 53.2461 178.591 50.6045C178.547 48.9355 177.202 46.7102 174.928 46.9902Z" fill="#51B5DC" fill-opacity="0.75"/>
<path d="M233.96 18.9899C234.332 19.8704 240.73 24.2289 240.918 23.7168C241.01 23.4847 239.713 22.2799 237.811 20.9831C235.862 19.5904 233.96 18.6178 233.96 18.9899Z" fill="#51B5DC" fill-opacity="0.75"/>
<path d="M226.309 16.9046C226.309 17.7851 232.987 21.9115 233.499 21.3552C233.731 21.1231 232.803 20.1468 230.853 18.8978C228.999 17.693 226.589 16.5325 226.309 16.9046Z" fill="#51B5DC" fill-opacity="0.75"/>
<path d="M201.641 27.0104C200.713 25.5736 198.671 24.1809 197.374 24.4131C195.752 24.8294 196.865 27.7952 199.183 29.2799C200.945 30.3926 202.522 29.8842 202.198 28.3073C202.102 27.8431 201.918 27.4268 201.641 27.0104Z" fill="#51B5DC" fill-opacity="0.75"/>
<path d="M183.693 37.5328C181.142 38.0891 181.467 42.1197 183.649 43.5565C185.687 44.9013 187.869 43.3723 187.448 40.9149V40.8707C187.172 39.1096 185.55 37.3007 183.693 37.5328Z" fill="#51B5DC" fill-opacity="0.75"/>
<path d="M248.058 27.6589C248.058 27.4268 245.972 25.6178 244.859 24.7373V24.7852C243.329 23.5804 241.94 22.5599 241.615 22.4678C241.615 22.512 241.659 22.5599 241.707 22.5599C242.54 23.4846 247.597 27.5668 248.058 27.6589Z" fill="#51B5DC" fill-opacity="0.75"/>
<path d="M143.394 196.578C145.62 198.667 148.775 198.435 148.819 196.162C148.819 195.978 148.819 195.793 148.775 195.653C148.403 193.937 146.317 192.408 144.323 192.408C141.913 192.455 141.4 194.725 143.394 196.578Z" fill="#51B5DC" fill-opacity="0.75"/>
<path d="M133.333 169.462H133.425C135.976 169.37 136.488 167.329 136.348 166.172C136.023 163.899 134.166 162.09 131.896 161.906C128.697 161.814 127.72 165.476 130.318 168.025C131.107 168.858 132.172 169.37 133.333 169.462Z" fill="#51B5DC" fill-opacity="0.75"/>
<path d="M128.881 151.103C131.431 152.96 134.586 151.428 134.538 148.322C134.538 145.96 132.636 143.503 129.854 143.547C126.006 144.011 125.914 148.974 128.881 151.103Z" fill="#51B5DC" fill-opacity="0.75"/>
<path d="M145.204 87.8301C143.858 88.1064 143.118 88.6627 142.281 89.9596C140.475 93.6696 143.258 97.0076 146.269 96.0791C147.894 95.5707 149.051 94.0859 149.239 92.3728C149.472 90.4238 148.359 87.598 145.204 87.8301Z" fill="#51B5DC" fill-opacity="0.75"/>
<path d="M153.088 79.6216C155.266 81.1543 158.281 79.4853 158.697 76.5637C158.977 74.5705 157.816 71.9289 154.897 72.161C151.142 72.9495 150.489 77.8164 153.088 79.6216Z" fill="#51B5DC" fill-opacity="0.75"/>
<path d="M137.321 105.212C133.333 105.629 132.496 111.1 135.327 113.185C137.829 115.038 141.168 113.233 141.401 109.895C141.589 107.578 140.055 105.164 137.321 105.212Z" fill="#51B5DC" fill-opacity="0.75"/>
<path d="M166.395 214.38C166.395 214.288 166.351 214.148 166.303 214.056C165.931 213.128 164.542 212.203 162.824 212.247C161.062 212.387 160.97 213.592 162.035 214.565C163.753 216.049 166.58 215.909 166.395 214.38Z" fill="#51B5DC" fill-opacity="0.75"/>
<path d="M157.539 206.684C157.539 206.548 157.491 206.408 157.447 206.268C157.075 205.063 155.313 203.718 153.411 203.718C151.465 203.81 151.001 205.435 152.53 206.872C154.524 208.773 157.723 208.633 157.539 206.684Z" fill="#51B5DC" fill-opacity="0.75"/>
<path d="M141.356 182.626C141.356 182.394 141.308 182.21 141.264 181.977C140.707 179.936 138.898 178.455 136.764 178.363C133.981 178.363 133.284 181.237 135.511 183.462C137.877 185.824 141.356 185.315 141.356 182.626Z" fill="#51B5DC" fill-opacity="0.75"/>
<path d="M209.801 41.3348C208.968 39.3379 206.602 37.4406 204.7 37.809C202.289 38.4132 203.078 42.4438 205.953 44.3006C208.455 45.8775 210.682 44.6691 210.081 42.0275C209.985 41.7511 209.893 41.519 209.801 41.3348Z" fill="#51B5DC" fill-opacity="0.75"/>
<path d="M255.156 36.7885C255.248 36.4201 254.043 34.8432 252.417 33.2222C250.331 31.1332 248.57 29.9763 248.478 30.3485C248.478 30.3927 248.478 30.4406 248.478 30.4406C249.034 31.9695 254.968 37.577 255.156 36.7885Z" fill="#51B5DC" fill-opacity="0.75"/>
<path d="M261.97 42.3997C261.878 42.0275 260.3 40.0344 258.911 38.4133V38.3654C257.75 37.0207 256.361 35.5396 255.988 35.3517H255.94C255.94 35.3996 255.988 35.4475 255.988 35.4917C256.821 36.7443 261.414 42.0754 261.97 42.3997Z" fill="#51B5DC" fill-opacity="0.75"/>
<path d="M177.386 67.1983C173.398 68.0788 173.214 73.4099 176.229 75.311C178.916 76.98 182.255 74.8947 182.115 71.5567C182.07 69.5636 180.353 66.8741 177.386 67.1983Z" fill="#51B5DC" fill-opacity="0.75"/>
<path d="M230.949 29.14C229.463 27.7031 226.821 25.9899 225.8 26.5462C224.639 27.7031 229.788 32.6658 232.154 32.6658C233.359 32.6658 232.987 31.181 231.273 29.4642C231.133 29.3279 231.041 29.2358 230.949 29.14Z" fill="#51B5DC" fill-opacity="0.75"/>
<path d="M245.09 29.9284C243.237 28.2594 240.963 26.8226 240.594 27.3347C240.314 28.4915 246.668 34.0548 247.597 33.4984C248.057 33.2221 247.132 31.7374 245.09 29.9284Z" fill="#51B5DC" fill-opacity="0.75"/>
<path d="M156.703 121.342C156.935 118.656 154.941 115.735 151.698 115.919C147.15 116.523 146.409 122.318 149.564 124.776C152.438 126.953 156.334 125.052 156.703 121.342Z" fill="#51B5DC" fill-opacity="0.75"/>
<path d="M196.724 52.4576C199.275 54.0344 201.873 52.3655 201.268 49.4439C201.268 49.3076 201.221 49.2118 201.176 49.0754C200.62 47.0344 198.486 45.0412 196.308 45.3654C193.245 46.1059 193.989 50.7444 196.724 52.4576Z" fill="#51B5DC" fill-opacity="0.75"/>
<path d="M145.436 161.766C146.269 162.414 147.245 162.786 148.31 162.878H148.495C151.51 162.738 152.346 160.469 152.39 159.172C152.39 156.435 150.164 154.165 147.43 154.165C147.29 154.165 147.15 154.165 147.013 154.165C142.837 154.766 142.469 159.404 145.436 161.766Z" fill="#51B5DC" fill-opacity="0.75"/>
<path d="M145.712 143.735C148.775 146.192 152.807 144.243 152.855 140.397C152.903 138.124 151.093 135.018 147.614 135.206C143.209 135.806 142.653 141.278 145.712 143.735Z" fill="#51B5DC" fill-opacity="0.75"/>
<path d="M165.979 90.0517C168.669 91.7206 172.101 89.7275 172.377 86.4374C172.565 84.1679 170.94 81.1542 167.508 81.5226C163.104 82.5432 162.732 88.0585 165.979 90.0517Z" fill="#51B5DC" fill-opacity="0.75"/>
<path d="M188.332 222.261L188.656 222.213L190.278 221.985H190.326L191.019 221.889C191.531 221.845 191.995 221.705 192.456 221.521V221.473C192.32 221.473 192.18 221.473 192.04 221.521C190.742 221.753 189.537 222.121 188.332 222.261Z" fill="#51B5DC" fill-opacity="0.75"/>
<path d="M186.987 219.804C187.219 219.572 187.264 219.203 187.079 218.971C187.031 218.923 186.987 218.879 186.891 218.831C186.431 218.599 185.918 218.551 185.41 218.647C183.46 218.971 182.767 220.128 183.508 220.64C184.341 221.148 186.335 220.592 186.987 219.804Z" fill="#51B5DC" fill-opacity="0.75"/>
<path d="M189.999 221.428C190.603 221.148 190.743 220.872 190.419 220.776C190.139 220.732 189.862 220.732 189.582 220.776C187.961 221.056 186.663 221.889 186.94 222.077C187.22 222.261 189.026 221.889 189.999 221.428Z" fill="#51B5DC" fill-opacity="0.75"/>
<path d="M155.822 186.336C152.391 186.52 151.926 189.81 154.2 191.807C156.751 193.984 160.598 193.012 160.554 190.182C160.506 188.145 158.28 186.336 155.822 186.336Z" fill="#51B5DC" fill-opacity="0.75"/>
<path d="M175.209 210.442C175.253 209.189 173.815 207.893 171.589 207.985C169.131 208.261 168.622 210.21 170.06 211.415C171.914 212.992 175.116 212.387 175.209 210.442Z" fill="#51B5DC" fill-opacity="0.75"/>
<path d="M161.943 203.07C164.309 204.971 167.881 204.09 167.693 201.633C167.556 200.104 165.795 198.527 163.381 198.619C160.414 198.851 159.997 201.493 161.943 203.07Z" fill="#51B5DC" fill-opacity="0.75"/>
<path d="M219.121 28.4473C217.5 28.9558 219.862 32.71 222.785 34.2869C224.734 35.3516 225.984 34.8911 225.475 33.2663C225.243 32.6179 224.827 32.0137 224.362 31.4574C222.785 29.56 220.282 28.1231 219.121 28.4473Z" fill="#51B5DC" fill-opacity="0.75"/>
<path d="M232.942 26.1299C232.198 27.3347 238.227 32.57 239.849 32.1537C240.546 31.9695 239.989 30.5768 237.995 28.8158C236.186 27.1026 233.591 25.6178 232.942 26.1299Z" fill="#51B5DC" fill-opacity="0.75"/>
<path d="M155.129 175.674C154.989 173.356 152.715 171.363 150.212 171.363C146.733 171.407 145.528 175.117 148.126 177.667C150.909 180.401 155.313 179.152 155.129 175.674Z" fill="#51B5DC" fill-opacity="0.75"/>
<path d="M156.286 106.325C159.161 108.783 163.337 106.694 163.521 102.803C163.661 100.253 161.759 97.6082 158.744 97.7961C154.384 98.3966 153.411 103.916 156.286 106.325Z" fill="#51B5DC" fill-opacity="0.75"/>
<path d="M212.26 32.1537C210.266 32.6658 211.843 36.5601 214.718 38.2253C216.896 39.5259 218.614 38.8296 218.101 36.8364C217.965 36.2801 217.685 35.7237 217.36 35.2153C216.015 33.2663 213.649 31.8295 212.26 32.1537Z" fill="#51B5DC" fill-opacity="0.75"/>
<path d="M191.948 59.4134C191.763 57.1402 189.721 54.8229 187.171 55.195C183.555 56.0276 183.832 61.2187 186.847 62.8877C189.489 64.3724 192.224 62.4714 191.948 59.4134Z" fill="#51B5DC" fill-opacity="0.75"/>
<path d="M177.619 217.21C178.964 218.275 181.655 217.67 181.931 216.234C182.115 215.309 181.05 214.38 179.241 214.52C177.11 214.845 176.506 216.329 177.619 217.21Z" fill="#51B5DC" fill-opacity="0.75"/>
<path d="M228.999 41.239C226.633 41.9832 228.907 47.0822 232.338 48.8875C234.657 50.0959 236.142 48.9354 235.398 46.5259C235.213 45.9696 234.981 45.4575 234.657 44.949C233.127 42.5838 230.485 40.8227 228.999 41.239Z" fill="#51B5DC" fill-opacity="0.75"/>
<path d="M201.317 63.3519C197.189 64.3724 197.79 70.212 201.269 72.1609C204.516 73.922 207.715 71.5125 207.018 67.8504C206.602 65.3009 204.144 62.8877 201.317 63.3519Z" fill="#51B5DC" fill-opacity="0.75"/>
<path d="M211.751 61.6829C214.902 63.6761 217.917 61.4987 217.036 57.9766C216.988 57.8366 216.944 57.6487 216.896 57.5566C216.107 55.2392 213.557 53.0618 211.099 53.526C207.667 54.4065 208.596 59.6898 211.751 61.6829Z" fill="#51B5DC" fill-opacity="0.75"/>
<path d="M187.404 95.847C187.496 93.2533 185.502 89.9595 181.559 90.4238C176.738 91.6764 176.554 97.9802 180.309 100.065C183.508 101.922 187.264 99.6491 187.404 95.847Z" fill="#51B5DC" fill-opacity="0.75"/>
<path d="M226.309 50.1881C225.151 47.6386 222.369 45.6897 220.467 46.1539C217.684 46.8944 218.845 51.8092 222.277 53.8945C225.103 55.6114 227.47 54.0824 226.633 51.0208C226.541 50.7445 226.404 50.4645 226.309 50.1881Z" fill="#51B5DC" fill-opacity="0.75"/>
<path d="M236.93 38.7374C235.073 40.2664 240.037 46.2017 242.587 46.526C244.441 46.7581 244.349 44.5328 242.447 42.0754C240.826 39.9422 238.227 38.089 236.93 38.7374Z" fill="#51B5DC" fill-opacity="0.75"/>
<path d="M190.371 84.9085C193.526 86.7617 197.233 84.3964 197.001 80.6421C196.817 77.8605 194.499 75.2189 191.252 75.6831C186.847 76.7958 186.892 82.8232 190.371 84.9085Z" fill="#51B5DC" fill-opacity="0.75"/>
<path d="M245.046 38.3211C243.885 39.7101 249.218 46.2938 251.444 46.1059C252.605 46.0138 252.093 44.0686 250.379 41.8875C248.662 39.618 246.019 37.6727 245.046 38.3211Z" fill="#51B5DC" fill-opacity="0.75"/>
<path d="M253.298 40.1742C252.605 41.6111 258.262 48.5633 259.744 48.1027C260.44 47.8706 259.604 45.8296 257.934 43.6522C256.22 41.4711 253.902 39.5258 253.298 40.1742Z" fill="#51B5DC" fill-opacity="0.75"/>
<path d="M160.274 149.899C160.274 154.906 165.84 156.851 168.854 153.977C169.735 153.145 170.244 151.984 170.34 150.779V150.735C170.476 147.861 168.25 145.404 165.375 145.264C165.099 145.264 164.775 145.264 164.494 145.312C162.176 145.588 160.367 147.533 160.274 149.899Z" fill="#51B5DC" fill-opacity="0.75"/>
<path d="M171.124 116.939C174.559 119.489 179.104 116.987 179.104 112.629C179.104 109.847 176.922 107.021 173.446 107.298C168.53 108.134 167.693 114.39 171.124 116.939Z" fill="#51B5DC" fill-opacity="0.75"/>
<path d="M165.423 135.899C168.763 138.032 173.027 135.666 173.167 131.588C173.259 128.622 170.989 125.701 167.369 125.981C162.132 126.861 161.576 133.397 165.423 135.899Z" fill="#51B5DC" fill-opacity="0.75"/>
<path d="M273.517 60.3383C273.517 59.8741 272.172 57.3246 270.966 55.2393C269.993 53.5703 268.88 51.765 268.464 51.4371H268.416C268.416 51.485 268.416 51.5329 268.464 51.625C269.065 53.154 272.868 59.7378 273.517 60.3383Z" fill="#51B5DC" fill-opacity="0.75"/>
<path d="M208.688 217.671L210.033 217.254H209.985C209.524 217.394 209.104 217.534 208.688 217.671Z" fill="#51B5DC" fill-opacity="0.75"/>
<path d="M261.273 44.6248C261.506 46.478 266.606 53.4302 267.259 52.7817C267.583 52.4575 266.514 50.3244 264.937 48.0549C263.547 46.1059 261.461 43.7443 261.273 44.6248Z" fill="#51B5DC" fill-opacity="0.75"/>
<path d="M206.369 218.135C204.283 218.691 202.241 219.479 200.107 220.084C201.268 219.804 202.798 219.435 203.959 219.107L204.095 219.063C204.98 218.831 205.861 218.507 206.741 218.135C206.646 218.091 206.646 218.091 206.369 218.135Z" fill="#51B5DC" fill-opacity="0.75"/>
<path d="M202.058 219.203C202.382 219.063 203.96 218.459 204.004 218.135C203.96 218.091 203.82 218.043 203.355 218.135C201.501 218.551 197.978 220.128 197.79 220.316C197.978 220.452 200.433 219.804 202.058 219.203Z" fill="#51B5DC" fill-opacity="0.75"/>
<path d="M186.707 213.872C188.237 214.845 191.252 213.78 191.948 212.015C192.413 210.811 191.44 209.654 189.214 209.93C186.243 210.442 185.086 212.852 186.707 213.872Z" fill="#51B5DC" fill-opacity="0.75"/>
<path d="M185.966 205.571C186.335 203.998 184.897 202.421 182.255 202.653C179.704 203.022 177.99 205.111 179.52 207.056C181.79 209.234 185.454 207.66 185.966 205.571Z" fill="#51B5DC" fill-opacity="0.75"/>
<path d="M172.749 198.063C175.208 200.148 179.38 198.851 179.66 195.978C179.844 194.125 178.035 192.223 175.16 192.408C171.544 192.824 170.568 196.21 172.749 198.063Z" fill="#51B5DC" fill-opacity="0.75"/>
<path d="M162.689 170.899C163.706 171.827 165.007 172.336 166.396 172.288H166.629C170.016 171.872 170.849 169.37 170.849 167.933C170.801 165.336 168.39 163.203 165.608 163.295C161.436 163.483 159.674 168.117 162.689 170.899Z" fill="#51B5DC" fill-opacity="0.75"/>
<path d="M196.632 216.189C197.465 215.217 197.001 214.473 195.611 214.52C195.471 214.52 195.239 214.565 195.103 214.565C192.364 215.121 190.975 217.114 191.948 217.718C192.921 218.367 195.519 217.486 196.632 216.189Z" fill="#51B5DC" fill-opacity="0.75"/>
<path d="M199.875 218.367C200.34 218.09 201.269 217.442 200.76 217.114C200.388 217.022 200.015 217.022 199.647 217.114C197.189 217.718 195.103 219.339 195.471 219.664C195.888 220.036 198.394 219.295 199.875 218.367Z" fill="#51B5DC" fill-opacity="0.75"/>
<path d="M166.768 185.964C169.643 188.373 174.187 186.8 174.279 183.414C174.327 181.049 172.053 179.152 169.271 179.244C165.375 179.52 163.893 183.554 166.768 185.964Z" fill="#51B5DC" fill-opacity="0.75"/>
<path d="M179.796 163.622C180.773 164.175 181.838 164.455 182.951 164.407C186.662 163.991 187.96 161.257 188.144 159.68C188.468 157.039 186.522 153.653 182.07 154.165C176.737 155.186 175.996 161.301 179.796 163.622Z" fill="#51B5DC" fill-opacity="0.75"/>
<path d="M281.909 81.8027C282.097 81.2906 280.288 75.8674 280.288 75.8232C279.779 74.2905 278.71 71.2805 278.386 70.9563C278.386 71.0005 278.342 71.0926 278.342 71.1405C278.526 72.4374 280.104 77.4443 281.309 80.5059C281.449 81.0143 281.633 81.4306 281.909 81.8027Z" fill="#51B5DC" fill-opacity="0.75"/>
<path d="M195.379 122.363C195.612 119.121 193.061 115.783 189.073 116.243C183.508 117.264 182.812 124.264 186.755 126.953C190.371 129.363 195.103 126.861 195.379 122.363Z" fill="#51B5DC" fill-opacity="0.75"/>
<path d="M188.657 185.315C184.064 185.92 182.719 190.462 185.55 192.455C188.192 194.309 192.596 192.64 193.293 189.486C193.757 187.261 191.948 184.991 188.657 185.315Z" fill="#51B5DC" fill-opacity="0.75"/>
<path d="M264.196 55.4271C263.083 57.1882 267.86 65.6251 269.67 65.1609C270.595 64.9288 270.038 62.3793 268.509 59.5498C267.027 56.9081 264.937 54.6386 264.196 55.4271Z" fill="#51B5DC" fill-opacity="0.75"/>
<path d="M272.032 61.4988C272.032 61.543 271.988 61.5909 271.988 61.6388C271.756 63.8162 275.884 72.3452 276.809 71.6489C277.273 71.3247 276.532 68.683 275.235 65.9014C273.89 63.0277 272.36 60.8945 272.032 61.4988Z" fill="#51B5DC" fill-opacity="0.75"/>
<path d="M180.91 179.056C183.925 181.469 188.841 179.66 189.442 175.906C189.907 173.032 187.448 170.715 184.249 170.991C179.613 171.407 177.571 176.37 180.91 179.056Z" fill="#51B5DC" fill-opacity="0.75"/>
<path d="M213 88.8948C212.583 86.0211 209.985 83.2395 206.51 83.84C201.685 85.1405 201.825 91.7685 205.673 94.0859C209.384 96.2633 213.604 93.2975 213 88.8948Z" fill="#51B5DC" fill-opacity="0.75"/>
<path d="M181.514 145.728C184.994 148.045 189.77 145.636 190.187 141.37C190.511 138.312 188.237 135.574 185.222 135.298C184.806 135.25 184.341 135.25 183.925 135.342C178.36 136.411 177.619 143.179 181.514 145.728Z" fill="#51B5DC" fill-opacity="0.75"/>
<path d="M195.564 109.615C199.091 111.516 203.263 108.967 203.355 104.748C203.403 101.922 201.085 98.2123 196.769 98.8607C191.344 100.39 191.344 107.298 195.564 109.615Z" fill="#51B5DC" fill-opacity="0.75"/>
<path d="M212.864 213.316C214.437 212.155 214.625 211.459 213.929 211.367C213.604 211.323 213.324 211.367 213 211.459C209.941 212.247 206.462 215.169 207.202 215.633C207.899 215.957 210.914 214.753 212.864 213.316Z" fill="#51B5DC" fill-opacity="0.75"/>
<path d="M224.039 210.718C223.947 210.67 223.947 210.67 223.714 210.718H223.622C221.813 211.367 215.831 214.705 215.551 214.937C215.643 214.937 215.691 214.937 215.783 214.937H215.875C217.637 214.288 219.306 213.5 220.976 212.667V212.619C222.369 211.879 223.899 210.998 224.039 210.718Z" fill="#51B5DC" fill-opacity="0.75"/>
<path d="M216.944 71.5126C212.536 72.7173 213.188 79.1611 217.036 81.3864C220.747 83.5158 224.455 80.5979 223.434 76.2873C222.785 73.5057 220.003 70.9083 216.944 71.5126Z" fill="#51B5DC" fill-opacity="0.75"/>
<path d="M243.376 60.1983C242.031 57.3724 239.293 55.3793 237.439 55.8877C234.472 56.7682 236.186 63.1199 239.945 65.161C242.864 66.782 244.858 64.6967 243.745 61.1746C243.653 60.8504 243.513 60.5262 243.376 60.1983Z" fill="#51B5DC" fill-opacity="0.75"/>
<path d="M216.62 213.732C218.193 212.852 219.122 212.063 218.846 211.879C218.706 211.783 218.333 211.879 218.101 211.971C215.783 212.712 211.287 215.445 211.146 215.909C211.331 216.234 214.578 214.889 216.62 213.732Z" fill="#51B5DC" fill-opacity="0.75"/>
<path d="M233.824 66.7378C232.895 64.0925 230.161 61.6388 227.562 62.1951C223.807 63.2598 224.735 69.6115 228.955 71.7889C232.479 73.5979 235.261 70.7241 233.824 66.7378Z" fill="#51B5DC" fill-opacity="0.75"/>
<path d="M197.465 209.421C199.043 210.534 202.614 209.097 203.867 206.916C204.84 205.247 204.003 203.766 201.221 204.182C197.373 205.063 195.843 208.309 197.465 209.421Z" fill="#51B5DC" fill-opacity="0.75"/>
<path d="M202.798 213.64C203.819 214.288 207.066 212.992 208.688 211.275C209.941 209.978 209.661 208.957 208.131 208.957C207.855 208.957 207.575 209.005 207.298 209.049C203.771 210.022 201.641 212.896 202.798 213.64Z" fill="#51B5DC" fill-opacity="0.75"/>
<path d="M233.404 206.176L233.636 206.036C233.035 206.408 232.387 206.824 231.782 207.196C232.291 206.916 232.943 206.5 233.404 206.176Z" fill="#51B5DC" fill-opacity="0.75"/>
<path d="M246.484 52.7376C243.885 54.6387 248.337 61.823 251.492 62.2393C253.623 62.5193 253.995 59.874 252.277 56.8161C250.84 54.2187 248.197 51.9492 246.484 52.7376Z" fill="#51B5DC" fill-opacity="0.75"/>
<path d="M198.486 199.78C199.135 197.879 197.745 195.978 194.731 196.35C190.743 197.042 189.213 200.845 191.439 202.466C193.477 203.998 197.557 202.466 198.486 199.78Z" fill="#51B5DC" fill-opacity="0.75"/>
<path d="M255.524 52.5497C253.763 54.3587 258.355 62.1951 261.138 62.0993C262.575 62.0551 262.343 59.4135 260.673 56.584C259.188 53.9866 256.73 51.7649 255.524 52.5497Z" fill="#51B5DC" fill-opacity="0.75"/>
<path d="M238.18 203.07L233.636 206.036C235.397 204.923 237.023 203.858 238.18 203.07Z" fill="#51B5DC" fill-opacity="0.75"/>
<path d="M230.205 207.892L229.836 208.077C228.955 208.541 221.533 212.619 221.488 212.667C221.58 212.619 221.58 212.619 221.905 212.479C222.926 212.015 224.271 211.323 225.292 210.81L225.384 210.766C225.848 210.534 226.265 210.302 226.729 210.07C228.026 209.421 229.28 208.677 230.437 207.845C230.297 207.845 230.253 207.845 230.205 207.892Z" fill="#51B5DC" fill-opacity="0.75"/>
<path d="M257.982 185.268C257.149 186.196 256.361 187.077 255.664 187.913C256.313 187.169 257.101 186.244 257.982 185.268Z" fill="#51B5DC" fill-opacity="0.75"/>
<path d="M244.49 71.9731C240.826 73.0857 241.891 80.55 245.971 82.8674C249.31 84.7685 251.909 81.7105 250.703 77.3521C249.727 73.8741 246.852 71.3246 244.49 71.9731Z" fill="#51B5DC" fill-opacity="0.75"/>
<path d="M260.485 182.394L262.483 179.892C261.137 181.561 259.468 183.554 257.982 185.268C258.863 184.251 259.744 183.274 260.485 182.394Z" fill="#51B5DC" fill-opacity="0.75"/>
<path d="M285.436 100.67C285.436 100.158 284.972 95.6628 284.556 94.8744C284.508 94.9223 284.463 94.9665 284.463 95.0586C284.323 96.2634 284.648 101.178 285.156 105.165C285.388 106.741 285.481 107.25 285.621 107.578C286.085 107.206 285.436 100.714 285.436 100.67Z" fill="#51B5DC" fill-opacity="0.75"/>
<path d="M233.592 79.8537C229.324 81.1542 229.416 88.3864 233.824 90.9359C237.624 93.1575 241.287 89.8675 240.27 85.1406C239.573 82.0348 236.699 79.161 233.592 79.8537Z" fill="#51B5DC" fill-opacity="0.75"/>
<path d="M222.461 91.6286C217.084 93.2533 217.545 100.994 221.997 103.171C225.8 105.072 229.836 101.922 229.464 97.4239C229.232 93.9939 226.309 90.8401 222.461 91.6286Z" fill="#51B5DC" fill-opacity="0.75"/>
<path d="M244.95 197.739C245.462 197.462 248.057 195.237 250.099 193.336C251.676 191.899 253.346 190.182 253.438 189.858C253.39 189.858 253.346 189.858 253.162 189.998C251.953 190.879 245.138 197.414 244.95 197.739Z" fill="#51B5DC" fill-opacity="0.75"/>
<path d="M211.655 130.8C211.843 127.277 209.2 123.895 204.98 124.496C198.951 125.841 198.21 133.581 202.614 136.271C206.418 138.636 211.423 135.622 211.655 130.8Z" fill="#51B5DC" fill-opacity="0.75"/>
<path d="M197.605 154.397C201.361 156.899 206.694 153.933 206.974 149.202C207.158 146.052 204.748 142.991 200.528 143.595C194.775 144.94 193.709 151.848 197.605 154.397Z" fill="#51B5DC" fill-opacity="0.75"/>
<path d="M235.817 203.95V203.998C236.282 203.998 239.016 202.097 241.287 200.288C242.912 198.943 244.674 197.367 244.582 197.042C244.442 197.042 244.442 197.042 244.209 197.134C242.54 197.971 236.186 203.21 235.817 203.95Z" fill="#51B5DC" fill-opacity="0.75"/>
<path d="M285.62 120.233C285.528 121.438 285.436 122.643 285.344 123.663C285.388 122.783 285.528 121.574 285.62 120.233Z" fill="#51B5DC" fill-opacity="0.75"/>
<path d="M212.399 106.741C206.694 108.502 206.646 116.059 211.098 118.468C215.042 120.602 219.726 117.264 219.446 112.489C219.354 109.707 216.988 105.909 212.399 106.741Z" fill="#51B5DC" fill-opacity="0.75"/>
<path d="M262.759 179.52L262.899 179.38L262.482 179.936C262.575 179.752 262.667 179.612 262.759 179.52Z" fill="#51B5DC" fill-opacity="0.75"/>
<path d="M254.459 68.2668C251.212 70.492 254.967 78.929 258.446 79.4374C260.765 79.8095 261.693 76.7037 260.3 73.0858C259.143 70.0278 256.593 67.2941 254.459 68.2668Z" fill="#51B5DC" fill-opacity="0.75"/>
<path d="M196.401 171.083C199.648 173.588 205.073 171.175 205.813 166.913C206.37 163.667 203.82 161.165 200.388 161.489C195.287 162.046 192.737 168.209 196.401 171.083Z" fill="#51B5DC" fill-opacity="0.75"/>
<path d="M199.227 185.5C202.198 187.493 207.203 185.131 207.992 181.329C208.504 178.824 206.694 176.462 203.171 176.879C197.838 177.759 196.028 183.322 199.227 185.5Z" fill="#51B5DC" fill-opacity="0.75"/>
<path d="M227.842 207.752C227.978 207.752 228.166 207.752 228.303 207.66C230.717 206.78 233.544 204.647 234.332 203.998C236.418 202.329 237.163 201.309 236.743 201.169C236.606 201.169 236.418 201.169 236.282 201.261C232.479 202.606 227.33 207.565 227.842 207.752Z" fill="#51B5DC" fill-opacity="0.75"/>
<path d="M212.12 190.138C211.751 189.626 210.962 188.421 208.272 188.838C203.311 189.858 201.317 194.913 204.284 196.534C206.694 197.879 210.962 195.838 212.168 192.78C212.536 191.899 212.536 190.923 212.12 190.138Z" fill="#51B5DC" fill-opacity="0.75"/>
<path d="M221.672 208.817C222.369 209.189 225.66 207.473 227.886 205.571C229.74 203.95 230.392 202.698 229.279 202.654C228.999 202.654 228.767 202.698 228.491 202.794C224.919 204.043 220.699 208.309 221.672 208.817Z" fill="#51B5DC" fill-opacity="0.75"/>
<path d="M268.508 79.7616C270.086 79.8095 270.458 76.9358 269.205 73.5978C268.044 70.4441 265.681 67.5704 264.148 68.4988C261.554 70.8162 265.818 79.7174 268.508 79.7616Z" fill="#51B5DC" fill-opacity="0.75"/>
<path d="M285.621 120.233C285.713 118.933 285.853 117.636 285.901 116.571L285.945 114.298C285.853 116.107 285.761 118.332 285.621 120.233Z" fill="#51B5DC" fill-opacity="0.75"/>
<path d="M276.672 78.0005C275.744 75.2189 273.842 71.9731 272.729 73.1336C271.708 75.0789 273.473 79.8095 273.473 79.8537C274.771 83.3795 276.208 84.8606 276.949 84.5364C277.878 84.1201 277.738 81.1985 276.672 78.0005Z" fill="#51B5DC" fill-opacity="0.75"/>
<path d="M215.782 207.612C216.895 208.401 220.699 206.592 222.741 204.23C224.27 202.466 224.13 201.169 222.368 201.309C222.136 201.309 221.952 201.353 221.72 201.401C217.964 202.421 214.345 206.592 215.782 207.612Z" fill="#51B5DC" fill-opacity="0.75"/>
<path d="M209.801 203.626C211.471 204.739 215.458 202.978 217.176 200.336C218.565 198.247 217.824 196.35 214.625 196.95C209.985 198.203 207.947 202.374 209.801 203.626Z" fill="#51B5DC" fill-opacity="0.75"/>
<path d="M279.915 81.8948C279.871 81.9427 279.871 81.9869 279.871 82.0348C279.13 84.3043 281.681 94.5502 282.838 93.946C283.394 93.6218 283.162 90.3796 282.373 86.9459C281.493 83.5159 280.427 81.2464 279.915 81.8948Z" fill="#51B5DC" fill-opacity="0.75"/>
<path d="M284.508 123.847C283.535 125.516 281.817 135.991 282.422 136.875C283.07 136.779 284.043 131.728 284.416 129.455C284.508 128.946 285.204 124.404 284.74 123.755C284.6 123.755 284.6 123.755 284.508 123.847Z" fill="#51B5DC" fill-opacity="0.75"/>
<path d="M260.765 85.0485C256.869 87.5501 259.604 97.0518 263.315 97.7961C265.774 98.3045 267.303 94.8265 266.422 90.7039C265.774 87.598 263.407 83.888 260.765 85.0485Z" fill="#51B5DC" fill-opacity="0.75"/>
<path d="M281.681 99.4171C281.26 96.4955 280.52 95.0586 280.287 94.5981C279.639 93.5296 279.13 93.3454 278.574 93.8539C276.392 96.8197 278.478 107.113 280.472 107.066C281.681 107.066 282.237 103.403 281.681 99.4171Z" fill="#51B5DC" fill-opacity="0.75"/>
<path d="M247.317 189.302C247.132 189.302 246.992 189.35 246.808 189.394C242.264 190.971 237.624 197.367 238.552 198.019C239.157 198.387 242.216 196.95 245.507 193.38C247.641 191.111 248.43 189.302 247.317 189.302Z" fill="#51B5DC" fill-opacity="0.75"/>
<path d="M238.179 190.879C237.951 190.923 237.763 190.971 237.531 191.019C233.403 192.5 229.279 198.155 230.9 199.131C232.106 199.872 235.953 197.507 238.179 194.585C239.989 192.268 239.989 190.599 238.179 190.879Z" fill="#51B5DC" fill-opacity="0.75"/>
<path d="M273.241 99.3692C275.047 99.6971 275.975 96.3112 275.187 92.3249C274.49 88.7106 272.452 85.3727 270.642 86.4375C267.583 88.8469 270.318 98.8607 273.241 99.3692Z" fill="#51B5DC" fill-opacity="0.75"/>
<path d="M283.626 106.649C283.626 106.693 283.578 106.693 283.534 106.741C282.097 109.059 282.237 120.694 283.718 120.277C284.415 120.093 284.972 116.707 284.972 112.909C285.019 109.291 284.463 105.909 283.626 106.649Z" fill="#51B5DC" fill-opacity="0.75"/>
<path d="M223.898 196.394C225.752 197.367 229.928 195.049 231.829 191.943C233.635 189.07 232.338 187.401 229.972 187.865C229.787 187.913 229.603 187.957 229.415 188.005C224.178 189.81 221.72 195.237 223.898 196.394Z" fill="#51B5DC" fill-opacity="0.75"/>
<path d="M217.825 189.254C220.375 190.694 225.244 188.049 226.633 184.387C227.654 181.745 226.309 179.38 222.693 180.076C217.312 181.469 214.81 187.493 217.825 189.254Z" fill="#51B5DC" fill-opacity="0.75"/>
<path d="M250.099 89.359C245.695 90.748 246.203 99.8812 250.796 102.059C254.179 103.683 257.054 99.9733 256.173 95.1543C255.524 91.3043 252.697 88.6148 250.099 89.359Z" fill="#51B5DC" fill-opacity="0.75"/>
<path d="M281.357 142.202C281.309 142.298 281.217 142.342 281.169 142.434C280.056 144.475 276.949 153.609 277.041 154.489H277.089C277.505 154.073 278.759 151.011 279.872 147.721C280.472 145.96 281.493 142.806 281.357 142.202Z" fill="#51B5DC" fill-opacity="0.75"/>
<path d="M256.313 183.599C256.173 183.646 256.037 183.694 255.941 183.739C253.206 185.223 247.501 192.363 248.29 192.78C248.802 193.012 251.677 190.554 253.995 187.865C256.129 185.408 257.194 183.462 256.313 183.599Z" fill="#51B5DC" fill-opacity="0.75"/>
<path d="M265.449 173.821C263.499 175.442 258.214 182.858 258.354 183.739C258.771 183.971 261.413 180.865 263.363 178.131C263.639 177.759 266.098 174.329 265.913 173.633C265.818 173.541 265.773 173.588 265.449 173.821Z" fill="#51B5DC" fill-opacity="0.75"/>
<path d="M274.354 159.772C272.637 162.09 268.557 169.878 268.509 170.715L268.557 170.759C269.021 170.435 270.735 167.701 272.312 164.827C273.377 162.834 274.911 159.772 274.678 159.496C274.538 159.54 274.538 159.54 274.354 159.772Z" fill="#51B5DC" fill-opacity="0.75"/>
<path d="M213.836 177.527C216.851 179.428 222.044 176.738 223.202 172.612C224.178 169.278 221.856 166.82 218.333 167.329C212.535 168.394 210.265 175.302 213.836 177.527Z" fill="#51B5DC" fill-opacity="0.75"/>
<path d="M213.512 162.046C214.529 162.646 215.738 162.926 216.944 162.738C220.003 162.23 222.461 159.912 223.202 156.851C223.854 153.841 221.996 149.899 217.036 150.827C211.054 152.496 209.617 159.632 213.512 162.046Z" fill="#51B5DC" fill-opacity="0.75"/>
<path d="M227.33 138.216C227.518 134.65 224.872 131.356 220.652 132.1C214.394 133.721 213.465 142.11 217.965 144.568C221.905 146.701 227.054 143.179 227.33 138.216Z" fill="#51B5DC" fill-opacity="0.75"/>
<path d="M228.071 114.018C221.905 116.151 221.905 124.728 226.773 127.001C230.717 128.854 235.213 125.284 235.213 120.325C235.213 117.127 232.987 112.953 228.071 114.018Z" fill="#51B5DC" fill-opacity="0.75"/>
<path d="M238.412 112.165C242.123 113.789 245.739 110.451 245.463 105.629C245.278 101.922 242.448 98.3965 238.692 99.277C233.035 101.178 233.731 110.127 238.412 112.165Z" fill="#51B5DC" fill-opacity="0.75"/>
<path d="M274.073 154.117C273.933 154.209 273.797 154.301 273.657 154.397C270.594 157.315 267.119 166.541 268.556 166.541C269.389 166.541 271.523 163.483 273.1 160.053C274.77 156.342 275.234 153.609 274.073 154.117Z" fill="#51B5DC" fill-opacity="0.75"/>
<path d="M279.824 142.714C280.8 139.192 280.984 135.714 279.779 136.363C279.687 136.411 279.591 136.503 279.499 136.595C276.857 139.469 274.723 149.575 276.16 149.807C276.3 149.807 276.392 149.759 276.484 149.715L276.532 149.667C277.97 148.554 279.267 144.756 279.824 142.714Z" fill="#51B5DC" fill-opacity="0.75"/>
<path d="M265.958 102.571C265.634 102.615 265.31 102.663 265.033 102.847C260.717 105.489 261.97 115.875 265.682 117.079C268.14 117.868 270.318 114.25 270.134 109.615C270.038 106.789 268.833 102.663 265.958 102.571Z" fill="#51B5DC" fill-opacity="0.75"/>
<path d="M249.034 186.056L249.126 186.012L249.218 185.964C252.141 184.575 254.551 180.913 254.828 180.493C256.777 177.483 256.962 175.21 255.2 175.49C255.06 175.49 254.968 175.534 254.828 175.582C254.691 175.626 254.643 175.626 254.411 175.718L254.367 175.766C250.191 177.807 245.927 185.315 247.781 186.196C248.197 186.288 248.662 186.244 249.034 186.056Z" fill="#51B5DC" fill-opacity="0.75"/>
<path d="M278.154 114.158C278.154 113.926 278.154 113.649 278.154 113.465C278.11 109.803 276.764 105.352 274.398 106.833C271.848 109.199 271.523 117.264 273.842 120.509C276.024 122.827 278.017 118.98 278.154 114.158Z" fill="#51B5DC" fill-opacity="0.75"/>
<path d="M249.402 127.325C249.542 123.339 247.084 119.677 242.956 120.786C236.79 123.199 236.606 132.748 241.382 134.786C245.046 136.363 249.266 132.468 249.402 127.325Z" fill="#51B5DC" fill-opacity="0.75"/>
<path d="M265.169 167.837C264.985 167.885 264.845 167.933 264.661 168.025C261.137 170.11 256.685 178.919 258.263 179.196C259.28 179.38 262.251 176.182 264.244 172.752C265.958 169.786 266.33 167.609 265.169 167.837Z" fill="#51B5DC" fill-opacity="0.75"/>
<path d="M241.614 144.984C242.171 141.185 239.805 137.755 235.493 138.68C229.183 140.629 227.701 149.018 231.966 151.568C235.629 153.745 240.87 150.179 241.614 144.984Z" fill="#51B5DC" fill-opacity="0.75"/>
<path d="M279.916 119.072C277.365 121.342 276.348 133.117 278.71 133.213C279.871 133.257 281.309 129.779 281.725 125.7C282.142 121.67 281.449 117.96 279.916 119.072Z" fill="#51B5DC" fill-opacity="0.75"/>
<path d="M244.95 176.694C240.038 178.455 236.374 185.64 238.832 186.984C240.638 187.957 244.858 184.991 246.808 181.281C248.385 178.363 247.965 175.814 244.95 176.694Z" fill="#51B5DC" fill-opacity="0.75"/>
<path d="M228.955 168.301C232.106 170.25 237.347 167.053 238.644 162.462C239.713 158.616 237.487 155.834 233.867 156.527C227.654 157.827 225.151 165.984 228.955 168.301Z" fill="#51B5DC" fill-opacity="0.75"/>
<path d="M240.87 175.302C242.216 172.104 241.058 169.278 237.255 170.158C231.598 171.964 228.767 179.152 231.966 180.913C234.517 182.35 239.201 179.428 240.87 175.302Z" fill="#51B5DC" fill-opacity="0.75"/>
<path d="M254.043 107.762C249.034 109.523 248.57 119.721 253.39 121.946C256.729 123.475 260.069 119.397 259.792 114.158C259.604 110.356 257.242 106.881 254.043 107.762Z" fill="#51B5DC" fill-opacity="0.75"/>
<path d="M270.69 146.192C272.36 146.653 274.77 143.039 275.695 138.588C276.58 134.418 275.835 130.615 273.565 131.68C269.853 133.813 267.583 145.312 270.69 146.192Z" fill="#51B5DC" fill-opacity="0.75"/>
<path d="M271.291 128.482C271.664 124.219 270.086 120.417 267.164 121.67C262.667 124.219 261.694 135.574 265.818 136.643C268.14 137.243 270.875 133.213 271.291 128.482Z" fill="#51B5DC" fill-opacity="0.75"/>
<path d="M261.182 134.417C261.646 130.243 259.7 126.445 256.081 127.557C250.424 129.919 249.451 139.981 253.531 142.066C256.686 143.687 260.581 139.749 261.182 134.417Z" fill="#51B5DC" fill-opacity="0.75"/>
<path d="M270.875 155.554C272.405 151.383 271.988 148.37 269.994 149.25C269.854 149.298 269.714 149.39 269.578 149.434C265.218 152.54 262.619 162.554 265.218 162.738C266.795 162.878 269.438 159.496 270.875 155.554Z" fill="#51B5DC" fill-opacity="0.75"/>
<path d="M253.995 165.196C255.292 161.906 254.411 160.377 254.087 159.865C253.254 158.892 252.373 158.708 250.748 159.172C246.159 161.117 242.912 167.745 244.95 170.991C247.457 173.82 252.373 169.37 253.995 165.196Z" fill="#51B5DC" fill-opacity="0.75"/>
<path d="M248.614 144.615C242.308 147.117 240.827 156.759 245.183 158.291C247.966 159.264 252.093 156.342 253.487 151.059C254.412 146.329 252.326 143.595 248.614 144.615Z" fill="#51B5DC" fill-opacity="0.75"/>
<path d="M262.154 165.66C263.92 161.721 263.315 158.892 260.857 159.68C256.453 161.301 252.049 171.271 255.2 172.336C256.961 172.984 260.349 169.694 262.154 165.66Z" fill="#51B5DC" fill-opacity="0.75"/>
<path d="M266.098 148.974C266.979 145.448 266.607 140.861 262.899 141.694C258.03 143.547 255.016 152.54 257.01 156.158C259.048 159.82 264.429 155.602 266.098 148.974Z" fill="#51B5DC" fill-opacity="0.75"/>
</g>
<defs>
<clipPath id="clip0_77_19675">
<rect width="295.244" height="247.602" fill="white" transform="translate(122.256 -11) rotate(29.5881)"/>
</clipPath>
<clipPath id="clip1_77_19675">
<rect width="203.09" height="222.824" fill="white" transform="translate(82.6338 0.922302)"/>
</clipPath>
</defs>
</svg>
