<svg width="24" height="25" viewBox="0 0 24 25" fill="none" xmlns="http://www.w3.org/2000/svg">
<path d="M6.08582 24.4524C5.15753 24.4421 4.23797 24.2718 3.3675 23.9491C2.73184 23.7142 2.15673 23.3401 1.68422 22.8543C1.19711 22.3827 0.822506 21.8075 0.58823 21.1713C0.265822 20.3008 0.0958067 19.3814 0.0856462 18.4532C0.0143528 16.9101 0 16.4473 0 12.5375C0 8.62764 0.0157646 8.16646 0.0849403 6.62224C0.0963338 5.69443 0.266558 4.77543 0.58823 3.90509C0.823646 3.26934 1.19772 2.694 1.68328 2.22088C2.15521 1.7342 2.73059 1.35995 3.36679 1.12583C4.23726 0.803152 5.15682 0.632898 6.08512 0.622538C7.62863 0.55195 8.09216 0.537598 11.9999 0.537598C15.9076 0.537598 16.3709 0.553362 17.9151 0.622538C18.8432 0.633851 19.7624 0.804076 20.633 1.12583C21.2689 1.36026 21.8441 1.73438 22.3163 2.22064C22.8027 2.69293 23.1769 3.2683 23.4115 3.90439C23.7343 4.77484 23.9046 5.69441 23.9151 6.62271C23.9856 8.16693 24 8.62928 24 12.538C24 16.4466 23.9856 16.909 23.9151 18.4532C23.9039 19.3813 23.7335 20.3007 23.4115 21.1713C23.168 21.8026 22.7949 22.3759 22.3163 22.8544C21.8378 23.3328 21.2644 23.7057 20.633 23.9491C19.7625 24.2719 18.843 24.4422 17.9146 24.4527C16.3718 24.5232 15.9081 24.5376 11.9994 24.5376C8.09074 24.5376 7.6284 24.524 6.08559 24.4527" fill="url(#paint0_radial_24_2237)"/>
<path d="M6.08582 24.4524C5.15753 24.4421 4.23797 24.2718 3.3675 23.9491C2.73184 23.7142 2.15673 23.3401 1.68422 22.8543C1.19711 22.3827 0.822506 21.8075 0.58823 21.1713C0.265822 20.3008 0.0958067 19.3814 0.0856462 18.4532C0.0143528 16.9101 0 16.4473 0 12.5375C0 8.62764 0.0157646 8.16646 0.0849403 6.62224C0.0963338 5.69443 0.266558 4.77543 0.58823 3.90509C0.823646 3.26934 1.19772 2.694 1.68328 2.22088C2.15521 1.7342 2.73059 1.35995 3.36679 1.12583C4.23726 0.803152 5.15682 0.632898 6.08512 0.622538C7.62863 0.55195 8.09216 0.537598 11.9999 0.537598C15.9076 0.537598 16.3709 0.553362 17.9151 0.622538C18.8432 0.633851 19.7624 0.804076 20.633 1.12583C21.2689 1.36026 21.8441 1.73438 22.3163 2.22064C22.8027 2.69293 23.1769 3.2683 23.4115 3.90439C23.7343 4.77484 23.9046 5.69441 23.9151 6.62271C23.9856 8.16693 24 8.62928 24 12.538C24 16.4466 23.9856 16.909 23.9151 18.4532C23.9039 19.3813 23.7335 20.3007 23.4115 21.1713C23.168 21.8026 22.7949 22.3759 22.3163 22.8544C21.8378 23.3328 21.2644 23.7057 20.633 23.9491C19.7625 24.2719 18.843 24.4422 17.9146 24.4527C16.3718 24.5232 15.9081 24.5376 11.9994 24.5376C8.09074 24.5376 7.6284 24.524 6.08559 24.4527" fill="url(#paint1_radial_24_2237)"/>
<path d="M9.0533 12.5888C9.05335 12.001 9.2277 11.4264 9.55432 10.9377C9.88093 10.4489 10.3451 10.068 10.8882 9.84316C11.4313 9.61827 12.0289 9.55948 12.6054 9.67421C13.1819 9.78895 13.7114 10.0721 14.127 10.4878C14.5426 10.9035 14.8256 11.4331 14.9402 12.0096C15.0548 12.5861 14.9959 13.1837 14.7709 13.7267C14.5458 14.2698 14.1648 14.7339 13.676 15.0604C13.1872 15.3869 12.6126 15.5611 12.0248 15.561C11.2366 15.5609 10.4808 15.2477 9.92352 14.6903C9.36626 14.1329 9.05324 13.377 9.0533 12.5888ZM7.44649 12.5888C7.44649 13.4943 7.715 14.3795 8.21808 15.1324C8.72115 15.8853 9.43618 16.4721 10.2728 16.8186C11.1093 17.1651 12.0299 17.2558 12.918 17.0791C13.8061 16.9025 14.6219 16.4664 15.2622 15.8261C15.9024 15.1858 16.3385 14.3701 16.5151 13.482C16.6918 12.5939 16.6011 11.6733 16.2546 10.8367C15.9081 10.0002 15.3213 9.28513 14.5684 8.78205C13.8155 8.27898 12.9303 8.01047 12.0248 8.01047C11.4236 8.01044 10.8282 8.12884 10.2727 8.35891C9.71724 8.58898 9.21252 8.92622 8.78738 9.35136C8.36224 9.7765 8.025 10.2812 7.79493 10.8367C7.56486 11.3922 7.44646 11.9875 7.44649 12.5888ZM15.7144 7.82906C15.7143 8.04066 15.777 8.24754 15.8945 8.42353C16.0119 8.59952 16.179 8.73672 16.3744 8.81779C16.5699 8.89885 16.785 8.92013 16.9925 8.87894C17.2001 8.83775 17.3908 8.73594 17.5405 8.58638C17.6902 8.43682 17.7921 8.24623 17.8335 8.03872C17.8749 7.8312 17.8538 7.61608 17.7729 7.42055C17.692 7.22502 17.5549 7.05787 17.3791 6.94023C17.2032 6.8226 16.9964 6.75976 16.7847 6.75966C16.5011 6.75979 16.2291 6.87248 16.0285 7.07299C15.8279 7.2735 15.7151 7.54543 15.7149 7.82906M8.42319 19.8464C7.85781 19.8401 7.29772 19.7367 6.76743 19.5405C6.38287 19.3923 6.0336 19.1651 5.74211 18.8738C5.45062 18.5824 5.22337 18.2332 5.07498 17.8487C4.8787 17.3185 4.77523 16.7584 4.76911 16.193C4.72581 15.2532 4.71734 14.9709 4.71734 12.59C4.71734 10.209 4.72675 9.9274 4.76911 8.9867C4.77596 8.42139 4.87941 7.8614 5.07498 7.33095C5.2232 6.94626 5.45038 6.59691 5.74189 6.3054C6.03339 6.0139 6.38275 5.78671 6.76743 5.63849C7.29769 5.44221 7.8578 5.33874 8.42319 5.33262C9.36294 5.28932 9.64529 5.28085 12.0253 5.28085C14.4052 5.28085 14.6878 5.29003 15.6285 5.33286C16.1938 5.33971 16.7538 5.44316 17.2843 5.63873C17.669 5.78696 18.0183 6.01415 18.3098 6.30565C18.6013 6.59716 18.8285 6.94651 18.9767 7.33118C19.173 7.86144 19.2765 8.42155 19.2826 8.98694C19.3259 9.9281 19.3344 10.209 19.3344 12.5902C19.3344 14.9713 19.3257 15.2528 19.2826 16.1935C19.276 16.7588 19.1726 17.3188 18.9767 17.8492C18.8283 18.2337 18.6011 18.5829 18.3096 18.8742C18.0181 19.1656 17.6688 19.3927 17.2843 19.5409C16.754 19.7372 16.1939 19.8407 15.6285 19.8468C14.6888 19.8901 14.4064 19.8986 12.0253 19.8986C9.64411 19.8986 9.36271 19.8899 8.42319 19.8468M8.34931 3.72722C7.60951 3.74177 6.87755 3.88179 6.18462 4.14133C5.59227 4.37036 5.05432 4.72064 4.60525 5.16971C4.15618 5.61878 3.8059 6.15673 3.57688 6.74907C3.31737 7.44201 3.17735 8.17397 3.16277 8.91376C3.11877 9.86434 3.10889 10.1683 3.10889 12.5897C3.10889 15.0111 3.11901 15.3149 3.16277 16.2657C3.17735 17.0055 3.31737 17.7374 3.57688 18.4304C3.80592 19.0227 4.1562 19.5607 4.60527 20.0097C5.05434 20.4588 5.59228 20.8091 6.18462 21.0381C6.87758 21.2975 7.60952 21.4376 8.34931 21.4522C9.30036 21.4955 9.60388 21.5061 12.0253 21.5061C14.4467 21.5061 14.7504 21.496 15.7012 21.4522C16.441 21.4376 17.173 21.2976 17.8659 21.0381C18.4583 20.8091 18.9962 20.4588 19.4453 20.0097C19.8943 19.5607 20.2446 19.0227 20.4737 18.4304C20.7335 17.7375 20.8735 17.0055 20.8878 16.2657C20.9311 15.3144 20.9409 15.0111 20.9409 12.5897C20.9409 10.1683 20.9308 9.86457 20.8878 8.91376C20.8732 8.17396 20.7332 7.442 20.4737 6.74907C20.2446 6.15684 19.8944 5.61897 19.4455 5.16991C18.9966 4.72086 18.4588 4.37052 17.8666 4.14133C17.1737 3.88162 16.4418 3.7416 15.7019 3.72722C14.7511 3.68369 14.4474 3.67334 12.0264 3.67334C9.60553 3.67334 9.30106 3.68346 8.34977 3.72722" fill="white"/>
<defs>
<radialGradient id="paint0_radial_24_2237" cx="0" cy="0" r="1" gradientUnits="userSpaceOnUse" gradientTransform="translate(1.55316 24.0117) scale(30.4708)">
<stop offset="0.09" stop-color="#FA8F21"/>
<stop offset="0.78" stop-color="#D82D7E"/>
</radialGradient>
<radialGradient id="paint1_radial_24_2237" cx="0" cy="0" r="1" gradientUnits="userSpaceOnUse" gradientTransform="translate(16.6238 23.2409) scale(26.8146)">
<stop offset="0.64" stop-color="#8C3AAA" stop-opacity="0"/>
<stop offset="1" stop-color="#8C3AAA"/>
</radialGradient>
</defs>
</svg>
