<svg width="24" height="25" viewBox="0 0 24 25" fill="none" xmlns="http://www.w3.org/2000/svg">
<path d="M12 0.537598C5.37253 0.537598 0 5.91014 0 12.5376C0 19.1651 5.37253 24.5376 12 24.5376C18.6274 24.5376 24 19.1651 24 12.5376C24 5.91014 18.6273 0.537598 12 0.537598ZM8.79836 18.339H6.16364V9.82701H8.79836V18.339ZM7.46845 8.7123C6.60798 8.7123 5.91041 8.00905 5.91041 7.14168C5.91041 6.27422 6.60807 5.57102 7.46845 5.57102C8.32882 5.57102 9.02638 6.27422 9.02638 7.14168C9.02643 8.0091 8.32887 8.7123 7.46845 8.7123ZM18.672 18.339H16.05V13.8709C16.05 12.6455 15.5845 11.9614 14.6155 11.9614C13.5609 11.9614 13.01 12.6739 13.01 13.8709V18.339H10.483V9.82701H13.01V10.9734C13.01 10.9734 13.7701 9.56737 15.575 9.56737C17.3799 9.56737 18.672 10.6695 18.672 12.9493L18.672 18.339Z" fill="url(#paint0_linear_24_2242)"/>
<defs>
<linearGradient id="paint0_linear_24_2242" x1="3.51471" y1="4.05231" x2="20.4853" y2="21.0228" gradientUnits="userSpaceOnUse">
<stop stop-color="#2489BE"/>
<stop offset="1" stop-color="#0575B3"/>
</linearGradient>
</defs>
</svg>
