<svg width="24" height="25" viewBox="0 0 24 25" fill="none" xmlns="http://www.w3.org/2000/svg">
<mask id="mask0_24_2245" style="mask-type:luminance" maskUnits="userSpaceOnUse" x="0" y="0" width="24" height="25">
<path d="M24 0.537598H0V24.5376H24V0.537598Z" fill="white"/>
</mask>
<g mask="url(#mask0_24_2245)">
<path d="M21.1875 0.537598H2.8125C1.2592 0.537598 0 1.7968 0 3.3501V21.7251C0 23.2784 1.2592 24.5376 2.8125 24.5376H21.1875C22.7408 24.5376 24 23.2784 24 21.7251V3.3501C24 1.7968 22.7408 0.537598 21.1875 0.537598Z" fill="black"/>
<path d="M16.6829 5.2251H19.1639L13.7437 11.4201L20.1202 19.8501H15.1274L11.2169 14.7373L6.74241 19.8501H4.25993L10.0574 13.2238L3.94043 5.2251H9.05991L12.5947 9.89835L16.6829 5.2251ZM15.8122 18.3651H17.1869L8.31291 6.6321H6.83766L15.8122 18.3651Z" fill="white"/>
</g>
</svg>
