<svg width="50" height="50" viewBox="0 0 50 50" fill="none" xmlns="http://www.w3.org/2000/svg">
<g clip-path="url(#clip0_71_1450)">
<mask id="mask0_71_1450" style="mask-type:luminance" maskUnits="userSpaceOnUse" x="0" y="0" width="50" height="50">
<path d="M0 0H50V50H0V0Z" fill="white"/>
</mask>
<g mask="url(#mask0_71_1450)">
<path d="M46.6667 36.6667H28.3333C27.4154 36.6667 26.6667 35.918 26.6667 35V18.3333H48.3333V35C48.3333 35.918 47.5846 36.6667 46.6667 36.6667ZM38.3333 41.6667H11.6667V36.6667C12.0013 36.6667 12.3372 36.6536 12.6693 36.6237C13.2122 36.5716 13.6784 36.224 13.8893 35.7031L14.4336 34.3451C15.0872 34.1497 15.7161 33.8893 16.3151 33.5638L17.6654 34.1406C18.1732 34.3581 18.7565 34.2773 19.1758 33.9258C19.4336 33.7135 19.6771 33.4857 19.9154 33.2487C20.1523 33.0104 20.3802 32.7669 20.5951 32.5091C20.944 32.0898 21.0247 31.5104 20.8073 30.9987L20.2305 29.6484C20.556 29.0495 20.8164 28.4206 21.0117 27.7669L22.3698 27.2227C22.3724 27.2201 22.3724 27.2201 22.3724 27.2201C22.8906 27.0117 23.2383 26.5456 23.2904 26.0026C23.3203 25.6706 23.3333 25.3346 23.3333 25C23.3333 24.6641 23.3203 24.3294 23.2904 23.9974C23.2383 23.4531 22.8906 22.9883 22.3698 22.776L21.0117 22.2331C20.8164 21.5781 20.556 20.9505 20.2305 20.3516L20.8073 19C21.0247 18.4896 20.944 17.9102 20.5924 17.4896C20.3802 17.2331 20.1523 16.9883 19.9154 16.7513C19.6771 16.513 19.4336 16.2852 19.1758 16.0703C18.7565 15.7227 18.1732 15.6406 17.6654 15.8594L16.3151 16.4349C15.7161 16.1094 15.0872 15.849 14.4336 15.6536L13.8867 14.293C13.6784 13.776 13.2122 13.4271 12.6693 13.375C12.3372 13.3464 12.0013 13.3294 11.6667 13.3294V8.33333H38.3333V10H28.3333C26.4935 10 25 11.4935 25 13.3333V35C25 36.8385 26.4935 38.3333 28.3333 38.3333H38.3333V41.6667ZM36.6667 48.3333H13.3333C12.4154 48.3333 11.6667 47.5846 11.6667 46.6667V43.3333H38.3333V46.6667C38.3333 47.5846 37.5846 48.3333 36.6667 48.3333ZM7.5026 31.9206C7.27214 31.7799 6.98828 31.7578 6.74089 31.8646L5.1237 32.5612C4.94141 32.4049 4.76563 32.2422 4.59635 32.0703C4.42708 31.901 4.26042 31.7253 4.10417 31.543L4.80078 29.9219C4.90495 29.6745 4.88542 29.3945 4.74609 29.1628C4.32943 28.4727 4.01953 27.7279 3.82422 26.9466C3.75911 26.6862 3.57422 26.474 3.32682 26.3737L1.69271 25.7188C1.67578 25.4818 1.66667 25.2409 1.66667 25C1.66667 24.7591 1.67578 24.5182 1.69271 24.2799L3.32682 23.6263C3.57422 23.5247 3.75911 23.3138 3.82422 23.0534C4.01953 22.2721 4.32943 21.526 4.74609 20.8359C4.88542 20.6055 4.90495 20.3216 4.80078 20.0742L4.10417 18.457C4.26042 18.2747 4.42708 18.099 4.59635 17.9297C4.76563 17.7565 4.94141 17.5938 5.1237 17.4375L6.74479 18.1341C6.98828 18.2383 7.27214 18.2188 7.5026 18.0794C8.19271 17.6628 8.9388 17.3529 9.72005 17.1576C9.98047 17.0924 10.1914 16.9076 10.293 16.6602L10.9466 15.026C11.4219 14.9896 11.9076 14.9896 12.3854 15.026L13.0404 16.6602C13.1406 16.9076 13.3529 17.0924 13.6133 17.1576C14.3945 17.3529 15.1393 17.6628 15.8294 18.0794C16.0612 18.2188 16.3411 18.2383 16.5885 18.1341L18.2096 17.4375C18.3919 17.5938 18.5677 17.7565 18.737 17.9297C18.9089 18.099 19.0716 18.2747 19.2279 18.457L18.5312 20.0742C18.4271 20.3216 18.4466 20.6055 18.5872 20.8359C19.0039 21.526 19.3125 22.2721 19.5078 23.0534C19.5729 23.3138 19.7591 23.5247 20.0065 23.6263L21.6406 24.2799C21.6562 24.5182 21.6667 24.7591 21.6667 25C21.6667 25.2409 21.6562 25.4818 21.6406 25.7188L20.0065 26.3737C19.7591 26.474 19.5729 26.6862 19.5078 26.9466C19.3125 27.7279 19.0039 28.4727 18.5872 29.1628C18.4466 29.3945 18.4271 29.6745 18.5312 29.9219L19.2279 31.543C19.0716 31.7253 18.9089 31.901 18.737 32.0703C18.5677 32.2422 18.3919 32.4049 18.2096 32.5612L16.5911 31.8646C16.3411 31.7578 16.0612 31.7799 15.8294 31.9206C15.1393 32.3372 14.3945 32.6458 13.6133 32.8411C13.3529 32.9062 13.1406 33.0924 13.0404 33.3398L12.3854 34.974C11.9102 35.0091 11.4258 35.0091 10.9466 34.974L10.293 33.3398C10.1914 33.0924 9.98047 32.9062 9.72005 32.8411C8.9388 32.6458 8.19271 32.3372 7.5026 31.9206ZM13.3333 1.66667H36.6667C37.5846 1.66667 38.3333 2.41536 38.3333 3.33333V6.66667H11.6667V3.33333C11.6667 2.41536 12.4154 1.66667 13.3333 1.66667ZM48.3333 13.3333V16.6667H26.6667V13.3333C26.6667 12.4154 27.4154 11.6667 28.3333 11.6667H46.6667C47.5846 11.6667 48.3333 12.4154 48.3333 13.3333ZM46.6667 10H40V3.33333C40 1.49349 38.5052 0 36.6667 0H13.3333C11.4935 0 10 1.49349 10 3.33333V13.6198C9.75912 13.7826 9.5599 14.0104 9.44271 14.2969L8.89974 15.6536C8.24479 15.849 7.61328 16.1094 7.01823 16.4349L5.66667 15.8594C5.15625 15.6406 4.57682 15.7227 4.15625 16.0742C3.89974 16.2852 3.65495 16.513 3.41797 16.7513C3.17969 16.9883 2.95182 17.2331 2.74089 17.4896C2.38932 17.9102 2.30729 18.4896 2.52604 19L3.10547 20.3516C2.77604 20.9505 2.51562 21.5781 2.32031 22.2331L0.959635 22.7799C0.442708 22.9883 0.0937499 23.4531 0.0455729 23.9974C0.0130206 24.3294 0 24.6641 0 25C0 25.3346 0.0130206 25.6706 0.0455729 26.0026C0.0937499 26.5456 0.442708 27.0117 0.963542 27.2227L2.32031 27.7669C2.51562 28.4206 2.77604 29.0495 3.10547 29.6484L2.52604 30.9987C2.30729 31.5104 2.38932 32.0898 2.74089 32.5091C2.95182 32.7669 3.17969 33.0104 3.41797 33.2487C3.65495 33.4857 3.89974 33.7135 4.15625 33.9284C4.57682 34.2773 5.15625 34.3581 5.66667 34.1406L7.01823 33.5638C7.61328 33.8893 8.24479 34.1497 8.89974 34.3451L9.44662 35.7057C9.5599 35.9922 9.75912 36.2174 10 36.3802V46.6667C10 48.5052 11.4935 50 13.3333 50H36.6667C38.5052 50 40 48.5052 40 46.6667V38.3333H46.6667C48.5052 38.3333 50 36.8385 50 35V13.3333C50 11.4935 48.5052 10 46.6667 10Z" fill="white"/>
</g>
<path d="M6.66667 24.9999C6.66667 22.828 8.0625 20.9791 10 20.289V22.1288C9.00651 22.7083 8.33333 23.7721 8.33333 24.9999C8.33333 26.2265 9.00651 27.2916 10 27.871V29.7096C8.0625 29.0195 6.66667 27.1705 6.66667 24.9999ZM11.6667 23.3333C12.5846 23.3333 13.3333 24.082 13.3333 24.9999C13.3333 25.9179 12.5846 26.6666 11.6667 26.6666C10.7487 26.6666 10 25.9179 10 24.9999C10 24.082 10.7487 23.3333 11.6667 23.3333ZM16.6667 24.9999C16.6667 27.7564 14.4232 29.9999 11.6667 29.9999V28.3333C13.5052 28.3333 15 26.8385 15 24.9999C15 23.1601 13.5052 21.6666 11.6667 21.6666V19.9999C14.4232 19.9999 16.6667 22.2421 16.6667 24.9999ZM18.3333 24.9999C18.3333 21.3241 15.3411 18.3333 11.6667 18.3333C7.99089 18.3333 5 21.3241 5 24.9999C5 28.6744 7.99089 31.6666 11.6667 31.6666C15.3411 31.6666 18.3333 28.6744 18.3333 24.9999Z" fill="white"/>
<path d="M30 25V21.6667H45L45.0026 25H30ZM45 20H30C29.0821 20 28.3334 20.7487 28.3334 21.6667V25C28.3334 25.918 29.0821 26.6667 30 26.6667H45C45.918 26.6667 46.6667 25.918 46.6667 25V21.6667C46.6667 20.7487 45.918 20 45 20Z" fill="white"/>
<path d="M21.6667 4.99992H22.5C22.9584 4.99992 23.3334 4.62492 23.3334 4.16659C23.3334 3.70695 22.9584 3.33325 22.5 3.33325H21.6667C21.2071 3.33325 20.8334 3.70695 20.8334 4.16659C20.8334 4.62492 21.2071 4.99992 21.6667 4.99992Z" fill="white"/>
<path d="M25.8333 4.99992H28.3333C28.7917 4.99992 29.1667 4.62492 29.1667 4.16659C29.1667 3.70695 28.7917 3.33325 28.3333 3.33325H25.8333C25.3737 3.33325 25 3.70695 25 4.16659C25 4.62492 25.3737 4.99992 25.8333 4.99992Z" fill="white"/>
<path d="M26.6667 45H23.3333C22.8737 45 22.5 45.3737 22.5 45.8333C22.5 46.2917 22.8737 46.6667 23.3333 46.6667H26.6667C27.125 46.6667 27.5 46.2917 27.5 45.8333C27.5 45.3737 27.125 45 26.6667 45Z" fill="white"/>
<path d="M30 13.3333H29.1667C28.7071 13.3333 28.3334 13.7069 28.3334 14.1666C28.3334 14.6249 28.7071 14.9999 29.1667 14.9999H30C30.4584 14.9999 30.8334 14.6249 30.8334 14.1666C30.8334 13.7069 30.4584 13.3333 30 13.3333Z" fill="white"/>
<path d="M34.1667 13.3333H33.3333C32.8737 13.3333 32.5 13.7069 32.5 14.1666C32.5 14.6249 32.8737 14.9999 33.3333 14.9999H34.1667C34.625 14.9999 35 14.6249 35 14.1666C35 13.7069 34.625 13.3333 34.1667 13.3333Z" fill="white"/>
<path d="M41.6667 14.9999H45.8334C46.2917 14.9999 46.6667 14.6249 46.6667 14.1666C46.6667 13.7069 46.2917 13.3333 45.8334 13.3333H41.6667C41.2071 13.3333 40.8334 13.7069 40.8334 14.1666C40.8334 14.6249 41.2071 14.9999 41.6667 14.9999Z" fill="white"/>
<path d="M38.3333 28.3333H30.8333C30.3737 28.3333 30 28.7069 30 29.1666C30 29.6249 30.3737 29.9999 30.8333 29.9999H38.3333C38.7917 29.9999 39.1667 29.6249 39.1667 29.1666C39.1667 28.7069 38.7917 28.3333 38.3333 28.3333Z" fill="white"/>
<path d="M36.6667 31.6667H30.8333C30.3737 31.6667 30 32.0404 30 32.5001C30 32.9584 30.3737 33.3334 30.8333 33.3334H36.6667C37.125 33.3334 37.5 32.9584 37.5 32.5001C37.5 32.0404 37.125 31.6667 36.6667 31.6667Z" fill="white"/>
<path d="M44.1667 28.3333H41.6667C41.2071 28.3333 40.8334 28.7069 40.8334 29.1666C40.8334 29.6249 41.2071 29.9999 41.6667 29.9999H44.1667C44.625 29.9999 45 29.6249 45 29.1666C45 28.7069 44.625 28.3333 44.1667 28.3333Z" fill="white"/>
<path d="M42.5 31.6667H40C39.5403 31.6667 39.1666 32.0404 39.1666 32.5001C39.1666 32.9584 39.5403 33.3334 40 33.3334H42.5C42.9583 33.3334 43.3333 32.9584 43.3333 32.5001C43.3333 32.0404 42.9583 31.6667 42.5 31.6667Z" fill="white"/>
</g>
<defs>
<clipPath id="clip0_71_1450">
<rect width="50" height="50" fill="white"/>
</clipPath>
</defs>
</svg>
