<svg width="50" height="51" viewBox="0 0 50 51" fill="none" xmlns="http://www.w3.org/2000/svg">
<g clip-path="url(#clip0_61_1545)">
<mask id="mask0_61_1545" style="mask-type:luminance" maskUnits="userSpaceOnUse" x="0" y="0" width="50" height="51">
<path d="M0 0.934326H50V50.9343H0V0.934326Z" fill="white"/>
</mask>
<g mask="url(#mask0_61_1545)">
<path d="M46.6667 37.601H28.3333C27.4154 37.601 26.6667 36.8523 26.6667 35.9343V19.2677H48.3333V35.9343C48.3333 36.8523 47.5846 37.601 46.6667 37.601ZM38.3333 42.601H11.6667V37.601C12.0013 37.601 12.3372 37.588 12.6693 37.558C13.2122 37.5059 13.6784 37.1583 13.8893 36.6375L14.4336 35.2794C15.0872 35.0841 15.7161 34.8237 16.3151 34.4981L17.6654 35.075C18.1732 35.2924 18.7565 35.2117 19.1758 34.8601C19.4336 34.6479 19.6771 34.42 19.9154 34.183C20.1523 33.9447 20.3802 33.7013 20.5951 33.4434C20.944 33.0242 21.0247 32.4447 20.8073 31.933L20.2305 30.5828C20.556 29.9838 20.8164 29.3549 21.0117 28.7013L22.3698 28.157C22.3724 28.1544 22.3724 28.1544 22.3724 28.1544C22.8906 27.946 23.2383 27.4799 23.2904 26.9369C23.3203 26.6049 23.3333 26.269 23.3333 25.9343C23.3333 25.5984 23.3203 25.2638 23.2904 24.9317C23.2383 24.3875 22.8906 23.9226 22.3698 23.7104L21.0117 23.1674C20.8164 22.5125 20.556 21.8848 20.2305 21.2859L20.8073 19.9343C21.0247 19.4239 20.944 18.8445 20.5924 18.4239C20.3802 18.1674 20.1523 17.9226 19.9154 17.6856C19.6771 17.4473 19.4336 17.2195 19.1758 17.0046C18.7565 16.657 18.1732 16.575 17.6654 16.7937L16.3151 17.3692C15.7161 17.0437 15.0872 16.7833 14.4336 16.588L13.8867 15.2273C13.6784 14.7104 13.2122 14.3614 12.6693 14.3093C12.3372 14.2807 12.0013 14.2638 11.6667 14.2638V9.26766H38.3333V10.9343H28.3333C26.4935 10.9343 25 12.4278 25 14.2677V35.9343C25 37.7729 26.4935 39.2677 28.3333 39.2677H38.3333V42.601ZM36.6667 49.2677H13.3333C12.4154 49.2677 11.6667 48.519 11.6667 47.601V44.2677H38.3333V47.601C38.3333 48.519 37.5846 49.2677 36.6667 49.2677ZM7.5026 32.8549C7.27214 32.7143 6.98828 32.6921 6.74089 32.7989L5.1237 33.4955C4.94141 33.3393 4.76563 33.1765 4.59635 33.0046C4.42708 32.8354 4.26042 32.6596 4.10417 32.4773L4.80078 30.8562C4.90495 30.6088 4.88542 30.3289 4.74609 30.0971C4.32943 29.407 4.01953 28.6622 3.82422 27.8809C3.75911 27.6205 3.57422 27.4083 3.32682 27.308L1.69271 26.6531C1.67578 26.4161 1.66667 26.1752 1.66667 25.9343C1.66667 25.6934 1.67578 25.4526 1.69271 25.2143L3.32682 24.5606C3.57422 24.4591 3.75911 24.2481 3.82422 23.9877C4.01953 23.2065 4.32943 22.4604 4.74609 21.7703C4.88542 21.5398 4.90495 21.2559 4.80078 21.0085L4.10417 19.3914C4.26042 19.2091 4.42708 19.0333 4.59635 18.864C4.76563 18.6908 4.94141 18.5281 5.1237 18.3718L6.74479 19.0684C6.98828 19.1726 7.27214 19.1531 7.5026 19.0138C8.19271 18.5971 8.9388 18.2872 9.72005 18.0919C9.98047 18.0268 10.1914 17.8419 10.293 17.5945L10.9466 15.9604C11.4219 15.9239 11.9076 15.9239 12.3854 15.9604L13.0404 17.5945C13.1406 17.8419 13.3529 18.0268 13.6133 18.0919C14.3945 18.2872 15.1393 18.5971 15.8294 19.0138C16.0612 19.1531 16.3411 19.1726 16.5885 19.0684L18.2096 18.3718C18.3919 18.5281 18.5677 18.6908 18.737 18.864C18.9089 19.0333 19.0716 19.2091 19.2279 19.3914L18.5312 21.0085C18.4271 21.2559 18.4466 21.5398 18.5872 21.7703C19.0039 22.4604 19.3125 23.2065 19.5078 23.9877C19.5729 24.2481 19.7591 24.4591 20.0065 24.5606L21.6406 25.2143C21.6562 25.4526 21.6667 25.6934 21.6667 25.9343C21.6667 26.1752 21.6562 26.4161 21.6406 26.6531L20.0065 27.308C19.7591 27.4083 19.5729 27.6205 19.5078 27.8809C19.3125 28.6622 19.0039 29.407 18.5872 30.0971C18.4466 30.3289 18.4271 30.6088 18.5312 30.8562L19.2279 32.4773C19.0716 32.6596 18.9089 32.8354 18.737 33.0046C18.5677 33.1765 18.3919 33.3393 18.2096 33.4955L16.5911 32.7989C16.3411 32.6921 16.0612 32.7143 15.8294 32.8549C15.1393 33.2716 14.3945 33.5802 13.6133 33.7755C13.3529 33.8406 13.1406 34.0268 13.0404 34.2742L12.3854 35.9083C11.9102 35.9434 11.4258 35.9434 10.9466 35.9083L10.293 34.2742C10.1914 34.0268 9.98047 33.8406 9.72005 33.7755C8.9388 33.5802 8.19271 33.2716 7.5026 32.8549ZM13.3333 2.60099H36.6667C37.5846 2.60099 38.3333 3.34969 38.3333 4.26766V7.60099H11.6667V4.26766C11.6667 3.34969 12.4154 2.60099 13.3333 2.60099ZM48.3333 14.2677V17.601H26.6667V14.2677C26.6667 13.3497 27.4154 12.601 28.3333 12.601H46.6667C47.5846 12.601 48.3333 13.3497 48.3333 14.2677ZM46.6667 10.9343H40V4.26766C40 2.42782 38.5052 0.934326 36.6667 0.934326H13.3333C11.4935 0.934326 10 2.42782 10 4.26766V14.5541C9.75912 14.7169 9.5599 14.9447 9.44271 15.2312L8.89974 16.588C8.24479 16.7833 7.61328 17.0437 7.01823 17.3692L5.66667 16.7937C5.15625 16.575 4.57682 16.657 4.15625 17.0085C3.89974 17.2195 3.65495 17.4473 3.41797 17.6856C3.17969 17.9226 2.95182 18.1674 2.74089 18.4239C2.38932 18.8445 2.30729 19.4239 2.52604 19.9343L3.10547 21.2859C2.77604 21.8848 2.51562 22.5125 2.32031 23.1674L0.959635 23.7143C0.442708 23.9226 0.0937499 24.3875 0.0455729 24.9317C0.0130206 25.2638 0 25.5984 0 25.9343C0 26.269 0.0130206 26.6049 0.0455729 26.9369C0.0937499 27.4799 0.442708 27.946 0.963542 28.157L2.32031 28.7013C2.51562 29.3549 2.77604 29.9838 3.10547 30.5828L2.52604 31.933C2.30729 32.4447 2.38932 33.0242 2.74089 33.4434C2.95182 33.7013 3.17969 33.9447 3.41797 34.183C3.65495 34.42 3.89974 34.6479 4.15625 34.8627C4.57682 35.2117 5.15625 35.2924 5.66667 35.075L7.01823 34.4981C7.61328 34.8237 8.24479 35.0841 8.89974 35.2794L9.44662 36.6401C9.5599 36.9265 9.75912 37.1518 10 37.3145V47.601C10 49.4395 11.4935 50.9343 13.3333 50.9343H36.6667C38.5052 50.9343 40 49.4395 40 47.601V39.2677H46.6667C48.5052 39.2677 50 37.7729 50 35.9343V14.2677C50 12.4278 48.5052 10.9343 46.6667 10.9343Z" fill="#1E4F8E"/>
</g>
<path d="M6.66667 25.9342C6.66667 23.7624 8.0625 21.9134 10 21.2233V23.0632C9.00651 23.6426 8.33333 24.7064 8.33333 25.9342C8.33333 27.1608 9.00651 28.2259 10 28.8053V30.6439C8.0625 29.9538 6.66667 28.1048 6.66667 25.9342ZM11.6667 24.2676C12.5846 24.2676 13.3333 25.0163 13.3333 25.9342C13.3333 26.8522 12.5846 27.6009 11.6667 27.6009C10.7487 27.6009 10 26.8522 10 25.9342C10 25.0163 10.7487 24.2676 11.6667 24.2676ZM16.6667 25.9342C16.6667 28.6908 14.4232 30.9342 11.6667 30.9342V29.2676C13.5052 29.2676 15 27.7728 15 25.9342C15 24.0944 13.5052 22.6009 11.6667 22.6009V20.9342C14.4232 20.9342 16.6667 23.1764 16.6667 25.9342ZM18.3333 25.9342C18.3333 22.2585 15.3411 19.2676 11.6667 19.2676C7.99089 19.2676 5 22.2585 5 25.9342C5 29.6087 7.99089 32.6009 11.6667 32.6009C15.3411 32.6009 18.3333 29.6087 18.3333 25.9342Z" fill="#1E4F8E"/>
<path d="M30 25.9343V22.601H45L45.0026 25.9343H30ZM45 20.9343H30C29.0821 20.9343 28.3334 21.683 28.3334 22.601V25.9343C28.3334 26.8523 29.0821 27.601 30 27.601H45C45.918 27.601 46.6667 26.8523 46.6667 25.9343V22.601C46.6667 21.683 45.918 20.9343 45 20.9343Z" fill="#1E4F8E"/>
<path d="M21.6667 5.93424H22.5C22.9584 5.93424 23.3334 5.55924 23.3334 5.10091C23.3334 4.64128 22.9584 4.26758 22.5 4.26758H21.6667C21.2071 4.26758 20.8334 4.64128 20.8334 5.10091C20.8334 5.55924 21.2071 5.93424 21.6667 5.93424Z" fill="#1E4F8E"/>
<path d="M25.8333 5.93424H28.3333C28.7917 5.93424 29.1667 5.55924 29.1667 5.10091C29.1667 4.64128 28.7917 4.26758 28.3333 4.26758H25.8333C25.3737 4.26758 25 4.64128 25 5.10091C25 5.55924 25.3737 5.93424 25.8333 5.93424Z" fill="#1E4F8E"/>
<path d="M26.6667 45.9343H23.3333C22.8737 45.9343 22.5 46.308 22.5 46.7677C22.5 47.226 22.8737 47.601 23.3333 47.601H26.6667C27.125 47.601 27.5 47.226 27.5 46.7677C27.5 46.308 27.125 45.9343 26.6667 45.9343Z" fill="#1E4F8E"/>
<path d="M30 14.2676H29.1667C28.7071 14.2676 28.3334 14.6413 28.3334 15.1009C28.3334 15.5592 28.7071 15.9342 29.1667 15.9342H30C30.4584 15.9342 30.8334 15.5592 30.8334 15.1009C30.8334 14.6413 30.4584 14.2676 30 14.2676Z" fill="#1E4F8E"/>
<path d="M34.1667 14.2676H33.3333C32.8737 14.2676 32.5 14.6413 32.5 15.1009C32.5 15.5592 32.8737 15.9342 33.3333 15.9342H34.1667C34.625 15.9342 35 15.5592 35 15.1009C35 14.6413 34.625 14.2676 34.1667 14.2676Z" fill="#1E4F8E"/>
<path d="M41.6667 15.9342H45.8334C46.2917 15.9342 46.6667 15.5592 46.6667 15.1009C46.6667 14.6413 46.2917 14.2676 45.8334 14.2676H41.6667C41.2071 14.2676 40.8334 14.6413 40.8334 15.1009C40.8334 15.5592 41.2071 15.9342 41.6667 15.9342Z" fill="#1E4F8E"/>
<path d="M38.3333 29.2676H30.8333C30.3737 29.2676 30 29.6413 30 30.1009C30 30.5592 30.3737 30.9342 30.8333 30.9342H38.3333C38.7917 30.9342 39.1667 30.5592 39.1667 30.1009C39.1667 29.6413 38.7917 29.2676 38.3333 29.2676Z" fill="#1E4F8E"/>
<path d="M36.6667 32.6011H30.8333C30.3737 32.6011 30 32.9748 30 33.4344C30 33.8927 30.3737 34.2677 30.8333 34.2677H36.6667C37.125 34.2677 37.5 33.8927 37.5 33.4344C37.5 32.9748 37.125 32.6011 36.6667 32.6011Z" fill="#1E4F8E"/>
<path d="M44.1667 29.2676H41.6667C41.2071 29.2676 40.8334 29.6413 40.8334 30.1009C40.8334 30.5592 41.2071 30.9342 41.6667 30.9342H44.1667C44.625 30.9342 45 30.5592 45 30.1009C45 29.6413 44.625 29.2676 44.1667 29.2676Z" fill="#1E4F8E"/>
<path d="M42.5 32.6011H40C39.5403 32.6011 39.1666 32.9748 39.1666 33.4344C39.1666 33.8927 39.5403 34.2677 40 34.2677H42.5C42.9583 34.2677 43.3333 33.8927 43.3333 33.4344C43.3333 32.9748 42.9583 32.6011 42.5 32.6011Z" fill="#1E4F8E"/>
</g>
<defs>
<clipPath id="clip0_61_1545">
<rect width="50" height="50" fill="white" transform="translate(0 0.934326)"/>
</clipPath>
</defs>
</svg>
