<svg width="455" height="401" viewBox="0 0 455 401" fill="none" xmlns="http://www.w3.org/2000/svg">
<g clip-path="url(#clip0_17_1976)">
<path d="M430.143 267.21C408.615 301.047 370.847 301.947 336.866 290.568C333.079 289.27 329.395 287.871 325.71 286.377C290.734 271.003 256.948 294.064 226.76 309.532C223.17 311.628 219.383 313.724 215.597 315.725C188.789 329.7 157.404 336.785 136.471 311.432C123.719 295.957 126.809 275.397 126.708 256.825C126.606 236.165 119.331 218.195 108.27 201.029C93.6254 178.266 73.8963 156.612 68.8118 129.156C61.4351 89.7276 76.0868 47.6014 117.438 35.6213C143.652 28.0359 170.358 37.5213 196.361 41.4156C217.592 44.6064 239.214 40.219 258.943 32.7278C262.534 31.3355 266.117 29.9359 269.809 28.4347C293.723 18.5577 317.535 6.9764 342.748 2.98062C365.27 -0.507536 385.796 5.38099 394.37 28.4347C401.942 48.6022 396.56 71.1628 399.948 92.0265C401.841 103.506 406.222 113.985 411.408 124.167C420.373 141.832 431.833 158.504 437.019 177.773C438.514 183.262 439.805 188.948 440.806 194.742C444.991 219.398 443.591 245.948 430.143 267.21Z" fill="#E8EBF7"/>
<path d="M435.025 120.773C435.025 121.447 434.894 122.1 434.633 122.723C434.379 123.347 434.009 123.891 433.538 124.37C433.059 124.848 432.508 125.218 431.884 125.472C431.26 125.733 430.615 125.864 429.94 125.864C429.266 125.864 428.62 125.733 427.996 125.472C427.372 125.218 426.821 124.848 426.35 124.37C425.871 123.891 425.501 123.347 425.247 122.723C424.986 122.1 424.863 121.447 424.863 120.773C424.863 120.098 424.986 119.446 425.247 118.822C425.501 118.198 425.871 117.647 426.35 117.176C426.821 116.697 427.372 116.327 427.996 116.066C428.62 115.812 429.266 115.682 429.94 115.682C430.615 115.682 431.26 115.812 431.884 116.066C432.508 116.327 433.059 116.697 433.538 117.176C434.009 117.647 434.379 118.198 434.633 118.822C434.894 119.446 435.025 120.098 435.025 120.773Z" fill="#E8EBF7"/>
<path d="M156.903 10.9719C156.903 11.6463 156.773 12.2918 156.519 12.9154C156.258 13.5391 155.888 14.0902 155.416 14.5689C154.937 15.0475 154.386 15.4101 153.762 15.6711C153.139 15.9322 152.493 16.0627 151.819 16.0627C151.144 16.0627 150.498 15.9322 149.875 15.6711C149.251 15.4101 148.7 15.0475 148.228 14.5689C147.749 14.0902 147.38 13.5391 147.126 12.9154C146.865 12.2918 146.741 11.6463 146.741 10.9719C146.741 10.2902 146.865 9.64483 147.126 9.02117C147.38 8.39751 147.749 7.84636 148.228 7.36774C148.7 6.88912 149.251 6.52652 149.875 6.26545C150.498 6.00439 151.144 5.8811 151.819 5.8811C152.493 5.8811 153.139 6.00439 153.762 6.26545C154.386 6.52652 154.937 6.88912 155.416 7.36774C155.888 7.84636 156.258 8.39751 156.519 9.02117C156.773 9.64483 156.903 10.2902 156.903 10.9719Z" fill="#E8EBF7"/>
<path d="M54.9578 171.282C54.9578 171.957 54.8345 172.609 54.5734 173.233C54.3195 173.857 53.9496 174.408 53.4709 174.879C52.9994 175.358 52.4482 175.728 51.8244 175.989C51.2006 176.243 50.555 176.373 49.8805 176.373C49.2059 176.373 48.5531 176.243 47.9366 175.989C47.3128 175.728 46.7615 175.358 46.2828 174.879C45.8114 174.408 45.4414 173.857 45.1803 173.233C44.9265 172.609 44.7959 171.957 44.7959 171.282C44.7959 170.608 44.9265 169.955 45.1803 169.331C45.4414 168.708 45.8114 168.157 46.2828 167.685C46.7615 167.207 47.3128 166.837 47.9366 166.576C48.5531 166.322 49.2059 166.191 49.8805 166.191C50.555 166.191 51.2006 166.322 51.8244 166.576C52.4482 166.837 52.9994 167.207 53.4709 167.685C53.9496 168.157 54.3195 168.708 54.5734 169.331C54.8345 169.955 54.9578 170.608 54.9578 171.282Z" fill="#E8EBF7"/>
<path d="M154.111 49.2984C154.111 49.603 154.053 49.9003 153.937 50.1759C153.821 50.4587 153.654 50.7053 153.444 50.9229C153.226 51.1404 152.979 51.3072 152.697 51.4232C152.414 51.5393 152.124 51.5973 151.819 51.5973C151.514 51.5973 151.224 51.5393 150.941 51.4232C150.666 51.3072 150.412 51.1404 150.201 50.9229C149.984 50.7053 149.817 50.4587 149.701 50.1759C149.585 49.9003 149.527 49.603 149.527 49.2984C149.527 48.9939 149.585 48.7038 149.701 48.421C149.817 48.1381 149.984 47.8916 150.201 47.674C150.412 47.4637 150.666 47.2969 150.941 47.1809C151.224 47.0649 151.514 47.0068 151.819 47.0068C152.124 47.0068 152.414 47.0649 152.697 47.1809C152.979 47.2969 153.226 47.4637 153.444 47.674C153.654 47.8916 153.821 48.1381 153.937 48.421C154.053 48.7038 154.111 48.9939 154.111 49.2984Z" fill="white"/>
<path d="M432.233 197.135C432.233 197.44 432.175 197.73 432.058 198.013C431.942 198.296 431.776 198.542 431.565 198.76C431.348 198.977 431.101 199.137 430.818 199.26C430.535 199.376 430.245 199.434 429.94 199.434C429.636 199.434 429.346 199.376 429.063 199.26C428.787 199.137 428.533 198.977 428.323 198.76C428.105 198.542 427.939 198.296 427.823 198.013C427.706 197.73 427.648 197.44 427.648 197.135C427.648 196.831 427.706 196.541 427.823 196.258C427.939 195.975 428.105 195.728 428.323 195.511C428.533 195.293 428.787 195.134 429.063 195.018C429.346 194.894 429.636 194.836 429.94 194.836C430.245 194.836 430.535 194.894 430.818 195.018C431.101 195.134 431.348 195.293 431.565 195.511C431.776 195.728 431.942 195.975 432.058 196.258C432.175 196.541 432.233 196.831 432.233 197.135Z" fill="white"/>
<path d="M83.4635 132.049C83.4635 132.354 83.4055 132.651 83.2894 132.934C83.1734 133.21 83.0065 133.464 82.7889 133.674C82.5713 133.891 82.3247 134.058 82.0491 134.174C81.7662 134.29 81.4761 134.348 81.1714 134.348C80.8668 134.348 80.5694 134.29 80.2938 134.174C80.0109 134.058 79.7643 133.891 79.5467 133.674C79.3364 133.464 79.1695 133.21 79.0535 132.934C78.9374 132.651 78.8794 132.354 78.8794 132.049C78.8794 131.745 78.9374 131.455 79.0535 131.172C79.1695 130.889 79.3364 130.643 79.5467 130.425C79.7643 130.215 80.0109 130.048 80.2938 129.932C80.5694 129.816 80.8668 129.758 81.1714 129.758C81.4761 129.758 81.7662 129.816 82.0491 129.932C82.3247 130.048 82.5713 130.215 82.7889 130.425C83.0065 130.643 83.1734 130.889 83.2894 131.172C83.4055 131.455 83.4635 131.745 83.4635 132.049Z" fill="white"/>
<path d="M414.295 75.3543V252.235C414.295 259.922 409.116 266.209 402.835 266.209H107.08C100.799 266.209 95.6201 260.023 95.6201 252.235V75.3543C95.6201 67.6673 100.799 61.4814 107.08 61.4814H402.835C409.116 61.4814 414.295 67.6673 414.295 75.3543Z" fill="white"/>
<path d="M402.835 266.608H107.08C100.502 266.608 95.1196 260.125 95.1196 252.235V75.3542C95.1196 67.4641 100.502 60.981 107.08 60.981H402.835C409.413 60.981 414.795 67.3699 414.795 75.3542V252.235C414.795 260.125 409.413 266.608 402.835 266.608ZM107.08 61.9745C101.002 61.9745 96.019 67.9645 96.019 75.3542V252.235C96.019 259.624 101.002 265.716 107.08 265.716H402.835C408.913 265.716 413.896 259.624 413.896 252.235V75.3542C413.896 67.9645 408.913 61.9745 402.835 61.9745H107.08Z" fill="#1A004D"/>
<path d="M414.396 75.3543V100.707H95.6201V75.3543C95.6201 67.6673 100.799 61.4814 107.175 61.4814H402.936C409.218 61.4814 414.396 67.6673 414.396 75.3543Z" fill="#536EC1"/>
<path d="M414.897 101.207H95.2212V75.3542C95.2212 67.4641 100.603 60.981 107.175 60.981H402.936C409.515 60.981 414.897 67.4641 414.897 75.3542V101.207ZM96.1134 100.206H413.997V75.3542C413.997 67.9645 409.014 61.8802 402.936 61.8802H107.175C101.096 61.8802 96.1134 67.8702 96.1134 75.3542V100.206Z" fill="#1A004D"/>
<path d="M362.876 81.7433C362.876 82.1494 362.796 82.5482 362.644 82.9253C362.484 83.3024 362.26 83.6433 361.969 83.9334C361.687 84.2234 361.346 84.441 360.968 84.6005C360.591 84.7601 360.2 84.8398 359.786 84.8398C359.38 84.8398 358.988 84.7601 358.604 84.6005C358.227 84.441 357.893 84.2234 357.603 83.9334C357.313 83.6433 357.088 83.3024 356.936 82.9253C356.776 82.5482 356.696 82.1494 356.696 81.7433C356.696 81.3299 356.776 80.9383 356.936 80.5612C357.088 80.1769 357.313 79.8433 357.603 79.5532C357.893 79.2631 358.227 79.0383 358.604 78.886C358.988 78.7265 359.38 78.6467 359.786 78.6467C360.2 78.6467 360.591 78.7265 360.968 78.886C361.346 79.0383 361.687 79.2631 361.969 79.5532C362.26 79.8433 362.484 80.1769 362.644 80.5612C362.796 80.9383 362.876 81.3299 362.876 81.7433Z" fill="white"/>
<path d="M376.229 81.7433C376.229 82.1494 376.149 82.5482 375.997 82.9253C375.837 83.3024 375.613 83.6433 375.322 83.9334C375.032 84.2234 374.699 84.441 374.322 84.6005C373.944 84.7601 373.553 84.8398 373.139 84.8398C372.733 84.8398 372.334 84.7601 371.957 84.6005C371.58 84.441 371.246 84.2234 370.956 83.9334C370.666 83.6433 370.441 83.3024 370.289 82.9253C370.129 82.5482 370.049 82.1494 370.049 81.7433C370.049 81.3299 370.129 80.9383 370.289 80.5612C370.441 80.1769 370.666 79.8433 370.956 79.5532C371.246 79.2631 371.58 79.0383 371.957 78.886C372.334 78.7265 372.733 78.6467 373.139 78.6467C373.553 78.6467 373.944 78.7265 374.322 78.886C374.699 79.0383 375.032 79.2631 375.322 79.5532C375.613 79.8433 375.837 80.1769 375.997 80.5612C376.149 80.9383 376.229 81.3299 376.229 81.7433Z" fill="white"/>
<path d="M389.583 81.7433C389.583 82.1494 389.503 82.5482 389.351 82.9253C389.191 83.3024 388.966 83.6433 388.676 83.9334C388.386 84.2234 388.052 84.441 387.675 84.6005C387.298 84.7601 386.906 84.8398 386.493 84.8398C386.087 84.8398 385.688 84.7601 385.31 84.6005C384.933 84.441 384.6 84.2234 384.309 83.9334C384.019 83.6433 383.795 83.3024 383.642 82.9253C383.483 82.5482 383.403 82.1494 383.403 81.7433C383.403 81.3299 383.483 80.9383 383.642 80.5612C383.795 80.1769 384.019 79.8433 384.309 79.5532C384.6 79.2631 384.933 79.0383 385.31 78.886C385.688 78.7265 386.087 78.6467 386.493 78.6467C386.906 78.6467 387.298 78.7265 387.675 78.886C388.052 79.0383 388.386 79.2631 388.676 79.5532C388.966 79.8433 389.191 80.1769 389.351 80.5612C389.503 80.9383 389.583 81.3299 389.583 81.7433Z" fill="white"/>
<path d="M254.562 255.629H118.635C117.242 255.629 116.147 254.534 116.147 253.134V199.129C116.147 197.737 117.242 196.635 118.635 196.635H254.562C255.955 196.635 257.05 197.737 257.05 199.129V253.134C257.05 254.534 255.955 255.629 254.562 255.629Z" fill="white"/>
<path d="M129.696 204.322H243.798V207.919H129.696V204.322Z" fill="#E8F0FE"/>
<path d="M129.696 216.599H243.798V220.095H129.696V216.599Z" fill="#E8EBF7"/>
<path d="M129.696 228.876H243.798V232.372H129.696V228.876Z" fill="#E8F0FE"/>
<path d="M129.696 241.154H243.798V244.649H129.696V241.154Z" fill="#E8EBF7"/>
<path d="M161.988 155.408H171.65V177.968H161.988V155.408Z" fill="#EEBA38"/>
<path d="M180.317 137.445H189.986V177.969H180.317V137.445Z" fill="#31344C"/>
<path d="M198.559 132.847H208.221V177.968H198.559V132.847Z" fill="#EEBA38"/>
<path d="M216.794 148.823H226.455V177.969H216.794V148.823Z" fill="#31344C"/>
<path d="M283.537 169.144H285.625L286.728 174.945C287.519 175.953 288.882 176.845 290.819 177.614C292.748 178.39 294.656 178.774 296.534 178.774C299.508 178.774 301.829 178.013 303.498 176.483C305.18 174.96 306.022 172.849 306.022 170.159C306.022 168.614 305.688 167.338 305.035 166.33C304.397 165.329 303.541 164.473 302.482 163.777C301.438 163.081 300.234 162.501 298.885 162.037C297.55 161.558 296.165 161.072 294.736 160.586C293.321 160.086 291.936 159.535 290.587 158.933C289.252 158.338 288.048 157.584 286.989 156.67C285.945 155.742 285.089 154.604 284.436 153.248C283.798 151.899 283.479 150.224 283.479 148.229C283.479 144.806 284.755 142.13 287.308 140.194C289.861 138.243 293.408 137.264 297.956 137.264C301.416 137.264 305.166 137.729 309.213 138.657V147.591H307.124L306.022 142.341C303.853 140.76 301.162 139.962 297.956 139.962C295.113 139.962 292.879 140.542 291.254 141.703C289.644 142.863 288.846 144.48 288.846 146.547C288.846 147.925 289.165 149.07 289.803 149.999C290.456 150.912 291.312 151.696 292.357 152.348C293.416 153.008 294.627 153.567 295.983 154.031C297.332 154.495 298.718 154.981 300.132 155.481C301.561 155.989 302.954 156.554 304.31 157.193C305.659 157.816 306.863 158.614 307.908 159.6C308.967 160.572 309.823 161.761 310.461 163.168C311.114 164.56 311.447 166.286 311.447 168.331C311.447 172.472 310.178 175.685 307.647 177.962C305.108 180.225 301.452 181.356 296.68 181.356C294.373 181.356 292.066 181.153 289.745 180.747C287.424 180.341 285.35 179.789 283.537 179.093V169.144Z" fill="#2E344D"/>
<path d="M317.408 179.007L322.92 178.165V140.281L317.408 139.44V137.758H349.583V148.026H347.465L346.45 141.094C344.049 140.789 340.597 140.63 336.092 140.63H329.071V157.425H340.647L341.634 152.291H343.694V165.489H341.634L340.647 160.297H329.071V177.846H337.514C343.026 177.846 346.631 177.672 348.336 177.324L350.164 169.376H352.253L351.643 180.718H317.408V179.007Z" fill="#2E344D"/>
<path d="M364.899 159.194C364.899 166.098 366.045 171.102 368.352 174.191C370.651 177.288 374.249 178.832 379.145 178.832C384.033 178.832 387.646 177.288 389.967 174.191C392.288 171.102 393.448 166.098 393.448 159.194C393.448 152.334 392.288 147.388 389.967 144.371C387.66 141.354 384.055 139.846 379.145 139.846C374.227 139.846 370.622 141.354 368.323 144.371C366.038 147.388 364.899 152.334 364.899 159.194ZM358.226 159.194C358.226 144.574 365.197 137.264 379.145 137.264C386.05 137.264 391.272 139.121 394.812 142.834C398.351 146.547 400.121 152 400.121 159.194C400.121 166.504 398.33 172.03 394.754 175.757C391.171 179.492 385.97 181.356 379.145 181.356C372.356 181.356 367.169 179.499 363.594 175.786C360.01 172.059 358.226 166.526 358.226 159.194Z" fill="#2E344D"/>
<mask id="mask0_17_1976" style="mask-type:luminance" maskUnits="userSpaceOnUse" x="0" y="326" width="251" height="51">
<path d="M0.949707 326.276H250.711V376.401H0.949707V326.276Z" fill="white"/>
</mask>
<g mask="url(#mask0_17_1976)">
<path d="M249.274 351.158C249.274 351.926 249.079 352.695 248.68 353.457C248.281 354.225 247.686 354.979 246.888 355.734C246.098 356.488 245.111 357.235 243.929 357.967C242.754 358.707 241.383 359.425 239.823 360.135C238.271 360.846 236.53 361.542 234.616 362.217C232.701 362.898 230.612 363.551 228.349 364.189C226.093 364.827 223.67 365.444 221.095 366.039C218.513 366.633 215.786 367.206 212.914 367.75C210.034 368.287 207.024 368.809 203.883 369.295C200.742 369.78 197.479 370.237 194.098 370.665C190.711 371.093 187.23 371.485 183.646 371.847C180.056 372.21 176.386 372.536 172.629 372.834C168.871 373.124 165.049 373.385 161.154 373.609C157.266 373.827 153.328 374.016 149.338 374.168C145.349 374.32 141.331 374.429 137.283 374.501C133.236 374.581 129.181 374.618 125.112 374.618C121.05 374.618 116.988 374.581 112.941 374.501C108.894 374.429 104.883 374.32 100.893 374.168C96.9039 374.016 92.9654 373.827 89.0703 373.609C85.1825 373.385 81.3528 373.124 77.5956 372.834C73.8456 372.536 70.1682 372.21 66.585 371.847C62.9946 371.485 59.513 371.093 56.133 370.665C52.7529 370.237 49.4889 369.78 46.3483 369.295C43.2003 368.809 40.1902 368.287 37.3179 367.75C34.4456 367.206 31.7111 366.633 29.1361 366.039C26.5539 365.444 24.1386 364.827 21.8755 364.189C19.6198 363.551 17.5308 362.898 15.6087 362.217C13.6938 361.542 11.9603 360.846 10.4008 360.135C8.84858 359.425 7.4777 358.707 6.29541 357.967C5.12037 357.235 4.12666 356.488 3.33605 355.734C2.54544 354.979 1.95067 354.225 1.55173 353.457C1.1528 352.695 0.949707 351.926 0.949707 351.158C0.949707 350.389 1.1528 349.628 1.55173 348.859C1.95067 348.097 2.54544 347.336 3.33605 346.582C4.12666 345.828 5.12037 345.088 6.29541 344.348C7.4777 343.616 8.84858 342.891 10.4008 342.18C11.9603 341.469 13.6938 340.78 15.6087 340.099C17.5308 339.424 19.6198 338.764 21.8755 338.126C24.1386 337.488 26.5539 336.871 29.1361 336.277C31.7111 335.682 34.4456 335.117 37.3179 334.573C40.1902 334.029 43.2003 333.514 46.3483 333.028C49.4889 332.542 52.7529 332.085 56.133 331.657C59.513 331.229 62.9946 330.831 66.585 330.468C70.1682 330.113 73.8456 329.779 77.5956 329.489C81.3528 329.192 85.1825 328.938 89.0703 328.713C92.9654 328.488 96.9039 328.3 100.893 328.155C104.883 328.002 108.894 327.886 112.941 327.814C116.988 327.741 121.05 327.705 125.112 327.705C129.181 327.705 133.236 327.741 137.283 327.814C141.331 327.886 145.349 328.002 149.338 328.155C153.328 328.3 157.266 328.488 161.154 328.713C165.049 328.938 168.871 329.192 172.629 329.489C176.386 329.779 180.056 330.113 183.646 330.468C187.23 330.831 190.711 331.229 194.098 331.657C197.479 332.085 200.742 332.542 203.883 333.028C207.024 333.514 210.034 334.029 212.914 334.573C215.786 335.117 218.513 335.682 221.095 336.277C223.67 336.871 226.093 337.488 228.349 338.126C230.612 338.764 232.701 339.424 234.616 340.099C236.53 340.78 238.271 341.469 239.823 342.18C241.383 342.891 242.754 343.616 243.929 344.348C245.111 345.088 246.098 345.828 246.888 346.582C247.686 347.336 248.281 348.097 248.68 348.859C249.079 349.628 249.274 350.389 249.274 351.158Z" fill="#E8EBF7"/>
</g>
<path d="M169.161 214.308C169.161 214.308 177.626 250.437 178.33 253.736C179.621 259.625 184.502 273.099 184.502 273.099C184.502 273.099 164.077 284.578 158.296 280.989C153.915 278.291 154.212 263.019 153.813 257.326C153.414 251.938 138.27 199.927 138.27 199.927L169.161 214.308Z" fill="#EFC0C1"/>
<path d="M137.073 174.676C137.073 174.676 156.606 165.691 165.172 191.747C172.251 213.009 176.835 236.861 176.835 236.861L143.347 246.847L137.073 174.676Z" fill="#DF5849"/>
<path d="M152.617 190.949C152.617 190.746 133.881 204.525 124.314 199.332C113.558 193.545 112.658 169.288 112.658 169.288L118.635 146.227L118.736 145.828L119.034 144.428L121.13 145.625L129.5 150.52L132.888 152.514L141.454 157.504C141.454 157.504 140.562 163.595 140.758 168.686C140.758 169.186 140.859 169.781 140.859 170.187C140.961 171.079 141.258 171.884 141.555 172.58C142.252 174.277 143.347 175.474 143.347 175.575C144.747 180.862 152.515 190.848 152.617 190.949Z" fill="#EFC0C1"/>
<path d="M141.555 172.682C120.927 174.176 118.541 149.418 118.635 146.227L118.736 145.828L119.034 144.428L121.13 145.625C123.321 147.721 126.512 150.317 129.5 150.52L132.888 152.514L141.454 157.504C141.454 157.504 140.562 163.595 140.758 168.686C140.758 169.186 140.859 169.781 140.859 170.187C140.961 171.079 141.258 171.884 141.555 172.682Z" fill="#E0ADB0"/>
<path d="M155.112 145.429C151.717 157.105 146.241 168.787 134.882 166.293C126.911 164.596 119.831 153.015 118.736 142.63C118.141 137.343 117.539 132.651 117.837 129.156C118.04 126.364 118.236 124.667 118.236 124.667L120.528 118.779L121.928 115.385C121.928 115.385 124.619 113.485 127.607 111.287C131.393 108.495 136.674 113.187 136.775 112.984C136.971 112.687 153.218 111.389 157.897 118.075C158.296 118.677 158.695 119.272 158.796 119.975C158.992 120.475 158.992 120.969 158.992 121.57C158.898 122.571 158.796 124.065 158.593 125.965C158.499 126.763 158.397 127.561 158.296 128.561C158.1 130.055 157.897 131.752 157.599 133.551C157.201 137.242 156.301 141.332 155.112 145.429Z" fill="#EFC0C1"/>
<path d="M117.242 129.054C117.242 129.054 112.063 101.106 134.382 103.006C134.382 103.006 151.92 96.4137 162.379 106.001C171.751 114.58 166.565 124.964 158.992 126.763C154.009 127.959 132.489 119.678 128.898 121.469C125.315 123.267 118.736 144.03 118.736 144.03C118.736 144.03 118.939 134.544 117.242 129.054Z" fill="#2E344D"/>
<path d="M140.634 95.1735C141.222 95.2533 141.788 95.3911 142.346 95.5869C142.905 95.7827 143.434 96.0292 143.942 96.3338C144.45 96.6456 144.928 97.001 145.364 97.3998C145.806 97.8059 146.205 98.2483 146.56 98.7414C146.916 99.2273 147.22 99.7422 147.474 100.293C147.735 100.844 147.938 101.417 148.084 102.012C148.229 102.607 148.323 103.216 148.359 103.825C148.388 104.441 148.366 105.051 148.287 105.667C148.207 106.276 148.069 106.871 147.873 107.458C147.677 108.038 147.431 108.597 147.133 109.133C146.836 109.67 146.488 110.163 146.096 110.627C145.704 111.091 145.277 111.512 144.805 111.889C144.334 112.266 143.833 112.593 143.304 112.868C142.774 113.144 142.223 113.361 141.65 113.521C141.084 113.68 140.504 113.782 139.916 113.825C139.322 113.869 138.741 113.854 138.154 113.775C137.573 113.695 137 113.557 136.442 113.361C135.891 113.165 135.354 112.919 134.846 112.607C134.339 112.302 133.867 111.947 133.425 111.548C132.982 111.142 132.59 110.693 132.235 110.207C131.88 109.721 131.575 109.199 131.314 108.647C131.06 108.096 130.857 107.523 130.712 106.936C130.56 106.341 130.472 105.732 130.436 105.123C130.4 104.507 130.422 103.89 130.509 103.281C130.589 102.672 130.726 102.077 130.922 101.49C131.111 100.91 131.357 100.351 131.655 99.8147C131.959 99.2781 132.3 98.7777 132.692 98.3136C133.084 97.8494 133.519 97.4288 133.99 97.059C134.455 96.6819 134.955 96.3556 135.492 96.08C136.021 95.8044 136.573 95.5869 137.138 95.4273C137.711 95.2605 138.292 95.159 138.879 95.1227C139.467 95.0792 140.054 95.0937 140.634 95.1735Z" fill="#2E344D"/>
<path d="M154.249 96.7761C155.01 96.8776 155.75 97.0517 156.476 97.3128C157.201 97.5666 157.89 97.8929 158.55 98.2845C159.21 98.6834 159.827 99.1475 160.4 99.6696C160.973 100.192 161.488 100.772 161.952 101.403C162.416 102.041 162.808 102.708 163.141 103.426C163.475 104.144 163.743 104.884 163.932 105.66C164.128 106.428 164.244 107.212 164.287 108.009C164.331 108.807 164.302 109.605 164.2 110.395C164.092 111.186 163.91 111.962 163.664 112.716C163.41 113.477 163.091 114.202 162.699 114.899C162.315 115.587 161.865 116.24 161.357 116.842C160.842 117.444 160.284 117.988 159.674 118.474C159.065 118.967 158.412 119.387 157.723 119.743C157.034 120.098 156.316 120.381 155.576 120.591C154.836 120.802 154.082 120.932 153.313 120.99C152.552 121.041 151.79 121.019 151.028 120.918C150.274 120.816 149.527 120.635 148.809 120.381C148.084 120.127 147.394 119.801 146.727 119.409C146.067 119.01 145.451 118.546 144.885 118.024C144.312 117.502 143.79 116.922 143.333 116.291C142.868 115.653 142.469 114.978 142.136 114.268C141.802 113.55 141.541 112.81 141.345 112.034C141.157 111.265 141.041 110.482 140.99 109.684C140.946 108.887 140.983 108.089 141.084 107.299C141.193 106.508 141.367 105.732 141.621 104.971C141.875 104.217 142.194 103.491 142.578 102.795C142.97 102.106 143.42 101.454 143.927 100.852C144.435 100.25 145.001 99.7059 145.61 99.22C146.219 98.7269 146.872 98.3063 147.561 97.9509C148.25 97.5956 148.968 97.3128 149.708 97.1024C150.448 96.8921 151.202 96.7616 151.964 96.7036C152.733 96.6528 153.495 96.6746 154.249 96.7761Z" fill="#2E344D"/>
<path d="M165.542 107.618C166.122 107.698 166.695 107.836 167.254 108.031C167.812 108.227 168.342 108.474 168.849 108.778C169.357 109.083 169.829 109.438 170.271 109.844C170.714 110.251 171.112 110.693 171.461 111.186C171.816 111.672 172.128 112.187 172.382 112.738C172.636 113.289 172.839 113.862 172.991 114.457C173.136 115.051 173.23 115.653 173.259 116.27C173.296 116.886 173.274 117.495 173.187 118.104C173.107 118.721 172.969 119.315 172.773 119.903C172.585 120.483 172.338 121.041 172.041 121.578C171.736 122.107 171.395 122.608 171.004 123.072C170.612 123.536 170.177 123.957 169.705 124.334C169.241 124.711 168.741 125.037 168.204 125.313C167.674 125.588 167.123 125.806 166.557 125.965C165.984 126.125 165.404 126.226 164.817 126.27C164.229 126.313 163.642 126.299 163.061 126.219C162.474 126.139 161.908 126.002 161.349 125.806C160.791 125.61 160.261 125.363 159.754 125.052C159.246 124.747 158.767 124.392 158.332 123.986C157.89 123.587 157.491 123.137 157.135 122.651C156.78 122.165 156.475 121.643 156.221 121.092C155.96 120.541 155.764 119.968 155.612 119.373C155.467 118.786 155.373 118.177 155.336 117.568C155.307 116.951 155.329 116.335 155.409 115.726C155.496 115.117 155.634 114.522 155.822 113.934C156.018 113.354 156.265 112.796 156.562 112.259C156.86 111.723 157.208 111.222 157.6 110.758C157.991 110.294 158.419 109.873 158.891 109.496C159.362 109.119 159.863 108.8 160.392 108.525C160.922 108.249 161.473 108.031 162.046 107.872C162.619 107.705 163.192 107.604 163.787 107.56C164.374 107.524 164.962 107.538 165.542 107.618Z" fill="#2E344D"/>
<path d="M134.505 112.788C135.354 112.904 136.152 113.187 136.892 113.63C137.631 114.079 138.262 114.659 138.785 115.37C139.3 116.081 139.662 116.871 139.88 117.741C140.098 118.604 140.148 119.489 140.025 120.381C139.909 121.273 139.633 122.107 139.191 122.89C138.756 123.666 138.197 124.333 137.508 124.884C136.826 125.436 136.065 125.827 135.231 126.067C134.404 126.299 133.562 126.364 132.706 126.248C131.858 126.132 131.06 125.856 130.32 125.407C129.58 124.957 128.949 124.384 128.434 123.666C127.912 122.955 127.549 122.165 127.332 121.302C127.114 120.432 127.071 119.554 127.187 118.662C127.303 117.77 127.586 116.929 128.021 116.153C128.456 115.37 129.014 114.703 129.704 114.152C130.385 113.608 131.147 113.209 131.981 112.977C132.808 112.738 133.657 112.68 134.505 112.788Z" fill="#2E344D"/>
<path d="M126.04 100.903C126.896 101.011 127.687 101.294 128.427 101.744C129.174 102.186 129.798 102.766 130.32 103.477C130.835 104.188 131.205 104.978 131.415 105.849C131.633 106.719 131.683 107.596 131.56 108.488C131.444 109.38 131.169 110.214 130.733 110.997C130.298 111.781 129.732 112.44 129.051 112.992C128.361 113.543 127.6 113.934 126.773 114.174C125.939 114.406 125.097 114.471 124.249 114.355C123.393 114.239 122.595 113.963 121.855 113.514C121.115 113.071 120.484 112.491 119.969 111.781C119.454 111.063 119.084 110.279 118.867 109.409C118.649 108.539 118.606 107.661 118.722 106.769C118.845 105.878 119.121 105.036 119.556 104.26C119.991 103.477 120.55 102.81 121.239 102.259C121.928 101.715 122.682 101.316 123.516 101.084C124.35 100.845 125.192 100.787 126.04 100.903Z" fill="#2E344D"/>
<path d="M122.291 108.959C123.147 109.068 123.945 109.351 124.684 109.801C125.424 110.243 126.055 110.823 126.57 111.534C127.085 112.244 127.455 113.035 127.673 113.905C127.89 114.768 127.934 115.653 127.818 116.545C127.694 117.437 127.419 118.271 126.984 119.054C126.548 119.837 125.99 120.497 125.301 121.048C124.612 121.599 123.857 121.991 123.023 122.23C122.189 122.462 121.348 122.528 120.499 122.412C119.651 122.296 118.853 122.02 118.113 121.57C117.366 121.121 116.742 120.548 116.22 119.83C115.705 119.119 115.335 118.329 115.124 117.466C114.907 116.596 114.856 115.718 114.979 114.826C115.095 113.934 115.371 113.093 115.806 112.317C116.241 111.534 116.807 110.867 117.489 110.315C118.178 109.772 118.94 109.373 119.767 109.141C120.601 108.901 121.442 108.843 122.291 108.959Z" fill="#2E344D"/>
<path d="M121.725 117.56C122.443 117.662 123.118 117.901 123.741 118.278C124.372 118.662 124.902 119.156 125.337 119.757C125.78 120.367 126.084 121.041 126.273 121.781C126.454 122.52 126.49 123.267 126.389 124.029C126.287 124.79 126.055 125.501 125.685 126.168C125.315 126.835 124.837 127.408 124.256 127.872C123.676 128.344 123.031 128.677 122.327 128.88C121.623 129.083 120.913 129.134 120.194 129.04C119.469 128.946 118.795 128.706 118.171 128.329C117.547 127.945 117.01 127.452 116.575 126.843C116.14 126.241 115.828 125.566 115.647 124.827C115.465 124.087 115.422 123.333 115.523 122.578C115.625 121.817 115.864 121.099 116.234 120.432C116.604 119.765 117.076 119.199 117.656 118.728C118.236 118.264 118.882 117.923 119.585 117.72C120.289 117.517 121 117.466 121.725 117.56Z" fill="#2E344D"/>
<path d="M146.785 116.987C147.633 117.103 148.431 117.379 149.171 117.828C149.911 118.271 150.542 118.851 151.057 119.562C151.579 120.272 151.942 121.063 152.16 121.933C152.377 122.803 152.428 123.681 152.305 124.573C152.189 125.465 151.906 126.299 151.47 127.082C151.035 127.865 150.477 128.532 149.788 129.076C149.106 129.627 148.344 130.019 147.51 130.258C146.683 130.497 145.842 130.555 144.986 130.439C144.137 130.331 143.339 130.048 142.6 129.598C141.86 129.156 141.229 128.576 140.714 127.865C140.192 127.154 139.829 126.364 139.611 125.494C139.394 124.623 139.343 123.746 139.466 122.854C139.582 121.962 139.865 121.128 140.3 120.345C140.736 119.562 141.294 118.902 141.983 118.351C142.665 117.799 143.427 117.408 144.261 117.168C145.088 116.929 145.929 116.871 146.785 116.987Z" fill="#2E344D"/>
<path d="M133.323 94.8037C134.172 94.9198 134.969 95.1953 135.709 95.645C136.449 96.0946 137.08 96.6747 137.595 97.3854C138.117 98.0961 138.48 98.8865 138.698 99.7495C138.915 100.62 138.966 101.497 138.843 102.389C138.727 103.281 138.444 104.122 138.009 104.898C137.573 105.682 137.015 106.349 136.326 106.9C135.644 107.451 134.882 107.843 134.048 108.075C133.221 108.314 132.38 108.372 131.524 108.263C130.675 108.147 129.878 107.864 129.138 107.422C128.398 106.972 127.767 106.392 127.252 105.682C126.73 104.971 126.367 104.18 126.149 103.31C125.932 102.447 125.881 101.562 126.004 100.671C126.12 99.7785 126.403 98.9446 126.838 98.1614C127.274 97.3854 127.832 96.7182 128.521 96.1671C129.203 95.6159 129.965 95.2243 130.799 94.985C131.626 94.753 132.467 94.6877 133.323 94.8037Z" fill="#2E344D"/>
<path d="M120.927 131.752C120.927 131.752 114.356 126.465 113.855 133.551C113.355 140.636 119.73 144.428 119.73 144.428L120.927 131.752Z" fill="#EFC0C1"/>
<path d="M118.94 133.746C118.94 133.746 113.652 131.556 118.338 139.635L118.94 133.746Z" fill="#E0ADB0"/>
<path d="M149.396 141.463C149.687 141.564 149.868 141.825 149.948 142.246C150.027 142.666 149.977 143.123 149.81 143.616C149.636 144.11 149.382 144.501 149.063 144.777C148.736 145.06 148.432 145.147 148.149 145.045C147.859 144.944 147.677 144.683 147.598 144.262C147.518 143.841 147.561 143.384 147.735 142.891C147.909 142.398 148.156 142.014 148.482 141.731C148.809 141.455 149.114 141.368 149.396 141.463Z" fill="#2E344D"/>
<path d="M136.449 138.569C136.739 138.663 136.921 138.924 137 139.345C137.08 139.766 137.029 140.223 136.863 140.716C136.688 141.216 136.435 141.6 136.115 141.876C135.789 142.159 135.484 142.246 135.202 142.144C134.911 142.043 134.73 141.782 134.65 141.361C134.571 140.948 134.614 140.484 134.788 139.99C134.962 139.497 135.209 139.113 135.535 138.83C135.862 138.555 136.166 138.468 136.449 138.569Z" fill="#2E344D"/>
<path d="M147.336 137.742C147.336 137.742 150.825 135.748 153.415 137.539L147.336 137.742Z" fill="#2E344D"/>
<path d="M132.59 133.348C132.888 133.348 137.073 133.152 139.162 136.147L132.59 133.348Z" fill="#2E344D"/>
<path d="M142.158 144.03C142.158 144.03 141.055 147.025 142.252 148.12C143.55 149.222 143.652 152.413 140.062 150.818" stroke="#E0ADB0" stroke-width="0.261425" stroke-miterlimit="10" stroke-linecap="round" stroke-linejoin="round"/>
<path d="M143.55 157.206C143.55 157.206 143.347 157.504 142.948 157.808C142.252 158.403 140.859 159.2 138.864 158.903C136.971 158.504 135.774 157.206 135.18 156.307C134.882 155.807 134.679 155.408 134.679 155.408" fill="white"/>
<path d="M161.785 194.836C160.392 215.301 156.504 235.164 155.01 255.332C152.515 276.891 151.021 296.261 150.927 296.457C151.021 295.862 142.556 301.446 122.726 304.746C103.787 307.835 72.1991 310.729 63.8287 306.842C63.5313 306.74 66.6213 256.528 66.9186 255.332C74.5927 180.768 73.8963 175.474 83.7609 170.586C88.4465 167.787 91.8338 167.99 97.2158 166.989C100.9 166.191 111.461 165.191 113.558 165.096C118.635 172.479 128.006 185.155 135.477 186.656C139.263 186.054 139.96 172.283 140.757 170.086C153.915 173.175 163.576 180.666 161.785 194.836Z" fill="#DF5849"/>
<path d="M60.1442 235.164C60.1442 235.164 53.8628 270.705 57.7506 279.088C61.1379 286.478 61.1379 284.977 87.9462 284.578C99.7038 284.382 117.743 284.578 117.743 284.578L118.439 269.603L88.2436 259.726L91.1304 242.358L60.1442 235.164Z" fill="#EFC0C1"/>
<path d="M115.646 269.807C115.646 269.807 121.224 267.413 124.815 265.216C128.499 263.019 132.59 260.923 135.376 261.423C138.168 261.916 155.112 267.711 152.515 271.402C152.515 271.402 156.106 273.998 154.111 276.297C154.111 276.297 155.01 277.595 153.712 279.19C152.421 280.786 145.545 274.897 142.252 274.796C138.966 274.694 134.084 274.999 134.084 274.999C134.084 274.999 140.961 277.595 142.455 278.088C143.949 278.589 147.931 281.083 147.438 282.28C146.937 283.484 141.156 280.184 138.168 279.691C135.18 279.19 131.988 278.291 130.392 279.887C128.804 281.482 126.41 284.68 123.023 284.68C119.636 284.68 116.647 284.078 116.647 284.078L115.646 269.807Z" fill="#EFC0C1"/>
<path d="M152.515 271.401C152.515 271.401 152.319 271.206 151.92 270.901C151.521 270.604 151.021 270.103 150.325 269.705C149.628 269.204 148.83 268.704 147.837 268.109C146.937 267.609 145.842 267.108 144.747 266.709C143.652 266.311 142.556 266.013 141.454 265.81C140.359 265.614 139.365 265.614 138.567 265.513C137.668 265.513 136.971 265.614 136.471 265.614C135.978 265.716 135.68 265.716 135.68 265.716C135.68 265.716 135.978 265.716 136.471 265.716C136.971 265.716 137.668 265.81 138.465 265.912C139.263 266.013 140.264 266.209 141.258 266.412C142.252 266.608 143.347 266.913 144.348 267.311C145.443 267.71 146.437 268.211 147.336 268.609C148.236 269.11 149.128 269.509 149.926 269.908C150.622 270.306 151.326 270.705 151.717 270.901C152.218 271.3 152.515 271.401 152.515 271.401Z" fill="#E0ADB0"/>
<path d="M154.111 276.297C154.111 276.297 153.915 276.094 153.415 275.796C153.016 275.492 152.319 274.999 151.623 274.498C150.825 273.998 149.926 273.396 148.932 272.801C147.931 272.199 146.836 271.605 145.639 271.104C144.449 270.604 143.253 270.307 142.056 270.205C140.859 270.104 139.764 270.104 138.864 270.104C137.972 270.104 137.174 270.205 136.572 270.205C136.079 270.307 135.68 270.307 135.68 270.307C135.68 270.307 135.978 270.307 136.572 270.307C137.073 270.307 137.871 270.401 138.763 270.401C139.662 270.502 140.758 270.604 141.853 270.807C142.948 271.003 144.145 271.3 145.24 271.8C146.343 272.301 147.438 272.801 148.432 273.302C149.425 273.795 150.426 274.295 151.224 274.795C152.022 275.194 152.718 275.593 153.219 275.898C153.813 276.195 154.111 276.297 154.111 276.297Z" fill="#E0ADB0"/>
<path d="M88.2435 259.625H77.3853" stroke="#313131" stroke-width="0.234208" stroke-miterlimit="10"/>
<path d="M85.2551 169.781C85.2551 169.781 70.306 175.278 67.1218 188.65C63.9303 202.03 57.8521 238.065 57.8521 238.065L91.6308 243.351C91.6308 243.351 98.4054 210.711 100.001 193.64C101.597 176.569 85.2551 169.781 85.2551 169.781Z" fill="#DF5849"/>
<path d="M90.7388 245.15C90.7388 245.15 98.3112 210.711 99.8997 193.64" stroke="#313131" stroke-width="0.234208" stroke-miterlimit="10"/>
<path d="M160.987 201.624C159.892 211.61 157.897 223.09 156.403 243.25" stroke="#313131" stroke-width="0.234208" stroke-miterlimit="10"/>
<path d="M99.8052 299.655C99.8052 299.655 181.42 275.992 199.553 275.296C217.686 274.6 232.534 284.281 220.675 304.543C208.823 324.805 147.634 354.653 147.634 354.653L130.298 342.079L145.842 325.407L99.8052 299.655Z" fill="#2E344D"/>
<path d="M116.249 347.467L135.18 333.492L147.634 354.051L128.304 368.925L118.236 368.628L116.249 347.467Z" fill="#EFC0C1"/>
<path d="M105.281 351.76C105.281 351.76 96.911 356.249 96.911 357.648C96.8167 361.34 97.912 363.138 98.4052 367.228C98.8041 371.122 99.3046 374.32 102.293 380.107C104.288 384.002 109.865 395.779 113.557 393.98C113.855 393.886 117.141 392.987 117.141 392.385C117.743 385.8 105.281 351.76 105.281 351.76Z" fill="#DF5849"/>
<path d="M116.444 392.784C111.664 391.188 94.8219 362.536 102.097 354.552C106.181 350.063 117.039 345.871 117.039 345.871C117.039 345.871 119.331 354.153 125.91 364.733C128.006 368.127 129.696 367.627 129.797 367.931C129.899 369.324 128.499 373.319 128.303 373.921C128.1 375.016 121.224 394.285 116.444 392.784Z" fill="#2E344D"/>
<path d="M125.808 377.315C125.511 377.714 124.916 377.714 124.619 377.315L117.539 370.622C117.141 370.325 117.141 369.73 117.539 369.425C117.837 369.027 118.439 369.027 118.736 369.425L125.808 376.112C126.113 376.416 126.113 377.011 125.808 377.315Z" fill="white"/>
<path d="M124.314 380.506C124.017 380.905 123.422 380.905 123.125 380.506L116.045 373.82C115.646 373.523 115.646 372.921 116.045 372.624C116.343 372.225 116.945 372.225 117.242 372.624L124.314 379.31C124.619 379.607 124.619 380.209 124.314 380.506Z" fill="white"/>
<path d="M122.624 384.002C122.327 384.401 121.725 384.401 121.427 384.002L114.355 377.315C113.956 377.011 113.956 376.416 114.355 376.112C114.653 375.713 115.248 375.713 115.545 376.112L122.624 382.805C122.922 383.102 123.023 383.704 122.624 384.002Z" fill="white"/>
<path d="M127.208 374.32C126.911 374.719 126.309 374.719 126.011 374.32L118.939 367.627C118.54 367.329 118.54 366.735 118.939 366.43C119.237 366.031 119.831 366.031 120.129 366.43L127.208 373.124C127.506 373.421 127.506 374.016 127.208 374.32Z" fill="white"/>
<path d="M145.842 325.509L188.093 284.579" stroke="black" stroke-width="0.466267" stroke-miterlimit="10" stroke-linecap="round" stroke-linejoin="round"/>
<path d="M200.148 352.557L180.419 339.78L169.256 361.144L189.485 374.821L199.553 373.921L200.148 352.557Z" fill="#EFC0C1"/>
<mask id="mask1_17_1976" style="mask-type:luminance" maskUnits="userSpaceOnUse" x="200" y="355" width="22" height="46">
<path d="M200.576 355.98H221.001V400.478H200.576V355.98Z" fill="white"/>
</mask>
<g mask="url(#mask1_17_1976)">
<path d="M211.412 356.249C211.412 356.249 219.979 360.245 220.182 361.543C220.479 365.132 219.485 367.134 219.282 371.224C219.086 375.118 218.782 378.309 216.192 384.299C214.502 388.295 209.614 400.369 205.827 398.875C205.53 398.774 202.244 398.078 202.143 397.476C201.047 390.891 211.412 356.249 211.412 356.249Z" fill="#DF5849"/>
</g>
<path d="M202.839 397.874C207.524 395.982 220.878 367.728 214.799 358.743C212.609 355.451 200.75 351.76 199.256 351.056C199.256 351.056 197.457 359.447 191.582 370.426C189.688 373.921 187.991 373.522 187.991 373.921C187.991 375.314 189.688 379.309 189.79 379.81C190.087 380.905 198.16 399.673 202.839 397.874Z" fill="#2E344D"/>
<path d="M192.474 383.001C192.872 383.305 193.373 383.305 193.67 383.001L200.351 375.916C200.648 375.517 200.648 375.016 200.351 374.719C199.952 374.415 199.451 374.415 199.154 374.719L192.474 381.804C192.176 382.102 192.176 382.703 192.474 383.001Z" fill="white"/>
<path d="M194.171 386.097C194.57 386.395 195.071 386.395 195.368 386.097L202.041 379.012C202.346 378.613 202.346 378.113 202.041 377.808C201.642 377.511 201.149 377.511 200.852 377.808L194.171 384.901C193.772 385.198 193.772 385.8 194.171 386.097Z" fill="white"/>
<path d="M196.064 389.491C196.463 389.789 196.964 389.789 197.261 389.491L203.934 382.406C204.239 382.007 204.239 381.507 203.934 381.202C203.535 380.905 203.042 380.905 202.745 381.202L196.064 388.295C195.665 388.592 195.665 389.194 196.064 389.491Z" fill="white"/>
<path d="M190.885 380.107C191.284 380.405 191.777 380.405 192.082 380.107L198.755 373.022C199.052 372.623 199.052 372.123 198.755 371.826C198.356 371.521 197.856 371.521 197.558 371.826L190.885 378.911C190.581 379.208 190.581 379.81 190.885 380.107Z" fill="white"/>
<path d="M117.039 345.269C117.039 345.269 111.664 350.462 111.265 350.759C106.282 354.552 100.4 356.952 94.2201 357.75C85.7554 358.845 76.9862 356.952 69.3122 353.457C63.6328 350.86 57.8519 347.764 53.5652 343.072C42.5039 331.295 45.2964 310.533 52.5715 297.559C58.1493 287.573 68.5143 280.285 80.2719 284.578C109.568 295.26 186.598 339.78 186.598 339.78L169.655 368.925L117.039 345.269Z" fill="#2E344D"/>
<path d="M108.669 297.559C142.752 314.623 186.396 339.881 186.396 339.881" stroke="black" stroke-width="0.466267" stroke-miterlimit="10" stroke-linecap="round" stroke-linejoin="round"/>
<path d="M117.039 345.27L75.5864 328.199" stroke="black" stroke-width="0.466267" stroke-miterlimit="10" stroke-linecap="round" stroke-linejoin="round"/>
<path d="M220.878 291.265H139.365L161.785 226.085H243.298L220.878 291.265Z" fill="#383334"/>
<path d="M223.764 291.265H142.353L164.672 226.085H246.184L223.764 291.265Z" fill="#536EC1"/>
<path d="M198.987 250.016C199.669 250.168 200.286 250.516 200.83 251.046C201.374 251.575 201.809 252.257 202.128 253.084C202.454 253.917 202.636 254.831 202.686 255.832C202.744 256.833 202.65 257.848 202.425 258.863C202.2 259.886 201.852 260.843 201.381 261.728C200.909 262.612 200.351 263.359 199.705 263.969C199.06 264.585 198.378 265.02 197.66 265.267C196.942 265.513 196.238 265.564 195.556 265.412C194.875 265.259 194.258 264.919 193.714 264.382C193.17 263.853 192.735 263.171 192.416 262.344C192.089 261.51 191.908 260.596 191.85 259.596C191.799 258.595 191.886 257.587 192.118 256.564C192.343 255.542 192.691 254.592 193.163 253.707C193.634 252.822 194.193 252.076 194.838 251.459C195.484 250.843 196.166 250.415 196.884 250.161C197.602 249.914 198.298 249.864 198.987 250.016Z" fill="#231F20"/>
<path d="M105.484 284.68H223.764V291.264H105.484V284.68Z" fill="#536EC1"/>
<path d="M393.768 49.2985H271.303C263.332 49.2985 256.949 42.9096 256.949 34.9252C256.949 27.0424 263.426 20.552 271.303 20.552H393.768C401.74 20.552 408.115 26.9409 408.115 34.9252C408.115 42.9096 401.74 49.2985 393.768 49.2985Z" fill="white" stroke="#313131" stroke-width="0.759923" stroke-miterlimit="10"/>
<path d="M278.87 37.4608H279.276L279.479 38.5921C279.631 38.7879 279.893 38.962 280.262 39.1143C280.647 39.252 281.017 39.3173 281.365 39.3173C281.945 39.3173 282.395 39.1723 282.729 38.8822C283.055 38.5776 283.222 38.157 283.222 37.6349C283.222 37.3448 283.149 37.1055 283.019 36.9097C282.903 36.7211 282.736 36.5543 282.526 36.4166C282.33 36.286 282.098 36.17 281.829 36.0685C281.575 35.9742 281.307 35.8872 281.017 35.8074C280.741 35.7131 280.473 35.6043 280.204 35.4883C279.951 35.3723 279.718 35.2272 279.508 35.0532C279.312 34.8647 279.145 34.6398 279.015 34.386C278.899 34.1177 278.841 33.7914 278.841 33.3998C278.841 32.7471 279.08 32.2322 279.566 31.8624C280.067 31.478 280.763 31.2822 281.655 31.2822C282.308 31.2822 283.033 31.3692 283.831 31.5433V33.2837H283.425L283.222 32.2685C282.794 31.9639 282.272 31.8044 281.655 31.8044C281.089 31.8044 280.654 31.9204 280.35 32.1525C280.038 32.37 279.885 32.6746 279.885 33.0807C279.885 33.3563 279.943 33.5738 280.059 33.7479C280.19 33.9219 280.357 34.0815 280.553 34.212C280.763 34.328 280.995 34.4368 281.249 34.5311C281.517 34.6326 281.786 34.7269 282.061 34.8211C282.351 34.9227 282.62 35.0242 282.874 35.1402C283.142 35.2563 283.374 35.4158 283.57 35.6043C283.78 35.8001 283.947 36.0322 284.063 36.3005C284.194 36.5761 284.266 36.9024 284.266 37.2868C284.266 38.099 284.012 38.7299 283.512 39.1723C283.026 39.6001 282.322 39.8104 281.394 39.8104C280.944 39.8104 280.502 39.7669 280.059 39.6944C279.61 39.6219 279.218 39.5131 278.87 39.3753V37.4608Z" fill="black"/>
<path d="M286.643 36.7645V36.8806C286.643 37.4462 286.701 37.8886 286.817 38.2149C286.948 38.5267 287.151 38.7661 287.426 38.9401C287.695 39.0996 288.043 39.1722 288.471 39.1722C288.681 39.1722 288.942 39.1577 289.254 39.1141C289.559 39.0779 289.813 39.0416 290.009 38.9981V39.3462C289.813 39.4622 289.544 39.571 289.196 39.6653C288.848 39.7596 288.5 39.8103 288.152 39.8103C287.238 39.8103 286.57 39.571 286.15 39.0851C285.744 38.6065 285.541 37.8233 285.541 36.7355C285.541 35.713 285.751 34.9588 286.179 34.4729C286.6 33.9726 287.209 33.7188 288.007 33.7188C289.494 33.7188 290.241 34.56 290.241 36.2424V36.7645H286.643ZM288.007 34.2119C287.579 34.2119 287.252 34.3859 287.02 34.734C286.788 35.0821 286.672 35.597 286.672 36.2714H289.167C289.167 35.5172 289.066 34.9878 288.877 34.676C288.681 34.3714 288.391 34.2119 288.007 34.2119Z" fill="black"/>
<path d="M293.544 33.7188C294.182 33.7188 294.647 33.8565 294.937 34.1249C295.241 34.3787 295.401 34.7775 295.401 35.3142V39.2592L296.126 39.4042V39.6943H294.531L294.414 39.1141C293.95 39.5783 293.348 39.8103 292.616 39.8103C291.607 39.8103 291.107 39.2302 291.107 38.0699C291.107 37.6855 291.179 37.3664 291.339 37.1126C291.491 36.8661 291.731 36.6703 292.064 36.5325C292.391 36.4019 292.877 36.3222 293.515 36.3004H294.385V35.3722C294.385 34.9661 294.306 34.676 294.153 34.502C293.994 34.3134 293.776 34.2119 293.486 34.2119C293.058 34.2119 292.681 34.3134 292.355 34.502L292.122 35.2271H291.774V33.9508C292.449 33.7985 293.036 33.7188 293.544 33.7188ZM294.385 36.7355H293.573C293.007 36.7573 292.63 36.8733 292.442 37.0836C292.246 37.2794 292.151 37.5985 292.151 38.0409C292.151 38.7806 292.442 39.1432 293.022 39.1432C293.312 39.1432 293.551 39.1141 293.747 39.0561C293.957 38.9836 294.168 38.8966 294.385 38.7951V36.7355Z" fill="black"/>
<path d="M300.416 33.7188V35.2852H300.155L299.778 34.589C299.56 34.589 299.314 34.618 299.024 34.676C298.748 34.734 298.516 34.8138 298.327 34.9081V39.2592L299.314 39.4042V39.6943H296.558V39.4042L297.283 39.2592V34.2989L296.558 34.1539V33.8638H298.24L298.298 34.589C298.545 34.3787 298.886 34.1829 299.314 34.0088C299.735 33.8203 300.068 33.7188 300.3 33.7188H300.416Z" fill="black"/>
<path d="M305.768 39.3462C305.55 39.5058 305.26 39.6218 304.898 39.6943C304.549 39.7668 304.187 39.8103 303.824 39.8103C301.945 39.8103 301.01 38.7878 301.01 36.7355C301.01 35.771 301.242 35.0241 301.706 34.502C302.185 33.9798 302.881 33.7188 303.795 33.7188C304.332 33.7188 304.941 33.7768 305.623 33.8928V35.5172H305.275L305.014 34.502C304.665 34.3134 304.245 34.2119 303.766 34.2119C302.664 34.2119 302.112 35.0531 302.112 36.7355C302.112 37.6058 302.272 38.2367 302.605 38.621C302.954 38.9909 303.476 39.1722 304.172 39.1722C304.767 39.1722 305.304 39.1069 305.768 38.9691V39.3462Z" fill="black"/>
<path d="M308.172 33.3996C308.172 33.8275 308.15 34.1393 308.114 34.3279C308.404 34.1538 308.731 34.0088 309.101 33.8928C309.485 33.7767 309.811 33.7187 310.087 33.7187C310.588 33.7187 310.965 33.8638 311.219 34.1538C311.465 34.4439 311.596 34.8718 311.596 35.4302V39.2592L312.321 39.4042V39.6943H309.797V39.4042L310.58 39.2592V35.4882C310.58 34.792 310.239 34.4439 309.565 34.4439C309.173 34.4439 308.709 34.5019 308.172 34.6179V39.2592L308.956 39.4042V39.6943H306.402V39.4042L307.128 39.2592V31.3111L306.257 31.1661V30.876H308.172V33.3996Z" fill="black"/>
<path d="M317.967 39.1141C317.967 39.3316 317.894 39.5129 317.764 39.6652C317.626 39.7957 317.452 39.8683 317.242 39.8683C317.024 39.8683 316.843 39.7957 316.69 39.6652C316.553 39.5129 316.487 39.3316 316.487 39.1141C316.487 38.9038 316.553 38.7297 316.69 38.5919C316.843 38.4396 317.024 38.3599 317.242 38.3599C317.452 38.3599 317.626 38.4396 317.764 38.5919C317.894 38.7297 317.967 38.9038 317.967 39.1141Z" fill="black"/>
<path d="M324.303 39.1141C324.303 39.3316 324.231 39.5129 324.1 39.6652C323.963 39.7957 323.788 39.8683 323.578 39.8683C323.36 39.8683 323.179 39.7957 323.027 39.6652C322.889 39.5129 322.824 39.3316 322.824 39.1141C322.824 38.9038 322.889 38.7297 323.027 38.5919C323.179 38.4396 323.36 38.3599 323.578 38.3599C323.788 38.3599 323.963 38.4396 324.1 38.5919C324.231 38.7297 324.303 38.9038 324.303 39.1141Z" fill="black"/>
<path d="M330.64 39.1141C330.64 39.3316 330.567 39.5129 330.437 39.6652C330.299 39.7957 330.125 39.8683 329.915 39.8683C329.697 39.8683 329.516 39.7957 329.363 39.6652C329.225 39.5129 329.16 39.3316 329.16 39.1141C329.16 38.9038 329.225 38.7297 329.363 38.5919C329.516 38.4396 329.697 38.3599 329.915 38.3599C330.125 38.3599 330.299 38.4396 330.437 38.5919C330.567 38.7297 330.64 38.9038 330.64 39.1141Z" fill="black"/>
<path d="M397.257 33.9242C397.257 34.5261 397.141 35.099 396.916 35.6502C396.691 36.1941 396.365 36.6799 395.944 37.1005C395.524 37.5284 395.038 37.8475 394.486 38.0796C393.942 38.3044 393.369 38.4204 392.775 38.4204C392.18 38.4204 391.607 38.3044 391.055 38.0796C390.504 37.8475 390.026 37.5284 389.605 37.1005C389.184 36.6799 388.858 36.1941 388.633 35.6502C388.401 35.099 388.292 34.5261 388.292 33.9242C388.292 33.3296 388.401 32.7567 388.633 32.2055C388.858 31.6616 389.184 31.1758 389.605 30.7479C390.026 30.3273 390.504 30.0082 391.055 29.7761C391.607 29.5513 392.18 29.4353 392.775 29.4353C393.369 29.4353 393.942 29.5513 394.486 29.7761C395.038 30.0082 395.524 30.3273 395.944 30.7479C396.365 31.1758 396.691 31.6616 396.916 32.2055C397.141 32.7567 397.257 33.3296 397.257 33.9242Z" stroke="black" stroke-width="0.504944" stroke-miterlimit="10"/>
<path d="M389.685 37.1226L385.695 41.1183" stroke="black" stroke-width="0.504944" stroke-miterlimit="10"/>
<path d="M77.2838 94.8184C77.2838 96.2397 77.146 97.6466 76.8704 99.0462C76.5875 100.439 76.1813 101.795 75.6373 103.107C75.0933 104.42 74.426 105.667 73.6354 106.856C72.852 108.039 71.9526 109.126 70.9516 110.134C69.9434 111.142 68.8554 112.042 67.6731 112.832C66.4908 113.622 65.2433 114.29 63.9304 114.834C62.6248 115.377 61.2685 115.784 59.8758 116.066C58.4832 116.342 57.076 116.48 55.6616 116.48C54.24 116.48 52.8328 116.342 51.4402 116.066C50.0476 115.784 48.6984 115.377 47.3856 114.834C46.0727 114.29 44.8252 113.622 43.6429 112.832C42.4678 112.042 41.3726 111.142 40.3716 110.134C39.3634 109.126 38.4713 108.039 37.6806 106.856C36.89 105.667 36.2227 104.42 35.6787 103.107C35.1347 101.795 34.7285 100.439 34.4529 99.0462C34.17 97.6466 34.0322 96.2397 34.0322 94.8184C34.0322 93.397 34.17 91.9901 34.4529 90.5905C34.7285 89.1981 35.1347 87.842 35.6787 86.5295C36.2227 85.2169 36.89 83.9695 37.6806 82.7875C38.4713 81.5982 39.3634 80.5104 40.3716 79.5024C41.3726 78.4944 42.4678 77.5951 43.6429 76.8047C44.8252 76.0215 46.0727 75.3471 47.3856 74.8032C48.6984 74.2593 50.0476 73.8532 51.4402 73.5703C52.8328 73.2948 54.24 73.157 55.6616 73.157C57.076 73.157 58.4832 73.2948 59.8758 73.5703C61.2685 73.8532 62.6248 74.2593 63.9304 74.8032C65.2433 75.3471 66.4908 76.0215 67.6731 76.8047C68.8554 77.5951 69.9434 78.4944 70.9516 79.5024C71.9526 80.5104 72.852 81.5982 73.6354 82.7875C74.426 83.9695 75.0933 85.2169 75.6373 86.5295C76.1813 87.842 76.5875 89.1981 76.8704 90.5905C77.146 91.9901 77.2838 93.397 77.2838 94.8184Z" fill="#DF5849"/>
<path d="M65.0258 94.8184L49.8809 86.0364V103.506L65.0258 94.8184Z" fill="white"/>
<path d="M252.168 307.937H328.401V311.033H252.168V307.937Z" fill="#E8F0FE"/>
<path d="M252.168 318.619H328.401V321.715H252.168V318.619Z" fill="#E8EBF7"/>
<path d="M252.168 329.301H328.401V332.39H252.168V329.301Z" fill="#E8F0FE"/>
<path d="M252.168 339.982H328.401V343.072H252.168V339.982Z" fill="#E8EBF7"/>
<mask id="mask2_17_1976" style="mask-type:luminance" maskUnits="userSpaceOnUse" x="271" y="207" width="183" height="86">
<path d="M271.136 207.462H453.557V292.86H271.136V207.462Z" fill="white"/>
</mask>
<g mask="url(#mask2_17_1976)">
<mask id="mask3_17_1976" style="mask-type:luminance" maskUnits="userSpaceOnUse" x="-191" y="-219" width="837" height="836">
<path d="M645.292 -218.601H-190.291V616.816H645.292V-218.601Z" fill="black" fill-opacity="0.9"/>
</mask>
<g mask="url(#mask3_17_1976)">
<mask id="mask4_17_1976" style="mask-type:luminance" maskUnits="userSpaceOnUse" x="271" y="207" width="184" height="86">
<path d="M454.964 207.462H271.136V292.86H454.964V207.462Z" fill="white"/>
</mask>
<g mask="url(#mask4_17_1976)">
<mask id="mask5_17_1976" style="mask-type:luminance" maskUnits="userSpaceOnUse" x="271" y="208" width="183" height="84">
<path d="M271.956 208.796H453.558V291.004H271.956V208.796Z" fill="white"/>
</mask>
<g mask="url(#mask5_17_1976)">
<path d="M450.17 290.569H275.488C273.689 290.569 272.195 289.075 272.195 287.276V212.611C272.195 210.812 273.689 209.311 275.488 209.311H450.272C452.063 209.311 453.557 210.812 453.557 212.611V287.276C453.456 289.075 452.063 290.569 450.17 290.569Z" fill="#C7CEFD"/>
</g>
<path d="M440.502 282.584H285.15C284.454 282.584 283.859 281.982 283.859 281.286V281.083C283.859 280.387 284.454 279.785 285.15 279.785H440.502C441.205 279.785 441.8 280.387 441.8 281.083V281.286C441.8 281.982 441.205 282.584 440.502 282.584Z" fill="#E8EBF7"/>
<path d="M291.525 265.013L289.937 264.114C293.223 258.225 304.879 248.943 310.66 248.841C315.846 248.74 319.429 252.039 322.918 255.23C326.407 258.428 329.692 261.423 334.277 261.423C339.956 261.423 344.047 255.934 348.326 250.038C353.113 243.649 357.995 237.064 365.466 236.963C371.646 236.861 376.23 241.256 380.618 245.447C384.702 249.342 388.488 253.033 393.369 252.939C399.346 252.736 402.937 246.55 406.723 240.059C410.509 233.569 414.498 226.781 421.273 226.585C425.755 226.382 430.543 229.181 435.526 234.765L434.126 235.969C429.542 230.777 425.161 228.282 421.374 228.376C415.594 228.58 412.105 234.57 408.42 240.958C404.532 247.543 400.543 254.432 393.572 254.73C387.987 254.933 383.708 250.741 379.523 246.745C375.432 242.757 371.152 238.558 365.669 238.761C359.09 238.863 354.506 245.15 350.024 251.14C345.541 257.13 340.957 263.316 334.378 263.316C328.996 263.316 325.311 259.922 321.721 256.63C318.435 253.635 315.244 250.741 311.059 250.741C310.957 250.741 310.957 250.741 310.863 250.741C305.677 250.741 294.521 259.625 291.525 265.013Z" fill="#DF5849"/>
<path d="M437.716 235.969C437.716 236.31 437.651 236.644 437.521 236.963C437.383 237.275 437.201 237.557 436.955 237.804C436.715 238.043 436.433 238.232 436.113 238.362C435.802 238.493 435.468 238.558 435.127 238.558C434.779 238.558 434.452 238.493 434.133 238.362C433.814 238.232 433.531 238.043 433.292 237.804C433.053 237.557 432.864 237.275 432.733 236.963C432.596 236.644 432.53 236.31 432.53 235.969C432.53 235.621 432.596 235.288 432.733 234.976C432.864 234.657 433.053 234.374 433.292 234.134C433.531 233.888 433.814 233.699 434.133 233.569C434.452 233.438 434.779 233.373 435.127 233.373C435.468 233.373 435.802 233.438 436.113 233.569C436.433 233.699 436.715 233.888 436.955 234.134C437.201 234.374 437.383 234.657 437.521 234.976C437.651 235.288 437.716 235.621 437.716 235.969Z" fill="#EEBA38"/>
<path d="M293.324 264.513C293.324 264.861 293.259 265.187 293.128 265.506C292.991 265.825 292.809 266.108 292.563 266.347C292.323 266.594 292.04 266.783 291.721 266.913C291.409 267.044 291.076 267.109 290.735 267.109C290.387 267.109 290.06 267.044 289.741 266.913C289.422 266.783 289.139 266.594 288.9 266.347C288.66 266.108 288.472 265.825 288.341 265.506C288.203 265.187 288.138 264.861 288.138 264.513C288.138 264.172 288.203 263.838 288.341 263.519C288.472 263.207 288.66 262.925 288.9 262.678C289.139 262.439 289.422 262.25 289.741 262.12C290.06 261.989 290.387 261.917 290.735 261.917C291.076 261.917 291.409 261.989 291.721 262.12C292.04 262.25 292.323 262.439 292.563 262.678C292.809 262.925 292.991 263.207 293.128 263.519C293.259 263.838 293.324 264.172 293.324 264.513Z" fill="#EEBA38"/>
<path d="M319.727 220.095H285.048C284.555 220.095 284.156 219.696 284.156 219.196C284.156 218.695 284.555 218.296 285.048 218.296H319.727C320.227 218.296 320.626 218.695 320.626 219.196C320.626 219.696 320.227 220.095 319.727 220.095Z" fill="#E8EBF7"/>
<path d="M319.727 227.68H285.048C284.555 227.68 284.156 227.281 284.156 226.781C284.156 226.281 284.555 225.882 285.048 225.882H319.727C320.227 225.882 320.626 226.281 320.626 226.781C320.626 227.18 320.227 227.68 319.727 227.68Z" fill="#E8EBF7"/>
</g>
</g>
</g>
<path d="M205.53 11.9656C205.53 11.9656 211.608 9.47096 207.72 0.188556C207.72 0.188556 211.608 -1.80571 213.204 1.48664C214.698 4.779 215.394 7.97708 215.394 7.97708L225.165 4.18434C227.253 3.37938 229.546 4.38014 230.445 6.37441C232.737 11.4652 236.023 20.5518 232.338 23.2495C227.058 26.9407 221.973 28.1373 220.675 28.1373C219.384 28.1373 214.596 29.2396 212.406 30.0373" fill="#E8EBF7"/>
<path d="M212.108 30.6318L206.828 32.7276C206.327 32.9307 205.733 32.6333 205.53 32.133L198.857 14.859C198.653 14.3659 198.951 13.7639 199.451 13.5609L204.732 11.4651C205.232 11.2693 205.827 11.5666 206.03 12.067L212.703 29.3337C212.805 29.8341 212.609 30.436 212.108 30.6318Z" fill="#2E344D"/>
</g>
<defs>
<clipPath id="clip0_17_1976">
<rect width="454" height="401" fill="white" transform="translate(0.5)"/>
</clipPath>
</defs>
</svg>
