<svg width="399" height="399" viewBox="0 0 399 399" fill="none" xmlns="http://www.w3.org/2000/svg">
<g filter="url(#filter0_d_17_3907)">
<path d="M315.617 238.531C303.282 257.924 281.64 258.44 262.168 251.919C259.998 251.175 257.887 250.372 255.776 249.516C235.734 240.705 216.374 253.922 199.076 262.787C197.019 263.988 194.849 265.19 192.68 266.337C177.318 274.346 159.334 278.406 147.339 263.876C140.032 255.007 141.803 243.224 141.745 232.58C141.687 220.738 137.518 210.439 131.18 200.601C122.788 187.555 111.483 175.144 108.57 159.409C104.343 136.811 112.738 112.668 136.433 105.801C151.454 101.454 166.757 106.89 181.657 109.122C193.823 110.951 206.212 108.437 217.517 104.143C219.575 103.345 221.628 102.543 223.743 101.683C237.447 96.0218 251.092 89.3843 265.539 87.0942C278.444 85.095 290.206 88.4699 295.119 101.683C299.458 113.241 296.374 126.171 298.315 138.129C299.4 144.708 301.91 150.714 304.882 156.549C310.019 166.674 316.586 176.229 319.557 187.272C320.414 190.419 321.153 193.677 321.727 196.998C324.125 211.129 323.323 226.345 315.617 238.531Z" fill="#E8EBF7"/>
<path d="M318.414 154.604C318.414 154.991 318.34 155.365 318.19 155.722C318.045 156.08 317.833 156.391 317.562 156.666C317.288 156.94 316.972 157.152 316.615 157.297C316.257 157.447 315.887 157.522 315.501 157.522C315.114 157.522 314.744 157.447 314.387 157.297C314.03 157.152 313.714 156.94 313.444 156.666C313.169 156.391 312.957 156.08 312.812 155.722C312.662 155.365 312.592 154.991 312.592 154.604C312.592 154.218 312.662 153.844 312.812 153.486C312.957 153.129 313.169 152.813 313.444 152.543C313.714 152.268 314.03 152.056 314.387 151.907C314.744 151.761 315.114 151.687 315.501 151.687C315.887 151.687 316.257 151.761 316.615 151.907C316.972 152.056 317.288 152.268 317.562 152.543C317.833 152.813 318.045 153.129 318.19 153.486C318.34 153.844 318.414 154.218 318.414 154.604Z" fill="#E8EBF7"/>
<path d="M159.047 91.6744C159.047 92.0609 158.972 92.4308 158.827 92.7883C158.677 93.1457 158.465 93.4616 158.195 93.7359C157.921 94.0102 157.605 94.218 157.248 94.3677C156.89 94.5173 156.52 94.5921 156.134 94.5921C155.747 94.5921 155.377 94.5173 155.02 94.3677C154.662 94.218 154.347 94.0102 154.076 93.7359C153.802 93.4616 153.59 93.1457 153.445 92.7883C153.295 92.4308 153.224 92.0609 153.224 91.6744C153.224 91.2837 153.295 90.9138 153.445 90.5564C153.59 90.1989 153.802 89.8831 154.076 89.6087C154.347 89.3344 154.662 89.1266 155.02 88.977C155.377 88.8274 155.747 88.7567 156.134 88.7567C156.52 88.7567 156.89 88.8274 157.248 88.977C157.605 89.1266 157.921 89.3344 158.195 89.6087C158.465 89.8831 158.677 90.1989 158.827 90.5564C158.972 90.9138 159.047 91.2837 159.047 91.6744Z" fill="#E8EBF7"/>
<path d="M100.631 183.552C100.631 183.939 100.56 184.313 100.411 184.67C100.265 185.028 100.053 185.344 99.779 185.614C99.5088 185.888 99.1929 186.1 98.8355 186.25C98.4781 186.395 98.1082 186.47 97.7216 186.47C97.3351 186.47 96.961 186.395 96.6078 186.25C96.2503 186.1 95.9344 185.888 95.6601 185.614C95.39 185.344 95.178 185.028 95.0284 184.67C94.8829 184.313 94.8081 183.939 94.8081 183.552C94.8081 183.166 94.8829 182.792 95.0284 182.434C95.178 182.077 95.39 181.761 95.6601 181.491C95.9344 181.217 96.2503 181.005 96.6078 180.855C96.961 180.71 97.3351 180.635 97.7216 180.635C98.1082 180.635 98.4781 180.71 98.8355 180.855C99.1929 181.005 99.5088 181.217 99.779 181.491C100.053 181.761 100.265 182.077 100.411 182.434C100.56 182.792 100.631 183.166 100.631 183.552Z" fill="#E8EBF7"/>
<path d="M157.447 113.64C157.447 113.815 157.414 113.985 157.347 114.143C157.281 114.305 157.185 114.446 157.065 114.571C156.94 114.696 156.799 114.791 156.637 114.858C156.474 114.924 156.308 114.958 156.134 114.958C155.959 114.958 155.793 114.924 155.631 114.858C155.473 114.791 155.327 114.696 155.207 114.571C155.082 114.446 154.987 114.305 154.92 114.143C154.854 113.985 154.82 113.815 154.82 113.64C154.82 113.466 154.854 113.299 154.92 113.137C154.987 112.975 155.082 112.834 155.207 112.709C155.327 112.589 155.473 112.493 155.631 112.427C155.793 112.36 155.959 112.327 156.134 112.327C156.308 112.327 156.474 112.36 156.637 112.427C156.799 112.493 156.94 112.589 157.065 112.709C157.185 112.834 157.281 112.975 157.347 113.137C157.414 113.299 157.447 113.466 157.447 113.64Z" fill="white"/>
<path d="M316.814 198.37C316.814 198.544 316.781 198.71 316.715 198.872C316.648 199.035 316.552 199.176 316.432 199.301C316.307 199.425 316.166 199.517 316.004 199.587C315.842 199.654 315.675 199.687 315.501 199.687C315.326 199.687 315.16 199.654 314.998 199.587C314.84 199.517 314.695 199.425 314.574 199.301C314.449 199.176 314.354 199.035 314.287 198.872C314.221 198.71 314.188 198.544 314.188 198.37C314.188 198.195 314.221 198.029 314.287 197.867C314.354 197.705 314.449 197.563 314.574 197.439C314.695 197.314 314.84 197.222 314.998 197.156C315.16 197.085 315.326 197.052 315.501 197.052C315.675 197.052 315.842 197.085 316.004 197.156C316.166 197.222 316.307 197.314 316.432 197.439C316.552 197.563 316.648 197.705 316.715 197.867C316.781 198.029 316.814 198.195 316.814 198.37Z" fill="white"/>
<path d="M116.965 161.067C116.965 161.242 116.932 161.412 116.865 161.574C116.799 161.732 116.703 161.878 116.579 161.998C116.454 162.123 116.313 162.218 116.155 162.285C115.993 162.351 115.826 162.385 115.652 162.385C115.477 162.385 115.307 162.351 115.149 162.285C114.987 162.218 114.845 162.123 114.721 161.998C114.6 161.878 114.505 161.732 114.438 161.574C114.372 161.412 114.338 161.242 114.338 161.067C114.338 160.893 114.372 160.726 114.438 160.564C114.505 160.402 114.6 160.261 114.721 160.136C114.845 160.016 114.987 159.92 115.149 159.854C115.307 159.787 115.477 159.754 115.652 159.754C115.826 159.754 115.993 159.787 116.155 159.854C116.313 159.92 116.454 160.016 116.579 160.136C116.703 160.261 116.799 160.402 116.865 160.564C116.932 160.726 116.965 160.893 116.965 161.067Z" fill="white"/>
<path d="M306.536 128.574V229.949C306.536 234.354 303.568 237.958 299.969 237.958H130.498C126.899 237.958 123.931 234.412 123.931 229.949V128.574C123.931 124.168 126.899 120.623 130.498 120.623H299.969C303.568 120.623 306.536 124.168 306.536 128.574Z" fill="white"/>
<path d="M299.969 238.186H130.498C126.728 238.186 123.644 234.471 123.644 229.949V128.574C123.644 124.052 126.728 120.336 130.498 120.336H299.969C303.739 120.336 306.823 123.998 306.823 128.574V229.949C306.823 234.471 303.739 238.186 299.969 238.186ZM130.498 120.905C127.015 120.905 124.16 124.338 124.16 128.574V229.949C124.16 234.184 127.015 237.675 130.498 237.675H299.969C303.452 237.675 306.307 234.184 306.307 229.949V128.574C306.307 124.338 303.452 120.905 299.969 120.905H130.498Z" fill="#1A004D"/>
<path d="M306.594 128.574V143.104H123.931V128.574C123.931 124.168 126.899 120.623 130.552 120.623H300.027C303.627 120.623 306.594 124.168 306.594 128.574Z" fill="#536EC1"/>
<path d="M306.881 143.391H123.702V128.574C123.702 124.052 126.786 120.336 130.552 120.336H300.027C303.797 120.336 306.881 124.052 306.881 128.574V143.391ZM124.214 142.817H306.365V128.574C306.365 124.338 303.51 120.851 300.027 120.851H130.552C127.069 120.851 124.214 124.284 124.214 128.574V142.817Z" fill="#1A004D"/>
<path d="M277.072 132.235C277.072 132.468 277.027 132.697 276.939 132.913C276.848 133.129 276.719 133.324 276.553 133.49C276.391 133.657 276.195 133.781 275.979 133.873C275.763 133.964 275.539 134.01 275.302 134.01C275.069 134.01 274.845 133.964 274.624 133.873C274.408 133.781 274.217 133.657 274.051 133.49C273.885 133.324 273.756 133.129 273.668 132.913C273.577 132.697 273.531 132.468 273.531 132.235C273.531 131.998 273.577 131.774 273.668 131.558C273.756 131.337 273.885 131.146 274.051 130.98C274.217 130.814 274.408 130.685 274.624 130.598C274.845 130.506 275.069 130.461 275.302 130.461C275.539 130.461 275.763 130.506 275.979 130.598C276.195 130.685 276.391 130.814 276.553 130.98C276.719 131.146 276.848 131.337 276.939 131.558C277.027 131.774 277.072 131.998 277.072 132.235Z" fill="white"/>
<path d="M284.724 132.235C284.724 132.468 284.678 132.697 284.591 132.913C284.5 133.129 284.371 133.324 284.204 133.49C284.038 133.657 283.847 133.781 283.631 133.873C283.415 133.964 283.19 134.01 282.953 134.01C282.721 134.01 282.492 133.964 282.276 133.873C282.06 133.781 281.869 133.657 281.702 133.49C281.536 133.324 281.407 133.129 281.32 132.913C281.229 132.697 281.183 132.468 281.183 132.235C281.183 131.998 281.229 131.774 281.32 131.558C281.407 131.337 281.536 131.146 281.702 130.98C281.869 130.814 282.06 130.685 282.276 130.598C282.492 130.506 282.721 130.461 282.953 130.461C283.19 130.461 283.415 130.506 283.631 130.598C283.847 130.685 284.038 130.814 284.204 130.98C284.371 131.146 284.5 131.337 284.591 131.558C284.678 131.774 284.724 131.998 284.724 132.235Z" fill="white"/>
<path d="M292.376 132.235C292.376 132.468 292.33 132.697 292.243 132.913C292.151 133.129 292.022 133.324 291.856 133.49C291.69 133.657 291.499 133.781 291.283 133.873C291.066 133.964 290.842 134.01 290.605 134.01C290.372 134.01 290.144 133.964 289.928 133.873C289.711 133.781 289.52 133.657 289.354 133.49C289.188 133.324 289.059 133.129 288.972 132.913C288.88 132.697 288.834 132.468 288.834 132.235C288.834 131.998 288.88 131.774 288.972 131.558C289.059 131.337 289.188 131.146 289.354 130.98C289.52 130.814 289.711 130.685 289.928 130.598C290.144 130.506 290.372 130.461 290.605 130.461C290.842 130.461 291.066 130.506 291.283 130.598C291.499 130.685 291.69 130.814 291.856 130.98C292.022 131.146 292.151 131.337 292.243 131.558C292.33 131.774 292.376 131.998 292.376 132.235Z" fill="white"/>
<path d="M215.007 231.894H137.119C136.321 231.894 135.693 231.266 135.693 230.464V199.512C135.693 198.714 136.321 198.083 137.119 198.083H215.007C215.805 198.083 216.433 198.714 216.433 199.512V230.464C216.433 231.266 215.805 231.894 215.007 231.894Z" fill="white"/>
<path d="M143.457 202.488H208.839V204.55H143.457V202.488Z" fill="#E8F0FE"/>
<path d="M143.457 209.525H208.839V211.528H143.457V209.525Z" fill="#E8EBF7"/>
<path d="M143.457 216.561H208.839V218.565H143.457V216.561Z" fill="#E8F0FE"/>
<path d="M143.457 223.598H208.839V225.601H143.457V223.598Z" fill="#E8EBF7"/>
<path d="M161.961 174.454H167.497V187.385H161.961V174.454Z" fill="#EEBA38"/>
<path d="M172.464 164.159H178.004V187.385H172.464V164.159Z" fill="#31344C"/>
<path d="M182.917 161.524H188.453V187.385H182.917V161.524Z" fill="#EEBA38"/>
<path d="M193.365 170.681H198.902V187.385H193.365V170.681Z" fill="#31344C"/>
<path d="M231.61 182.327H232.807L233.438 185.652C233.891 186.23 234.673 186.741 235.783 187.181C236.888 187.626 237.981 187.846 239.058 187.846C240.762 187.846 242.092 187.41 243.048 186.533C244.012 185.66 244.494 184.451 244.494 182.909C244.494 182.024 244.303 181.292 243.929 180.714C243.563 180.141 243.073 179.65 242.466 179.251C241.867 178.852 241.177 178.52 240.404 178.254C239.64 177.98 238.846 177.701 238.027 177.423C237.216 177.136 236.423 176.82 235.65 176.475C234.885 176.134 234.195 175.702 233.588 175.178C232.99 174.646 232.499 173.994 232.125 173.216C231.759 172.443 231.576 171.483 231.576 170.34C231.576 168.379 232.308 166.845 233.771 165.735C235.234 164.617 237.266 164.056 239.872 164.056C241.855 164.056 244.004 164.322 246.323 164.854V169.975H245.126L244.494 166.965C243.251 166.059 241.709 165.602 239.872 165.602C238.243 165.602 236.963 165.935 236.032 166.6C235.109 167.265 234.652 168.192 234.652 169.376C234.652 170.166 234.835 170.822 235.201 171.354C235.575 171.878 236.065 172.327 236.664 172.701C237.27 173.079 237.965 173.399 238.742 173.665C239.515 173.931 240.309 174.21 241.119 174.497C241.938 174.788 242.736 175.112 243.513 175.477C244.286 175.835 244.976 176.292 245.575 176.857C246.181 177.414 246.672 178.096 247.038 178.902C247.412 179.7 247.603 180.689 247.603 181.861C247.603 184.235 246.876 186.076 245.425 187.381C243.97 188.678 241.876 189.326 239.141 189.326C237.819 189.326 236.497 189.21 235.167 188.977C233.837 188.744 232.649 188.428 231.61 188.029V182.327Z" fill="#2E344D"/>
<path d="M251.018 187.979L254.177 187.497V165.785L251.018 165.303V164.339H269.455V170.224H268.242L267.66 166.251C266.284 166.076 264.306 165.985 261.725 165.985H257.702V175.61H264.335L264.9 172.668H266.081V180.232H264.9L264.335 177.256H257.702V187.314H262.539C265.698 187.314 267.764 187.215 268.741 187.015L269.788 182.46H270.985L270.636 188.96H251.018V187.979Z" fill="#2E344D"/>
<path d="M278.231 176.625C278.231 180.581 278.888 183.449 280.21 185.22C281.527 186.994 283.589 187.88 286.394 187.88C289.196 187.88 291.265 186.994 292.595 185.22C293.925 183.449 294.59 180.581 294.59 176.625C294.59 172.693 293.925 169.858 292.595 168.129C291.274 166.4 289.208 165.536 286.394 165.536C283.576 165.536 281.511 166.4 280.193 168.129C278.884 169.858 278.231 172.693 278.231 176.625ZM274.408 176.625C274.408 168.246 278.402 164.056 286.394 164.056C290.351 164.056 293.344 165.12 295.372 167.248C297.4 169.376 298.414 172.502 298.414 176.625C298.414 180.814 297.388 183.981 295.339 186.117C293.285 188.258 290.305 189.326 286.394 189.326C282.504 189.326 279.532 188.262 277.483 186.134C275.43 183.998 274.408 180.827 274.408 176.625Z" fill="#2E344D"/>
<mask id="mask0_17_3907" style="mask-type:luminance" maskUnits="userSpaceOnUse" x="69" y="272" width="144" height="30">
<path d="M69.6836 272.384H212.8V301.112H69.6836V272.384Z" fill="white"/>
</mask>
<g mask="url(#mask0_17_3907)">
<path d="M211.977 286.644C211.977 287.085 211.865 287.525 211.636 287.962C211.408 288.402 211.067 288.834 210.61 289.267C210.157 289.699 209.591 290.127 208.914 290.547C208.241 290.971 207.455 291.382 206.561 291.79C205.672 292.197 204.674 292.596 203.577 292.982C202.48 293.373 201.283 293.747 199.986 294.113C198.694 294.479 197.305 294.832 195.83 295.173C194.35 295.514 192.788 295.842 191.142 296.154C189.492 296.461 187.767 296.76 185.967 297.039C184.168 297.317 182.297 297.579 180.36 297.824C178.419 298.07 176.424 298.294 174.371 298.502C172.314 298.71 170.211 298.897 168.058 299.067C165.905 299.233 163.715 299.383 161.483 299.512C159.255 299.637 156.998 299.745 154.712 299.832C152.426 299.919 150.124 299.982 147.804 300.023C145.485 300.069 143.162 300.09 140.83 300.09C138.503 300.09 136.175 300.069 133.856 300.023C131.537 299.982 129.239 299.919 126.953 299.832C124.667 299.745 122.41 299.637 120.178 299.512C117.95 299.383 115.756 299.233 113.603 299.067C111.454 298.897 109.347 298.71 107.294 298.502C105.236 298.294 103.241 298.07 101.304 297.824C99.3675 297.579 97.4972 297.317 95.6976 297.039C93.8938 296.76 92.1689 296.461 90.523 296.154C88.8772 295.842 87.3103 295.514 85.8348 295.173C84.3552 294.832 82.9711 294.479 81.6744 294.113C80.3818 293.747 79.1848 293.373 78.0834 292.982C76.9861 292.596 75.9928 292.197 75.0992 291.79C74.2098 291.382 73.4242 290.971 72.7468 290.547C72.0734 290.127 71.504 289.699 71.051 289.267C70.598 288.834 70.2572 288.402 70.0286 287.962C69.8 287.525 69.6836 287.085 69.6836 286.644C69.6836 286.204 69.8 285.767 70.0286 285.327C70.2572 284.89 70.598 284.454 71.051 284.022C71.504 283.589 72.0734 283.165 72.7468 282.741C73.4242 282.322 74.2098 281.906 75.0992 281.499C75.9928 281.091 76.9861 280.697 78.0834 280.306C79.1848 279.919 80.3818 279.541 81.6744 279.175C82.9711 278.81 84.3552 278.456 85.8348 278.115C87.3103 277.775 88.8772 277.45 90.523 277.139C92.1689 276.827 93.8938 276.532 95.6976 276.253C97.4972 275.975 99.3675 275.713 101.304 275.468C103.241 275.223 105.236 274.994 107.294 274.786C109.347 274.583 111.454 274.391 113.603 274.225C115.756 274.055 117.95 273.909 120.178 273.781C122.41 273.652 124.667 273.544 126.953 273.46C129.239 273.373 131.537 273.307 133.856 273.265C136.175 273.224 138.503 273.203 140.83 273.203C143.162 273.203 145.485 273.224 147.804 273.265C150.124 273.307 152.426 273.373 154.712 273.46C156.998 273.544 159.255 273.652 161.483 273.781C163.715 273.909 165.905 274.055 168.058 274.225C170.211 274.391 172.314 274.583 174.371 274.786C176.424 274.994 178.419 275.223 180.36 275.468C182.297 275.713 184.168 275.975 185.967 276.253C187.767 276.532 189.492 276.827 191.142 277.139C192.788 277.45 194.35 277.775 195.83 278.115C197.305 278.456 198.694 278.81 199.986 279.175C201.283 279.541 202.48 279.919 203.577 280.306C204.674 280.697 205.672 281.091 206.561 281.499C207.455 281.906 208.241 282.322 208.914 282.741C209.591 283.165 210.157 283.589 210.61 284.022C211.067 284.454 211.408 284.89 211.636 285.327C211.865 285.767 211.977 286.204 211.977 286.644Z" fill="#E8EBF7"/>
</g>
<path d="M166.071 208.212C166.071 208.212 170.922 228.918 171.325 230.809C172.065 234.184 174.862 241.906 174.862 241.906C174.862 241.906 163.158 248.486 159.845 246.428C157.335 244.882 157.505 236.129 157.277 232.866C157.048 229.778 148.37 199.97 148.37 199.97L166.071 208.212Z" fill="#EFC0C1"/>
<path d="M147.684 185.498C147.684 185.498 158.877 180.348 163.785 195.281C167.842 207.468 170.469 221.137 170.469 221.137L151.279 226.861L147.684 185.498Z" fill="#DF5849"/>
<path d="M156.591 194.824C156.591 194.708 145.855 202.605 140.373 199.629C134.209 196.312 133.694 182.409 133.694 182.409L137.119 169.193L137.177 168.964L137.347 168.162L138.549 168.848L143.345 171.653L145.286 172.796L150.194 175.656C150.194 175.656 149.683 179.147 149.795 182.065C149.795 182.351 149.854 182.692 149.854 182.925C149.912 183.436 150.082 183.897 150.253 184.296C150.652 185.269 151.279 185.955 151.279 186.013C152.081 189.043 156.533 194.766 156.591 194.824Z" fill="#EFC0C1"/>
<path d="M150.253 184.355C138.432 185.211 137.065 171.021 137.119 169.193L137.177 168.964L137.348 168.162L138.549 168.848C139.804 170.049 141.633 171.537 143.345 171.653L145.286 172.796L150.194 175.656C150.194 175.656 149.683 179.147 149.795 182.065C149.795 182.351 149.854 182.692 149.854 182.925C149.912 183.436 150.082 183.897 150.253 184.355Z" fill="#E0ADB0"/>
<path d="M158.021 168.735C156.076 175.427 152.938 182.123 146.429 180.693C141.861 179.72 137.805 173.083 137.177 167.131C136.836 164.101 136.491 161.412 136.662 159.409C136.778 157.809 136.89 156.836 136.89 156.836L138.204 153.461L139.006 151.516C139.006 151.516 140.548 150.427 142.26 149.168C144.43 147.568 147.455 150.257 147.514 150.14C147.626 149.97 156.936 149.226 159.617 153.058C159.845 153.403 160.074 153.744 160.132 154.147C160.244 154.434 160.244 154.716 160.244 155.061C160.19 155.635 160.132 156.491 160.016 157.58C159.962 158.037 159.903 158.494 159.845 159.068C159.733 159.924 159.617 160.897 159.446 161.927C159.218 164.043 158.702 166.387 158.021 168.735Z" fill="#EFC0C1"/>
<path d="M136.321 159.351C136.321 159.351 133.353 143.332 146.142 144.421C146.142 144.421 156.192 140.643 162.185 146.138C167.555 151.055 164.583 157.006 160.244 158.037C157.389 158.723 145.057 153.977 143 155.003C140.947 156.034 137.177 167.933 137.177 167.933C137.177 167.933 137.293 162.497 136.321 159.351Z" fill="#2E344D"/>
<path d="M149.725 139.933C150.061 139.978 150.385 140.057 150.706 140.17C151.026 140.282 151.329 140.423 151.62 140.598C151.911 140.776 152.185 140.98 152.435 141.209C152.688 141.441 152.917 141.695 153.12 141.977C153.324 142.256 153.499 142.551 153.644 142.867C153.794 143.183 153.91 143.511 153.993 143.852C154.076 144.193 154.13 144.542 154.151 144.891C154.168 145.244 154.155 145.593 154.109 145.947C154.064 146.296 153.985 146.637 153.873 146.973C153.76 147.306 153.619 147.626 153.449 147.933C153.278 148.241 153.079 148.524 152.854 148.79C152.63 149.056 152.385 149.297 152.114 149.513C151.844 149.729 151.558 149.916 151.254 150.074C150.951 150.232 150.635 150.356 150.307 150.448C149.982 150.539 149.65 150.598 149.313 150.622C148.972 150.647 148.64 150.639 148.303 150.593C147.971 150.548 147.642 150.469 147.322 150.356C147.006 150.244 146.699 150.103 146.408 149.924C146.117 149.75 145.847 149.546 145.593 149.317C145.34 149.085 145.115 148.827 144.912 148.549C144.708 148.27 144.533 147.971 144.384 147.655C144.238 147.339 144.122 147.011 144.039 146.674C143.952 146.333 143.902 145.984 143.881 145.635C143.86 145.282 143.873 144.928 143.923 144.579C143.968 144.23 144.047 143.889 144.159 143.553C144.267 143.22 144.409 142.9 144.579 142.593C144.754 142.285 144.949 141.998 145.174 141.732C145.398 141.466 145.647 141.225 145.918 141.013C146.184 140.797 146.47 140.61 146.778 140.452C147.081 140.294 147.397 140.17 147.721 140.078C148.05 139.982 148.382 139.924 148.719 139.904C149.055 139.879 149.392 139.887 149.725 139.933Z" fill="#2E344D"/>
<path d="M157.526 140.851C157.962 140.909 158.386 141.009 158.802 141.159C159.218 141.304 159.612 141.491 159.991 141.716C160.369 141.944 160.722 142.21 161.05 142.51C161.379 142.809 161.674 143.141 161.94 143.503C162.206 143.869 162.43 144.251 162.622 144.662C162.813 145.074 162.967 145.498 163.075 145.943C163.187 146.383 163.253 146.832 163.278 147.289C163.303 147.746 163.287 148.204 163.228 148.657C163.166 149.11 163.062 149.554 162.921 149.987C162.775 150.423 162.592 150.839 162.368 151.238C162.148 151.632 161.89 152.007 161.599 152.352C161.304 152.696 160.984 153.008 160.635 153.287C160.286 153.569 159.912 153.81 159.517 154.014C159.122 154.218 158.711 154.38 158.287 154.5C157.863 154.621 157.43 154.696 156.99 154.729C156.553 154.758 156.117 154.746 155.681 154.687C155.248 154.629 154.82 154.525 154.409 154.38C153.993 154.234 153.598 154.047 153.216 153.823C152.838 153.594 152.484 153.328 152.16 153.029C151.832 152.73 151.533 152.397 151.271 152.036C151.005 151.67 150.776 151.283 150.585 150.876C150.394 150.465 150.244 150.041 150.132 149.596C150.024 149.155 149.957 148.706 149.928 148.249C149.903 147.792 149.924 147.335 149.982 146.882C150.045 146.429 150.144 145.984 150.29 145.548C150.435 145.115 150.618 144.7 150.839 144.301C151.063 143.906 151.321 143.532 151.612 143.187C151.903 142.842 152.227 142.53 152.576 142.252C152.925 141.969 153.299 141.728 153.694 141.524C154.089 141.321 154.5 141.159 154.924 141.038C155.348 140.918 155.78 140.843 156.217 140.81C156.657 140.781 157.094 140.793 157.526 140.851Z" fill="#2E344D"/>
<path d="M163.997 147.065C164.33 147.11 164.658 147.189 164.978 147.302C165.298 147.414 165.602 147.555 165.892 147.73C166.183 147.904 166.454 148.108 166.707 148.341C166.961 148.573 167.189 148.827 167.389 149.11C167.592 149.388 167.771 149.683 167.917 149.999C168.062 150.315 168.178 150.643 168.266 150.984C168.349 151.325 168.403 151.67 168.419 152.023C168.44 152.376 168.428 152.726 168.378 153.075C168.332 153.428 168.253 153.769 168.141 154.105C168.033 154.438 167.892 154.758 167.721 155.066C167.547 155.369 167.351 155.656 167.127 155.922C166.902 156.188 166.653 156.429 166.383 156.645C166.117 156.861 165.83 157.048 165.523 157.206C165.219 157.364 164.903 157.489 164.579 157.58C164.251 157.672 163.918 157.73 163.582 157.755C163.245 157.78 162.908 157.771 162.576 157.726C162.239 157.68 161.915 157.601 161.595 157.489C161.275 157.376 160.971 157.235 160.681 157.056C160.39 156.882 160.115 156.678 159.866 156.445C159.612 156.217 159.384 155.959 159.18 155.681C158.976 155.402 158.802 155.103 158.656 154.787C158.507 154.471 158.395 154.143 158.307 153.802C158.224 153.465 158.17 153.116 158.149 152.767C158.133 152.414 158.145 152.061 158.191 151.711C158.241 151.362 158.32 151.022 158.428 150.685C158.54 150.352 158.681 150.032 158.852 149.725C159.022 149.417 159.222 149.13 159.446 148.864C159.671 148.598 159.916 148.357 160.186 148.141C160.456 147.925 160.743 147.742 161.046 147.584C161.35 147.426 161.666 147.302 161.994 147.21C162.322 147.115 162.651 147.056 162.991 147.032C163.328 147.011 163.665 147.019 163.997 147.065Z" fill="#2E344D"/>
<path d="M146.213 150.028C146.699 150.095 147.156 150.257 147.58 150.51C148.004 150.768 148.366 151.1 148.665 151.508C148.96 151.915 149.168 152.368 149.292 152.867C149.417 153.361 149.446 153.869 149.376 154.38C149.309 154.891 149.151 155.369 148.898 155.818C148.648 156.263 148.328 156.645 147.933 156.961C147.543 157.277 147.106 157.501 146.628 157.638C146.155 157.771 145.672 157.809 145.182 157.742C144.696 157.676 144.238 157.518 143.815 157.26C143.391 157.002 143.029 156.674 142.734 156.263C142.435 155.855 142.227 155.402 142.102 154.908C141.977 154.409 141.953 153.906 142.019 153.395C142.086 152.883 142.248 152.401 142.497 151.957C142.746 151.508 143.066 151.125 143.461 150.81C143.852 150.498 144.288 150.269 144.766 150.136C145.24 149.999 145.726 149.966 146.213 150.028Z" fill="#2E344D"/>
<path d="M141.362 143.216C141.853 143.278 142.306 143.441 142.73 143.698C143.158 143.952 143.515 144.284 143.815 144.692C144.11 145.099 144.322 145.552 144.442 146.051C144.567 146.549 144.596 147.052 144.525 147.564C144.459 148.075 144.301 148.553 144.051 149.002C143.802 149.45 143.478 149.829 143.087 150.145C142.692 150.46 142.256 150.685 141.782 150.822C141.304 150.955 140.822 150.992 140.336 150.926C139.845 150.859 139.388 150.701 138.964 150.444C138.54 150.19 138.179 149.858 137.884 149.45C137.588 149.039 137.377 148.59 137.252 148.091C137.127 147.593 137.102 147.09 137.169 146.578C137.239 146.067 137.397 145.585 137.647 145.14C137.896 144.692 138.216 144.309 138.611 143.993C139.006 143.682 139.438 143.453 139.916 143.32C140.394 143.183 140.876 143.15 141.362 143.216Z" fill="#2E344D"/>
<path d="M139.214 147.834C139.704 147.896 140.161 148.058 140.585 148.316C141.009 148.569 141.371 148.902 141.666 149.309C141.961 149.716 142.173 150.169 142.297 150.668C142.422 151.163 142.447 151.67 142.381 152.181C142.31 152.692 142.152 153.17 141.903 153.619C141.653 154.068 141.333 154.446 140.938 154.762C140.544 155.078 140.111 155.302 139.633 155.44C139.155 155.573 138.673 155.61 138.187 155.543C137.701 155.477 137.243 155.319 136.82 155.061C136.391 154.804 136.034 154.475 135.735 154.064C135.44 153.657 135.228 153.204 135.107 152.709C134.982 152.21 134.953 151.707 135.024 151.196C135.091 150.685 135.248 150.203 135.498 149.758C135.747 149.309 136.071 148.927 136.462 148.611C136.857 148.299 137.293 148.071 137.767 147.938C138.245 147.8 138.727 147.767 139.214 147.834Z" fill="#2E344D"/>
<path d="M138.889 152.763C139.301 152.821 139.687 152.958 140.045 153.174C140.407 153.395 140.71 153.677 140.959 154.022C141.213 154.371 141.387 154.758 141.495 155.182C141.599 155.606 141.62 156.034 141.562 156.47C141.504 156.907 141.371 157.314 141.159 157.696C140.947 158.079 140.673 158.407 140.34 158.673C140.008 158.943 139.638 159.134 139.234 159.251C138.831 159.367 138.424 159.396 138.013 159.342C137.597 159.288 137.21 159.151 136.853 158.935C136.495 158.715 136.188 158.432 135.939 158.083C135.689 157.738 135.51 157.351 135.407 156.928C135.303 156.504 135.278 156.071 135.336 155.639C135.394 155.203 135.531 154.791 135.743 154.409C135.955 154.026 136.225 153.702 136.558 153.432C136.89 153.166 137.26 152.971 137.663 152.854C138.067 152.738 138.474 152.709 138.889 152.763Z" fill="#2E344D"/>
<path d="M153.249 152.435C153.735 152.501 154.193 152.659 154.617 152.917C155.041 153.17 155.402 153.503 155.697 153.91C155.996 154.317 156.204 154.77 156.329 155.269C156.454 155.768 156.483 156.271 156.412 156.782C156.346 157.293 156.184 157.771 155.934 158.22C155.685 158.669 155.365 159.051 154.97 159.363C154.579 159.679 154.143 159.903 153.665 160.041C153.191 160.178 152.709 160.211 152.218 160.144C151.732 160.082 151.275 159.92 150.851 159.662C150.427 159.409 150.066 159.076 149.77 158.669C149.471 158.262 149.263 157.809 149.139 157.31C149.014 156.811 148.985 156.308 149.056 155.797C149.122 155.286 149.284 154.808 149.534 154.359C149.783 153.91 150.103 153.532 150.498 153.216C150.888 152.9 151.325 152.676 151.803 152.539C152.277 152.401 152.759 152.368 153.249 152.435Z" fill="#2E344D"/>
<path d="M145.535 139.721C146.022 139.787 146.479 139.945 146.903 140.203C147.327 140.46 147.688 140.793 147.983 141.2C148.283 141.608 148.49 142.061 148.615 142.555C148.74 143.054 148.769 143.557 148.698 144.068C148.632 144.579 148.47 145.061 148.22 145.506C147.971 145.955 147.651 146.337 147.256 146.653C146.865 146.969 146.429 147.194 145.951 147.327C145.477 147.464 144.995 147.497 144.505 147.435C144.018 147.368 143.561 147.206 143.137 146.953C142.713 146.695 142.352 146.362 142.057 145.955C141.757 145.548 141.549 145.095 141.425 144.596C141.3 144.101 141.271 143.594 141.342 143.083C141.408 142.572 141.57 142.094 141.82 141.645C142.069 141.2 142.389 140.818 142.784 140.502C143.175 140.186 143.611 139.962 144.089 139.825C144.563 139.692 145.045 139.654 145.535 139.721Z" fill="#2E344D"/>
<path d="M138.432 160.897C138.432 160.897 134.667 157.867 134.38 161.927C134.093 165.988 137.746 168.162 137.746 168.162L138.432 160.897Z" fill="#EFC0C1"/>
<path d="M137.293 162.04C137.293 162.04 134.263 160.785 136.948 165.415L137.293 162.04Z" fill="#E0ADB0"/>
<path d="M154.745 166.462C154.912 166.52 155.016 166.67 155.061 166.911C155.107 167.152 155.078 167.414 154.982 167.696C154.883 167.979 154.737 168.203 154.554 168.361C154.367 168.523 154.193 168.573 154.031 168.515C153.864 168.457 153.76 168.307 153.715 168.066C153.669 167.825 153.694 167.563 153.794 167.281C153.893 166.998 154.035 166.778 154.222 166.616C154.409 166.458 154.583 166.408 154.745 166.462Z" fill="#2E344D"/>
<path d="M147.326 164.804C147.493 164.858 147.597 165.007 147.642 165.248C147.688 165.489 147.659 165.751 147.563 166.034C147.464 166.321 147.318 166.541 147.135 166.699C146.948 166.861 146.774 166.911 146.612 166.853C146.445 166.794 146.341 166.645 146.296 166.404C146.25 166.167 146.275 165.901 146.375 165.618C146.474 165.336 146.616 165.115 146.803 164.953C146.99 164.795 147.164 164.745 147.326 164.804Z" fill="#2E344D"/>
<path d="M153.565 164.33C153.565 164.33 155.564 163.187 157.048 164.213L153.565 164.33Z" fill="#2E344D"/>
<path d="M145.115 161.811C145.286 161.811 147.684 161.699 148.881 163.415L145.115 161.811Z" fill="#2E344D"/>
<path d="M150.598 167.933C150.598 167.933 149.966 169.65 150.652 170.278C151.396 170.909 151.454 172.738 149.396 171.824" stroke="#E0ADB0" stroke-width="0.261425" stroke-miterlimit="10" stroke-linecap="round" stroke-linejoin="round"/>
<path d="M151.396 175.485C151.396 175.485 151.279 175.656 151.051 175.83C150.652 176.171 149.854 176.628 148.711 176.458C147.626 176.229 146.94 175.485 146.599 174.97C146.429 174.683 146.312 174.454 146.312 174.454" fill="white"/>
<path d="M161.844 197.052C161.046 208.781 158.819 220.165 157.962 231.723C156.533 244.08 155.676 255.181 155.622 255.294C155.676 254.953 150.826 258.153 139.463 260.044C128.611 261.815 110.51 263.473 105.714 261.245C105.544 261.187 107.314 232.409 107.485 231.723C111.882 188.989 111.483 185.955 117.136 183.153C119.82 181.549 121.761 181.666 124.845 181.092C126.957 180.635 133.008 180.061 134.209 180.007C137.119 184.238 142.489 191.503 146.77 192.364C148.939 192.019 149.338 184.126 149.795 182.867C157.335 184.637 162.871 188.931 161.844 197.052Z" fill="#DF5849"/>
<path d="M103.603 220.165C103.603 220.165 100.003 240.535 102.231 245.339C104.172 249.575 104.172 248.714 119.534 248.486C126.271 248.373 136.608 248.486 136.608 248.486L137.007 239.903L119.704 234.242L121.358 224.288L103.603 220.165Z" fill="#EFC0C1"/>
<path d="M135.406 240.019C135.406 240.019 138.603 238.648 140.66 237.388C142.771 236.129 145.115 234.928 146.711 235.215C148.312 235.497 158.021 238.818 156.533 240.934C156.533 240.934 158.59 242.422 157.447 243.739C157.447 243.739 157.962 244.483 157.218 245.397C156.479 246.312 152.539 242.937 150.652 242.879C148.769 242.821 145.972 242.995 145.972 242.995C145.972 242.995 149.912 244.483 150.768 244.766C151.624 245.052 153.906 246.482 153.623 247.168C153.337 247.858 150.024 245.967 148.312 245.684C146.599 245.397 144.771 244.882 143.856 245.796C142.946 246.711 141.574 248.544 139.633 248.544C137.692 248.544 135.98 248.199 135.98 248.199L135.406 240.019Z" fill="#EFC0C1"/>
<path d="M156.533 240.934C156.533 240.934 156.42 240.821 156.192 240.647C155.963 240.476 155.676 240.19 155.277 239.961C154.878 239.674 154.421 239.388 153.852 239.047C153.336 238.76 152.709 238.473 152.081 238.245C151.454 238.016 150.826 237.846 150.194 237.729C149.567 237.617 148.997 237.617 148.54 237.559C148.025 237.559 147.626 237.617 147.339 237.617C147.056 237.675 146.886 237.675 146.886 237.675C146.886 237.675 147.056 237.675 147.339 237.675C147.626 237.675 148.025 237.729 148.482 237.787C148.939 237.846 149.513 237.958 150.082 238.074C150.652 238.186 151.279 238.361 151.853 238.59C152.48 238.818 153.05 239.105 153.565 239.333C154.08 239.62 154.592 239.849 155.049 240.077C155.448 240.306 155.851 240.535 156.075 240.647C156.362 240.875 156.533 240.934 156.533 240.934Z" fill="#E0ADB0"/>
<path d="M157.447 243.739C157.447 243.739 157.335 243.623 157.048 243.452C156.819 243.278 156.42 242.995 156.021 242.708C155.564 242.422 155.049 242.077 154.479 241.736C153.906 241.391 153.278 241.05 152.593 240.763C151.911 240.476 151.225 240.306 150.539 240.248C149.854 240.19 149.226 240.19 148.711 240.19C148.199 240.19 147.742 240.248 147.397 240.248C147.115 240.306 146.886 240.306 146.886 240.306C146.886 240.306 147.056 240.306 147.397 240.306C147.684 240.306 148.141 240.36 148.652 240.36C149.168 240.418 149.795 240.476 150.423 240.593C151.051 240.705 151.736 240.875 152.364 241.162C152.996 241.449 153.623 241.736 154.193 242.023C154.762 242.305 155.336 242.592 155.793 242.879C156.25 243.107 156.649 243.336 156.936 243.511C157.277 243.681 157.447 243.739 157.447 243.739Z" fill="#E0ADB0"/>
<path d="M119.704 234.184H113.482" stroke="#313131" stroke-width="0.234208" stroke-miterlimit="10"/>
<path d="M117.992 182.692C117.992 182.692 109.426 185.843 107.601 193.507C105.772 201.175 102.29 221.827 102.29 221.827L121.645 224.857C121.645 224.857 125.527 206.15 126.442 196.366C127.356 186.582 117.992 182.692 117.992 182.692Z" fill="#DF5849"/>
<path d="M121.134 225.888C121.134 225.888 125.473 206.15 126.383 196.366" stroke="#313131" stroke-width="0.234208" stroke-miterlimit="10"/>
<path d="M161.387 200.942C160.76 206.666 159.617 213.245 158.76 224.799" stroke="#313131" stroke-width="0.234208" stroke-miterlimit="10"/>
<path d="M126.329 257.126C126.329 257.126 173.095 243.565 183.486 243.166C193.876 242.767 202.384 248.315 195.589 259.928C188.798 271.54 153.735 288.647 153.735 288.647L143.802 281.44L152.709 271.885L126.329 257.126Z" fill="#2E344D"/>
<path d="M135.751 284.529L146.599 276.519L153.736 288.302L142.659 296.827L136.89 296.657L135.751 284.529Z" fill="#EFC0C1"/>
<path d="M129.467 286.989C129.467 286.989 124.671 289.562 124.671 290.364C124.617 292.479 125.244 293.51 125.527 295.854C125.756 298.086 126.042 299.919 127.755 303.236C128.898 305.468 132.094 312.218 134.209 311.187C134.38 311.133 136.263 310.617 136.263 310.272C136.608 306.499 129.467 286.989 129.467 286.989Z" fill="#DF5849"/>
<path d="M135.864 310.501C133.125 309.587 123.474 293.165 127.643 288.589C129.983 286.017 136.205 283.614 136.205 283.614C136.205 283.614 137.518 288.361 141.288 294.425C142.489 296.37 143.457 296.083 143.515 296.258C143.574 297.056 142.771 299.346 142.659 299.691C142.543 300.318 138.603 311.361 135.864 310.501Z" fill="#2E344D"/>
<path d="M141.229 301.636C141.059 301.864 140.718 301.864 140.548 301.636L136.491 297.799C136.263 297.629 136.263 297.288 136.491 297.114C136.662 296.885 137.007 296.885 137.177 297.114L141.229 300.946C141.404 301.12 141.404 301.461 141.229 301.636Z" fill="white"/>
<path d="M140.373 303.464C140.203 303.693 139.862 303.693 139.692 303.464L135.635 299.632C135.406 299.462 135.406 299.117 135.635 298.947C135.805 298.718 136.15 298.718 136.321 298.947L140.373 302.779C140.548 302.949 140.548 303.294 140.373 303.464Z" fill="white"/>
<path d="M139.405 305.468C139.234 305.696 138.889 305.696 138.719 305.468L134.667 301.636C134.438 301.461 134.438 301.12 134.667 300.946C134.837 300.717 135.178 300.717 135.348 300.946L139.405 304.782C139.575 304.952 139.633 305.297 139.405 305.468Z" fill="white"/>
<path d="M142.032 299.919C141.861 300.148 141.516 300.148 141.346 299.919L137.294 296.083C137.065 295.913 137.065 295.572 137.294 295.397C137.464 295.169 137.805 295.169 137.975 295.397L142.032 299.233C142.202 299.404 142.202 299.745 142.032 299.919Z" fill="white"/>
<path d="M152.709 271.944L176.919 248.486" stroke="black" stroke-width="0.466267" stroke-miterlimit="10" stroke-linecap="round" stroke-linejoin="round"/>
<path d="M183.827 287.446L172.522 280.123L166.125 292.367L177.717 300.206L183.486 299.691L183.827 287.446Z" fill="#EFC0C1"/>
<mask id="mask1_17_3907" style="mask-type:luminance" maskUnits="userSpaceOnUse" x="184" y="289" width="12" height="26">
<path d="M184.072 289.408H195.776V314.911H184.072V289.408Z" fill="white"/>
</mask>
<g mask="url(#mask1_17_3907)">
<path d="M190.281 289.562C190.281 289.562 195.19 291.852 195.306 292.596C195.477 294.653 194.907 295.8 194.791 298.144C194.679 300.376 194.504 302.205 193.02 305.638C192.052 307.928 189.251 314.848 187.081 313.992C186.911 313.934 185.028 313.535 184.97 313.19C184.342 309.416 190.281 289.562 190.281 289.562Z" fill="#DF5849"/>
</g>
<path d="M185.369 313.419C188.054 312.334 195.705 296.141 192.222 290.992C190.967 289.105 184.172 286.989 183.315 286.586C183.315 286.586 182.285 291.395 178.918 297.687C177.833 299.691 176.861 299.462 176.861 299.691C176.861 300.489 177.833 302.779 177.892 303.065C178.062 303.693 182.688 314.449 185.369 313.419Z" fill="#2E344D"/>
<path d="M179.43 304.894C179.658 305.069 179.945 305.069 180.115 304.894L183.943 300.834C184.114 300.605 184.114 300.318 183.943 300.148C183.715 299.973 183.428 299.973 183.257 300.148L179.43 304.208C179.259 304.379 179.259 304.724 179.43 304.894Z" fill="white"/>
<path d="M180.402 306.669C180.631 306.839 180.917 306.839 181.088 306.669L184.911 302.608C185.086 302.38 185.086 302.093 184.911 301.918C184.683 301.748 184.4 301.748 184.23 301.918L180.402 305.983C180.173 306.154 180.173 306.498 180.402 306.669Z" fill="white"/>
<path d="M181.487 308.614C181.715 308.784 182.002 308.784 182.173 308.614L185.996 304.553C186.171 304.325 186.171 304.038 185.996 303.863C185.768 303.693 185.485 303.693 185.315 303.863L181.487 307.928C181.258 308.099 181.258 308.444 181.487 308.614Z" fill="white"/>
<path d="M178.519 303.236C178.748 303.406 179.031 303.406 179.205 303.236L183.029 299.175C183.199 298.947 183.199 298.66 183.029 298.489C182.8 298.315 182.514 298.315 182.343 298.489L178.519 302.55C178.345 302.72 178.345 303.065 178.519 303.236Z" fill="white"/>
<path d="M136.204 283.269C136.204 283.269 133.125 286.245 132.896 286.415C130.041 288.589 126.67 289.965 123.129 290.422C118.279 291.05 113.254 289.965 108.856 287.962C105.602 286.474 102.289 284.699 99.8331 282.01C93.4948 275.26 95.095 263.361 99.2637 255.925C102.46 250.202 108.399 246.025 115.136 248.486C131.924 254.608 176.063 280.123 176.063 280.123L166.354 296.827L136.204 283.269Z" fill="#2E344D"/>
<path d="M131.408 255.925C150.938 265.705 175.947 280.181 175.947 280.181" stroke="black" stroke-width="0.466267" stroke-miterlimit="10" stroke-linecap="round" stroke-linejoin="round"/>
<path d="M136.204 283.269L112.451 273.486" stroke="black" stroke-width="0.466267" stroke-miterlimit="10" stroke-linecap="round" stroke-linejoin="round"/>
<path d="M195.705 252.318H148.997L161.844 214.961H208.552L195.705 252.318Z" fill="#383334"/>
<path d="M197.359 252.318H150.71L163.498 214.961H210.206L197.359 252.318Z" fill="#536EC1"/>
<path d="M183.162 228.677C183.552 228.764 183.906 228.964 184.217 229.267C184.529 229.57 184.779 229.961 184.961 230.435C185.148 230.913 185.252 231.437 185.281 232.01C185.315 232.584 185.261 233.166 185.132 233.748C185.003 234.334 184.803 234.882 184.533 235.389C184.263 235.896 183.943 236.324 183.573 236.674C183.203 237.027 182.813 237.276 182.401 237.417C181.99 237.559 181.587 237.588 181.196 237.501C180.805 237.413 180.452 237.218 180.14 236.91C179.828 236.607 179.579 236.216 179.396 235.743C179.209 235.265 179.105 234.741 179.072 234.167C179.043 233.594 179.093 233.016 179.226 232.43C179.355 231.844 179.554 231.299 179.824 230.792C180.094 230.285 180.414 229.857 180.784 229.504C181.154 229.151 181.545 228.905 181.956 228.76C182.368 228.619 182.767 228.59 183.162 228.677Z" fill="#231F20"/>
<path d="M129.583 248.544H197.359V252.318H129.583V248.544Z" fill="#536EC1"/>
<path d="M294.774 113.64H224.6C220.032 113.64 216.375 109.979 216.375 105.403C216.375 100.885 220.086 97.1649 224.6 97.1649H294.774C299.342 97.1649 302.995 100.827 302.995 105.403C302.995 109.979 299.342 113.64 294.774 113.64Z" fill="white" stroke="#313131" stroke-width="0.759923" stroke-miterlimit="10"/>
<path d="M228.936 106.856H229.168L229.285 107.504C229.372 107.616 229.522 107.716 229.734 107.803C229.954 107.882 230.166 107.92 230.365 107.92C230.698 107.92 230.956 107.837 231.147 107.67C231.334 107.496 231.429 107.255 231.429 106.956C231.429 106.789 231.388 106.652 231.313 106.54C231.246 106.432 231.151 106.336 231.03 106.257C230.918 106.183 230.785 106.116 230.631 106.058C230.486 106.004 230.332 105.954 230.166 105.908C230.008 105.854 229.854 105.792 229.7 105.725C229.555 105.659 229.422 105.576 229.301 105.476C229.189 105.368 229.094 105.239 229.019 105.094C228.952 104.94 228.919 104.753 228.919 104.528C228.919 104.154 229.056 103.859 229.335 103.647C229.621 103.427 230.02 103.315 230.532 103.315C230.906 103.315 231.321 103.365 231.778 103.464V104.462H231.546L231.429 103.88C231.184 103.705 230.885 103.614 230.532 103.614C230.207 103.614 229.958 103.68 229.783 103.813C229.605 103.938 229.517 104.113 229.517 104.345C229.517 104.503 229.551 104.628 229.617 104.728C229.692 104.828 229.788 104.919 229.9 104.994C230.02 105.06 230.153 105.123 230.299 105.177C230.453 105.235 230.606 105.289 230.764 105.343C230.931 105.401 231.084 105.459 231.23 105.526C231.384 105.592 231.517 105.684 231.629 105.792C231.749 105.904 231.845 106.037 231.911 106.191C231.986 106.349 232.028 106.536 232.028 106.756C232.028 107.222 231.882 107.583 231.596 107.837C231.317 108.082 230.914 108.202 230.382 108.202C230.124 108.202 229.871 108.178 229.617 108.136C229.36 108.094 229.135 108.032 228.936 107.953V106.856Z" fill="black"/>
<path d="M233.39 106.457V106.523C233.39 106.847 233.423 107.101 233.489 107.288C233.564 107.467 233.68 107.604 233.838 107.704C233.992 107.795 234.192 107.837 234.437 107.837C234.557 107.837 234.707 107.828 234.886 107.803C235.06 107.783 235.206 107.762 235.318 107.737V107.936C235.206 108.003 235.052 108.065 234.853 108.119C234.653 108.173 234.454 108.202 234.254 108.202C233.73 108.202 233.348 108.065 233.107 107.787C232.874 107.512 232.758 107.064 232.758 106.44C232.758 105.854 232.878 105.422 233.124 105.143C233.365 104.857 233.714 104.711 234.171 104.711C235.023 104.711 235.451 105.193 235.451 106.158V106.457H233.39ZM234.171 104.994C233.926 104.994 233.739 105.094 233.606 105.293C233.473 105.493 233.406 105.788 233.406 106.174H234.836C234.836 105.742 234.778 105.439 234.67 105.26C234.557 105.085 234.391 104.994 234.171 104.994Z" fill="black"/>
<path d="M237.344 104.711C237.71 104.711 237.976 104.79 238.142 104.944C238.317 105.089 238.408 105.318 238.408 105.626V107.887L238.824 107.97V108.136H237.91L237.843 107.803C237.577 108.069 237.232 108.202 236.812 108.202C236.235 108.202 235.948 107.87 235.948 107.205C235.948 106.985 235.989 106.802 236.081 106.656C236.168 106.515 236.305 106.403 236.496 106.324C236.683 106.249 236.962 106.203 237.328 106.191H237.826V105.659C237.826 105.426 237.781 105.26 237.693 105.16C237.602 105.052 237.477 104.994 237.311 104.994C237.066 104.994 236.85 105.052 236.663 105.16L236.53 105.576H236.33V104.844C236.717 104.757 237.053 104.711 237.344 104.711ZM237.826 106.44H237.361C237.037 106.453 236.821 106.519 236.713 106.64C236.6 106.752 236.546 106.935 236.546 107.188C236.546 107.612 236.713 107.82 237.045 107.82C237.211 107.82 237.348 107.803 237.461 107.77C237.581 107.729 237.702 107.679 237.826 107.621V106.44Z" fill="black"/>
<path d="M241.282 104.711V105.609H241.133L240.916 105.21C240.792 105.21 240.65 105.227 240.484 105.26C240.326 105.293 240.193 105.339 240.085 105.393V107.887L240.65 107.97V108.136H239.071V107.97L239.487 107.887V105.044L239.071 104.961V104.794H240.035L240.069 105.21C240.21 105.089 240.405 104.977 240.65 104.877C240.891 104.769 241.083 104.711 241.216 104.711H241.282Z" fill="black"/>
<path d="M244.349 107.936C244.224 108.028 244.058 108.094 243.85 108.136C243.65 108.177 243.443 108.202 243.235 108.202C242.158 108.202 241.622 107.616 241.622 106.44C241.622 105.887 241.755 105.459 242.021 105.16C242.295 104.861 242.694 104.711 243.218 104.711C243.526 104.711 243.875 104.744 244.265 104.811V105.742H244.066L243.916 105.16C243.717 105.052 243.476 104.994 243.201 104.994C242.57 104.994 242.254 105.476 242.254 106.44C242.254 106.939 242.345 107.301 242.536 107.521C242.736 107.733 243.035 107.837 243.434 107.837C243.775 107.837 244.083 107.799 244.349 107.72V107.936Z" fill="black"/>
<path d="M245.726 104.528C245.726 104.774 245.714 104.952 245.693 105.06C245.859 104.961 246.046 104.877 246.258 104.811C246.479 104.744 246.666 104.711 246.824 104.711C247.11 104.711 247.327 104.794 247.472 104.961C247.613 105.127 247.688 105.372 247.688 105.692V107.887L248.104 107.97V108.136H246.657V107.97L247.106 107.887V105.725C247.106 105.326 246.911 105.127 246.524 105.127C246.3 105.127 246.034 105.16 245.726 105.227V107.887L246.175 107.97V108.136H244.712V107.97L245.128 107.887V103.331L244.629 103.248V103.082H245.726V104.528Z" fill="black"/>
<path d="M251.339 107.803C251.339 107.928 251.297 108.032 251.222 108.119C251.143 108.194 251.044 108.236 250.923 108.236C250.799 108.236 250.695 108.194 250.607 108.119C250.528 108.032 250.491 107.928 250.491 107.803C250.491 107.683 250.528 107.583 250.607 107.504C250.695 107.417 250.799 107.371 250.923 107.371C251.044 107.371 251.143 107.417 251.222 107.504C251.297 107.583 251.339 107.683 251.339 107.803Z" fill="black"/>
<path d="M254.97 107.803C254.97 107.928 254.928 108.032 254.853 108.119C254.774 108.194 254.675 108.236 254.554 108.236C254.429 108.236 254.325 108.194 254.238 108.119C254.159 108.032 254.122 107.928 254.122 107.803C254.122 107.683 254.159 107.583 254.238 107.504C254.325 107.417 254.429 107.371 254.554 107.371C254.675 107.371 254.774 107.417 254.853 107.504C254.928 107.583 254.97 107.683 254.97 107.803Z" fill="black"/>
<path d="M258.6 107.803C258.6 107.928 258.559 108.032 258.484 108.119C258.405 108.194 258.305 108.236 258.185 108.236C258.06 108.236 257.956 108.194 257.869 108.119C257.79 108.032 257.752 107.928 257.752 107.803C257.752 107.683 257.79 107.583 257.869 107.504C257.956 107.417 258.06 107.371 258.185 107.371C258.305 107.371 258.405 107.417 258.484 107.504C258.559 107.583 258.6 107.683 258.6 107.803Z" fill="black"/>
<path d="M296.773 104.829C296.773 105.174 296.706 105.502 296.578 105.818C296.449 106.13 296.262 106.408 296.021 106.649C295.78 106.895 295.501 107.077 295.185 107.21C294.873 107.339 294.545 107.406 294.204 107.406C293.863 107.406 293.535 107.339 293.219 107.21C292.903 107.077 292.629 106.895 292.388 106.649C292.147 106.408 291.96 106.13 291.831 105.818C291.698 105.502 291.636 105.174 291.636 104.829C291.636 104.488 291.698 104.16 291.831 103.844C291.96 103.532 292.147 103.254 292.388 103.009C292.629 102.767 292.903 102.585 293.219 102.452C293.535 102.323 293.863 102.256 294.204 102.256C294.545 102.256 294.873 102.323 295.185 102.452C295.501 102.585 295.78 102.767 296.021 103.009C296.262 103.254 296.449 103.532 296.578 103.844C296.706 104.16 296.773 104.488 296.773 104.829Z" stroke="black" stroke-width="0.504944" stroke-miterlimit="10"/>
<path d="M292.434 106.662L290.148 108.952" stroke="black" stroke-width="0.504944" stroke-miterlimit="10"/>
<path d="M113.424 139.729C113.424 140.544 113.345 141.35 113.187 142.152C113.025 142.95 112.792 143.727 112.481 144.48C112.169 145.232 111.787 145.947 111.334 146.628C110.885 147.306 110.369 147.929 109.796 148.507C109.218 149.085 108.595 149.6 107.917 150.053C107.24 150.506 106.525 150.889 105.772 151.2C105.024 151.512 104.247 151.745 103.449 151.907C102.651 152.065 101.845 152.144 101.034 152.144C100.22 152.144 99.4134 152.065 98.6154 151.907C97.8174 151.745 97.0443 151.512 96.292 151.2C95.5398 150.889 94.8249 150.506 94.1474 150.053C93.4741 149.6 92.8465 149.085 92.2729 148.507C91.6952 147.929 91.184 147.306 90.731 146.628C90.2779 145.947 89.8956 145.232 89.5838 144.48C89.2721 143.727 89.0394 142.95 88.8814 142.152C88.7193 141.35 88.6404 140.544 88.6404 139.729C88.6404 138.914 88.7193 138.108 88.8814 137.306C89.0394 136.508 89.2721 135.731 89.5838 134.978C89.8956 134.226 90.2779 133.511 90.731 132.834C91.184 132.152 91.6952 131.529 92.2729 130.951C92.8465 130.373 93.4741 129.858 94.1474 129.405C94.8249 128.956 95.5398 128.569 96.292 128.258C97.0443 127.946 97.8174 127.713 98.6154 127.551C99.4134 127.393 100.22 127.314 101.034 127.314C101.845 127.314 102.651 127.393 103.449 127.551C104.247 127.713 105.024 127.946 105.772 128.258C106.525 128.569 107.24 128.956 107.917 129.405C108.595 129.858 109.218 130.373 109.796 130.951C110.369 131.529 110.885 132.152 111.334 132.834C111.787 133.511 112.169 134.226 112.481 134.978C112.792 135.731 113.025 136.508 113.187 137.306C113.345 138.108 113.424 138.914 113.424 139.729Z" fill="#DF5849"/>
<path d="M106.4 139.729L97.7217 134.696V144.708L106.4 139.729Z" fill="white"/>
<path d="M213.635 261.873H257.318V263.648H213.635V261.873Z" fill="#E8F0FE"/>
<path d="M213.635 267.995H257.318V269.77H213.635V267.995Z" fill="#E8EBF7"/>
<path d="M213.635 274.117H257.318V275.888H213.635V274.117Z" fill="#E8F0FE"/>
<path d="M213.635 280.239H257.318V282.01H213.635V280.239Z" fill="#E8EBF7"/>
<mask id="mask2_17_3907" style="mask-type:luminance" maskUnits="userSpaceOnUse" x="224" y="204" width="106" height="50">
<path d="M224.504 204.288H329.034V253.232H224.504V204.288Z" fill="white"/>
</mask>
<g mask="url(#mask2_17_3907)">
<mask id="mask3_17_3907" style="mask-type:luminance" maskUnits="userSpaceOnUse" x="-40" y="-40" width="479" height="479">
<path d="M438.9 -39.9H-39.9001V438.9H438.9V-39.9Z" fill="black" fill-opacity="0.9"/>
</mask>
<g mask="url(#mask3_17_3907)">
<mask id="mask4_17_3907" style="mask-type:luminance" maskUnits="userSpaceOnUse" x="224" y="204" width="106" height="50">
<path d="M329.84 204.288H224.504V253.232H329.84V204.288Z" fill="white"/>
</mask>
<g mask="url(#mask4_17_3907)">
<mask id="mask5_17_3907" style="mask-type:luminance" maskUnits="userSpaceOnUse" x="224" y="205" width="106" height="48">
<path d="M224.974 205.053H329.034V252.168H224.974V205.053Z" fill="white"/>
</mask>
<g mask="url(#mask5_17_3907)">
<path d="M327.093 251.919H226.998C225.967 251.919 225.111 251.062 225.111 250.032V207.239C225.111 206.208 225.967 205.348 226.998 205.348H327.151C328.178 205.348 329.034 206.208 329.034 207.239V250.032C328.976 251.062 328.178 251.919 327.093 251.919Z" fill="#C7CEFD"/>
</g>
<path d="M321.552 247.343H232.534C232.135 247.343 231.794 246.998 231.794 246.599V246.482C231.794 246.083 232.135 245.738 232.534 245.738H321.552C321.955 245.738 322.296 246.083 322.296 246.482V246.599C322.296 246.998 321.955 247.343 321.552 247.343Z" fill="#E8EBF7"/>
<path d="M236.187 237.272L235.277 236.757C237.16 233.382 243.839 228.062 247.151 228.004C250.123 227.945 252.176 229.836 254.175 231.665C256.174 233.498 258.057 235.215 260.684 235.215C263.938 235.215 266.282 232.068 268.735 228.689C271.478 225.028 274.275 221.254 278.556 221.196C282.097 221.137 284.724 223.656 287.238 226.058C289.578 228.29 291.748 230.406 294.545 230.352C297.97 230.235 300.027 226.69 302.197 222.97C304.366 219.25 306.652 215.36 310.534 215.248C313.103 215.132 315.846 216.736 318.701 219.936L317.899 220.626C315.272 217.65 312.762 216.221 310.592 216.275C307.28 216.391 305.281 219.824 303.169 223.486C300.941 227.26 298.656 231.208 294.661 231.378C291.461 231.495 289.009 229.092 286.611 226.802C284.267 224.516 281.814 222.11 278.672 222.226C274.903 222.285 272.276 225.888 269.707 229.321C267.139 232.754 264.512 236.299 260.742 236.299C257.658 236.299 255.547 234.354 253.49 232.467C251.607 230.751 249.778 229.092 247.38 229.092C247.322 229.092 247.322 229.092 247.268 229.092C244.296 229.092 237.904 234.184 236.187 237.272Z" fill="#DF5849"/>
<path d="M319.956 220.626C319.956 220.822 319.919 221.013 319.844 221.196C319.765 221.374 319.661 221.536 319.52 221.678C319.383 221.815 319.221 221.923 319.038 221.998C318.859 222.073 318.668 222.11 318.473 222.11C318.273 222.11 318.086 222.073 317.903 221.998C317.72 221.923 317.558 221.815 317.421 221.678C317.284 221.536 317.176 221.374 317.101 221.196C317.022 221.013 316.985 220.822 316.985 220.626C316.985 220.427 317.022 220.236 317.101 220.057C317.176 219.874 317.284 219.712 317.421 219.575C317.558 219.433 317.72 219.325 317.903 219.25C318.086 219.176 318.273 219.138 318.473 219.138C318.668 219.138 318.859 219.176 319.038 219.25C319.221 219.325 319.383 219.433 319.52 219.575C319.661 219.712 319.765 219.874 319.844 220.057C319.919 220.236 319.956 220.427 319.956 220.626Z" fill="#EEBA38"/>
<path d="M237.218 236.985C237.218 237.185 237.181 237.372 237.106 237.555C237.027 237.737 236.923 237.9 236.782 238.037C236.644 238.178 236.482 238.286 236.3 238.361C236.121 238.436 235.93 238.473 235.734 238.473C235.535 238.473 235.348 238.436 235.165 238.361C234.982 238.286 234.82 238.178 234.683 238.037C234.546 237.9 234.438 237.737 234.363 237.555C234.284 237.372 234.246 237.185 234.246 236.985C234.246 236.79 234.284 236.599 234.363 236.416C234.438 236.237 234.546 236.075 234.683 235.934C234.82 235.797 234.982 235.688 235.165 235.614C235.348 235.539 235.535 235.497 235.734 235.497C235.93 235.497 236.121 235.539 236.3 235.614C236.482 235.688 236.644 235.797 236.782 235.934C236.923 236.075 237.027 236.237 237.106 236.416C237.181 236.599 237.218 236.79 237.218 236.985Z" fill="#EEBA38"/>
<path d="M252.347 211.528H232.476C232.193 211.528 231.964 211.3 231.964 211.013C231.964 210.726 232.193 210.497 232.476 210.497H252.347C252.633 210.497 252.862 210.726 252.862 211.013C252.862 211.3 252.633 211.528 252.347 211.528Z" fill="#E8EBF7"/>
<path d="M252.347 215.876H232.476C232.193 215.876 231.964 215.647 231.964 215.36C231.964 215.073 232.193 214.845 232.476 214.845H252.347C252.633 214.845 252.862 215.073 252.862 215.36C252.862 215.589 252.633 215.876 252.347 215.876Z" fill="#E8EBF7"/>
</g>
</g>
</g>
<path d="M186.911 92.2438C186.911 92.2438 190.394 90.8141 188.166 85.4941C188.166 85.4941 190.394 84.3511 191.308 86.238C192.164 88.125 192.563 89.9579 192.563 89.9579L198.162 87.7842C199.359 87.3228 200.672 87.8964 201.187 89.0393C202.501 91.957 204.384 97.1648 202.272 98.7109C199.246 100.826 196.333 101.512 195.589 101.512C194.849 101.512 192.106 102.144 190.851 102.601" fill="#E8EBF7"/>
<path d="M190.681 102.942L187.655 104.143C187.368 104.26 187.027 104.089 186.911 103.802L183.087 93.9022C182.971 93.6195 183.141 93.2746 183.428 93.1582L186.454 91.957C186.74 91.8448 187.081 92.0152 187.198 92.302L191.021 102.198C191.08 102.485 190.967 102.83 190.681 102.942Z" fill="#2E344D"/>
</g>
<defs>
<filter id="filter0_d_17_3907" x="-4" y="0" width="407" height="407" filterUnits="userSpaceOnUse" color-interpolation-filters="sRGB">
<feFlood flood-opacity="0" result="BackgroundImageFix"/>
<feColorMatrix in="SourceAlpha" type="matrix" values="0 0 0 0 0 0 0 0 0 0 0 0 0 0 0 0 0 0 127 0" result="hardAlpha"/>
<feOffset dy="4"/>
<feGaussianBlur stdDeviation="2"/>
<feComposite in2="hardAlpha" operator="out"/>
<feColorMatrix type="matrix" values="0 0 0 0 0 0 0 0 0 0 0 0 0 0 0 0 0 0 0.25 0"/>
<feBlend mode="normal" in2="BackgroundImageFix" result="effect1_dropShadow_17_3907"/>
<feBlend mode="normal" in="SourceGraphic" in2="effect1_dropShadow_17_3907" result="shape"/>
</filter>
</defs>
</svg>
