<svg width="50" height="49" viewBox="0 0 50 49" fill="none" xmlns="http://www.w3.org/2000/svg">
<mask id="mask0_61_1568" style="mask-type:luminance" maskUnits="userSpaceOnUse" x="0" y="0" width="50" height="49">
<path d="M0.0634766 0.0847168H49.3021V49.0001H0.0634766V0.0847168Z" fill="white"/>
</mask>
<g mask="url(#mask0_61_1568)">
<path d="M48.0819 41.2631L41.9654 34.3989C41.5292 33.9083 40.9277 33.6359 40.272 33.5817C39.6177 33.5275 38.962 33.7457 38.4703 34.1807L37.4326 35.1077L35.1404 32.4921C40.272 27.5347 42.1293 20.1786 39.9455 13.3687L44.5867 8.7379L45.8426 9.99146C46.0607 10.2083 46.3885 10.2639 46.6621 10.2083C46.9345 10.0999 47.1526 9.88171 47.2081 9.55509L48.5723 1.0552C48.6278 0.782802 48.5181 0.510403 48.3542 0.347757C48.1903 0.183789 47.918 0.075359 47.6443 0.129574L39.1801 1.49157C38.8523 1.54578 38.6342 1.76397 38.5258 2.03636C38.4161 2.30876 38.5258 2.63538 38.7439 2.85356L39.9997 4.10712L36.7227 7.32169C36.5601 7.10351 36.3407 6.88532 36.1767 6.66714C29.3517 -1.01424 17.5021 -1.77722 9.74775 5.03275C8.71005 5.9597 7.83627 6.93954 7.0722 7.97492L7.018 8.02913C5.9803 9.44666 5.16072 11.0255 4.56057 12.6599C4.50637 12.8781 4.45085 12.9878 4.45085 13.0963C2.70328 18.2718 3.25055 24.102 6.25262 28.9509H0.901516C0.465285 28.8967 0.083252 29.2775 0.083252 29.7139V45.9494C0.083252 46.3844 0.465285 46.7666 0.901516 46.7666H28.6418C29.0781 46.7666 29.4601 46.3844 29.4601 45.9494V36.1973C31.0438 35.5427 32.5732 34.6171 33.9387 33.5275L36.2323 36.1417L35.1946 37.0687C34.7028 37.5037 34.4305 38.104 34.375 38.7573C34.3208 39.4105 34.5389 40.0651 34.9764 40.5556L41.0916 47.4198C42.0196 48.4552 43.2754 49 44.5867 49C45.6786 49 46.7705 48.6192 47.6443 47.8562C48.5723 47.039 49.1183 45.8952 49.1738 44.6958C49.2822 43.3881 48.9001 42.19 48.0819 41.2631ZM41.7473 3.56232L41.0374 2.85356L46.8803 1.92793L45.9523 7.75673L45.2424 7.04929C44.9146 6.72135 44.4228 6.72135 44.095 7.04929L38.4703 12.5515L29.624 21.378L25.2009 16.9641C24.8744 16.6375 24.3826 16.6375 24.0548 16.9641L17.1201 23.8296L6.19842 12.9878C6.58045 11.8982 7.1264 10.8629 7.72787 9.93592L16.5186 18.7082C16.8464 19.0348 17.3382 19.0348 17.666 18.7082L24.6008 11.8427L29.0239 16.2566C29.3517 16.5832 29.8435 16.5832 30.17 16.2566L41.6918 4.81456C41.8557 4.65192 41.9112 4.43374 41.9112 4.21555C41.9112 3.99737 41.8557 3.72497 41.7473 3.56232ZM10.8397 6.34053C17.8841 0.129574 28.696 0.782802 34.9209 7.81227C35.1404 8.02913 35.3585 8.30153 35.5224 8.57393L29.624 14.4583L25.2009 10.0457C24.8744 9.71906 24.3826 9.71906 24.0548 10.0457L17.1201 16.9099L8.71005 8.57393C9.36572 7.75673 10.0756 6.99375 10.8397 6.34053ZM27.8223 45.1322H1.7211V30.5311H27.8223V45.1322ZM28.6418 28.8967H8.21962C5.21624 24.701 4.39665 19.4712 5.65247 14.7307L16.5186 25.5724C16.6825 25.7364 16.9019 25.7906 17.1201 25.7906C17.3382 25.7906 17.5563 25.7364 17.7202 25.5724L24.655 18.7082L29.0781 23.1208C29.4059 23.4474 29.8977 23.4474 30.2255 23.1208L38.6897 14.7307C40.3275 20.9416 38.3619 27.5347 33.5012 31.8376C32.2996 32.9272 30.9354 33.7999 29.5156 34.4531V29.7681C29.4601 29.2775 29.0781 28.8967 28.6418 28.8967ZM46.6066 46.6026C45.3508 47.6922 43.4393 47.5838 42.3474 46.3302L36.2323 39.4105C36.0683 39.2479 36.0128 39.0297 36.0128 38.8115C36.0128 38.5933 36.1225 38.3764 36.2865 38.2667L39.5622 35.3801C39.7261 35.2703 39.89 35.1619 40.1094 35.1619H40.1636C40.3817 35.1619 40.5999 35.2703 40.7096 35.4343L46.8247 42.3527C47.372 42.953 47.5901 43.7147 47.5901 44.5319C47.5346 45.3491 47.1526 46.0578 46.6066 46.6026Z" fill="#1E4F8E"/>
</g>
</svg>
