<svg width="50" height="50" viewBox="0 0 50 50" fill="none" xmlns="http://www.w3.org/2000/svg">
<g clip-path="url(#clip0_71_2290)">
<mask id="mask0_71_2290" style="mask-type:luminance" maskUnits="userSpaceOnUse" x="0" y="0" width="50" height="50">
<path d="M0.0634766 0.150391H49.3021V49.0658H0.0634766V0.150391Z" fill="white"/>
</mask>
<g mask="url(#mask0_71_2290)">
<path d="M48.0819 41.3288L41.9654 34.4646C41.5292 33.974 40.9277 33.7016 40.272 33.6474C39.6177 33.5932 38.962 33.8113 38.4703 34.2464L37.4326 35.1733L35.1404 32.5578C40.272 27.6004 42.1293 20.2443 39.9455 13.4343L44.5867 8.80357L45.8426 10.0571C46.0607 10.274 46.3885 10.3295 46.6621 10.274C46.9345 10.1656 47.1526 9.94738 47.2081 9.62077L48.5723 1.12087C48.6278 0.848475 48.5181 0.576077 48.3542 0.413431C48.1903 0.249463 47.918 0.141033 47.6443 0.195248L39.1801 1.55724C38.8523 1.61146 38.6342 1.82964 38.5258 2.10204C38.4161 2.37444 38.5258 2.70105 38.7439 2.91923L39.9997 4.1728L36.7227 7.38736C36.5601 7.16918 36.3407 6.951 36.1767 6.73281C29.3517 -0.948562 17.5021 -1.71154 9.74775 5.09842C8.71005 6.02537 7.83627 7.00521 7.0722 8.04059L7.018 8.09481C5.9803 9.51234 5.16072 11.0912 4.56057 12.7256C4.50637 12.9438 4.45085 13.0535 4.45085 13.1619C2.70328 18.3375 3.25055 24.1676 6.25262 29.0166H0.901516C0.465285 28.9624 0.083252 29.3432 0.083252 29.7796V46.0151C0.083252 46.4501 0.465285 46.8323 0.901516 46.8323H28.6418C29.0781 46.8323 29.4601 46.4501 29.4601 46.0151V36.2629C31.0438 35.6084 32.5732 34.6828 33.9387 33.5932L36.2323 36.2074L35.1946 37.1343C34.7028 37.5694 34.4305 38.1697 34.375 38.8229C34.3208 39.4762 34.5389 40.1307 34.9764 40.6213L41.0916 47.4855C42.0196 48.5209 43.2754 49.0657 44.5867 49.0657C45.6786 49.0657 46.7705 48.6848 47.6443 47.9219C48.5723 47.1047 49.1183 45.9608 49.1738 44.7615C49.2822 43.4537 48.9001 42.2557 48.0819 41.3288ZM41.7473 3.628L41.0374 2.91923L46.8803 1.99361L45.9523 7.82241L45.2424 7.11496C44.9146 6.78703 44.4228 6.78703 44.095 7.11496L38.4703 12.6172L29.624 21.4437L25.2009 17.0297C24.8744 16.7031 24.3826 16.7031 24.0548 17.0297L17.1201 23.8952L6.19842 13.0535C6.58045 11.9639 7.1264 10.9285 7.72787 10.0016L16.5186 18.7739C16.8464 19.1005 17.3382 19.1005 17.666 18.7739L24.6008 11.9084L29.0239 16.3223C29.3517 16.6489 29.8435 16.6489 30.17 16.3223L41.6918 4.88024C41.8557 4.71759 41.9112 4.49941 41.9112 4.28123C41.9112 4.06304 41.8557 3.79064 41.7473 3.628ZM10.8397 6.4062C17.8841 0.195248 28.696 0.848475 34.9209 7.87794C35.1404 8.09481 35.3585 8.3672 35.5224 8.6396L29.624 14.5239L25.2009 10.1113C24.8744 9.78473 24.3826 9.78473 24.0548 10.1113L17.1201 16.9755L8.71005 8.6396C9.36572 7.82241 10.0756 7.05943 10.8397 6.4062ZM27.8223 45.1979H1.7211V30.5968H27.8223V45.1979ZM28.6418 28.9624H8.21962C5.21624 24.7667 4.39665 19.5369 5.65247 14.7963L16.5186 25.6381C16.6825 25.802 16.9019 25.8562 17.1201 25.8562C17.3382 25.8562 17.5563 25.802 17.7202 25.6381L24.655 18.7739L29.0781 23.1865C29.4059 23.5131 29.8977 23.5131 30.2255 23.1865L38.6897 14.7963C40.3275 21.0073 38.3619 27.6004 33.5012 31.9032C32.2996 32.9928 30.9354 33.8656 29.5156 34.5188V29.8338C29.4601 29.3432 29.0781 28.9624 28.6418 28.9624ZM46.6066 46.6683C45.3508 47.7579 43.4393 47.6495 42.3474 46.3959L36.2323 39.4762C36.0683 39.3135 36.0128 39.0953 36.0128 38.8772C36.0128 38.659 36.1225 38.4421 36.2865 38.3324L39.5622 35.4457C39.7261 35.336 39.89 35.2276 40.1094 35.2276H40.1636C40.3817 35.2276 40.5999 35.336 40.7096 35.5L46.8247 42.4183C47.372 43.0187 47.5901 43.7803 47.5901 44.5975C47.5346 45.4147 47.1526 46.1235 46.6066 46.6683Z" fill="white"/>
</g>
<path d="M3.90491 35.9906C3.90491 37.5152 5.16072 38.7146 6.63598 38.7146H7.07221C7.67236 38.7146 8.16411 39.2038 8.16411 39.8042C8.16411 40.4032 7.67236 40.8938 7.07221 40.8938H4.72449C4.28694 40.8938 3.90491 41.2746 3.90491 41.711C3.90491 42.146 4.28694 42.5282 4.72449 42.5282H7.07221C8.60166 42.5282 9.80328 41.3288 9.80328 39.8042C9.80328 38.2782 8.54614 37.0802 7.07221 37.0802H6.63598C6.03451 37.0802 5.54276 36.5896 5.54276 35.9906C5.54276 35.3903 6.03451 34.901 6.63598 34.901H8.98369C9.41992 34.901 9.80328 34.5188 9.80328 34.0838C9.80328 33.6474 9.41992 33.2666 8.98369 33.2666H6.63598C5.16072 33.2666 3.90491 34.4646 3.90491 35.9906Z" fill="white"/>
<path d="M12.6427 42.5282H16.9019C17.3381 42.5282 17.7202 42.146 17.7202 41.711C17.7202 41.2746 17.3381 40.8938 16.9019 40.8938H13.461V38.7146H16.9019C17.3381 38.7146 17.7202 38.3324 17.7202 37.8974C17.7202 37.461 17.3381 37.0802 16.9019 37.0802H13.461V34.901H16.9019C17.3381 34.901 17.7202 34.5188 17.7202 34.0838C17.7202 33.6474 17.3381 33.2666 16.9019 33.2666H12.6427C12.2052 33.2666 11.8231 33.6474 11.8231 34.0838V41.711C11.8231 42.146 12.2052 42.5282 12.6427 42.5282Z" fill="white"/>
<path d="M22.6893 42.528C24.3272 42.528 25.6385 41.2202 25.6385 39.5859V36.1531C25.6385 34.5187 24.3272 33.2109 22.6893 33.2109C21.0515 33.2109 19.7415 34.5187 19.7415 36.1531V39.5859C19.7415 41.2202 21.0515 42.528 22.6893 42.528ZM21.3793 36.2073C21.3793 35.4999 21.9795 34.9009 22.6893 34.9009C23.3992 34.9009 24.0007 35.4999 24.0007 36.2073V39.6401C24.0007 40.3488 23.3992 40.9478 22.6893 40.9478C21.9795 40.9478 21.3793 40.3488 21.3793 39.6401V36.2073Z" fill="white"/>
</g>
<defs>
<clipPath id="clip0_71_2290">
<rect width="50" height="49" fill="white" transform="translate(0 0.0656738)"/>
</clipPath>
</defs>
</svg>
