<svg width="42" height="54" viewBox="0 0 42 54" fill="none" xmlns="http://www.w3.org/2000/svg">
<g clip-path="url(#clip0_61_1572)">
<mask id="mask0_61_1572" style="mask-type:luminance" maskUnits="userSpaceOnUse" x="0" y="0" width="32" height="54">
<path d="M0.0695801 0H31.902V54H0.0695801V0Z" fill="white"/>
</mask>
<g mask="url(#mask0_61_1572)">
<path d="M30.6122 46.6748C30.6122 48.2878 29.9716 49.8108 28.8054 50.9611C27.6406 52.1114 26.098 52.7442 24.4616 52.7442H7.49288C5.85793 52.7442 4.31532 52.1114 3.14913 50.9611C1.98435 49.8108 1.34231 48.2878 1.34231 46.6748V46.4653H30.6122V46.6748ZM31.2486 33.4884C30.8977 33.4884 30.6122 33.7697 30.6122 34.1156V45.2095H1.34231V7.32516C1.34231 7.25625 1.34373 7.18594 1.34657 7.11563H25.3096C25.6619 7.11563 25.946 6.83578 25.946 6.48844C25.946 6.14109 25.6619 5.85984 25.3096 5.85984H1.52413C1.78975 4.80375 2.34515 3.83344 3.14913 3.03891C4.31532 1.88859 5.85793 1.25578 7.49288 1.25578H24.4616C27.8537 1.25578 30.6122 3.97828 30.6122 7.32516V9.83672C30.6122 10.1841 30.8977 10.4653 31.2486 10.4653C31.6008 10.4653 31.8849 10.1841 31.8849 9.83672V7.32516C31.8849 5.36906 31.1136 3.52969 29.7116 2.14594C28.3096 0.762188 26.4446 0 24.4616 0H7.49288C5.51844 0 3.65623 0.763594 2.24998 2.15156C1.12782 3.25828 0.409069 4.65188 0.16333 6.16078C0.105091 6.25641 0.0695801 6.3675 0.0695801 6.48844C0.0695801 6.55453 0.0795231 6.61781 0.0994096 6.67688C0.0795231 6.89203 0.0695801 7.10859 0.0695801 7.32516V46.6748C0.0695801 48.6239 0.843728 50.4619 2.24998 51.8484C3.65623 53.2364 5.51844 54 7.49288 54H24.4616C26.4375 54 28.2997 53.2364 29.7059 51.8484C31.1108 50.4619 31.8849 48.6239 31.8849 46.6748V34.1156C31.8849 33.7697 31.6008 33.4884 31.2486 33.4884Z" fill="#1E4F8E"/>
</g>
<path d="M21.0682 20.5116C21.5639 20.5116 22.1293 21.0699 22.1293 21.5579C22.1293 21.9052 22.4134 22.1865 22.7656 22.1865C23.1165 22.1865 23.402 21.9052 23.402 21.5579C23.402 20.3752 22.267 19.2559 21.0682 19.2559C19.8693 19.2559 18.7344 20.3752 18.7344 21.5579C18.7344 22.6829 19.8111 23.2679 20.7614 23.7826C21.402 24.1313 22.1293 24.5251 22.1293 24.9076C22.1293 25.3955 21.5639 25.9538 21.0682 25.9538C20.5724 25.9538 20.0071 25.3955 20.0071 24.9076C20.0071 24.5602 19.723 24.279 19.3707 24.279C19.0199 24.279 18.7344 24.5602 18.7344 24.9076C18.7344 26.0902 19.8693 27.2096 21.0682 27.2096C22.267 27.2096 23.402 26.0902 23.402 24.9076C23.402 23.7826 22.3253 23.1976 21.375 22.6829C20.7344 22.3341 20.0071 21.9404 20.0071 21.5579C20.0071 21.0699 20.5724 20.5116 21.0682 20.5116Z" fill="#1E4F8E"/>
<path d="M37.3579 19.2783C37.0823 19.2038 36.7897 19.3191 36.642 19.561L34.6576 22.8249L32.6732 19.561C32.5255 19.3191 32.2329 19.2038 31.9573 19.2783C31.6818 19.3542 31.49 19.6017 31.49 19.8844V26.581C31.49 26.9283 31.7755 27.2096 32.1264 27.2096C32.4786 27.2096 32.7627 26.9283 32.7627 26.581V22.1513L34.1264 24.3928C34.2371 24.5742 34.4303 24.6867 34.6434 24.6966V24.698C34.6477 24.698 34.6533 24.698 34.6576 24.6966C34.6619 24.698 34.6675 24.698 34.6718 24.698V24.6966C34.8849 24.6867 35.0781 24.5742 35.1889 24.3928L36.5525 22.1513V26.581C36.5525 26.9283 36.8366 27.2096 37.1874 27.2096C37.5397 27.2096 37.8238 26.9283 37.8238 26.581V19.8844C37.8238 19.6017 37.6335 19.3542 37.3579 19.2783Z" fill="#1E4F8E"/>
<path d="M30.0781 19.2783C29.8025 19.2038 29.5085 19.3191 29.3622 19.561L27.3764 22.8249L25.392 19.561C25.2443 19.3191 24.9517 19.2038 24.6761 19.2783C24.4005 19.3542 24.2102 19.6017 24.2102 19.8844V26.581C24.2102 26.9283 24.4943 27.2096 24.8466 27.2096C25.1974 27.2096 25.4829 26.9283 25.4829 26.581V22.1513L26.8466 24.3928C26.9559 24.5742 27.1505 24.6867 27.3622 24.6966V24.698C27.3679 24.698 27.3721 24.698 27.3764 24.6966C27.3821 24.698 27.3863 24.698 27.392 24.698V24.6966C27.6037 24.6867 27.7983 24.5742 27.9076 24.3928L29.2713 22.1513V26.581C29.2713 26.9283 29.5568 27.2096 29.9076 27.2096C30.2585 27.2096 30.544 26.9283 30.544 26.581V19.8844C30.544 19.6017 30.3537 19.3542 30.0781 19.2783Z" fill="#1E4F8E"/>
<path d="M18.5242 39.7672C18.635 39.7672 18.7486 39.7391 18.8509 39.6772L23.0924 37.1657C23.3935 36.9885 23.4915 36.6018 23.3111 36.305C23.1293 36.0069 22.7387 35.9113 22.4376 36.0899L18.1961 38.6014C17.8935 38.78 17.7969 39.1654 17.9773 39.4621C18.0967 39.6589 18.3069 39.7672 18.5242 39.7672Z" fill="#1E4F8E"/>
<path d="M17.9773 42.8119C18.0967 43.0073 18.3069 43.1156 18.5242 43.1156C18.635 43.1156 18.7486 43.0875 18.8509 43.027L27.3339 38.0039C27.6364 37.8253 27.733 37.44 27.5526 37.1419C27.3722 36.8452 26.9816 36.7481 26.6805 36.9267L18.1961 41.9498C17.8935 42.1284 17.7969 42.5138 17.9773 42.8119Z" fill="#1E4F8E"/>
<mask id="mask1_61_1572" style="mask-type:luminance" maskUnits="userSpaceOnUse" x="4" y="12" width="39" height="25">
<path d="M4.3125 12.5579H42.0668V36.436H4.3125V12.5579Z" fill="white"/>
</mask>
<g mask="url(#mask1_61_1572)">
<path d="M40.794 28.2558C40.794 29.7563 39.5568 30.9769 38.0369 30.9769H19.3707C19.2628 30.9769 19.1563 31.0036 19.0625 31.0557L12.3722 34.7232V31.6041C12.3722 31.2582 12.0866 30.9769 11.7358 30.9769H8.34233C6.82102 30.9769 5.58381 29.7563 5.58381 28.2558V16.5347C5.58381 15.0343 6.82102 13.8136 8.34233 13.8136H38.0369C39.5568 13.8136 40.794 15.0343 40.794 16.5347V28.2558ZM38.0369 12.5579H8.34233C6.11932 12.5579 4.3125 14.3424 4.3125 16.5347V28.2558C4.3125 30.4482 6.11932 32.2327 8.34233 32.2327H11.0994V35.7905C11.0994 36.0127 11.2188 36.2194 11.4134 36.3319C11.5128 36.3896 11.6236 36.4191 11.7358 36.4191C11.8423 36.4191 11.9489 36.3924 12.044 36.339L19.5369 32.2327H38.0369C40.2585 32.2327 42.0668 30.4482 42.0668 28.2558V16.5347C42.0668 14.3424 40.2585 12.5579 38.0369 12.5579Z" fill="#1E4F8E"/>
</g>
<path d="M13.3012 23.4421H11.3012L11.8665 22.1864H13.8679L13.3012 23.4421ZM17.6747 20.9306H15.8253L16.5597 19.3007C16.7017 18.9843 16.5569 18.6131 16.2358 18.4725C15.9148 18.3318 15.5384 18.4739 15.3963 18.7917L14.4333 20.9306H12.4319L13.1648 19.3007C13.3083 18.9843 13.1634 18.6131 12.8424 18.4725C12.5213 18.3318 12.1449 18.4739 12.0029 18.7917L11.0398 20.9306H8.34236C7.99009 20.9306 7.706 21.2118 7.706 21.5578C7.706 21.9051 7.99009 22.1864 8.34236 22.1864H10.473L9.9077 23.4421H7.49293C7.14208 23.4421 6.85657 23.7234 6.85657 24.0693C6.85657 24.4167 7.14208 24.6979 7.49293 24.6979H9.34236L8.60941 26.3264C8.46594 26.6428 8.61083 27.014 8.93185 27.1546C9.01566 27.1926 9.10373 27.2095 9.19037 27.2095C9.43327 27.2095 9.66623 27.0703 9.77134 26.8368L10.7344 24.6979H12.7358L12.0029 26.3264C11.8594 26.6428 12.0043 27.014 12.3253 27.1546C12.4091 27.1926 12.4972 27.2095 12.5838 27.2095C12.8267 27.2095 13.0597 27.0703 13.1648 26.8368L14.1293 24.6979H16.8267C17.1776 24.6979 17.4631 24.4167 17.4631 24.0693C17.4631 23.7234 17.1776 23.4421 16.8267 23.4421H14.6946L15.26 22.1864H17.6747C18.0256 22.1864 18.3111 21.9051 18.3111 21.5578C18.3111 21.2118 18.0256 20.9306 17.6747 20.9306Z" fill="#1E4F8E"/>
<path d="M28.0298 6.43087C28.0298 6.78806 28.3224 7.07774 28.6846 7.07774C29.0454 7.07774 29.3394 6.78806 29.3394 6.43087C29.3394 6.07509 29.0454 5.7854 28.6846 5.7854C28.3224 5.7854 28.0298 6.07509 28.0298 6.43087Z" fill="#1E4F8E"/>
</g>
<defs>
<clipPath id="clip0_61_1572">
<rect width="42" height="54" fill="white"/>
</clipPath>
</defs>
</svg>
