<svg width="42" height="55" viewBox="0 0 42 55" fill="none" xmlns="http://www.w3.org/2000/svg">
<g clip-path="url(#clip0_71_3102)">
<mask id="mask0_71_3102" style="mask-type:luminance" maskUnits="userSpaceOnUse" x="0" y="0" width="32" height="55">
<path d="M0.0695801 0.0656738H31.902V54.0657H0.0695801V0.0656738Z" fill="white"/>
</mask>
<g mask="url(#mask0_71_3102)">
<path d="M30.6122 46.7405C30.6122 48.3535 29.9716 49.8765 28.8054 51.0268C27.6406 52.1771 26.098 52.8099 24.4616 52.8099H7.49288C5.85793 52.8099 4.31532 52.1771 3.14913 51.0268C1.98435 49.8765 1.34231 48.3535 1.34231 46.7405V46.531H30.6122V46.7405ZM31.2486 33.5541C30.8977 33.5541 30.6122 33.8354 30.6122 34.1813V45.2752H1.34231V7.39083C1.34231 7.32192 1.34373 7.25161 1.34657 7.1813H25.3096C25.6619 7.1813 25.946 6.90145 25.946 6.55411C25.946 6.20677 25.6619 5.92552 25.3096 5.92552H1.52413C1.78975 4.86942 2.34515 3.89911 3.14913 3.10458C4.31532 1.95427 5.85793 1.32146 7.49288 1.32146H24.4616C27.8537 1.32146 30.6122 4.04396 30.6122 7.39083V9.90239C30.6122 10.2497 30.8977 10.531 31.2486 10.531C31.6008 10.531 31.8849 10.2497 31.8849 9.90239V7.39083C31.8849 5.43474 31.1136 3.59536 29.7116 2.21161C28.3096 0.827861 26.4446 0.0656738 24.4616 0.0656738H7.49288C5.51844 0.0656738 3.65623 0.829268 2.24998 2.21724C1.12782 3.32396 0.409069 4.71755 0.16333 6.22646C0.105091 6.32208 0.0695801 6.43317 0.0695801 6.55411C0.0695801 6.6202 0.0795231 6.68349 0.0994096 6.74255C0.0795231 6.95771 0.0695801 7.17427 0.0695801 7.39083V46.7405C0.0695801 48.6896 0.843728 50.5275 2.24998 51.9141C3.65623 53.3021 5.51844 54.0657 7.49288 54.0657H24.4616C26.4375 54.0657 28.2997 53.3021 29.7059 51.9141C31.1108 50.5275 31.8849 48.6896 31.8849 46.7405V34.1813C31.8849 33.8354 31.6008 33.5541 31.2486 33.5541Z" fill="white"/>
</g>
<path d="M21.0682 20.5773C21.5639 20.5773 22.1293 21.1356 22.1293 21.6236C22.1293 21.9709 22.4134 22.2522 22.7656 22.2522C23.1165 22.2522 23.402 21.9709 23.402 21.6236C23.402 20.4409 22.267 19.3215 21.0682 19.3215C19.8693 19.3215 18.7344 20.4409 18.7344 21.6236C18.7344 22.7486 19.8111 23.3336 20.7614 23.8483C21.402 24.197 22.1293 24.5908 22.1293 24.9733C22.1293 25.4612 21.5639 26.0195 21.0682 26.0195C20.5724 26.0195 20.0071 25.4612 20.0071 24.9733C20.0071 24.6259 19.723 24.3447 19.3707 24.3447C19.0199 24.3447 18.7344 24.6259 18.7344 24.9733C18.7344 26.1559 19.8693 27.2753 21.0682 27.2753C22.267 27.2753 23.402 26.1559 23.402 24.9733C23.402 23.8483 22.3253 23.2633 21.375 22.7486C20.7344 22.3998 20.0071 22.0061 20.0071 21.6236C20.0071 21.1356 20.5724 20.5773 21.0682 20.5773Z" fill="white"/>
<path d="M37.3579 19.344C37.0824 19.2695 36.7898 19.3848 36.642 19.6266L34.6577 22.8905L32.6733 19.6266C32.5256 19.3848 32.2329 19.2695 31.9574 19.344C31.6818 19.4199 31.4901 19.6674 31.4901 19.9501V26.6466C31.4901 26.994 31.7756 27.2752 32.1264 27.2752C32.4787 27.2752 32.7628 26.994 32.7628 26.6466V22.217L34.1264 24.4585C34.2372 24.6399 34.4304 24.7524 34.6435 24.7623V24.7637C34.6477 24.7637 34.6534 24.7637 34.6577 24.7623C34.6619 24.7637 34.6676 24.7637 34.6719 24.7637V24.7623C34.8849 24.7524 35.0781 24.6399 35.1889 24.4585L36.5526 22.217V26.6466C36.5526 26.994 36.8366 27.2752 37.1875 27.2752C37.5398 27.2752 37.8239 26.994 37.8239 26.6466V19.9501C37.8239 19.6674 37.6335 19.4199 37.3579 19.344Z" fill="white"/>
<path d="M30.0781 19.344C29.8026 19.2695 29.5085 19.3848 29.3622 19.6266L27.3764 22.8905L25.3921 19.6266C25.2443 19.3848 24.9517 19.2695 24.6761 19.344C24.4006 19.4199 24.2102 19.6674 24.2102 19.9501V26.6466C24.2102 26.994 24.4943 27.2752 24.8466 27.2752C25.1975 27.2752 25.483 26.994 25.483 26.6466V22.217L26.8466 24.4585C26.956 24.6399 27.1506 24.7524 27.3622 24.7623V24.7637C27.3679 24.7637 27.3722 24.7637 27.3764 24.7623C27.3821 24.7637 27.3864 24.7637 27.3921 24.7637V24.7623C27.6037 24.7524 27.7983 24.6399 27.9077 24.4585L29.2713 22.217V26.6466C29.2713 26.994 29.5568 27.2752 29.9077 27.2752C30.2585 27.2752 30.544 26.994 30.544 26.6466V19.9501C30.544 19.6674 30.3537 19.4199 30.0781 19.344Z" fill="white"/>
<path d="M18.5241 39.8329C18.6349 39.8329 18.7486 39.8048 18.8509 39.7429L23.0923 37.2313C23.3935 37.0542 23.4915 36.6674 23.3111 36.3707C23.1293 36.0726 22.7386 35.977 22.4375 36.1556L18.196 38.6671C17.8935 38.8457 17.7969 39.231 17.9773 39.5277C18.0966 39.7246 18.3068 39.8329 18.5241 39.8329Z" fill="white"/>
<path d="M17.9773 42.8776C18.0966 43.073 18.3068 43.1813 18.5241 43.1813C18.6349 43.1813 18.7486 43.1532 18.8509 43.0927L27.3338 38.0696C27.6364 37.891 27.733 37.5057 27.5526 37.2076C27.3722 36.9108 26.9815 36.8138 26.6804 36.9924L18.196 42.0155C17.8935 42.1941 17.7969 42.5794 17.9773 42.8776Z" fill="white"/>
<mask id="mask1_71_3102" style="mask-type:luminance" maskUnits="userSpaceOnUse" x="4" y="12" width="39" height="25">
<path d="M4.3125 12.6235H42.0668V36.5017H4.3125V12.6235Z" fill="white"/>
</mask>
<g mask="url(#mask1_71_3102)">
<path d="M40.794 28.3215C40.794 29.822 39.5568 31.0426 38.0369 31.0426H19.3707C19.2628 31.0426 19.1563 31.0693 19.0625 31.1213L12.3722 34.7888V31.6698C12.3722 31.3238 12.0866 31.0426 11.7358 31.0426H8.34233C6.82102 31.0426 5.58381 29.822 5.58381 28.3215V16.6004C5.58381 15.0999 6.82102 13.8793 8.34233 13.8793H38.0369C39.5568 13.8793 40.794 15.0999 40.794 16.6004V28.3215ZM38.0369 12.6235H8.34233C6.11932 12.6235 4.3125 14.4081 4.3125 16.6004V28.3215C4.3125 30.5138 6.11932 32.2984 8.34233 32.2984H11.0994V35.8562C11.0994 36.0784 11.2188 36.2851 11.4134 36.3976C11.5128 36.4553 11.6236 36.4848 11.7358 36.4848C11.8423 36.4848 11.9489 36.4581 12.044 36.4046L19.5369 32.2984H38.0369C40.2585 32.2984 42.0668 30.5138 42.0668 28.3215V16.6004C42.0668 14.4081 40.2585 12.6235 38.0369 12.6235Z" fill="white"/>
</g>
<path d="M13.3011 23.5078H11.3011L11.8664 22.252H13.8679L13.3011 23.5078ZM17.6747 20.9963H15.8253L16.5596 19.3664C16.7017 19.05 16.5568 18.6788 16.2358 18.5381C15.9147 18.3975 15.5383 18.5395 15.3963 18.8574L14.4332 20.9963H12.4318L13.1647 19.3664C13.3082 19.05 13.1633 18.6788 12.8423 18.5381C12.5213 18.3975 12.1449 18.5395 12.0028 18.8574L11.0397 20.9963H8.3423C7.99003 20.9963 7.70594 21.2775 7.70594 21.6234C7.70594 21.9708 7.99003 22.252 8.3423 22.252H10.473L9.90764 23.5078H7.49287C7.14202 23.5078 6.85651 23.7891 6.85651 24.135C6.85651 24.4824 7.14202 24.7636 7.49287 24.7636H9.3423L8.60935 26.392C8.46588 26.7084 8.61077 27.0797 8.93179 27.2203C9.0156 27.2583 9.10367 27.2752 9.19031 27.2752C9.43321 27.2752 9.66617 27.1359 9.77128 26.9025L10.7343 24.7636H12.7358L12.0028 26.392C11.8593 26.7084 12.0042 27.0797 12.3253 27.2203C12.4091 27.2583 12.4971 27.2752 12.5838 27.2752C12.8267 27.2752 13.0596 27.1359 13.1647 26.9025L14.1292 24.7636H16.8267C17.1775 24.7636 17.463 24.4824 17.463 24.135C17.463 23.7891 17.1775 23.5078 16.8267 23.5078H14.6946L15.2599 22.252H17.6747C18.0255 22.252 18.3111 21.9708 18.3111 21.6234C18.3111 21.2775 18.0255 20.9963 17.6747 20.9963Z" fill="white"/>
<path d="M28.0298 6.49654C28.0298 6.85373 28.3224 7.14342 28.6846 7.14342C29.0454 7.14342 29.3395 6.85373 29.3395 6.49654C29.3395 6.14076 29.0454 5.85107 28.6846 5.85107C28.3224 5.85107 28.0298 6.14076 28.0298 6.49654Z" fill="white"/>
</g>
<defs>
<clipPath id="clip0_71_3102">
<rect width="42" height="54" fill="white" transform="translate(0 0.0656738)"/>
</clipPath>
</defs>
</svg>
