<svg width="62" height="39" viewBox="0 0 62 39" fill="none" xmlns="http://www.w3.org/2000/svg">
<g clip-path="url(#clip0_71_1469)">
<path d="M22.2812 29.094C21.7484 29.094 21.3125 29.5327 21.3125 30.069C21.3125 30.6052 21.7484 31.044 22.2812 31.044H30.0312C30.5641 31.044 31 30.6052 31 30.069C31 29.5327 30.5641 29.094 30.0312 29.094H22.2812Z" fill="#1E4F8E"/>
<path d="M8.76724 29.7765C8.76724 29.887 8.74625 29.9926 8.70427 30.0934C8.66229 30.1958 8.60255 30.2851 8.52666 30.3631C8.44916 30.4395 8.36036 30.4996 8.25864 30.5419C8.15854 30.5841 8.05359 30.6053 7.9438 30.6053C7.83401 30.6053 7.72906 30.5841 7.62896 30.5419C7.52724 30.4996 7.43843 30.4395 7.36093 30.3631C7.28505 30.2851 7.22531 30.1958 7.18333 30.0934C7.14135 29.9926 7.12036 29.887 7.12036 29.7765C7.12036 29.666 7.14135 29.5604 7.18333 29.4596C7.22531 29.3573 7.28505 29.2679 7.36093 29.1899C7.43843 29.1135 7.52724 29.0534 7.62896 29.0111C7.72906 28.9689 7.83401 28.9478 7.9438 28.9478C8.05359 28.9478 8.15854 28.9689 8.25864 29.0111C8.36036 29.0534 8.44916 29.1135 8.52666 29.1899C8.60255 29.2679 8.66229 29.3573 8.70427 29.4596C8.74625 29.5604 8.76724 29.666 8.76724 29.7765Z" fill="#1E4F8E"/>
<path d="M5.52188 29.7765C5.52188 29.887 5.50089 29.9926 5.45891 30.0934C5.41693 30.1958 5.35719 30.2851 5.2813 30.3631C5.2038 30.4395 5.115 30.4996 5.01328 30.5419C4.91318 30.5841 4.80823 30.6053 4.69844 30.6053C4.58865 30.6053 4.4837 30.5841 4.38359 30.5419C4.28187 30.4996 4.19307 30.4395 4.11557 30.3631C4.03969 30.2851 3.97995 30.1958 3.93797 30.0934C3.89599 29.9926 3.875 29.887 3.875 29.7765C3.875 29.666 3.89599 29.5604 3.93797 29.4596C3.97995 29.3573 4.03969 29.2679 4.11557 29.1899C4.19307 29.1135 4.28187 29.0534 4.38359 29.0111C4.4837 28.9689 4.58865 28.9478 4.69844 28.9478C4.80823 28.9478 4.91318 28.9689 5.01328 29.0111C5.115 29.0534 5.2038 29.1135 5.2813 29.1899C5.35719 29.2679 5.41693 29.3573 5.45891 29.4596C5.50089 29.5604 5.52188 29.666 5.52188 29.7765Z" fill="#1E4F8E"/>
<path d="M21.6516 7.59531C21.3609 7.15656 20.7313 7.01031 20.2953 7.30281L11.5766 13.1528C11.2859 13.3478 11.1406 13.6403 11.1406 13.9816C11.1406 14.3228 11.2859 14.6153 11.5766 14.8103L20.2953 20.6603C20.7313 20.9528 21.3609 20.8553 21.6516 20.3678C21.9422 19.9291 21.8453 19.2953 21.3609 19.0028L13.8531 13.9816L21.3609 8.96031C21.7969 8.66781 21.9422 8.03406 21.6516 7.59531Z" fill="#1E4F8E"/>
<path d="M30.6609 20.3677C30.9515 20.8065 31.5812 20.9527 32.0172 20.6602L40.7359 14.8102C41.0265 14.6152 41.1719 14.3227 41.1719 13.9815C41.1719 13.6402 41.0265 13.3477 40.7359 13.1527L32.0172 7.30271C31.5812 7.01021 30.9515 7.10772 30.6609 7.59521C30.3703 8.03397 30.4672 8.66772 30.9515 8.96021L38.4594 13.9815L30.9515 19.0027C30.5156 19.2952 30.3703 19.929 30.6609 20.3677Z" fill="#1E4F8E"/>
<path d="M27.1735 6.4251L23.2985 21.0501C23.1532 21.5863 23.4922 22.1226 23.9766 22.2201C24.0735 22.2201 24.1219 22.2688 24.2188 22.2688C24.6547 22.2688 25.0422 21.9763 25.1391 21.5376L29.0141 6.9126C29.1594 6.37635 28.8203 5.8401 28.336 5.7426C27.8516 5.59635 27.3188 5.88885 27.1735 6.4251Z" fill="#1E4F8E"/>
<mask id="mask0_71_1469" style="mask-type:luminance" maskUnits="userSpaceOnUse" x="0" y="-1" width="53" height="40">
<path d="M0 -0.156006H52.7V38.844H0V-0.156006Z" fill="white"/>
</mask>
<g mask="url(#mask0_71_1469)">
<path d="M22.2812 36.894H19.375C18.8422 36.894 18.4062 37.3327 18.4062 37.869C18.4062 38.4052 18.8422 38.844 19.375 38.844H32.9375C33.4703 38.844 33.9062 38.4052 33.9062 37.869C33.9062 37.3327 33.4703 36.894 32.9375 36.894H30.0312V33.969H49.4062C50.6656 33.969 51.7313 33.1402 52.1187 32.019H51.1016C50.6656 32.019 50.2781 31.9702 49.8906 31.824C49.7453 31.9215 49.5516 32.019 49.3578 32.019H2.90625C2.37344 32.019 1.9375 31.5802 1.9375 31.044V28.119H42.9156L42.7703 27.9727C42.2859 27.4852 41.8984 26.8515 41.7047 26.169H1.9375V2.76899C1.9375 2.23274 2.37344 1.79399 2.90625 1.79399H49.4062C49.9391 1.79399 50.375 2.23274 50.375 2.76899V7.74149C50.6172 7.69274 50.8594 7.64399 51.15 7.64399H52.3125V2.76899C52.3125 1.16024 51.0047 -0.156006 49.4062 -0.156006H2.90625C1.30781 -0.156006 0 1.16024 0 2.76899V31.044C0 32.6527 1.30781 33.969 2.90625 33.969H22.2812V36.894ZM24.2188 33.969H28.0938V36.894H24.2188V33.969Z" fill="#1E4F8E"/>
</g>
<mask id="mask1_71_1469" style="mask-type:luminance" maskUnits="userSpaceOnUse" x="41" y="9" width="21" height="22">
<path d="M41.54 9.56812H62V30.3681H41.54V9.56812Z" fill="white"/>
</mask>
<g mask="url(#mask1_71_1469)">
<path d="M60.111 16.7602C60.0141 16.5165 59.9172 16.3215 59.8204 16.0777C60.45 15.1515 60.3532 13.884 59.5297 13.0552L58.561 12.0802C58.125 11.6415 57.4954 11.3977 56.8657 11.3977C56.3813 11.3977 55.9454 11.544 55.5579 11.7877C55.3641 11.6902 55.1219 11.5927 54.8797 11.4952C54.6375 10.374 53.6688 9.59399 52.5547 9.59399H51.1985C50.036 9.59399 49.0672 10.4227 48.8735 11.4952C48.6313 11.5927 48.4375 11.6902 48.1954 11.7877C47.8079 11.544 47.3719 11.3977 46.8875 11.3977C46.2579 11.3977 45.6282 11.6415 45.1922 12.0802L44.2235 13.0552C43.4 13.884 43.3032 15.1515 43.9329 16.0777C43.836 16.2727 43.7391 16.5165 43.6422 16.7602C42.5282 17.004 41.7532 17.979 41.7532 19.1002V20.4652C41.7532 21.6352 42.5766 22.6102 43.6422 22.8052C43.7391 23.049 43.836 23.244 43.9329 23.4877C43.6907 23.8777 43.5454 24.3165 43.5454 24.804C43.5454 25.4377 43.7875 26.0715 44.2235 26.5102L45.1922 27.4852C45.6282 27.924 46.2579 28.1677 46.8875 28.1677C47.3719 28.1677 47.8079 28.0215 48.1954 27.7777C48.3891 27.8752 48.6313 27.9727 48.8735 28.0702C49.1157 29.1915 50.0844 29.9715 51.1985 29.9715H52.5547C53.7172 29.9715 54.686 29.1427 54.8797 28.0702C55.1219 27.9727 55.3157 27.8752 55.5579 27.7777C55.9454 28.0215 56.3813 28.1677 56.8657 28.1677C57.4954 28.1677 58.125 27.924 58.561 27.4852L59.5297 26.5102C59.9657 26.0715 60.2079 25.4377 60.2079 24.804C60.2079 24.3165 60.0625 23.8777 59.8204 23.4877C59.9172 23.2927 60.0141 23.049 60.111 22.8052C61.225 22.5615 62 21.5865 62 20.4652V19.1002C62 17.979 61.1766 17.004 60.111 16.7602ZM60.0625 20.514C60.0625 20.7577 59.8688 20.9527 59.6266 20.9527H58.6094C58.4157 22.0252 58.0282 22.9515 57.4469 23.7802L58.1735 24.5115C58.3672 24.7065 58.3672 24.999 58.1735 25.1452L57.2047 26.1202C57.1079 26.2177 57.011 26.2665 56.8657 26.2665C56.7204 26.2665 56.6235 26.2177 56.5266 26.1202L55.8 25.389C54.9766 25.974 54.0079 26.4127 52.9907 26.559V27.5827C52.9907 27.8265 52.7969 28.0215 52.5547 28.0215H51.1985C50.9563 28.0215 50.7625 27.8265 50.7625 27.5827V26.6565C49.6969 26.4615 48.7766 26.0715 47.9532 25.4865L47.1297 26.169C47.0329 26.2665 46.936 26.3152 46.7907 26.3152C46.6454 26.3152 46.5969 26.2665 46.5 26.169L45.5313 25.194C45.3375 24.999 45.3375 24.7065 45.5313 24.5602L46.2579 23.829C45.6766 23.0002 45.2407 22.0252 45.0954 21.0015H44.0782C43.836 21.0015 43.6422 20.8065 43.6422 20.5627V19.1977C43.6422 18.954 43.836 18.759 44.0782 18.759H45.0469C45.2407 17.6865 45.6282 16.7602 46.2094 15.9315L45.5313 15.1027C45.3375 14.9077 45.3375 14.6152 45.5313 14.469L46.5 13.494C46.5969 13.3965 46.6938 13.3477 46.8391 13.3477C46.9844 13.3477 47.0813 13.3965 47.1782 13.494L47.9047 14.2252C48.7282 13.6402 49.6969 13.2015 50.7141 13.0552V12.0315C50.7141 11.7877 50.9079 11.5927 51.15 11.5927H52.5063C52.7485 11.5927 52.9422 11.7877 52.9422 12.0315V13.0065C54.0079 13.2015 54.9282 13.5915 55.7516 14.1765L56.4782 13.4452C56.575 13.3477 56.6719 13.299 56.8172 13.299C56.9625 13.299 57.0594 13.3477 57.1563 13.4452L58.125 14.4202C58.3188 14.6152 58.3188 14.9077 58.125 15.054L57.3985 15.7852C57.9797 16.614 58.4157 17.589 58.561 18.6127H59.5782C59.8204 18.6127 60.0141 18.8077 60.0141 19.0515V20.514H60.0625Z" fill="#1E4F8E"/>
</g>
<path d="M51.8281 15.9314C49.6969 15.9314 47.9531 17.6864 47.9531 19.8314C47.9531 21.9764 49.6969 23.7314 51.8281 23.7314C53.9594 23.7314 55.7031 21.9764 55.7031 19.8314C55.7031 17.6864 53.9594 15.9314 51.8281 15.9314ZM51.8281 21.7814C50.7625 21.7814 49.8906 20.9039 49.8906 19.8314C49.8906 18.7589 50.7625 17.8814 51.8281 17.8814C52.8937 17.8814 53.7656 18.7589 53.7656 19.8314C53.7656 20.9039 52.8937 21.7814 51.8281 21.7814Z" fill="#1E4F8E"/>
</g>
<defs>
<clipPath id="clip0_71_1469">
<rect width="62" height="39" fill="white"/>
</clipPath>
</defs>
</svg>
