<svg width="62" height="40" viewBox="0 0 62 40" fill="none" xmlns="http://www.w3.org/2000/svg">
<g clip-path="url(#clip0_61_1527)">
<path d="M22.2812 30.0283C21.7484 30.0283 21.3125 30.4671 21.3125 31.0033C21.3125 31.5396 21.7484 31.9783 22.2812 31.9783H30.0312C30.5641 31.9783 31 31.5396 31 31.0033C31 30.4671 30.5641 30.0283 30.0312 30.0283H22.2812Z" fill="white"/>
<path d="M8.76724 30.7108C8.76724 30.8213 8.74625 30.927 8.70427 31.0277C8.66229 31.1301 8.60255 31.2195 8.52666 31.2975C8.44916 31.3738 8.36036 31.434 8.25864 31.4762C8.15854 31.5185 8.05359 31.5396 7.9438 31.5396C7.83401 31.5396 7.72906 31.5185 7.62896 31.4762C7.52724 31.434 7.43843 31.3738 7.36093 31.2975C7.28505 31.2195 7.22531 31.1301 7.18333 31.0277C7.14135 30.927 7.12036 30.8213 7.12036 30.7108C7.12036 30.6003 7.14135 30.4947 7.18333 30.394C7.22531 30.2916 7.28505 30.2022 7.36093 30.1242C7.43843 30.0478 7.52724 29.9877 7.62896 29.9455C7.72906 29.9032 7.83401 29.8821 7.9438 29.8821C8.05359 29.8821 8.15854 29.9032 8.25864 29.9455C8.36036 29.9877 8.44916 30.0478 8.52666 30.1242C8.60255 30.2022 8.66229 30.2916 8.70427 30.394C8.74625 30.4947 8.76724 30.6003 8.76724 30.7108Z" fill="white"/>
<path d="M5.52188 30.7108C5.52188 30.8213 5.50089 30.927 5.45891 31.0277C5.41693 31.1301 5.35719 31.2195 5.2813 31.2975C5.2038 31.3738 5.115 31.434 5.01328 31.4762C4.91318 31.5185 4.80823 31.5396 4.69844 31.5396C4.58865 31.5396 4.4837 31.5185 4.38359 31.4762C4.28187 31.434 4.19307 31.3738 4.11557 31.2975C4.03969 31.2195 3.97995 31.1301 3.93797 31.0277C3.89599 30.927 3.875 30.8213 3.875 30.7108C3.875 30.6003 3.89599 30.4947 3.93797 30.394C3.97995 30.2916 4.03969 30.2022 4.11557 30.1242C4.19307 30.0478 4.28187 29.9877 4.38359 29.9455C4.4837 29.9032 4.58865 29.8821 4.69844 29.8821C4.80823 29.8821 4.91318 29.9032 5.01328 29.9455C5.115 29.9877 5.2038 30.0478 5.2813 30.1242C5.35719 30.2022 5.41693 30.2916 5.45891 30.394C5.50089 30.4947 5.52188 30.6003 5.52188 30.7108Z" fill="white"/>
<path d="M21.6516 8.52964C21.3609 8.09089 20.7313 7.94464 20.2953 8.23714L11.5766 14.0871C11.2859 14.2821 11.1406 14.5746 11.1406 14.9159C11.1406 15.2571 11.2859 15.5496 11.5766 15.7446L20.2953 21.5946C20.7313 21.8871 21.3609 21.7896 21.6516 21.3021C21.9422 20.8634 21.8453 20.2296 21.3609 19.9371L13.8531 14.9159L21.3609 9.89464C21.7969 9.60214 21.9422 8.96839 21.6516 8.52964Z" fill="white"/>
<path d="M30.661 21.302C30.9517 21.7408 31.5813 21.887 32.0173 21.5945L40.736 15.7445C41.0267 15.5495 41.172 15.257 41.172 14.9158C41.172 14.5745 41.0267 14.282 40.736 14.087L32.0173 8.23704C31.5813 7.94454 30.9517 8.04204 30.661 8.52954C30.3704 8.96829 30.4673 9.60204 30.9517 9.89454L38.4595 14.9158L30.9517 19.937C30.5157 20.2295 30.3704 20.8633 30.661 21.302Z" fill="white"/>
<path d="M27.1733 7.35942L23.2983 21.9844C23.153 22.5207 23.4921 23.0569 23.9765 23.1544C24.0733 23.1544 24.1218 23.2032 24.2187 23.2032C24.6546 23.2032 25.0421 22.9107 25.139 22.4719L29.014 7.84692C29.1593 7.31067 28.8202 6.77442 28.3358 6.67692C27.8515 6.53067 27.3187 6.82317 27.1733 7.35942Z" fill="white"/>
<mask id="mask0_61_1527" style="mask-type:luminance" maskUnits="userSpaceOnUse" x="0" y="0" width="53" height="40">
<path d="M0 0.77832H52.7V39.7783H0V0.77832Z" fill="white"/>
</mask>
<g mask="url(#mask0_61_1527)">
<path d="M22.2812 37.8283H19.375C18.8422 37.8283 18.4062 38.2671 18.4062 38.8033C18.4062 39.3396 18.8422 39.7783 19.375 39.7783H32.9375C33.4703 39.7783 33.9062 39.3396 33.9062 38.8033C33.9062 38.2671 33.4703 37.8283 32.9375 37.8283H30.0312V34.9033H49.4062C50.6656 34.9033 51.7313 34.0746 52.1187 32.9533H51.1016C50.6656 32.9533 50.2781 32.9046 49.8906 32.7583C49.7453 32.8558 49.5516 32.9533 49.3578 32.9533H2.90625C2.37344 32.9533 1.9375 32.5146 1.9375 31.9783V29.0533H42.9156L42.7703 28.9071C42.2859 28.4196 41.8984 27.7858 41.7047 27.1033H1.9375V3.70332C1.9375 3.16707 2.37344 2.72832 2.90625 2.72832H49.4062C49.9391 2.72832 50.375 3.16707 50.375 3.70332V8.67582C50.6172 8.62707 50.8594 8.57832 51.15 8.57832H52.3125V3.70332C52.3125 2.09457 51.0047 0.77832 49.4062 0.77832H2.90625C1.30781 0.77832 0 2.09457 0 3.70332V31.9783C0 33.5871 1.30781 34.9033 2.90625 34.9033H22.2812V37.8283ZM24.2188 34.9033H28.0938V37.8283H24.2188V34.9033Z" fill="white"/>
</g>
<mask id="mask1_61_1527" style="mask-type:luminance" maskUnits="userSpaceOnUse" x="41" y="10" width="21" height="22">
<path d="M41.54 10.5024H62V31.3024H41.54V10.5024Z" fill="white"/>
</mask>
<g mask="url(#mask1_61_1527)">
<path d="M60.111 17.6946C60.0141 17.4508 59.9172 17.2558 59.8204 17.0121C60.45 16.0858 60.3532 14.8183 59.5297 13.9896L58.561 13.0146C58.125 12.5758 57.4954 12.3321 56.8657 12.3321C56.3813 12.3321 55.9454 12.4783 55.5579 12.7221C55.3641 12.6246 55.1219 12.5271 54.8797 12.4296C54.6375 11.3083 53.6688 10.5283 52.5547 10.5283H51.1985C50.036 10.5283 49.0672 11.3571 48.8735 12.4296C48.6313 12.5271 48.4375 12.6246 48.1954 12.7221C47.8079 12.4783 47.3719 12.3321 46.8875 12.3321C46.2579 12.3321 45.6282 12.5758 45.1922 13.0146L44.2235 13.9896C43.4 14.8183 43.3032 16.0858 43.9329 17.0121C43.836 17.2071 43.7391 17.4508 43.6422 17.6946C42.5282 17.9383 41.7532 18.9133 41.7532 20.0346V21.3996C41.7532 22.5696 42.5766 23.5446 43.6422 23.7396C43.7391 23.9833 43.836 24.1783 43.9329 24.4221C43.6907 24.8121 43.5454 25.2508 43.5454 25.7383C43.5454 26.3721 43.7875 27.0058 44.2235 27.4446L45.1922 28.4196C45.6282 28.8583 46.2579 29.1021 46.8875 29.1021C47.3719 29.1021 47.8079 28.9558 48.1954 28.7121C48.3891 28.8096 48.6313 28.9071 48.8735 29.0046C49.1157 30.1258 50.0844 30.9058 51.1985 30.9058H52.5547C53.7172 30.9058 54.686 30.0771 54.8797 29.0046C55.1219 28.9071 55.3157 28.8096 55.5579 28.7121C55.9454 28.9558 56.3813 29.1021 56.8657 29.1021C57.4954 29.1021 58.125 28.8583 58.561 28.4196L59.5297 27.4446C59.9657 27.0058 60.2079 26.3721 60.2079 25.7383C60.2079 25.2508 60.0625 24.8121 59.8204 24.4221C59.9172 24.2271 60.0141 23.9833 60.111 23.7396C61.225 23.4958 62 22.5208 62 21.3996V20.0346C62 18.9133 61.1766 17.9383 60.111 17.6946ZM60.0625 21.4483C60.0625 21.6921 59.8688 21.8871 59.6266 21.8871H58.6094C58.4157 22.9596 58.0282 23.8858 57.4469 24.7146L58.1735 25.4458C58.3672 25.6408 58.3672 25.9333 58.1735 26.0796L57.2047 27.0546C57.1079 27.1521 57.011 27.2008 56.8657 27.2008C56.7204 27.2008 56.6235 27.1521 56.5266 27.0546L55.8 26.3233C54.9766 26.9083 54.0079 27.3471 52.9907 27.4933V28.5171C52.9907 28.7608 52.7969 28.9558 52.5547 28.9558H51.1985C50.9563 28.9558 50.7625 28.7608 50.7625 28.5171V27.5908C49.6969 27.3958 48.7766 27.0058 47.9532 26.4208L47.1297 27.1033C47.0329 27.2008 46.936 27.2496 46.7907 27.2496C46.6454 27.2496 46.5969 27.2008 46.5 27.1033L45.5313 26.1283C45.3375 25.9333 45.3375 25.6408 45.5313 25.4946L46.2579 24.7633C45.6766 23.9346 45.2407 22.9596 45.0954 21.9358H44.0782C43.836 21.9358 43.6422 21.7408 43.6422 21.4971V20.1321C43.6422 19.8883 43.836 19.6933 44.0782 19.6933H45.0469C45.2407 18.6208 45.6282 17.6946 46.2094 16.8658L45.5313 16.0371C45.3375 15.8421 45.3375 15.5496 45.5313 15.4033L46.5 14.4283C46.5969 14.3308 46.6938 14.2821 46.8391 14.2821C46.9844 14.2821 47.0813 14.3308 47.1782 14.4283L47.9047 15.1596C48.7282 14.5746 49.6969 14.1358 50.7141 13.9896V12.9658C50.7141 12.7221 50.9079 12.5271 51.15 12.5271H52.5063C52.7485 12.5271 52.9422 12.7221 52.9422 12.9658V13.9408C54.0079 14.1358 54.9282 14.5258 55.7516 15.1108L56.4782 14.3796C56.575 14.2821 56.6719 14.2333 56.8172 14.2333C56.9625 14.2333 57.0594 14.2821 57.1563 14.3796L58.125 15.3546C58.3188 15.5496 58.3188 15.8421 58.125 15.9883L57.3985 16.7196C57.9797 17.5483 58.4157 18.5233 58.561 19.5471H59.5782C59.8204 19.5471 60.0141 19.7421 60.0141 19.9858V21.4483H60.0625Z" fill="white"/>
</g>
<path d="M51.8281 16.8657C49.6969 16.8657 47.9531 18.6207 47.9531 20.7657C47.9531 22.9107 49.6969 24.6657 51.8281 24.6657C53.9594 24.6657 55.7031 22.9107 55.7031 20.7657C55.7031 18.6207 53.9594 16.8657 51.8281 16.8657ZM51.8281 22.7157C50.7625 22.7157 49.8906 21.8382 49.8906 20.7657C49.8906 19.6932 50.7625 18.8157 51.8281 18.8157C52.8937 18.8157 53.7656 19.6932 53.7656 20.7657C53.7656 21.8382 52.8937 22.7157 51.8281 22.7157Z" fill="white"/>
</g>
<defs>
<clipPath id="clip0_61_1527">
<rect width="62" height="39" fill="white" transform="translate(0 0.934326)"/>
</clipPath>
</defs>
</svg>
