<svg width="300" height="300" viewBox="0 0 300 300" fill="none" xmlns="http://www.w3.org/2000/svg">
<g clip-path="url(#clip0_82_2369)">
<rect width="300" height="300" rx="8" fill="url(#paint0_angular_82_2369)"/>
<path d="M237.306 181.347C228.031 195.928 211.759 196.316 197.118 191.413C195.487 190.853 193.9 190.25 192.312 189.606C177.243 182.981 162.687 192.919 149.681 199.584C148.134 200.488 146.503 201.391 144.871 202.253C133.321 208.275 119.8 211.328 110.781 200.403C105.287 193.734 106.618 184.875 106.575 176.872C106.531 167.969 103.396 160.225 98.6308 152.828C92.3214 143.019 83.8214 133.688 81.6308 121.856C78.4527 104.866 84.7652 86.7125 102.581 81.55C113.875 78.2813 125.381 82.3688 136.584 84.0469C145.731 85.4219 155.046 83.5313 163.546 80.3032C165.093 79.7032 166.637 79.1 168.228 78.4532C178.531 74.1969 188.79 69.2063 199.653 67.4844C209.356 65.9813 218.2 68.5188 221.893 78.4532C225.156 87.1438 222.837 96.8657 224.296 105.856C225.112 110.803 227 115.319 229.234 119.706C233.096 127.319 238.034 134.503 240.268 142.806C240.912 145.172 241.468 147.622 241.9 150.119C243.703 160.744 243.1 172.184 237.306 181.347Z" fill="#E8EBF7"/>
<path d="M239.409 118.244C239.409 118.534 239.353 118.816 239.241 119.084C239.131 119.353 238.972 119.588 238.769 119.794C238.562 120 238.325 120.159 238.056 120.269C237.788 120.381 237.509 120.438 237.219 120.438C236.928 120.438 236.65 120.381 236.381 120.269C236.113 120.159 235.875 120 235.672 119.794C235.466 119.588 235.306 119.353 235.197 119.084C235.084 118.816 235.031 118.534 235.031 118.244C235.031 117.953 235.084 117.672 235.197 117.403C235.306 117.134 235.466 116.897 235.672 116.694C235.875 116.488 236.113 116.328 236.381 116.216C236.65 116.106 236.928 116.05 237.219 116.05C237.509 116.05 237.788 116.106 238.056 116.216C238.325 116.328 238.562 116.488 238.769 116.694C238.972 116.897 239.131 117.134 239.241 117.403C239.353 117.672 239.409 117.953 239.409 118.244Z" fill="#E8EBF7"/>
<path d="M119.584 70.9281C119.584 71.2188 119.528 71.4969 119.419 71.7656C119.306 72.0344 119.147 72.2719 118.944 72.4781C118.737 72.6844 118.5 72.8406 118.231 72.9531C117.962 73.0656 117.684 73.1219 117.394 73.1219C117.103 73.1219 116.825 73.0656 116.556 72.9531C116.287 72.8406 116.05 72.6844 115.847 72.4781C115.64 72.2719 115.481 72.0344 115.372 71.7656C115.259 71.4969 115.206 71.2188 115.206 70.9281C115.206 70.6344 115.259 70.3562 115.372 70.0875C115.481 69.8188 115.64 69.5812 115.847 69.375C116.05 69.1688 116.287 69.0125 116.556 68.9C116.825 68.7875 117.103 68.7344 117.394 68.7344C117.684 68.7344 117.962 68.7875 118.231 68.9C118.5 69.0125 118.737 69.1688 118.944 69.375C119.147 69.5812 119.306 69.8188 119.419 70.0875C119.528 70.3562 119.584 70.6344 119.584 70.9281Z" fill="#E8EBF7"/>
<path d="M75.6623 140.009C75.6623 140.3 75.6092 140.581 75.4967 140.85C75.3873 141.119 75.2279 141.356 75.0217 141.559C74.8186 141.766 74.5811 141.925 74.3123 142.038C74.0436 142.147 73.7654 142.203 73.4748 142.203C73.1842 142.203 72.9029 142.147 72.6373 142.038C72.3686 141.925 72.1311 141.766 71.9248 141.559C71.7217 141.356 71.5623 141.119 71.4498 140.85C71.3404 140.581 71.2842 140.3 71.2842 140.009C71.2842 139.719 71.3404 139.438 71.4498 139.169C71.5623 138.9 71.7217 138.663 71.9248 138.459C72.1311 138.253 72.3686 138.094 72.6373 137.981C72.9029 137.872 73.1842 137.816 73.4748 137.816C73.7654 137.816 74.0436 137.872 74.3123 137.981C74.5811 138.094 74.8186 138.253 75.0217 138.459C75.2279 138.663 75.3873 138.9 75.4967 139.169C75.6092 139.438 75.6623 139.719 75.6623 140.009Z" fill="#E8EBF7"/>
<path d="M118.381 87.4438C118.381 87.575 118.356 87.7032 118.306 87.8219C118.256 87.9438 118.184 88.05 118.094 88.1438C118 88.2375 117.894 88.3094 117.772 88.3594C117.65 88.4094 117.525 88.4344 117.394 88.4344C117.262 88.4344 117.138 88.4094 117.016 88.3594C116.897 88.3094 116.787 88.2375 116.697 88.1438C116.603 88.05 116.531 87.9438 116.481 87.8219C116.431 87.7032 116.406 87.575 116.406 87.4438C116.406 87.3125 116.431 87.1875 116.481 87.0657C116.531 86.9438 116.603 86.8375 116.697 86.7438C116.787 86.6532 116.897 86.5813 117.016 86.5313C117.138 86.4813 117.262 86.4563 117.394 86.4563C117.525 86.4563 117.65 86.4813 117.772 86.5313C117.894 86.5813 118 86.6532 118.094 86.7438C118.184 86.8375 118.256 86.9438 118.306 87.0657C118.356 87.1875 118.381 87.3125 118.381 87.4438Z" fill="white"/>
<path d="M238.206 151.15C238.206 151.281 238.181 151.406 238.131 151.528C238.081 151.65 238.01 151.756 237.919 151.85C237.825 151.944 237.719 152.013 237.597 152.066C237.475 152.116 237.35 152.141 237.219 152.141C237.088 152.141 236.963 152.116 236.841 152.066C236.722 152.013 236.613 151.944 236.522 151.85C236.428 151.756 236.356 151.65 236.306 151.528C236.256 151.406 236.231 151.281 236.231 151.15C236.231 151.019 236.256 150.894 236.306 150.772C236.356 150.65 236.428 150.544 236.522 150.45C236.613 150.356 236.722 150.288 236.841 150.238C236.963 150.184 237.088 150.159 237.219 150.159C237.35 150.159 237.475 150.184 237.597 150.238C237.719 150.288 237.825 150.356 237.919 150.45C238.01 150.544 238.081 150.65 238.131 150.772C238.181 150.894 238.206 151.019 238.206 151.15Z" fill="white"/>
<path d="M87.9438 123.103C87.9438 123.234 87.9188 123.362 87.8688 123.484C87.8188 123.603 87.7469 123.712 87.6531 123.803C87.5594 123.897 87.4531 123.969 87.3344 124.019C87.2125 124.069 87.0875 124.094 86.9563 124.094C86.825 124.094 86.6969 124.069 86.5781 124.019C86.4562 123.969 86.35 123.897 86.2563 123.803C86.1656 123.712 86.0938 123.603 86.0438 123.484C85.9938 123.362 85.9688 123.234 85.9688 123.103C85.9688 122.972 85.9938 122.847 86.0438 122.725C86.0938 122.603 86.1656 122.497 86.2563 122.403C86.35 122.312 86.4562 122.241 86.5781 122.191C86.6969 122.141 86.825 122.116 86.9563 122.116C87.0875 122.116 87.2125 122.141 87.3344 122.191C87.4531 122.241 87.5594 122.312 87.6531 122.403C87.7469 122.497 87.8188 122.603 87.8688 122.725C87.9188 122.847 87.9438 122.972 87.9438 123.103Z" fill="white"/>
<path d="M230.479 98.6719V174.894C230.479 178.206 228.247 180.916 225.541 180.916H98.1191C95.4129 180.916 93.1816 178.25 93.1816 174.894V98.6719C93.1816 95.3594 95.4129 92.6937 98.1191 92.6937H225.541C228.247 92.6937 230.479 95.3594 230.479 98.6719Z" fill="white"/>
<path d="M225.541 181.088H98.1189C95.2846 181.088 92.9658 178.294 92.9658 174.894V98.6719C92.9658 95.2719 95.2846 92.4781 98.1189 92.4781H225.541C228.375 92.4781 230.694 95.2313 230.694 98.6719V174.894C230.694 178.294 228.375 181.088 225.541 181.088ZM98.1189 92.9063C95.5002 92.9063 93.3533 95.4875 93.3533 98.6719V174.894C93.3533 178.078 95.5002 180.703 98.1189 180.703H225.541C228.16 180.703 230.306 178.078 230.306 174.894V98.6719C230.306 95.4875 228.16 92.9063 225.541 92.9063H98.1189Z" fill="#1A004D"/>
<path d="M230.522 98.6719V109.597H93.1816V98.6719C93.1816 95.3594 95.4129 92.6937 98.1598 92.6937H225.585C228.291 92.6937 230.522 95.3594 230.522 98.6719Z" fill="#536EC1"/>
<path d="M230.738 109.813H93.0098V98.6719C93.0098 95.2719 95.3285 92.4781 98.1598 92.4781H225.585C228.419 92.4781 230.738 95.2719 230.738 98.6719V109.813ZM93.3941 109.381H230.35V98.6719C230.35 95.4875 228.204 92.8656 225.585 92.8656H98.1598C95.541 92.8656 93.3941 95.4469 93.3941 98.6719V109.381Z" fill="#1A004D"/>
<path d="M208.325 101.425C208.325 101.6 208.29 101.772 208.225 101.934C208.156 102.097 208.059 102.244 207.934 102.369C207.812 102.494 207.665 102.587 207.503 102.656C207.34 102.725 207.171 102.759 206.993 102.759C206.818 102.759 206.65 102.725 206.484 102.656C206.321 102.587 206.178 102.494 206.053 102.369C205.928 102.244 205.831 102.097 205.765 101.934C205.696 101.772 205.662 101.6 205.662 101.425C205.662 101.247 205.696 101.078 205.765 100.916C205.831 100.75 205.928 100.606 206.053 100.481C206.178 100.356 206.321 100.259 206.484 100.194C206.65 100.125 206.818 100.091 206.993 100.091C207.171 100.091 207.34 100.125 207.503 100.194C207.665 100.259 207.812 100.356 207.934 100.481C208.059 100.606 208.156 100.75 208.225 100.916C208.29 101.078 208.325 101.247 208.325 101.425Z" fill="white"/>
<path d="M214.079 101.425C214.079 101.6 214.044 101.772 213.979 101.934C213.91 102.097 213.813 102.244 213.688 102.369C213.563 102.494 213.419 102.587 213.257 102.656C213.094 102.725 212.925 102.759 212.747 102.759C212.572 102.759 212.4 102.725 212.238 102.656C212.075 102.587 211.932 102.494 211.807 102.369C211.682 102.244 211.585 102.097 211.519 101.934C211.45 101.772 211.416 101.6 211.416 101.425C211.416 101.247 211.45 101.078 211.519 100.916C211.585 100.75 211.682 100.606 211.807 100.481C211.932 100.356 212.075 100.259 212.238 100.194C212.4 100.125 212.572 100.091 212.747 100.091C212.925 100.091 213.094 100.125 213.257 100.194C213.419 100.259 213.563 100.356 213.688 100.481C213.813 100.606 213.91 100.75 213.979 100.916C214.044 101.078 214.079 101.247 214.079 101.425Z" fill="white"/>
<path d="M219.831 101.425C219.831 101.6 219.797 101.772 219.731 101.934C219.663 102.097 219.566 102.244 219.441 102.369C219.316 102.494 219.172 102.587 219.01 102.656C218.847 102.725 218.678 102.759 218.5 102.759C218.325 102.759 218.153 102.725 217.991 102.656C217.828 102.587 217.685 102.494 217.56 102.369C217.435 102.244 217.338 102.097 217.272 101.934C217.203 101.772 217.169 101.6 217.169 101.425C217.169 101.247 217.203 101.078 217.272 100.916C217.338 100.75 217.435 100.606 217.56 100.481C217.685 100.356 217.828 100.259 217.991 100.194C218.153 100.125 218.325 100.091 218.5 100.091C218.678 100.091 218.847 100.125 219.01 100.194C219.172 100.259 219.316 100.356 219.441 100.481C219.566 100.606 219.663 100.75 219.731 100.916C219.797 101.078 219.831 101.247 219.831 101.425Z" fill="white"/>
<path d="M161.66 176.356H103.097C102.497 176.356 102.025 175.884 102.025 175.281V152.009C102.025 151.409 102.497 150.934 103.097 150.934H161.66C162.26 150.934 162.732 151.409 162.732 152.009V175.281C162.732 175.884 162.26 176.356 161.66 176.356Z" fill="white"/>
<path d="M107.862 154.247H157.022V155.797H107.862V154.247Z" fill="#E8F0FE"/>
<path d="M107.862 159.537H157.022V161.044H107.862V159.537Z" fill="#E8EBF7"/>
<path d="M107.862 164.828H157.022V166.334H107.862V164.828Z" fill="#E8F0FE"/>
<path d="M107.862 170.119H157.022V171.625H107.862V170.119Z" fill="#E8EBF7"/>
<path d="M121.775 133.169H125.938V142.891H121.775V133.169Z" fill="#EEBA38"/>
<path d="M129.672 125.428H133.838V142.891H129.672V125.428Z" fill="#31344C"/>
<path d="M137.531 123.447H141.694V142.891H137.531V123.447Z" fill="#EEBA38"/>
<path d="M145.388 130.331H149.55V142.891H145.388V130.331Z" fill="#31344C"/>
<path d="M174.142 139.088H175.042L175.517 141.588C175.858 142.022 176.445 142.407 177.28 142.738C178.111 143.072 178.933 143.238 179.742 143.238C181.023 143.238 182.023 142.91 182.742 142.25C183.467 141.594 183.83 140.685 183.83 139.525C183.83 138.86 183.686 138.31 183.405 137.875C183.13 137.444 182.761 137.075 182.305 136.775C181.855 136.475 181.336 136.225 180.755 136.025C180.18 135.819 179.583 135.61 178.967 135.4C178.358 135.185 177.761 134.947 177.18 134.688C176.605 134.432 176.086 134.107 175.63 133.713C175.18 133.313 174.811 132.822 174.53 132.238C174.255 131.657 174.117 130.935 174.117 130.075C174.117 128.6 174.667 127.447 175.767 126.613C176.867 125.772 178.395 125.35 180.355 125.35C181.845 125.35 183.461 125.55 185.205 125.95V129.8H184.305L183.83 127.538C182.895 126.857 181.736 126.513 180.355 126.513C179.13 126.513 178.167 126.763 177.467 127.263C176.773 127.763 176.43 128.46 176.43 129.35C176.43 129.944 176.567 130.438 176.842 130.838C177.123 131.232 177.492 131.569 177.942 131.85C178.398 132.135 178.92 132.375 179.505 132.575C180.086 132.775 180.683 132.985 181.292 133.2C181.908 133.419 182.508 133.663 183.092 133.938C183.673 134.207 184.192 134.55 184.642 134.975C185.098 135.394 185.467 135.907 185.742 136.513C186.023 137.113 186.167 137.857 186.167 138.738C186.167 140.522 185.62 141.907 184.53 142.888C183.436 143.863 181.861 144.35 179.805 144.35C178.811 144.35 177.817 144.263 176.817 144.088C175.817 143.913 174.923 143.675 174.142 143.375V139.088Z" fill="#2E344D"/>
<path d="M188.735 143.338L191.11 142.975V126.65L188.735 126.288V125.563H202.598V129.988H201.685L201.248 127C200.213 126.869 198.726 126.8 196.785 126.8H193.76V134.038H198.748L199.173 131.825H200.06V137.513H199.173L198.748 135.275H193.76V142.838H197.398C199.773 142.838 201.326 142.763 202.06 142.613L202.848 139.188H203.748L203.485 144.075H188.735V143.338Z" fill="#2E344D"/>
<path d="M209.196 134.8C209.196 137.775 209.69 139.932 210.684 141.263C211.674 142.597 213.224 143.263 215.334 143.263C217.44 143.263 218.996 142.597 219.996 141.263C220.996 139.932 221.496 137.775 221.496 134.8C221.496 131.844 220.996 129.713 219.996 128.413C219.003 127.113 217.449 126.463 215.334 126.463C213.215 126.463 211.662 127.113 210.671 128.413C209.687 129.713 209.196 131.844 209.196 134.8ZM206.321 134.8C206.321 128.5 209.324 125.35 215.334 125.35C218.309 125.35 220.559 126.15 222.084 127.75C223.609 129.35 224.371 131.7 224.371 134.8C224.371 137.95 223.599 140.332 222.059 141.938C220.515 143.547 218.274 144.35 215.334 144.35C212.409 144.35 210.174 143.55 208.634 141.95C207.09 140.344 206.321 137.96 206.321 134.8Z" fill="#2E344D"/>
<mask id="mask0_82_2369" style="mask-type:luminance" maskUnits="userSpaceOnUse" x="52" y="206" width="108" height="23">
<path d="M52.3936 206.8H160V228.4H52.3936V206.8Z" fill="white"/>
</mask>
<g mask="url(#mask0_82_2369)">
<path d="M159.381 217.522C159.381 217.853 159.297 218.184 159.125 218.513C158.953 218.844 158.697 219.169 158.353 219.494C158.012 219.819 157.587 220.141 157.078 220.456C156.572 220.775 155.981 221.084 155.309 221.391C154.64 221.697 153.89 221.997 153.065 222.288C152.24 222.581 151.34 222.863 150.365 223.138C149.394 223.413 148.35 223.678 147.24 223.934C146.128 224.191 144.953 224.438 143.715 224.672C142.475 224.903 141.178 225.128 139.825 225.338C138.472 225.547 137.065 225.744 135.609 225.928C134.15 226.113 132.65 226.281 131.106 226.438C129.559 226.594 127.978 226.734 126.359 226.863C124.74 226.988 123.094 227.1 121.415 227.197C119.74 227.291 118.044 227.372 116.325 227.438C114.606 227.503 112.875 227.55 111.131 227.581C109.387 227.616 107.64 227.631 105.887 227.631C104.137 227.631 102.387 227.616 100.644 227.581C98.8998 227.55 97.1717 227.503 95.4529 227.438C93.7342 227.372 92.0373 227.291 90.3592 227.197C88.6842 227.1 87.0342 226.988 85.4154 226.863C83.7998 226.734 82.2154 226.594 80.6717 226.438C79.1248 226.281 77.6248 226.113 76.1686 225.928C74.7123 225.744 73.3061 225.547 71.9529 225.338C70.5967 225.128 69.2998 224.903 68.0623 224.672C66.8248 224.438 65.6467 224.191 64.5373 223.934C63.4248 223.678 62.3842 223.413 61.4092 223.138C60.4373 222.863 59.5373 222.581 58.7092 222.288C57.8842 221.997 57.1373 221.697 56.4654 221.391C55.7967 221.084 55.2061 220.775 54.6967 220.456C54.1904 220.141 53.7623 219.819 53.4217 219.494C53.0811 219.169 52.8248 218.844 52.6529 218.513C52.4811 218.184 52.3936 217.853 52.3936 217.522C52.3936 217.191 52.4811 216.863 52.6529 216.531C52.8248 216.203 53.0811 215.875 53.4217 215.55C53.7623 215.225 54.1904 214.906 54.6967 214.588C55.2061 214.272 55.7967 213.959 56.4654 213.653C57.1373 213.347 57.8842 213.05 58.7092 212.756C59.5373 212.466 60.4373 212.181 61.4092 211.906C62.3842 211.631 63.4248 211.366 64.5373 211.109C65.6467 210.853 66.8248 210.609 68.0623 210.375C69.2998 210.141 70.5967 209.919 71.9529 209.709C73.3061 209.5 74.7123 209.303 76.1686 209.119C77.6248 208.934 79.1248 208.763 80.6717 208.606C82.2154 208.453 83.7998 208.309 85.4154 208.184C87.0342 208.056 88.6842 207.947 90.3592 207.85C92.0373 207.753 93.7342 207.672 95.4529 207.609C97.1717 207.544 98.8998 207.494 100.644 207.463C102.387 207.431 104.137 207.416 105.887 207.416C107.64 207.416 109.387 207.431 111.131 207.463C112.875 207.494 114.606 207.544 116.325 207.609C118.044 207.672 119.74 207.753 121.415 207.85C123.094 207.947 124.74 208.056 126.359 208.184C127.978 208.309 129.559 208.453 131.106 208.606C132.65 208.763 134.15 208.934 135.609 209.119C137.065 209.303 138.472 209.5 139.825 209.709C141.178 209.919 142.475 210.141 143.715 210.375C144.953 210.609 146.128 210.853 147.24 211.109C148.35 211.366 149.394 211.631 150.365 211.906C151.34 212.181 152.24 212.466 153.065 212.756C153.89 213.05 154.64 213.347 155.309 213.653C155.981 213.959 156.572 214.272 157.078 214.588C157.587 214.906 158.012 215.225 158.353 215.55C158.697 215.875 158.953 216.203 159.125 216.531C159.297 216.863 159.381 217.191 159.381 217.522Z" fill="#E8EBF7"/>
</g>
<path d="M124.866 158.55C124.866 158.55 128.513 174.119 128.816 175.541C129.372 178.078 131.475 183.884 131.475 183.884C131.475 183.884 122.675 188.831 120.185 187.284C118.297 186.122 118.425 179.541 118.254 177.088C118.082 174.766 111.557 152.353 111.557 152.353L124.866 158.55Z" fill="#EFC0C1"/>
<path d="M111.041 141.472C111.041 141.472 119.457 137.6 123.147 148.828C126.197 157.991 128.172 168.269 128.172 168.269L113.744 172.572L111.041 141.472Z" fill="#DF5849"/>
<path d="M117.737 148.484C117.737 148.397 109.665 154.334 105.543 152.097C100.909 149.603 100.521 139.15 100.521 139.15L103.096 129.213L103.14 129.041L103.268 128.438L104.171 128.953L107.778 131.063L109.237 131.922L112.928 134.072C112.928 134.072 112.543 136.697 112.628 138.891C112.628 139.106 112.671 139.363 112.671 139.538C112.715 139.922 112.843 140.269 112.971 140.569C113.271 141.3 113.743 141.816 113.743 141.859C114.346 144.138 117.693 148.441 117.737 148.484Z" fill="#EFC0C1"/>
<path d="M112.972 140.613C104.084 141.256 103.056 130.588 103.097 129.213L103.141 129.041L103.269 128.438L104.172 128.953C105.116 129.856 106.491 130.975 107.778 131.063L109.237 131.922L112.928 134.072C112.928 134.072 112.544 136.697 112.628 138.891C112.628 139.106 112.672 139.363 112.672 139.538C112.716 139.922 112.844 140.269 112.972 140.613Z" fill="#E0ADB0"/>
<path d="M118.813 128.869C117.35 133.9 114.991 138.934 110.097 137.859C106.663 137.128 103.613 132.137 103.141 127.662C102.885 125.384 102.625 123.362 102.754 121.856C102.841 120.653 102.925 119.922 102.925 119.922L103.913 117.384L104.516 115.922C104.516 115.922 105.675 115.103 106.963 114.156C108.594 112.953 110.869 114.975 110.913 114.887C110.997 114.759 117.997 114.2 120.013 117.081C120.185 117.341 120.357 117.597 120.4 117.9C120.485 118.116 120.485 118.328 120.485 118.587C120.444 119.019 120.4 119.662 120.313 120.481C120.272 120.825 120.229 121.169 120.185 121.6C120.1 122.244 120.013 122.975 119.885 123.75C119.713 125.341 119.325 127.103 118.813 128.869Z" fill="#EFC0C1"/>
<path d="M102.497 121.812C102.497 121.812 100.265 109.769 109.881 110.587C109.881 110.587 117.437 107.747 121.944 111.878C125.981 115.575 123.747 120.05 120.484 120.825C118.337 121.341 109.065 117.772 107.519 118.544C105.975 119.319 103.14 128.266 103.14 128.266C103.14 128.266 103.228 124.178 102.497 121.812Z" fill="#2E344D"/>
<path d="M112.575 107.212C112.828 107.247 113.072 107.306 113.312 107.391C113.553 107.475 113.781 107.581 114 107.712C114.219 107.847 114.425 108 114.612 108.172C114.803 108.347 114.975 108.537 115.128 108.75C115.281 108.959 115.412 109.181 115.522 109.419C115.634 109.656 115.722 109.903 115.784 110.159C115.847 110.416 115.887 110.678 115.903 110.941C115.915 111.206 115.906 111.469 115.872 111.734C115.837 111.997 115.778 112.253 115.694 112.506C115.609 112.756 115.503 112.997 115.375 113.228C115.247 113.459 115.097 113.672 114.928 113.872C114.759 114.072 114.575 114.253 114.372 114.416C114.169 114.578 113.953 114.719 113.725 114.837C113.497 114.956 113.259 115.05 113.012 115.119C112.769 115.187 112.519 115.231 112.265 115.25C112.009 115.269 111.759 115.262 111.506 115.228C111.256 115.194 111.009 115.134 110.769 115.05C110.531 114.966 110.3 114.859 110.081 114.725C109.862 114.594 109.659 114.441 109.469 114.269C109.278 114.094 109.109 113.9 108.956 113.691C108.803 113.481 108.672 113.256 108.559 113.019C108.45 112.781 108.362 112.534 108.3 112.281C108.234 112.025 108.197 111.762 108.181 111.5C108.165 111.234 108.175 110.969 108.212 110.706C108.247 110.444 108.306 110.187 108.39 109.934C108.472 109.684 108.578 109.444 108.706 109.212C108.837 108.981 108.984 108.766 109.153 108.566C109.322 108.366 109.509 108.184 109.712 108.025C109.912 107.862 110.128 107.722 110.359 107.603C110.587 107.484 110.825 107.391 111.069 107.322C111.315 107.25 111.565 107.206 111.819 107.191C112.072 107.172 112.325 107.178 112.575 107.212Z" fill="#2E344D"/>
<path d="M118.441 107.903C118.769 107.947 119.088 108.022 119.4 108.134C119.713 108.244 120.01 108.384 120.294 108.553C120.579 108.725 120.844 108.925 121.091 109.15C121.338 109.375 121.56 109.625 121.76 109.897C121.96 110.172 122.129 110.459 122.272 110.769C122.416 111.078 122.532 111.397 122.613 111.731C122.697 112.062 122.747 112.4 122.766 112.744C122.785 113.087 122.772 113.431 122.729 113.772C122.682 114.112 122.604 114.447 122.497 114.772C122.388 115.1 122.25 115.412 122.082 115.712C121.916 116.009 121.722 116.291 121.504 116.55C121.282 116.809 121.041 117.044 120.779 117.253C120.516 117.466 120.235 117.647 119.938 117.8C119.641 117.953 119.332 118.075 119.013 118.166C118.694 118.256 118.369 118.312 118.038 118.337C117.71 118.359 117.382 118.35 117.054 118.306C116.729 118.262 116.407 118.184 116.097 118.075C115.785 117.966 115.488 117.825 115.2 117.656C114.916 117.484 114.65 117.284 114.407 117.059C114.16 116.834 113.935 116.584 113.738 116.312C113.538 116.037 113.366 115.747 113.222 115.441C113.079 115.131 112.966 114.812 112.882 114.478C112.8 114.147 112.75 113.809 112.729 113.466C112.71 113.122 112.725 112.778 112.769 112.437C112.816 112.097 112.891 111.762 113 111.434C113.11 111.109 113.247 110.797 113.413 110.497C113.582 110.2 113.775 109.919 113.994 109.659C114.213 109.4 114.457 109.166 114.719 108.956C114.982 108.744 115.263 108.562 115.56 108.409C115.857 108.256 116.166 108.134 116.485 108.044C116.804 107.953 117.129 107.897 117.457 107.872C117.788 107.85 118.116 107.859 118.441 107.903Z" fill="#2E344D"/>
<path d="M123.306 112.575C123.556 112.609 123.803 112.669 124.044 112.753C124.285 112.837 124.513 112.944 124.731 113.075C124.95 113.206 125.153 113.359 125.344 113.534C125.535 113.709 125.706 113.9 125.856 114.112C126.01 114.322 126.144 114.544 126.253 114.781C126.363 115.019 126.45 115.266 126.516 115.522C126.578 115.778 126.619 116.037 126.631 116.303C126.647 116.569 126.638 116.831 126.6 117.094C126.566 117.359 126.506 117.616 126.422 117.869C126.341 118.119 126.235 118.359 126.106 118.591C125.975 118.819 125.828 119.034 125.66 119.234C125.491 119.434 125.303 119.616 125.1 119.778C124.9 119.941 124.685 120.081 124.453 120.2C124.225 120.319 123.988 120.412 123.744 120.481C123.497 120.55 123.247 120.594 122.994 120.612C122.741 120.631 122.488 120.625 122.238 120.591C121.985 120.556 121.741 120.497 121.5 120.412C121.26 120.328 121.031 120.222 120.813 120.087C120.594 119.956 120.388 119.803 120.2 119.628C120.01 119.456 119.838 119.262 119.685 119.053C119.531 118.844 119.4 118.619 119.291 118.381C119.178 118.144 119.094 117.897 119.028 117.641C118.966 117.387 118.925 117.125 118.91 116.862C118.897 116.597 118.906 116.331 118.941 116.069C118.978 115.806 119.038 115.55 119.119 115.297C119.203 115.047 119.31 114.806 119.438 114.575C119.566 114.344 119.716 114.128 119.885 113.928C120.053 113.728 120.238 113.547 120.441 113.384C120.644 113.222 120.86 113.084 121.088 112.966C121.316 112.847 121.553 112.753 121.8 112.684C122.047 112.612 122.294 112.569 122.55 112.55C122.803 112.534 123.056 112.541 123.306 112.575Z" fill="#2E344D"/>
<path d="M109.934 114.803C110.3 114.853 110.643 114.975 110.962 115.166C111.281 115.359 111.553 115.609 111.778 115.916C112 116.222 112.156 116.562 112.25 116.937C112.343 117.309 112.365 117.691 112.312 118.075C112.262 118.459 112.143 118.819 111.953 119.156C111.765 119.491 111.525 119.778 111.228 120.016C110.934 120.253 110.606 120.422 110.247 120.525C109.89 120.625 109.528 120.653 109.159 120.603C108.793 120.553 108.45 120.434 108.131 120.241C107.812 120.047 107.54 119.8 107.318 119.491C107.093 119.184 106.937 118.844 106.843 118.472C106.75 118.097 106.731 117.719 106.781 117.334C106.831 116.95 106.953 116.587 107.14 116.253C107.328 115.916 107.568 115.628 107.865 115.391C108.159 115.156 108.487 114.984 108.847 114.884C109.203 114.781 109.568 114.756 109.934 114.803Z" fill="#2E344D"/>
<path d="M106.288 109.681C106.656 109.728 106.997 109.85 107.316 110.044C107.638 110.234 107.906 110.484 108.131 110.791C108.353 111.097 108.513 111.438 108.603 111.813C108.697 112.188 108.719 112.566 108.666 112.95C108.616 113.334 108.497 113.694 108.309 114.031C108.122 114.369 107.878 114.653 107.584 114.891C107.288 115.128 106.959 115.297 106.603 115.4C106.244 115.5 105.881 115.528 105.516 115.478C105.147 115.428 104.803 115.309 104.484 115.116C104.166 114.925 103.894 114.675 103.672 114.369C103.45 114.059 103.291 113.722 103.197 113.347C103.103 112.972 103.084 112.594 103.134 112.209C103.188 111.825 103.306 111.463 103.494 111.128C103.681 110.791 103.922 110.503 104.219 110.266C104.516 110.031 104.841 109.859 105.2 109.759C105.559 109.656 105.922 109.631 106.288 109.681Z" fill="#2E344D"/>
<path d="M104.672 113.153C105.04 113.2 105.384 113.322 105.703 113.516C106.022 113.706 106.293 113.956 106.515 114.262C106.737 114.569 106.897 114.909 106.99 115.284C107.084 115.656 107.103 116.037 107.053 116.422C107 116.806 106.881 117.166 106.693 117.503C106.506 117.841 106.265 118.125 105.968 118.362C105.672 118.6 105.347 118.769 104.987 118.872C104.628 118.972 104.265 119 103.9 118.95C103.534 118.9 103.19 118.781 102.872 118.587C102.55 118.394 102.281 118.147 102.056 117.837C101.834 117.531 101.675 117.191 101.584 116.819C101.49 116.444 101.468 116.066 101.522 115.681C101.572 115.297 101.69 114.934 101.878 114.6C102.065 114.262 102.309 113.975 102.603 113.737C102.9 113.503 103.228 113.331 103.584 113.231C103.943 113.128 104.306 113.103 104.672 113.153Z" fill="#2E344D"/>
<path d="M104.428 116.859C104.738 116.903 105.028 117.006 105.297 117.169C105.569 117.334 105.797 117.547 105.985 117.806C106.175 118.069 106.307 118.359 106.388 118.678C106.466 118.997 106.482 119.319 106.438 119.647C106.394 119.975 106.294 120.281 106.135 120.569C105.975 120.856 105.769 121.103 105.519 121.303C105.269 121.506 104.991 121.65 104.688 121.738C104.385 121.825 104.078 121.847 103.769 121.806C103.457 121.766 103.166 121.663 102.897 121.5C102.628 121.334 102.397 121.122 102.21 120.859C102.022 120.6 101.888 120.309 101.81 119.991C101.732 119.672 101.713 119.347 101.757 119.022C101.8 118.694 101.903 118.384 102.063 118.097C102.222 117.809 102.425 117.566 102.675 117.363C102.925 117.163 103.203 117.016 103.507 116.928C103.81 116.841 104.116 116.819 104.428 116.859Z" fill="#2E344D"/>
<path d="M115.225 116.613C115.591 116.663 115.935 116.781 116.254 116.975C116.572 117.166 116.844 117.416 117.066 117.722C117.291 118.028 117.447 118.369 117.541 118.744C117.635 119.119 117.657 119.497 117.604 119.881C117.554 120.266 117.432 120.625 117.244 120.963C117.057 121.3 116.816 121.588 116.519 121.822C116.225 122.059 115.897 122.228 115.538 122.331C115.182 122.434 114.819 122.459 114.45 122.409C114.085 122.363 113.741 122.241 113.422 122.047C113.104 121.856 112.832 121.606 112.61 121.3C112.385 120.994 112.229 120.653 112.135 120.278C112.041 119.903 112.019 119.525 112.072 119.141C112.122 118.756 112.244 118.397 112.432 118.059C112.619 117.722 112.86 117.438 113.157 117.2C113.45 116.963 113.779 116.794 114.138 116.691C114.494 116.588 114.857 116.563 115.225 116.613Z" fill="#2E344D"/>
<path d="M109.425 107.053C109.79 107.103 110.134 107.222 110.453 107.416C110.772 107.609 111.043 107.859 111.265 108.166C111.49 108.472 111.647 108.813 111.74 109.184C111.834 109.559 111.856 109.938 111.803 110.322C111.753 110.706 111.631 111.069 111.443 111.403C111.256 111.741 111.015 112.028 110.718 112.266C110.425 112.503 110.097 112.672 109.737 112.772C109.381 112.875 109.018 112.9 108.65 112.853C108.284 112.803 107.94 112.681 107.622 112.491C107.303 112.297 107.031 112.047 106.809 111.741C106.584 111.434 106.428 111.094 106.334 110.719C106.24 110.347 106.218 109.966 106.272 109.581C106.322 109.197 106.443 108.838 106.631 108.5C106.818 108.166 107.059 107.878 107.356 107.641C107.65 107.403 107.978 107.234 108.337 107.131C108.693 107.031 109.056 107.003 109.425 107.053Z" fill="#2E344D"/>
<path d="M104.084 122.975C104.084 122.975 101.253 120.697 101.037 123.75C100.822 126.803 103.569 128.437 103.569 128.437L104.084 122.975Z" fill="#EFC0C1"/>
<path d="M103.228 123.834C103.228 123.834 100.95 122.891 102.968 126.372L103.228 123.834Z" fill="#E0ADB0"/>
<path d="M116.35 127.159C116.475 127.203 116.553 127.316 116.588 127.497C116.622 127.678 116.6 127.875 116.528 128.087C116.453 128.3 116.344 128.469 116.206 128.587C116.066 128.709 115.935 128.747 115.813 128.703C115.688 128.659 115.61 128.547 115.575 128.366C115.541 128.184 115.56 127.987 115.635 127.775C115.71 127.562 115.816 127.397 115.956 127.275C116.097 127.156 116.228 127.119 116.35 127.159Z" fill="#2E344D"/>
<path d="M110.772 125.912C110.897 125.953 110.975 126.066 111.01 126.247C111.044 126.428 111.022 126.625 110.95 126.837C110.875 127.053 110.766 127.219 110.628 127.337C110.488 127.459 110.356 127.497 110.235 127.453C110.11 127.409 110.031 127.297 109.997 127.116C109.963 126.937 109.981 126.737 110.056 126.525C110.131 126.312 110.238 126.147 110.378 126.025C110.519 125.906 110.65 125.869 110.772 125.912Z" fill="#2E344D"/>
<path d="M115.463 125.556C115.463 125.556 116.966 124.697 118.082 125.469L115.463 125.556Z" fill="#2E344D"/>
<path d="M109.109 123.663C109.237 123.663 111.041 123.578 111.941 124.869L109.109 123.663Z" fill="#2E344D"/>
<path d="M113.231 128.266C113.231 128.266 112.756 129.556 113.272 130.028C113.831 130.503 113.875 131.878 112.328 131.191" stroke="#E0ADB0" stroke-width="0.261425" stroke-miterlimit="10" stroke-linecap="round" stroke-linejoin="round"/>
<path d="M113.832 133.944C113.832 133.944 113.744 134.072 113.572 134.203C113.272 134.459 112.672 134.803 111.813 134.675C110.997 134.503 110.482 133.944 110.225 133.556C110.097 133.341 110.01 133.169 110.01 133.169" fill="white"/>
<path d="M121.687 150.159C121.087 158.978 119.412 167.538 118.769 176.228C117.694 185.519 117.05 193.866 117.009 193.95C117.05 193.694 113.403 196.1 104.859 197.522C96.6999 198.853 83.0905 200.1 79.4843 198.425C79.3561 198.381 80.6874 176.744 80.8155 176.228C84.1218 144.097 83.8218 141.816 88.0718 139.709C90.0905 138.503 91.5499 138.591 93.8686 138.159C95.4561 137.816 100.006 137.384 100.909 137.344C103.097 140.525 107.134 145.987 110.353 146.634C111.984 146.375 112.284 140.441 112.628 139.494C118.297 140.825 122.459 144.053 121.687 150.159Z" fill="#DF5849"/>
<path d="M77.8966 167.537C77.8966 167.537 75.1904 182.853 76.8654 186.466C78.3247 189.65 78.3247 189.003 89.8747 188.831C94.9404 188.747 102.712 188.831 102.712 188.831L103.012 182.378L90.0029 178.122L91.2466 170.637L77.8966 167.537Z" fill="#EFC0C1"/>
<path d="M101.81 182.466C101.81 182.466 104.213 181.434 105.76 180.488C107.347 179.541 109.11 178.638 110.31 178.853C111.513 179.066 118.813 181.563 117.694 183.153C117.694 183.153 119.241 184.272 118.381 185.263C118.381 185.263 118.769 185.822 118.21 186.509C117.653 187.197 114.691 184.659 113.272 184.616C111.856 184.572 109.753 184.703 109.753 184.703C109.753 184.703 112.716 185.822 113.36 186.034C114.003 186.25 115.719 187.325 115.506 187.841C115.291 188.359 112.8 186.938 111.513 186.725C110.225 186.509 108.85 186.122 108.163 186.809C107.478 187.497 106.447 188.875 104.988 188.875C103.528 188.875 102.241 188.616 102.241 188.616L101.81 182.466Z" fill="#EFC0C1"/>
<path d="M117.694 183.153C117.694 183.153 117.609 183.069 117.437 182.937C117.265 182.809 117.05 182.594 116.75 182.422C116.45 182.206 116.106 181.991 115.678 181.734C115.29 181.519 114.819 181.303 114.347 181.131C113.875 180.959 113.403 180.831 112.928 180.744C112.456 180.659 112.028 180.659 111.684 180.616C111.297 180.616 110.997 180.659 110.781 180.659C110.569 180.703 110.44 180.703 110.44 180.703C110.44 180.703 110.569 180.703 110.781 180.703C110.997 180.703 111.297 180.744 111.64 180.787C111.984 180.831 112.415 180.916 112.844 181.003C113.272 181.087 113.744 181.219 114.175 181.391C114.647 181.562 115.075 181.778 115.462 181.95C115.85 182.166 116.234 182.337 116.578 182.509C116.878 182.681 117.181 182.853 117.35 182.937C117.565 183.109 117.694 183.153 117.694 183.153Z" fill="#E0ADB0"/>
<path d="M118.381 185.263C118.381 185.263 118.297 185.175 118.081 185.047C117.909 184.916 117.609 184.703 117.309 184.488C116.965 184.272 116.578 184.013 116.15 183.756C115.719 183.497 115.247 183.241 114.731 183.025C114.219 182.809 113.703 182.681 113.187 182.638C112.672 182.594 112.2 182.594 111.812 182.594C111.428 182.594 111.084 182.638 110.825 182.638C110.612 182.681 110.44 182.681 110.44 182.681C110.44 182.681 110.569 182.681 110.825 182.681C111.04 182.681 111.384 182.722 111.769 182.722C112.156 182.766 112.628 182.809 113.1 182.897C113.572 182.981 114.087 183.109 114.559 183.325C115.034 183.541 115.506 183.756 115.934 183.972C116.362 184.184 116.794 184.4 117.137 184.616C117.481 184.788 117.781 184.959 117.997 185.091C118.253 185.219 118.381 185.263 118.381 185.263Z" fill="#E0ADB0"/>
<path d="M90.0033 178.078H85.3252" stroke="#313131" stroke-width="0.234208" stroke-miterlimit="10"/>
<path d="M88.7154 139.363C88.7154 139.363 82.2748 141.731 80.9029 147.494C79.5279 153.259 76.9092 168.788 76.9092 168.788L91.4623 171.066C91.4623 171.066 94.3811 157 95.0686 149.644C95.7561 142.288 88.7154 139.363 88.7154 139.363Z" fill="#DF5849"/>
<path d="M91.0781 171.841C91.0781 171.841 94.3406 157 95.025 149.644" stroke="#313131" stroke-width="0.234208" stroke-miterlimit="10"/>
<path d="M121.344 153.084C120.872 157.388 120.013 162.334 119.369 171.022" stroke="#313131" stroke-width="0.234208" stroke-miterlimit="10"/>
<path d="M94.9844 195.328C94.9844 195.328 130.147 185.131 137.959 184.831C145.772 184.531 152.169 188.703 147.059 197.434C141.953 206.166 115.591 219.028 115.591 219.028L108.122 213.609L114.819 206.425L94.9844 195.328Z" fill="#2E344D"/>
<path d="M102.068 215.931L110.225 209.909L115.59 218.769L107.262 225.178L102.925 225.05L102.068 215.931Z" fill="#EFC0C1"/>
<path d="M97.3441 217.781C97.3441 217.781 93.7378 219.716 93.7378 220.319C93.6972 221.909 94.1691 222.684 94.3816 224.447C94.5534 226.125 94.7691 227.503 96.0566 229.997C96.9159 231.675 99.3191 236.75 100.91 235.975C101.038 235.934 102.453 235.547 102.453 235.288C102.713 232.45 97.3441 217.781 97.3441 217.781Z" fill="#DF5849"/>
<path d="M102.153 235.459C100.094 234.772 92.8374 222.425 95.9718 218.984C97.7311 217.05 102.409 215.244 102.409 215.244C102.409 215.244 103.397 218.813 106.231 223.372C107.134 224.834 107.862 224.619 107.906 224.75C107.95 225.35 107.347 227.072 107.262 227.331C107.175 227.803 104.212 236.106 102.153 235.459Z" fill="#2E344D"/>
<path d="M106.188 228.794C106.059 228.966 105.803 228.966 105.675 228.794L102.625 225.909C102.453 225.781 102.453 225.525 102.625 225.394C102.753 225.222 103.013 225.222 103.141 225.394L106.188 228.275C106.319 228.406 106.319 228.663 106.188 228.794Z" fill="white"/>
<path d="M105.544 230.169C105.416 230.341 105.16 230.341 105.031 230.169L101.981 227.287C101.81 227.159 101.81 226.9 101.981 226.772C102.11 226.6 102.369 226.6 102.497 226.772L105.544 229.653C105.675 229.781 105.675 230.041 105.544 230.169Z" fill="white"/>
<path d="M104.815 231.675C104.687 231.847 104.428 231.847 104.3 231.675L101.253 228.794C101.081 228.663 101.081 228.406 101.253 228.275C101.381 228.103 101.637 228.103 101.765 228.275L104.815 231.159C104.944 231.288 104.987 231.547 104.815 231.675Z" fill="white"/>
<path d="M106.791 227.503C106.663 227.675 106.404 227.675 106.275 227.503L103.229 224.619C103.057 224.491 103.057 224.234 103.229 224.103C103.357 223.931 103.613 223.931 103.741 224.103L106.791 226.988C106.919 227.116 106.919 227.372 106.791 227.503Z" fill="white"/>
<path d="M114.818 206.469L133.021 188.831" stroke="black" stroke-width="0.466267" stroke-miterlimit="10" stroke-linecap="round" stroke-linejoin="round"/>
<path d="M138.216 218.125L129.716 212.619L124.906 221.825L133.622 227.719L137.959 227.331L138.216 218.125Z" fill="#EFC0C1"/>
<mask id="mask1_82_2369" style="mask-type:luminance" maskUnits="userSpaceOnUse" x="138" y="219" width="10" height="20">
<path d="M138.4 219.6H147.2V238.775H138.4V219.6Z" fill="white"/>
</mask>
<g mask="url(#mask1_82_2369)">
<path d="M143.069 219.716C143.069 219.716 146.759 221.437 146.847 221.997C146.975 223.544 146.547 224.406 146.459 226.169C146.375 227.847 146.244 229.222 145.128 231.803C144.4 233.525 142.294 238.728 140.662 238.084C140.534 238.041 139.119 237.741 139.075 237.481C138.603 234.644 143.069 219.716 143.069 219.716Z" fill="#DF5849"/>
</g>
<path d="M139.375 237.653C141.394 236.838 147.147 224.663 144.529 220.791C143.585 219.372 138.475 217.781 137.832 217.478C137.832 217.478 137.057 221.094 134.525 225.825C133.71 227.331 132.979 227.159 132.979 227.331C132.979 227.931 133.71 229.653 133.754 229.869C133.882 230.341 137.36 238.428 139.375 237.653Z" fill="#2E344D"/>
<path d="M134.91 231.244C135.081 231.375 135.297 231.375 135.425 231.244L138.303 228.191C138.431 228.019 138.431 227.803 138.303 227.675C138.131 227.544 137.916 227.544 137.788 227.675L134.91 230.728C134.781 230.856 134.781 231.116 134.91 231.244Z" fill="white"/>
<path d="M135.641 232.578C135.812 232.706 136.028 232.706 136.156 232.578L139.031 229.525C139.163 229.353 139.163 229.138 139.031 229.006C138.859 228.878 138.647 228.878 138.519 229.006L135.641 232.062C135.469 232.191 135.469 232.45 135.641 232.578Z" fill="white"/>
<path d="M136.456 234.041C136.628 234.169 136.844 234.169 136.972 234.041L139.847 230.988C139.978 230.816 139.978 230.6 139.847 230.469C139.675 230.341 139.462 230.341 139.334 230.469L136.456 233.525C136.284 233.653 136.284 233.913 136.456 234.041Z" fill="white"/>
<path d="M134.225 229.997C134.397 230.125 134.61 230.125 134.741 229.997L137.616 226.944C137.744 226.772 137.744 226.556 137.616 226.428C137.444 226.297 137.229 226.297 137.1 226.428L134.225 229.481C134.094 229.609 134.094 229.869 134.225 229.997Z" fill="white"/>
<path d="M102.409 214.984C102.409 214.984 100.094 217.222 99.9219 217.35C97.775 218.984 95.2407 220.019 92.5782 220.363C88.9313 220.834 85.1532 220.019 81.8469 218.513C79.4 217.394 76.9094 216.059 75.0625 214.038C70.2969 208.963 71.5 200.016 74.6344 194.425C77.0375 190.122 81.5032 186.981 86.5688 188.831C99.1907 193.434 132.378 212.619 132.378 212.619L125.078 225.178L102.409 214.984Z" fill="#2E344D"/>
<path d="M98.8027 194.425C113.487 201.778 132.29 212.663 132.29 212.663" stroke="black" stroke-width="0.466267" stroke-miterlimit="10" stroke-linecap="round" stroke-linejoin="round"/>
<path d="M102.409 214.985L84.5498 207.628" stroke="black" stroke-width="0.466267" stroke-miterlimit="10" stroke-linecap="round" stroke-linejoin="round"/>
<path d="M147.147 191.713H112.028L121.688 163.625H156.806L147.147 191.713Z" fill="#383334"/>
<path d="M148.39 191.713H113.315L122.931 163.625H158.05L148.39 191.713Z" fill="#536EC1"/>
<path d="M137.716 173.937C138.01 174.003 138.275 174.153 138.51 174.381C138.744 174.609 138.931 174.903 139.069 175.259C139.21 175.619 139.288 176.012 139.31 176.444C139.335 176.875 139.294 177.312 139.197 177.75C139.1 178.191 138.95 178.603 138.747 178.984C138.544 179.366 138.303 179.687 138.025 179.95C137.747 180.216 137.453 180.403 137.144 180.509C136.835 180.616 136.531 180.637 136.238 180.572C135.944 180.506 135.678 180.359 135.444 180.128C135.21 179.9 135.022 179.606 134.885 179.25C134.744 178.891 134.666 178.497 134.641 178.066C134.619 177.634 134.656 177.2 134.756 176.759C134.853 176.319 135.003 175.909 135.206 175.528C135.41 175.147 135.65 174.825 135.928 174.559C136.206 174.294 136.5 174.109 136.81 174C137.119 173.894 137.419 173.872 137.716 173.937Z" fill="#231F20"/>
<path d="M97.4316 188.875H148.391V191.713H97.4316V188.875Z" fill="#536EC1"/>
<path d="M221.634 87.4438H168.872C165.437 87.4438 162.688 84.6907 162.688 81.25C162.688 77.8532 165.478 75.0563 168.872 75.0563H221.634C225.069 75.0563 227.816 77.8094 227.816 81.25C227.816 84.6907 225.069 87.4438 221.634 87.4438Z" fill="white" stroke="#313131" stroke-width="0.759923" stroke-miterlimit="10"/>
<path d="M172.132 82.3427H172.307L172.394 82.8302C172.46 82.9146 172.572 82.9896 172.732 83.0552C172.897 83.1146 173.057 83.1427 173.207 83.1427C173.457 83.1427 173.65 83.0802 173.794 82.9552C173.935 82.8239 174.007 82.6427 174.007 82.4177C174.007 82.2927 173.975 82.1896 173.919 82.1052C173.869 82.0239 173.797 81.9521 173.707 81.8927C173.622 81.8364 173.522 81.7864 173.407 81.7427C173.297 81.7021 173.182 81.6646 173.057 81.6302C172.938 81.5896 172.822 81.5427 172.707 81.4927C172.597 81.4427 172.497 81.3802 172.407 81.3052C172.322 81.2239 172.25 81.1271 172.194 81.0177C172.144 80.9021 172.119 80.7614 172.119 80.5927C172.119 80.3114 172.222 80.0896 172.432 79.9302C172.647 79.7646 172.947 79.6802 173.332 79.6802C173.613 79.6802 173.925 79.7177 174.269 79.7927V80.5427H174.094L174.007 80.1052C173.822 79.9739 173.597 79.9052 173.332 79.9052C173.088 79.9052 172.9 79.9552 172.769 80.0552C172.635 80.1489 172.569 80.2802 172.569 80.4552C172.569 80.5739 172.594 80.6677 172.644 80.7427C172.7 80.8177 172.772 80.8864 172.857 80.9427C172.947 80.9927 173.047 81.0396 173.157 81.0802C173.272 81.1239 173.388 81.1646 173.507 81.2052C173.632 81.2489 173.747 81.2927 173.857 81.3427C173.972 81.3927 174.072 81.4614 174.157 81.5427C174.247 81.6271 174.319 81.7271 174.369 81.8427C174.425 81.9614 174.457 82.1021 174.457 82.2677C174.457 82.6177 174.347 82.8896 174.132 83.0802C173.922 83.2646 173.619 83.3552 173.219 83.3552C173.025 83.3552 172.835 83.3364 172.644 83.3052C172.45 83.2739 172.282 83.2271 172.132 83.1677V82.3427Z" fill="black"/>
<path d="M175.481 82.0427V82.0927C175.481 82.3365 175.506 82.5271 175.556 82.6677C175.612 82.8021 175.7 82.9052 175.818 82.9802C175.934 83.049 176.084 83.0802 176.268 83.0802C176.359 83.0802 176.471 83.074 176.606 83.0552C176.737 83.0396 176.846 83.024 176.931 83.0052V83.1552C176.846 83.2052 176.731 83.2521 176.581 83.2927C176.431 83.3333 176.281 83.3552 176.131 83.3552C175.737 83.3552 175.45 83.2521 175.268 83.0427C175.093 82.8365 175.006 82.499 175.006 82.0302C175.006 81.5896 175.096 81.2646 175.281 81.0552C175.462 80.8396 175.725 80.7302 176.068 80.7302C176.709 80.7302 177.031 81.0927 177.031 81.8177V82.0427H175.481ZM176.068 80.9427C175.884 80.9427 175.743 81.0177 175.643 81.1677C175.543 81.3177 175.493 81.5396 175.493 81.8302H176.568C176.568 81.5052 176.525 81.2771 176.443 81.1427C176.359 81.0115 176.234 80.9427 176.068 80.9427Z" fill="black"/>
<path d="M178.454 80.7302C178.729 80.7302 178.929 80.7896 179.054 80.9052C179.186 81.0146 179.254 81.1865 179.254 81.4177V83.1177L179.567 83.1802V83.3052H178.879L178.829 83.0552C178.629 83.2552 178.37 83.3552 178.054 83.3552C177.62 83.3552 177.404 83.1052 177.404 82.6052C177.404 82.4396 177.436 82.3021 177.504 82.1927C177.57 82.0865 177.673 82.0021 177.817 81.9427C177.957 81.8865 178.167 81.8521 178.442 81.8427H178.817V81.4427C178.817 81.2677 178.782 81.1427 178.717 81.0677C178.648 80.9865 178.554 80.9427 178.429 80.9427C178.245 80.9427 178.082 80.9865 177.942 81.0677L177.842 81.3802H177.692V80.8302C177.982 80.7646 178.236 80.7302 178.454 80.7302ZM178.817 82.0302H178.467C178.223 82.0396 178.061 82.0896 177.979 82.1802C177.895 82.2646 177.854 82.4021 177.854 82.5927C177.854 82.9115 177.979 83.0677 178.229 83.0677C178.354 83.0677 178.457 83.0552 178.542 83.0302C178.632 82.999 178.723 82.9615 178.817 82.9177V82.0302Z" fill="black"/>
<path d="M181.415 80.7302V81.4052H181.303L181.14 81.1052C181.047 81.1052 180.94 81.1177 180.815 81.1427C180.697 81.1677 180.597 81.2021 180.515 81.2427V83.1177L180.94 83.1802V83.3052H179.753V83.1802L180.065 83.1177V80.9802L179.753 80.9177V80.7927H180.478L180.503 81.1052C180.609 81.0146 180.756 80.9302 180.94 80.8552C181.122 80.774 181.265 80.7302 181.365 80.7302H181.415Z" fill="black"/>
<path d="M183.721 83.1552C183.627 83.224 183.502 83.274 183.346 83.3052C183.196 83.3365 183.04 83.3552 182.883 83.3552C182.074 83.3552 181.671 82.9146 181.671 82.0302C181.671 81.6146 181.771 81.2927 181.971 81.0677C182.177 80.8427 182.477 80.7302 182.871 80.7302C183.102 80.7302 183.365 80.7552 183.658 80.8052V81.5052H183.508L183.396 81.0677C183.246 80.9865 183.065 80.9427 182.858 80.9427C182.383 80.9427 182.146 81.3052 182.146 82.0302C182.146 82.4052 182.215 82.6771 182.358 82.8427C182.508 83.0021 182.733 83.0802 183.033 83.0802C183.29 83.0802 183.521 83.0521 183.721 82.9927V83.1552Z" fill="black"/>
<path d="M184.757 80.5927C184.757 80.7771 184.747 80.9115 184.732 80.9927C184.857 80.9177 184.997 80.8552 185.157 80.8052C185.322 80.7552 185.463 80.7302 185.582 80.7302C185.797 80.7302 185.96 80.7927 186.069 80.9177C186.175 81.0427 186.232 81.2271 186.232 81.4677V83.1177L186.544 83.1802V83.3052H185.457V83.1802L185.794 83.1177V81.4927C185.794 81.1927 185.647 81.0427 185.357 81.0427C185.188 81.0427 184.988 81.0677 184.757 81.1177V83.1177L185.094 83.1802V83.3052H183.994V83.1802L184.307 83.1177V79.6927L183.932 79.6302V79.5052H184.757V80.5927Z" fill="black"/>
<path d="M188.976 83.0552C188.976 83.149 188.945 83.2271 188.889 83.2927C188.829 83.349 188.754 83.3802 188.664 83.3802C188.57 83.3802 188.492 83.349 188.426 83.2927C188.367 83.2271 188.339 83.149 188.339 83.0552C188.339 82.9646 188.367 82.8896 188.426 82.8302C188.492 82.7646 188.57 82.7302 188.664 82.7302C188.754 82.7302 188.829 82.7646 188.889 82.8302C188.945 82.8896 188.976 82.9646 188.976 83.0552Z" fill="black"/>
<path d="M191.707 83.0552C191.707 83.149 191.676 83.2271 191.619 83.2927C191.56 83.349 191.485 83.3802 191.394 83.3802C191.301 83.3802 191.222 83.349 191.157 83.2927C191.097 83.2271 191.069 83.149 191.069 83.0552C191.069 82.9646 191.097 82.8896 191.157 82.8302C191.222 82.7646 191.301 82.7302 191.394 82.7302C191.485 82.7302 191.56 82.7646 191.619 82.8302C191.676 82.8896 191.707 82.9646 191.707 83.0552Z" fill="black"/>
<path d="M194.436 83.0552C194.436 83.149 194.405 83.2271 194.349 83.2927C194.289 83.349 194.214 83.3802 194.124 83.3802C194.03 83.3802 193.952 83.349 193.886 83.2927C193.827 83.2271 193.799 83.149 193.799 83.0552C193.799 82.9646 193.827 82.8896 193.886 82.8302C193.952 82.7646 194.03 82.7302 194.124 82.7302C194.214 82.7302 194.289 82.7646 194.349 82.8302C194.405 82.8896 194.436 82.9646 194.436 83.0552Z" fill="black"/>
<path d="M223.138 80.8188C223.138 81.0781 223.088 81.325 222.991 81.5625C222.894 81.7969 222.754 82.0063 222.572 82.1875C222.391 82.3719 222.182 82.5094 221.944 82.6094C221.71 82.7063 221.463 82.7563 221.207 82.7563C220.95 82.7563 220.704 82.7063 220.466 82.6094C220.229 82.5094 220.022 82.3719 219.841 82.1875C219.66 82.0063 219.519 81.7969 219.422 81.5625C219.322 81.325 219.275 81.0781 219.275 80.8188C219.275 80.5625 219.322 80.3156 219.422 80.0781C219.519 79.8438 219.66 79.6344 219.841 79.45C220.022 79.2688 220.229 79.1313 220.466 79.0313C220.704 78.9344 220.95 78.8844 221.207 78.8844C221.463 78.8844 221.71 78.9344 221.944 79.0313C222.182 79.1313 222.391 79.2688 222.572 79.45C222.754 79.6344 222.894 79.8438 222.991 80.0781C223.088 80.3156 223.138 80.5625 223.138 80.8188Z" stroke="black" stroke-width="0.504944" stroke-miterlimit="10"/>
<path d="M219.875 82.1969L218.156 83.9188" stroke="black" stroke-width="0.504944" stroke-miterlimit="10"/>
<path d="M85.2809 107.059C85.2809 107.672 85.2215 108.278 85.1027 108.881C84.9809 109.481 84.8059 110.066 84.5715 110.631C84.3371 111.197 84.0496 111.734 83.709 112.247C83.3715 112.756 82.984 113.225 82.5527 113.659C82.1184 114.094 81.6496 114.481 81.1402 114.822C80.6309 115.162 80.0934 115.45 79.5277 115.684C78.9652 115.919 78.3809 116.094 77.7809 116.216C77.1809 116.334 76.5746 116.394 75.9652 116.394C75.3527 116.394 74.7465 116.334 74.1465 116.216C73.5465 116.094 72.9652 115.919 72.3996 115.684C71.834 115.45 71.2965 115.162 70.7871 114.822C70.2809 114.481 69.809 114.094 69.3777 113.659C68.9434 113.225 68.559 112.756 68.2184 112.247C67.8777 111.734 67.5902 111.197 67.3559 110.631C67.1215 110.066 66.9465 109.481 66.8277 108.881C66.7059 108.278 66.6465 107.672 66.6465 107.059C66.6465 106.447 66.7059 105.841 66.8277 105.237C66.9465 104.637 67.1215 104.053 67.3559 103.487C67.5902 102.922 67.8777 102.384 68.2184 101.875C68.559 101.362 68.9434 100.894 69.3777 100.459C69.809 100.025 70.2809 99.6375 70.7871 99.2969C71.2965 98.9594 71.834 98.6687 72.3996 98.4344C72.9652 98.2 73.5465 98.025 74.1465 97.9031C74.7465 97.7844 75.3527 97.725 75.9652 97.725C76.5746 97.725 77.1809 97.7844 77.7809 97.9031C78.3809 98.025 78.9652 98.2 79.5277 98.4344C80.0934 98.6687 80.6309 98.9594 81.1402 99.2969C81.6496 99.6375 82.1184 100.025 82.5527 100.459C82.984 100.894 83.3715 101.362 83.709 101.875C84.0496 102.384 84.3371 102.922 84.5715 103.487C84.8059 104.053 84.9809 104.637 85.1027 105.237C85.2215 105.841 85.2809 106.447 85.2809 107.059Z" fill="#DF5849"/>
<path d="M79.9996 107.059L73.4746 103.275V110.803L79.9996 107.059Z" fill="white"/>
<path d="M160.628 198.897H193.472V200.231H160.628V198.897Z" fill="#E8F0FE"/>
<path d="M160.628 203.5H193.472V204.834H160.628V203.5Z" fill="#E8EBF7"/>
<path d="M160.628 208.103H193.472V209.434H160.628V208.103Z" fill="#E8F0FE"/>
<path d="M160.628 212.706H193.472V214.038H160.628V212.706Z" fill="#E8EBF7"/>
<mask id="mask2_82_2369" style="mask-type:luminance" maskUnits="userSpaceOnUse" x="168" y="155" width="80" height="38">
<path d="M168.8 155.6H247.394V192.4H168.8V155.6Z" fill="white"/>
</mask>
<g mask="url(#mask2_82_2369)">
<mask id="mask3_82_2369" style="mask-type:luminance" maskUnits="userSpaceOnUse" x="-30" y="-28" width="360" height="360">
<path d="M330 -28H-30V332H330V-28Z" fill="black" fill-opacity="0.9"/>
</mask>
<g mask="url(#mask3_82_2369)">
<mask id="mask4_82_2369" style="mask-type:luminance" maskUnits="userSpaceOnUse" x="168" y="155" width="80" height="38">
<path d="M248 155.6H168.8V192.4H248V155.6Z" fill="white"/>
</mask>
<g mask="url(#mask4_82_2369)">
<mask id="mask5_82_2369" style="mask-type:luminance" maskUnits="userSpaceOnUse" x="169" y="156" width="79" height="36">
<path d="M169.153 156.175H247.394V191.6H169.153V156.175Z" fill="white"/>
</mask>
<g mask="url(#mask5_82_2369)">
<path d="M245.935 191.412H170.676C169.901 191.412 169.257 190.769 169.257 189.994V157.819C169.257 157.044 169.901 156.397 170.676 156.397H245.979C246.751 156.397 247.394 157.044 247.394 157.819V189.994C247.351 190.769 246.751 191.412 245.935 191.412Z" fill="#C7CEFD"/>
</g>
<path d="M241.769 187.972H174.838C174.538 187.972 174.281 187.712 174.281 187.412V187.325C174.281 187.025 174.538 186.766 174.838 186.766H241.769C242.072 186.766 242.328 187.025 242.328 187.325V187.412C242.328 187.712 242.072 187.972 241.769 187.972Z" fill="#E8EBF7"/>
<path d="M177.585 180.4L176.9 180.012C178.316 177.475 183.338 173.475 185.829 173.431C188.063 173.387 189.607 174.809 191.11 176.184C192.613 177.562 194.029 178.853 196.004 178.853C198.45 178.853 200.213 176.487 202.057 173.947C204.119 171.194 206.222 168.356 209.441 168.312C212.104 168.269 214.079 170.162 215.969 171.969C217.729 173.647 219.36 175.237 221.463 175.197C224.038 175.109 225.585 172.444 227.216 169.647C228.847 166.85 230.566 163.925 233.485 163.841C235.416 163.753 237.479 164.959 239.625 167.366L239.022 167.884C237.047 165.647 235.16 164.572 233.529 164.612C231.038 164.7 229.535 167.281 227.947 170.034C226.272 172.872 224.554 175.841 221.55 175.969C219.144 176.056 217.3 174.25 215.497 172.528C213.735 170.809 211.891 169 209.529 169.087C206.694 169.131 204.719 171.841 202.788 174.422C200.857 177.003 198.882 179.669 196.047 179.669C193.729 179.669 192.141 178.206 190.594 176.787C189.179 175.497 187.804 174.25 186 174.25C185.957 174.25 185.957 174.25 185.916 174.25C183.682 174.25 178.875 178.078 177.585 180.4Z" fill="#DF5849"/>
<path d="M240.569 167.884C240.569 168.031 240.541 168.175 240.485 168.312C240.426 168.447 240.347 168.569 240.241 168.675C240.138 168.778 240.016 168.859 239.879 168.916C239.744 168.972 239.601 169 239.454 169C239.304 169 239.163 168.972 239.026 168.916C238.888 168.859 238.766 168.778 238.663 168.675C238.56 168.569 238.479 168.447 238.422 168.312C238.363 168.175 238.335 168.031 238.335 167.884C238.335 167.734 238.363 167.591 238.422 167.456C238.479 167.319 238.56 167.197 238.663 167.094C238.766 166.987 238.888 166.906 239.026 166.85C239.163 166.794 239.304 166.766 239.454 166.766C239.601 166.766 239.744 166.794 239.879 166.85C240.016 166.906 240.138 166.987 240.241 167.094C240.347 167.197 240.426 167.319 240.485 167.456C240.541 167.591 240.569 167.734 240.569 167.884Z" fill="#EEBA38"/>
<path d="M178.359 180.184C178.359 180.334 178.331 180.475 178.275 180.612C178.216 180.75 178.137 180.872 178.031 180.975C177.928 181.081 177.806 181.162 177.669 181.219C177.534 181.275 177.391 181.303 177.244 181.303C177.094 181.303 176.953 181.275 176.816 181.219C176.678 181.162 176.556 181.081 176.453 180.975C176.35 180.872 176.269 180.75 176.213 180.612C176.153 180.475 176.125 180.334 176.125 180.184C176.125 180.037 176.153 179.894 176.213 179.756C176.269 179.622 176.35 179.5 176.453 179.394C176.556 179.291 176.678 179.209 176.816 179.153C176.953 179.097 177.094 179.066 177.244 179.066C177.391 179.066 177.534 179.097 177.669 179.153C177.806 179.209 177.928 179.291 178.031 179.394C178.137 179.5 178.216 179.622 178.275 179.756C178.331 179.894 178.359 180.037 178.359 180.184Z" fill="#EEBA38"/>
<path d="M189.734 161.044H174.794C174.581 161.044 174.409 160.872 174.409 160.656C174.409 160.441 174.581 160.269 174.794 160.269H189.734C189.95 160.269 190.122 160.441 190.122 160.656C190.122 160.872 189.95 161.044 189.734 161.044Z" fill="#E8EBF7"/>
<path d="M189.734 164.312H174.794C174.581 164.312 174.409 164.141 174.409 163.925C174.409 163.709 174.581 163.537 174.794 163.537H189.734C189.95 163.537 190.122 163.709 190.122 163.925C190.122 164.097 189.95 164.312 189.734 164.312Z" fill="#E8EBF7"/>
</g>
</g>
</g>
<path d="M140.534 71.3562C140.534 71.3562 143.153 70.2812 141.478 66.2812C141.478 66.2812 143.153 65.4218 143.84 66.8406C144.484 68.2593 144.784 69.6375 144.784 69.6375L148.994 68.0031C149.894 67.6562 150.881 68.0875 151.269 68.9468C152.256 71.1406 153.672 75.0562 152.084 76.2187C149.809 77.8093 147.619 78.325 147.059 78.325C146.503 78.325 144.44 78.8 143.497 79.1437" fill="#E8EBF7"/>
<path d="M143.369 79.4L141.094 80.3031C140.878 80.3906 140.622 80.2625 140.535 80.0468L137.66 72.6031C137.572 72.3906 137.7 72.1312 137.916 72.0437L140.191 71.1406C140.407 71.0562 140.663 71.1843 140.75 71.4L143.625 78.8406C143.669 79.0562 143.585 79.3156 143.369 79.4Z" fill="#2E344D"/>
</g>
<defs>
<radialGradient id="paint0_angular_82_2369" cx="0" cy="0" r="1" gradientUnits="userSpaceOnUse" gradientTransform="translate(145.5 150) rotate(90) scale(150 145.5)">
<stop offset="0.0729167" stop-color="#FBFBFD"/>
<stop offset="0.244792" stop-color="#C8D4DA"/>
<stop offset="0.434957" stop-color="white"/>
<stop offset="0.532623" stop-color="#AEC0CE"/>
<stop offset="0.658692" stop-color="#E3E9EE"/>
<stop offset="0.708863" stop-color="#FAFBFC"/>
<stop offset="0.861413" stop-color="#D6DFE6"/>
<stop offset="0.921875" stop-color="#B8C9D3"/>
</radialGradient>
<clipPath id="clip0_82_2369">
<rect width="300" height="300" rx="8" fill="white"/>
</clipPath>
</defs>
</svg>
