<svg width="150" height="86" viewBox="0 0 150 86" fill="none" xmlns="http://www.w3.org/2000/svg">
<path d="M21.7839 41.1376V57.6431H36.7915V43.4396H40.1416V61.0378H18.4338V39.7287L37.8508 20.13H55.2245V4.53917H36.9399L17.7435 23.5255H0V1.14368H16.2915V4.53917H3.35008V20.13H16.3805L35.5753 1.14368H58.5746V23.5255H39.2344L21.7839 41.1376Z" fill="url(#paint0_linear_24_2105)"/>
<path d="M83.8959 61.0092H62.0359V1.03644H102.634V30.7522H80.6599V21.4132H84.01V27.3574H99.284V4.43115H65.386V57.6145H80.5458V43.7202H83.8959V61.0092Z" fill="url(#paint1_linear_24_2105)"/>
<path d="M145.223 61.0378H108.906V19.8208H112.257V57.6431H143.835L146.586 54.8553V8.30249L144.089 5.77149H109.262V2.37677H145.477L149.937 6.89586V56.2611L145.223 61.0378Z" fill="url(#paint2_linear_24_2105)"/>
<path d="M82.3347 23.7808C83.8844 23.7808 85.1407 22.5078 85.1407 20.9374C85.1407 19.3671 83.8844 18.0941 82.3347 18.0941C80.7851 18.0941 79.5288 19.3671 79.5288 20.9374C79.5288 22.5078 80.7851 23.7808 82.3347 23.7808Z" fill="url(#paint3_linear_24_2105)"/>
<path d="M82.3348 22.2107C83.0288 22.2107 83.5913 21.6406 83.5913 20.9375C83.5913 20.2343 83.0288 19.6642 82.3348 19.6642C81.6409 19.6642 81.0784 20.2343 81.0784 20.9375C81.0784 21.6406 81.6409 22.2107 82.3348 22.2107Z" fill="white"/>
<path d="M82.3347 46.6793C83.8844 46.6793 85.1407 45.4063 85.1407 43.8359C85.1407 42.2656 83.8844 40.9926 82.3347 40.9926C80.7851 40.9926 79.5288 42.2656 79.5288 43.8359C79.5288 45.4063 80.7851 46.6793 82.3347 46.6793Z" fill="url(#paint4_linear_24_2105)"/>
<path d="M82.3348 45.1092C83.0288 45.1092 83.5913 44.5391 83.5913 43.836C83.5913 43.1328 83.0288 42.5627 82.3348 42.5627C81.6409 42.5627 81.0784 43.1328 81.0784 43.836C81.0784 44.5391 81.6409 45.1092 82.3348 45.1092Z" fill="white"/>
<path d="M38.4597 46.6793C40.0094 46.6793 41.2657 45.4063 41.2657 43.8359C41.2657 42.2656 40.0094 40.9926 38.4597 40.9926C36.9101 40.9926 35.6538 42.2656 35.6538 43.8359C35.6538 45.4063 36.9101 46.6793 38.4597 46.6793Z" fill="url(#paint5_linear_24_2105)"/>
<path d="M38.4598 45.1092C39.1538 45.1092 39.7163 44.5391 39.7163 43.836C39.7163 43.1328 39.1538 42.5627 38.4598 42.5627C37.7659 42.5627 37.2034 43.1328 37.2034 43.836C37.2034 44.5391 37.7659 45.1092 38.4598 45.1092Z" fill="white"/>
<path d="M16.1719 5.68665C17.7216 5.68665 18.9778 4.41365 18.9778 2.84332C18.9778 1.273 17.7216 0 16.1719 0C14.6222 0 13.366 1.273 13.366 2.84332C13.366 4.41365 14.6222 5.68665 16.1719 5.68665Z" fill="#2AC0F0"/>
<path d="M16.172 4.11655C16.8659 4.11655 17.4285 3.54651 17.4285 2.84334C17.4285 2.14016 16.8659 1.57013 16.172 1.57013C15.4781 1.57013 14.9155 2.14016 14.9155 2.84334C14.9155 3.54651 15.4781 4.11655 16.172 4.11655Z" fill="white"/>
<path d="M110.62 23.7808C112.17 23.7808 113.426 22.5078 113.426 20.9374C113.426 19.3671 112.17 18.0941 110.62 18.0941C109.07 18.0941 107.814 19.3671 107.814 20.9374C107.814 22.5078 109.07 23.7808 110.62 23.7808Z" fill="url(#paint6_linear_24_2105)"/>
<path d="M110.62 22.2107C111.314 22.2107 111.877 21.6406 111.877 20.9375C111.877 20.2343 111.314 19.6642 110.62 19.6642C109.926 19.6642 109.364 20.2343 109.364 20.9375C109.364 21.6406 109.926 22.2107 110.62 22.2107Z" fill="white"/>
<path d="M110.62 6.83033C112.17 6.83033 113.426 5.55733 113.426 3.987C113.426 2.41668 112.17 1.14368 110.62 1.14368C109.07 1.14368 107.814 2.41668 107.814 3.987C107.814 5.55733 109.07 6.83033 110.62 6.83033Z" fill="url(#paint7_linear_24_2105)"/>
<path d="M110.62 5.26023C111.314 5.26023 111.877 4.69019 111.877 3.98702C111.877 3.28384 111.314 2.71381 110.62 2.71381C109.926 2.71381 109.364 3.28384 109.364 3.98702C109.364 4.69019 109.926 5.26023 110.62 5.26023Z" fill="white"/>
<path d="M5.5 83.0378V69.0458H0.088V67.6378H12.54V69.0458H7.128V83.0378H5.5ZM15.4928 74.5238H23.6328V75.9098H15.4928V74.5238ZM15.6688 81.6298H24.9308V83.0378H14.0408V67.6378H24.6008V69.0458H15.6688V81.6298ZM34.3026 83.1698C33.144 83.1698 32.0733 82.9791 31.0906 82.5978C30.108 82.2018 29.2573 81.6518 28.5386 80.9478C27.82 80.2438 27.2553 79.4151 26.8446 78.4618C26.4486 77.5084 26.2506 76.4671 26.2506 75.3378C26.2506 74.2084 26.4486 73.1671 26.8446 72.2138C27.2553 71.2604 27.82 70.4318 28.5386 69.7278C29.272 69.0238 30.13 68.4811 31.1126 68.0998C32.0953 67.7038 33.166 67.5058 34.3246 67.5058C35.4393 67.5058 36.488 67.6964 37.4706 68.0778C38.4533 68.4444 39.282 69.0018 39.9566 69.7498L38.9226 70.7838C38.292 70.1384 37.5953 69.6764 36.8326 69.3978C36.07 69.1044 35.2486 68.9578 34.3686 68.9578C33.4446 68.9578 32.5866 69.1191 31.7946 69.4418C31.0026 69.7498 30.3133 70.1971 29.7266 70.7838C29.14 71.3558 28.678 72.0304 28.3406 72.8078C28.018 73.5704 27.8566 74.4138 27.8566 75.3378C27.8566 76.2618 28.018 77.1124 28.3406 77.8898C28.678 78.6524 29.14 79.3271 29.7266 79.9138C30.3133 80.4858 31.0026 80.9331 31.7946 81.2558C32.5866 81.5638 33.4446 81.7178 34.3686 81.7178C35.2486 81.7178 36.07 81.5711 36.8326 81.2778C37.5953 80.9844 38.292 80.5151 38.9226 79.8698L39.9566 80.9038C39.282 81.6518 38.4533 82.2164 37.4706 82.5978C36.488 82.9791 35.432 83.1698 34.3026 83.1698ZM53.5911 67.6378H55.1971V83.0378H53.5911V67.6378ZM43.9551 83.0378H42.3271V67.6378H43.9551V83.0378ZM53.7451 75.9318H43.7791V74.5018H53.7451V75.9318ZM59.1236 83.0378V67.6378H64.8876C66.193 67.6378 67.315 67.8504 68.2536 68.2758C69.1923 68.6864 69.911 69.2878 70.4096 70.0798C70.923 70.8571 71.1796 71.8031 71.1796 72.9178C71.1796 74.0031 70.923 74.9418 70.4096 75.7338C69.911 76.5111 69.1923 77.1124 68.2536 77.5378C67.315 77.9631 66.193 78.1758 64.8876 78.1758H60.0256L60.7516 77.4058V83.0378H59.1236ZM60.7516 77.5378L60.0256 76.7458H64.8436C66.3836 76.7458 67.5496 76.4158 68.3416 75.7558C69.1483 75.0811 69.5516 74.1351 69.5516 72.9178C69.5516 71.6858 69.1483 70.7324 68.3416 70.0578C67.5496 69.3831 66.3836 69.0458 64.8436 69.0458H60.0256L60.7516 68.2758V77.5378ZM73.5998 83.0378V67.6378H79.3638C80.6691 67.6378 81.7911 67.8504 82.7298 68.2758C83.6685 68.6864 84.3871 69.2878 84.8858 70.0798C85.3991 70.8571 85.6558 71.8031 85.6558 72.9178C85.6558 74.0031 85.3991 74.9418 84.8858 75.7338C84.3871 76.5111 83.6685 77.1124 82.7298 77.5378C81.7911 77.9484 80.6691 78.1538 79.3638 78.1538H74.5018L75.2278 77.4058V83.0378H73.5998ZM84.1158 83.0378L80.1558 77.4498H81.9158L85.8978 83.0378H84.1158ZM75.2278 77.5378L74.5018 76.7678H79.3198C80.8598 76.7678 82.0258 76.4304 82.8178 75.7558C83.6245 75.0811 84.0278 74.1351 84.0278 72.9178C84.0278 71.6858 83.6245 70.7324 82.8178 70.0578C82.0258 69.3831 80.8598 69.0458 79.3198 69.0458H74.5018L75.2278 68.2758V77.5378ZM95.1302 83.1698C93.9716 83.1698 92.8936 82.9791 91.8962 82.5978C90.9136 82.2018 90.0556 81.6518 89.3222 80.9478C88.6036 80.2291 88.0389 79.4004 87.6282 78.4618C87.2322 77.5084 87.0342 76.4671 87.0342 75.3378C87.0342 74.2084 87.2322 73.1744 87.6282 72.2358C88.0389 71.2824 88.6036 70.4538 89.3222 69.7498C90.0556 69.0311 90.9136 68.4811 91.8962 68.0998C92.8789 67.7038 93.9569 67.5058 95.1302 67.5058C96.2889 67.5058 97.3596 67.7038 98.3422 68.0998C99.3249 68.4811 100.176 69.0238 100.894 69.7278C101.628 70.4318 102.192 71.2604 102.588 72.2138C102.999 73.1671 103.204 74.2084 103.204 75.3378C103.204 76.4671 102.999 77.5084 102.588 78.4618C102.192 79.4151 101.628 80.2438 100.894 80.9478C100.176 81.6518 99.3249 82.2018 98.3422 82.5978C97.3596 82.9791 96.2889 83.1698 95.1302 83.1698ZM95.1302 81.7178C96.0542 81.7178 96.9049 81.5638 97.6822 81.2558C98.4742 80.9331 99.1562 80.4858 99.7282 79.9138C100.315 79.3271 100.77 78.6524 101.092 77.8898C101.415 77.1124 101.576 76.2618 101.576 75.3378C101.576 74.4138 101.415 73.5704 101.092 72.8078C100.77 72.0304 100.315 71.3558 99.7282 70.7838C99.1562 70.1971 98.4742 69.7498 97.6822 69.4418C96.9049 69.1191 96.0542 68.9578 95.1302 68.9578C94.2062 68.9578 93.3482 69.1191 92.5562 69.4418C91.7642 69.7498 91.0749 70.1971 90.4882 70.7838C89.9162 71.3558 89.4616 72.0304 89.1242 72.8078C88.8016 73.5704 88.6402 74.4138 88.6402 75.3378C88.6402 76.2471 88.8016 77.0904 89.1242 77.8678C89.4616 78.6451 89.9162 79.3271 90.4882 79.9138C91.0749 80.4858 91.7642 80.9331 92.5562 81.2558C93.3482 81.5638 94.2062 81.7178 95.1302 81.7178ZM105.753 83.0378V67.6378H112.023C113.666 67.6378 115.103 67.9678 116.335 68.6278C117.582 69.2731 118.55 70.1751 119.239 71.3338C119.929 72.4924 120.273 73.8271 120.273 75.3378C120.273 76.8484 119.929 78.1831 119.239 79.3418C118.55 80.5004 117.582 81.4098 116.335 82.0698C115.103 82.7151 113.666 83.0378 112.023 83.0378H105.753ZM107.381 81.6298H111.935C113.299 81.6298 114.48 81.3658 115.477 80.8378C116.489 80.2951 117.274 79.5544 117.831 78.6158C118.389 77.6624 118.667 76.5698 118.667 75.3378C118.667 74.0911 118.389 72.9984 117.831 72.0598C117.274 71.1211 116.489 70.3878 115.477 69.8598C114.48 69.3171 113.299 69.0458 111.935 69.0458H107.381V81.6298ZM124.281 74.5238H132.421V75.9098H124.281V74.5238ZM124.457 81.6298H133.719V83.0378H122.829V67.6378H133.389V69.0458H124.457V81.6298ZM140.609 83.0378L133.789 67.6378H135.549L141.929 82.1358H140.961L147.385 67.6378H149.035L142.215 83.0378H140.609Z" fill="#2AC0F0"/>
<defs>
<linearGradient id="paint0_linear_24_2105" x1="29.2874" y1="61.0376" x2="29.2874" y2="1.14399" gradientUnits="userSpaceOnUse">
<stop stop-color="#2AC0F0"/>
<stop offset="1" stop-color="#2966AC"/>
</linearGradient>
<linearGradient id="paint1_linear_24_2105" x1="62.0358" y1="31.0228" x2="102.634" y2="31.0228" gradientUnits="userSpaceOnUse">
<stop stop-color="#2AC0F0"/>
<stop offset="0.1966" stop-color="#2AA8DE"/>
<stop offset="0.5405" stop-color="#2A84C4"/>
<stop offset="0.8206" stop-color="#2A6EB3"/>
<stop offset="1" stop-color="#2A66AD"/>
</linearGradient>
<linearGradient id="paint2_linear_24_2105" x1="108.907" y1="31.7073" x2="149.937" y2="31.7073" gradientUnits="userSpaceOnUse">
<stop stop-color="#2AC0F0"/>
<stop offset="0.4658" stop-color="#2A94CF"/>
<stop offset="1" stop-color="#2A66AD"/>
</linearGradient>
<linearGradient id="paint3_linear_24_2105" x1="79.529" y1="20.9372" x2="85.1403" y2="20.9372" gradientUnits="userSpaceOnUse">
<stop stop-color="#2AC0F0"/>
<stop offset="0.4658" stop-color="#2A94CF"/>
<stop offset="1" stop-color="#2A66AD"/>
</linearGradient>
<linearGradient id="paint4_linear_24_2105" x1="79.529" y1="43.8359" x2="85.1403" y2="43.8359" gradientUnits="userSpaceOnUse">
<stop stop-color="#2AC0F0"/>
<stop offset="0.4658" stop-color="#2A94CF"/>
<stop offset="1" stop-color="#2A66AD"/>
</linearGradient>
<linearGradient id="paint5_linear_24_2105" x1="35.6543" y1="43.8359" x2="41.2656" y2="43.8359" gradientUnits="userSpaceOnUse">
<stop stop-color="#2AC0F0"/>
<stop offset="0.4658" stop-color="#2A94CF"/>
<stop offset="1" stop-color="#2A66AD"/>
</linearGradient>
<linearGradient id="paint6_linear_24_2105" x1="107.814" y1="20.9372" x2="113.425" y2="20.9372" gradientUnits="userSpaceOnUse">
<stop stop-color="#2AC0F0"/>
<stop offset="0.4658" stop-color="#2A94CF"/>
<stop offset="1" stop-color="#2A66AD"/>
</linearGradient>
<linearGradient id="paint7_linear_24_2105" x1="107.814" y1="3.98703" x2="113.425" y2="3.98703" gradientUnits="userSpaceOnUse">
<stop stop-color="#2AC0F0"/>
<stop offset="0.4658" stop-color="#2A94CF"/>
<stop offset="1" stop-color="#2A66AD"/>
</linearGradient>
</defs>
</svg>
